# Blender 4.4.3
# www.blender.org
mtllib 3.mtl
o Magnum_Survival_Knife
v -0.058838 0.000002 -0.013044
v -0.060405 0.012239 -0.002744
v -0.061198 0.010151 0.007735
v -0.059113 -0.004327 0.013526
v -0.060415 -0.012247 0.002763
v -0.062016 -0.010925 -0.006383
v 0.055113 0.000003 -0.009663
v 0.060883 0.014752 -0.001856
v 0.060352 0.012223 0.006275
v 0.055349 -0.004580 0.010367
v 0.061644 -0.015174 0.002003
v 0.063725 -0.016384 -0.003961
v -0.036523 0.006446 -0.011162
v -0.036602 -0.011142 0.006434
v -0.036211 0.007497 0.010881
v -0.033041 0.014175 -0.000000
v -0.034981 -0.010652 -0.008912
v -0.025767 -0.001640 -0.013589
v -0.023559 0.013015 -0.005317
v -0.023606 -0.013777 0.000451
v -0.025757 -0.001390 0.013681
v -0.023298 0.012500 0.007216
v -0.012009 0.006444 -0.011160
v -0.012318 -0.011096 0.006625
v -0.011709 0.007378 0.010912
v -0.009296 0.014160 -0.000000
v -0.011337 -0.010530 -0.009084
v 0.009383 0.006460 -0.011188
v 0.009383 -0.011187 0.006459
v 0.009589 0.007404 0.010936
v 0.011423 0.014197 -0.000000
v 0.010296 -0.010588 -0.009030
v 0.036117 0.006438 -0.011150
v 0.036191 -0.011131 0.006427
v 0.035805 0.007422 0.010885
v 0.033213 0.014175 -0.000000
v 0.034788 -0.010482 -0.009102
v -0.005258 0.012696 -0.007330
v -0.005258 -0.014659 -0.000000
v -0.005750 -0.003727 0.013913
v -0.005258 0.012696 0.007330
v -0.005750 -0.003727 -0.013913
v 0.023733 0.011378 -0.006568
v 0.023733 -0.013136 -0.000000
v 0.024199 -0.001143 0.013618
v 0.017039 -0.006257 0.012613
v 0.022579 0.012572 0.007258
v 0.024170 -0.004099 -0.013709
v 0.017039 -0.000886 -0.014052
v -0.065074 0.000001 0.000000
v 0.054082 0.000001 0.000000
v 0.263992 0.000001 0.004614
v 0.254338 0.000001 0.009027
v 0.275542 0.000001 0.009131
v 0.098228 -0.000062 0.015730
v 0.093807 -0.000030 -0.012283
v 0.244515 0.000001 -0.006394
v 0.237585 0.000001 0.008637
v 0.219088 -0.000026 0.012679
v 0.225435 0.000001 -0.011238
v 0.206626 0.000001 -0.011774
v 0.206723 -0.000111 0.014418
v 0.095322 0.000010 -0.000485
v 0.225228 0.000001 -0.000951
v 0.205358 0.000052 -0.000477
v 0.077255 -0.000391 -0.001654
v 0.076795 -0.000066 0.017441
v 0.075713 -0.000102 -0.020225
v 0.177395 -0.000041 0.015710
v 0.178666 -0.000002 -0.006782
v 0.145620 -0.000010 -0.006560
v 0.120345 -0.000007 -0.006544
v 0.166633 -0.000063 0.013376
v 0.139224 -0.000058 0.015403
v 0.120141 -0.000048 0.015832
v 0.106584 -0.000044 0.002885
v 0.156328 -0.000015 0.016240
v 0.109187 0.000044 0.016650
v 0.108157 0.000039 -0.014982
v 0.133089 0.000008 -0.015549
v 0.162486 0.000001 -0.012782
v 0.160212 0.000093 -0.001153
v 0.129962 0.000083 0.017105
v 0.192426 0.000001 -0.013318
v 0.193214 0.000030 -0.000998
v 0.193811 0.000069 0.010215
v 0.249105 0.000001 0.001733
v 0.068391 0.016781 0.009207
v 0.068293 0.017268 -0.001068
v 0.069825 0.012809 0.032416
v 0.069725 -0.001323 0.031018
v 0.067832 0.000650 0.022934
v 0.068641 0.015847 -0.018707
v 0.069825 0.012809 -0.032417
v 0.069305 -0.001420 -0.032209
v 0.066145 -0.000498 -0.023197
v 0.068507 -0.016792 0.009735
v 0.068636 -0.016848 -0.001139
v 0.069361 -0.015219 0.032236
v 0.072814 -0.007098 0.022662
v 0.068551 -0.016402 -0.018772
v 0.069295 -0.015335 -0.032380
vn 0.0897 -0.1216 -0.9885
vn 0.0869 0.4461 -0.8908
vn 0.0453 -0.7368 -0.6746
vn 0.0388 0.8189 0.5726
vn 0.1612 0.4326 0.8870
vn 0.1050 0.9941 -0.0270
vn 0.1046 -0.1641 0.9809
vn 0.1278 -0.7974 0.5897
vn 0.0551 -0.9958 0.0726
vn 0.0374 0.8806 -0.4724
vn 0.0424 0.9977 -0.0538
vn -0.0440 0.6178 -0.7851
vn 0.0036 0.8158 -0.5783
vn -0.0629 -0.9350 -0.3490
vn -0.0369 -0.9314 0.3621
vn 0.0194 -0.9987 0.0474
vn 0.0049 0.8504 0.5260
vn 0.0499 0.6576 0.7517
vn 0.3089 0.6073 -0.7319
vn -0.2945 -0.2698 -0.9168
vn -0.1289 -0.3837 -0.9144
vn -0.3266 -0.2455 -0.9127
vn 0.5871 -0.8050 -0.0855
vn -0.3661 -0.0859 0.9266
vn -0.1619 0.0328 0.9863
vn -0.3714 -0.0891 0.9242
vn -0.1999 0.8600 0.4695
vn -0.2225 -0.9734 -0.0546
vn -0.1888 0.8339 -0.5185
vn -0.0953 0.9489 -0.3008
vn 0.0280 0.4659 -0.8844
vn -0.0629 0.0369 -0.9973
vn 0.0045 -0.2739 0.9617
vn 0.0854 0.4776 0.8744
vn -0.0746 0.7710 0.6325
vn -0.0044 0.9995 -0.0309
vn -0.0109 -0.8604 -0.5095
vn 0.0415 -0.7569 -0.6522
vn 0.1061 -0.8407 0.5310
vn 0.0199 -0.9856 0.1678
vn -0.1550 0.9877 -0.0187
vn -0.1009 0.7942 -0.5993
vn -0.1353 0.5168 -0.8454
vn -0.0909 -0.8946 -0.4376
vn -0.0914 -0.9944 0.0531
vn -0.1695 -0.8854 0.4327
vn 0.1021 -0.2663 0.9585
vn 0.1942 -0.8407 0.5055
vn 0.1649 0.4927 0.8544
vn -0.1304 0.5391 0.8321
vn -0.0927 0.8130 0.5748
vn 0.0628 -0.1797 -0.9817
vn 0.1355 0.4856 -0.8636
vn 0.1787 -0.7132 -0.6778
vn -0.0069 0.4200 0.9075
vn 0.1433 -0.7452 0.6513
vn 0.0608 0.4196 -0.9057
vn -0.0180 -0.8345 -0.5507
vn -0.0614 0.6765 0.7339
vn -0.0523 0.9971 -0.0553
vn 0.0276 -0.9506 -0.3092
vn -0.0104 -0.9635 0.2674
vn 0.0202 0.6527 -0.7574
vn -0.5368 -0.1919 0.8216
vn -0.4587 -0.1357 -0.8782
vn -0.6539 -0.1505 0.7415
vn -0.5595 -0.1224 -0.8197
vn -0.4110 -0.2034 0.8887
vn -0.3249 -0.1522 -0.9334
vn 0.0624 0.9610 -0.2695
vn 0.1424 0.0319 -0.9893
vn 0.0388 0.4027 -0.9145
vn 0.0430 -0.2624 0.9640
vn 0.0473 0.7509 0.6587
vn -0.0383 0.4242 0.9047
vn -0.0627 0.9977 -0.0249
vn -0.0590 -0.6803 -0.7306
vn -0.0657 -0.9117 -0.4057
vn -0.1469 -0.7781 0.6107
vn -0.0823 -0.9248 0.3714
vn 0.1806 0.4386 -0.8803
vn 0.2881 -0.7681 0.5718
vn 0.1120 0.9936 -0.0165
vn 0.1010 0.4051 0.9087
vn 0.1739 -0.7046 0.6880
vn 0.3422 -0.6841 -0.6441
vn 0.1421 0.9891 0.0378
vn 0.1553 0.4677 -0.8701
vn 0.3228 -0.1387 -0.9362
vn 0.3682 -0.2100 0.9057
vn -0.8956 0.3904 0.2132
vn -0.9797 -0.2007 -0.0027
vn -0.9933 -0.1107 0.0321
vn -0.9271 -0.3684 -0.0696
vn -0.9105 0.0337 0.4120
vn -0.9221 0.2959 -0.2493
vn 0.9084 -0.4067 0.0968
vn 0.9097 -0.3742 -0.1801
vn 0.8861 0.4539 0.0934
vn 0.8402 0.5078 0.1902
vn -0.0000 -1.0000 -0.0000
vn 0.0003 -1.0000 -0.0004
vn -0.0004 -1.0000 -0.0005
vn -0.0006 -1.0000 0.0032
vn -0.0012 -1.0000 -0.0005
vn -0.0017 -0.9999 -0.0108
vn 0.0008 -1.0000 -0.0051
vn 0.0027 -1.0000 -0.0005
vn 0.0004 -1.0000 -0.0045
vn 0.0009 -1.0000 -0.0018
vn -0.0008 1.0000 0.0026
vn -0.0000 -1.0000 -0.0027
vn -0.0001 -1.0000 -0.0018
vn -0.0093 -1.0000 0.0009
vn -0.0103 -0.9999 -0.0062
vn -0.0046 -1.0000 0.0070
vn -0.0020 -1.0000 0.0007
vn -0.0002 -1.0000 -0.0006
vn 0.0040 -1.0000 0.0011
vn -0.0037 -1.0000 -0.0038
vn -0.0003 -1.0000 -0.0007
vn -0.0061 -1.0000 0.0042
vn 0.0005 -1.0000 -0.0013
vn -0.0004 -1.0000 0.0064
vn -0.0006 -1.0000 -0.0047
vn 0.0040 -1.0000 -0.0043
vn 0.0030 -1.0000 0.0006
vn 0.0043 -1.0000 0.0004
vn 0.0041 -1.0000 -0.0015
vn 0.0023 -1.0000 -0.0016
vn 0.0015 -0.9958 0.0911
vn -0.0037 -0.9995 -0.0312
vn 0.0222 -0.9998 0.0005
vn 0.0153 -0.9998 -0.0102
vn 0.0171 -0.9998 -0.0074
vn 0.0005 -1.0000 0.0034
vn -0.0003 -1.0000 0.0024
vn 0.0013 -1.0000 0.0023
vn 0.0011 -1.0000 0.0030
vn 0.0017 -1.0000 0.0023
vn -0.0051 -1.0000 -0.0039
vn 0.0077 -1.0000 0.0030
vn 0.0016 -1.0000 0.0033
vn 0.0112 -0.9998 -0.0165
vn 0.0016 -0.9999 0.0170
vn 0.0103 -0.9999 0.0065
vn 0.0117 -0.9999 0.0048
vn 0.0228 -0.9997 -0.0086
vn -0.0006 1.0000 0.0015
vn -0.0104 0.9999 -0.0064
vn -0.8758 0.2403 -0.4187
vn -0.9022 -0.0005 -0.4313
vn -0.9368 -0.3301 0.1162
vn -0.9343 0.3565 0.0003
vn -0.9091 -0.2753 0.3125
vn -0.8029 0.3347 0.4932
vn -0.4865 0.3408 0.8045
vn -0.6808 -0.2067 0.7027
vn -0.9417 0.0348 0.3346
vn -0.9095 0.3593 0.2091
vn -0.9079 0.3973 0.1333
vn -0.9021 0.4252 0.0733
vn 0.8966 0.4426 -0.0140
vn 0.9221 0.3743 0.0983
vn 0.9348 0.3202 0.1536
vn 0.8968 0.4422 -0.0152
vn 0.9427 0.1968 0.2696
vn -0.5052 0.8618 0.0457
vn -0.3351 0.9056 0.2598
vn 0.9744 0.0153 -0.2244
vn -0.9918 0.1012 0.0786
vn 0.1932 0.9627 0.1897
vn -0.8432 0.4246 -0.3297
vn -0.8645 0.0270 -0.5018
vn -0.6078 0.7599 -0.2305
vn -0.9253 -0.0244 -0.3785
vn -0.3125 0.9463 -0.0824
vn 0.9063 0.4215 -0.0298
vn 0.9374 0.3115 -0.1560
vn 0.9492 0.2281 -0.2169
vn -0.9713 0.1315 -0.1980
vn -0.9423 0.0296 -0.3335
vn 0.8829 -0.0391 -0.4678
vn -0.7408 -0.4762 0.4737
vn -0.5250 -0.5970 0.6066
vn -0.8861 -0.4539 -0.0937
vn -0.8862 -0.4539 -0.0931
vn -0.8863 -0.4538 -0.0921
vn -0.9070 0.3328 0.2580
vn 0.5907 0.3543 0.7250
vn -0.0582 0.7185 0.6931
vn 0.9175 -0.2472 0.3116
vn 0.8944 -0.4472 -0.0118
vn 0.8865 -0.4618 -0.0291
vn 0.8916 -0.4526 0.0138
vn 0.9524 -0.1243 0.2785
vn -0.2318 -0.9728 0.0022
vn -0.9966 -0.0709 0.0428
vn -0.9700 0.0463 0.2385
vn -0.8669 -0.4094 -0.2842
vn -0.4640 -0.8519 -0.2430
vn -0.0799 -0.9965 -0.0248
vn -0.8860 -0.4540 -0.0946
vn 0.9155 -0.4023 0.0005
vn 0.9498 -0.2458 -0.1935
vn 0.9333 -0.3293 -0.1434
vn -0.1714 -0.9755 0.1380
vn -0.9435 0.0047 -0.3313
vn -0.9811 -0.1098 -0.1592
vn -0.0086 0.9945 -0.1047
vn 0.8816 0.0052 -0.4720
vt 0.974559 0.172552
vt 0.974461 0.176754
vt 0.959603 0.174580
vt 0.736303 0.172300
vt 0.736307 0.176518
vt 0.721421 0.174438
vt 0.818191 0.172205
vt 0.825635 0.176429
vt 0.810746 0.176416
vt 0.929834 0.174516
vt 0.914949 0.176594
vt 0.914957 0.172378
vt 0.706542 0.176593
vt 0.706534 0.172377
vt 0.706702 0.362648
vt 0.691832 0.364829
vt 0.691805 0.360618
vt 0.914787 0.362650
vt 0.899901 0.364674
vt 0.899918 0.360467
vt 0.751311 0.360360
vt 0.751323 0.364566
vt 0.736451 0.362518
vt 0.988987 0.309225
vt 0.974331 0.310968
vt 0.974264 0.307871
vt 0.959489 0.309400
vt 0.840501 0.309009
vt 0.825622 0.310541
vt 0.825623 0.307461
vt 0.810745 0.308991
vt 0.736223 0.123884
vt 0.751120 0.123213
vt 0.751123 0.124480
vt 0.900160 0.124571
vt 0.900163 0.123304
vt 0.915048 0.123998
vt 0.691566 0.124708
vt 0.691565 0.123441
vt 0.706444 0.123997
vt 0.676088 0.060155
vt 0.661208 0.066268
vt 0.660978 0.054359
vt 0.795788 0.059762
vt 0.780840 0.065742
vt 0.780818 0.053798
vt 0.721064 0.070395
vt 0.706165 0.074995
vt 0.706083 0.065929
vt 0.922884 0.065969
vt 0.930251 0.075064
vt 0.915328 0.074996
vt 0.915465 0.059956
vt 0.900460 0.065865
vt 0.900545 0.053922
vt 0.818223 0.065733
vt 0.825692 0.074800
vt 0.810746 0.074790
vt 0.735983 0.065820
vt 0.736030 0.074888
vt 0.735951 0.059845
vt 0.721032 0.065864
vt 0.720948 0.053920
vt 0.960515 0.054361
vt 0.960285 0.066270
vt 0.945405 0.060157
vt 0.855623 0.059789
vt 0.840654 0.065742
vt 0.840675 0.053798
vt 0.975290 0.066499
vt 0.975020 0.075522
vt 0.960184 0.070785
vt 0.676737 0.167927
vt 0.661861 0.172477
vt 0.661772 0.163450
vt 0.736297 0.167768
vt 0.721418 0.172331
vt 0.721405 0.163273
vt 0.780961 0.163154
vt 0.780965 0.172216
vt 0.766073 0.167708
vt 0.706556 0.221925
vt 0.691669 0.224083
vt 0.691678 0.219871
vt 0.914935 0.221927
vt 0.900052 0.224000
vt 0.900052 0.219786
vt 0.825630 0.244868
vt 0.825628 0.256805
vt 0.810745 0.250831
vt 0.751206 0.219717
vt 0.751206 0.223931
vt 0.736322 0.221848
vt 0.974743 0.245150
vt 0.974677 0.257099
vt 0.959705 0.251087
vt 0.766157 0.351287
vt 0.766174 0.360332
vt 0.751300 0.355840
vt 0.855332 0.351288
vt 0.855315 0.360333
vt 0.840462 0.355781
vt 0.646908 0.351850
vt 0.647070 0.360937
vt 0.631946 0.356631
vt 0.959536 0.356273
vt 0.944576 0.360715
vt 0.944649 0.351653
vt 0.751233 0.314224
vt 0.751237 0.318433
vt 0.736355 0.316363
vt 0.736444 0.360413
vt 0.736416 0.351368
vt 0.914901 0.316475
vt 0.900015 0.318528
vt 0.900019 0.314318
vt 0.706588 0.316474
vt 0.691703 0.318655
vt 0.691706 0.314442
vt 0.825625 0.292113
vt 0.825624 0.300841
vt 0.810745 0.296471
vt 0.974119 0.292466
vt 0.974156 0.301223
vt 0.959411 0.296821
vt 0.825632 0.198045
vt 0.825631 0.206579
vt 0.810746 0.202307
vt 0.974138 0.198338
vt 0.974186 0.206864
vt 0.959434 0.202590
vt 0.825669 0.102484
vt 0.825662 0.111857
vt 0.810746 0.107165
vt 0.974325 0.103081
vt 0.974318 0.112411
vt 0.959601 0.107653
vt 0.677487 0.427874
vt 0.662654 0.433878
vt 0.662470 0.422411
vt 0.795952 0.427362
vt 0.781173 0.433111
vt 0.781149 0.421625
vt 0.721905 0.417415
vt 0.707118 0.421844
vt 0.707037 0.413145
vt 0.929302 0.413282
vt 0.921791 0.421909
vt 0.914451 0.413146
vt 0.914308 0.427580
vt 0.899452 0.433235
vt 0.899549 0.421766
vt 0.825551 0.412899
vt 0.818143 0.421614
vt 0.810744 0.412902
vt 0.736785 0.427448
vt 0.722036 0.433233
vt 0.721939 0.421765
vt 0.736694 0.412997
vt 0.736748 0.421706
vt 0.959018 0.422414
vt 0.958834 0.433882
vt 0.944000 0.427873
vt 0.855119 0.427389
vt 0.840315 0.433111
vt 0.840340 0.421627
vt 0.974030 0.413942
vt 0.974026 0.422716
vt 0.959046 0.418054
vt 0.728915 0.318498
vt 0.736367 0.327518
vt 0.721484 0.327574
vt 0.937232 0.318690
vt 0.944703 0.327784
vt 0.929792 0.327712
vt 0.654440 0.318799
vt 0.661844 0.327853
vt 0.646851 0.327876
vt 0.646800 0.339858
vt 0.631764 0.333849
vt 0.862813 0.318413
vt 0.870242 0.327477
vt 0.855365 0.327441
vt 0.855350 0.339365
vt 0.840485 0.333380
vt 0.773555 0.318385
vt 0.780999 0.327418
vt 0.766124 0.327440
vt 0.766090 0.223899
vt 0.758649 0.232972
vt 0.855400 0.223900
vt 0.847957 0.232951
vt 0.840516 0.223888
vt 0.646949 0.224147
vt 0.639279 0.233142
vt 0.631917 0.223950
vt 0.959614 0.224166
vt 0.952220 0.233191
vt 0.944712 0.224125
vt 0.751207 0.232986
vt 0.736322 0.233014
vt 0.736322 0.223956
vt 0.914936 0.224034
vt 0.914943 0.233090
vt 0.900054 0.233053
vt 0.706555 0.224033
vt 0.706548 0.233089
vt 0.691653 0.233133
vt 0.810745 0.223872
vt 0.803303 0.232928
vt 0.795861 0.223870
vt 0.892611 0.233034
vt 0.885169 0.223957
vt 0.684198 0.233152
vt 0.676781 0.224123
vt 0.766034 0.130203
vt 0.766046 0.139271
vt 0.751142 0.134770
vt 0.855446 0.139271
vt 0.855432 0.151225
vt 0.840543 0.145229
vt 0.855458 0.130204
vt 0.840551 0.134722
vt 0.944821 0.139582
vt 0.944818 0.151493
vt 0.929907 0.145474
vt 0.937363 0.130499
vt 0.929913 0.139511
vt 0.736256 0.139337
vt 0.736238 0.130271
vt 0.691575 0.134985
vt 0.676671 0.139580
vt 0.676687 0.130539
vt 0.973966 0.378656
vt 0.973859 0.387518
vt 0.959182 0.382932
vt 0.825586 0.377894
vt 0.825578 0.386693
vt 0.810744 0.382290
vt 0.796815 0.719284
vt 0.806888 0.716778
vt 0.800521 0.723872
vt 0.813455 0.744834
vt 0.819256 0.737772
vt 0.826509 0.742887
vt 0.820742 0.750416
vt 0.830682 0.752278
vt 0.814975 0.757944
vt 0.828029 0.755998
vt 0.822228 0.763059
vt 0.725019 0.755057
vt 0.726900 0.745015
vt 0.734505 0.750841
vt 0.721261 0.752376
vt 0.714128 0.746516
vt 0.719295 0.739189
vt 0.725024 0.732293
vt 0.732539 0.737654
vt 0.913856 0.471041
vt 0.928482 0.469758
vt 0.928458 0.472740
vt 0.120496 0.227518
vt 0.113733 0.227515
vt 0.118290 0.245978
vt 0.123995 0.340710
vt 0.121626 0.330508
vt 0.116720 0.340058
vt 0.110628 0.104411
vt 0.114827 0.087955
vt 0.110970 0.096198
vt 0.118825 0.209174
vt 0.117014 0.191236
vt 0.110464 0.193716
vt 0.112119 0.209972
vt 0.068577 0.336215
vt 0.074839 0.326826
vt 0.068177 0.326333
vt 0.093807 0.263267
vt 0.094571 0.245023
vt 0.089129 0.263018
vt 0.082954 0.321234
vt 0.077885 0.314670
vt 0.123844 0.190921
vt 0.122062 0.173595
vt 0.115554 0.174272
vt 0.132854 0.331531
vt 0.134200 0.319157
vt 0.125940 0.324657
vt 0.133088 0.265324
vt 0.136423 0.246596
vt 0.128897 0.246330
vt 0.122640 0.610565
vt 0.115209 0.608424
vt 0.115338 0.616354
vt 0.506328 0.252017
vt 0.512532 0.249235
vt 0.511230 0.255582
vt 0.207656 0.644074
vt 0.201373 0.644093
vt 0.204637 0.649527
vt 0.220971 0.619630
vt 0.217453 0.625956
vt 0.223441 0.625005
vt 0.102579 0.579589
vt 0.095598 0.576391
vt 0.094428 0.584242
vt 0.141090 0.557314
vt 0.135018 0.560816
vt 0.140485 0.563587
vt 0.223314 0.684824
vt 0.216854 0.692403
vt 0.222812 0.694637
vt 0.299038 0.682230
vt 0.300933 0.691388
vt 0.304617 0.682427
vt 0.326509 0.714423
vt 0.332104 0.718751
vt 0.332393 0.709484
vt 0.326604 0.639315
vt 0.329177 0.646648
vt 0.331433 0.638890
vt 0.316941 0.736821
vt 0.316105 0.746812
vt 0.318743 0.745156
vt 0.307552 0.635985
vt 0.312155 0.640060
vt 0.312391 0.631770
vt 0.324193 0.639484
vt 0.326399 0.630966
vt 0.321717 0.631323
vt 0.118484 0.539672
vt 0.123372 0.543270
vt 0.124473 0.537010
vt 0.071849 0.465533
vt 0.071572 0.457313
vt 0.062707 0.462125
vt 0.078287 0.514578
vt 0.068316 0.513879
vt 0.069703 0.519880
vt 0.122401 0.595572
vt 0.119132 0.590610
vt 0.113668 0.598015
vt 0.296021 0.736128
vt 0.293959 0.746138
vt 0.296978 0.744499
vt 0.183706 0.725374
vt 0.185076 0.725673
vt 0.183702 0.725149
vt 0.014215 0.407038
vt 0.011539 0.417651
vt 0.016427 0.417803
vt 0.411105 0.660588
vt 0.412455 0.626892
vt 0.404332 0.628248
vt 0.140843 0.409604
vt 0.132490 0.409360
vt 0.136222 0.418369
vt 0.116710 0.427576
vt 0.109511 0.427793
vt 0.112983 0.436990
vt 0.129285 0.400232
vt 0.124952 0.409207
vt 0.121190 0.409155
vt 0.116999 0.418342
vt 0.124515 0.418306
vt 0.063596 0.398607
vt 0.054166 0.398294
vt 0.058431 0.408622
vt 0.080127 0.452613
vt 0.071352 0.449167
vt 0.071290 0.444190
vt 0.062641 0.439481
vt 0.062782 0.449601
vt 0.071455 0.418910
vt 0.071789 0.408855
vt 0.062982 0.413813
vt 0.423378 0.625075
vt 0.421723 0.601431
vt 0.415966 0.603933
vt 0.429508 0.711916
vt 0.423590 0.700619
vt 0.420988 0.710629
vt 0.416533 0.709872
vt 0.419426 0.700371
vt 0.410712 0.699701
vt 0.304509 0.145023
vt 0.299649 0.145199
vt 0.299782 0.137629
vt 0.304761 0.137473
vt 0.213737 0.068574
vt 0.222552 0.070596
vt 0.223395 0.080083
vt 0.214722 0.078918
vt 0.347874 0.901940
vt 0.352381 0.897466
vt 0.351932 0.906296
vt 0.348375 0.875434
vt 0.352594 0.871234
vt 0.352710 0.880075
vt 0.151924 0.916891
vt 0.151929 0.918707
vt 0.146059 0.917803
vt 0.125043 0.920554
vt 0.125039 0.918738
vt 0.130909 0.919643
vt 0.399783 0.876263
vt 0.395269 0.880815
vt 0.395638 0.871926
vt 0.733207 0.553838
vt 0.746856 0.553834
vt 0.739111 0.568107
vt 0.728315 0.553969
vt 0.731449 0.567884
vt 0.721932 0.567928
vt 0.645965 0.739605
vt 0.647360 0.758131
vt 0.641743 0.759063
vt 0.270707 0.381264
vt 0.270777 0.369019
vt 0.284084 0.372912
vt 0.284014 0.383183
vt 0.273424 0.302659
vt 0.274967 0.291852
vt 0.286268 0.303487
vt 0.285554 0.314370
vt 0.214473 0.395407
vt 0.213540 0.393860
vt 0.215169 0.394050
vt 0.211612 0.397285
vt 0.211740 0.395477
vt 0.213560 0.396324
vt 0.289961 0.282754
vt 0.297687 0.291159
vt 0.295294 0.295780
vt 0.705653 0.554702
vt 0.698256 0.550860
vt 0.709173 0.540628
vt 0.314868 0.297765
vt 0.310318 0.296364
vt 0.312264 0.295087
vt 0.894996 0.547082
vt 0.882565 0.553834
vt 0.881747 0.539961
vt 0.901106 0.553969
vt 0.907489 0.567927
vt 0.897972 0.567884
vt 0.206391 0.444085
vt 0.205200 0.450621
vt 0.202489 0.439812
vt 0.273374 0.491940
vt 0.285865 0.485678
vt 0.274911 0.502749
vt 0.284258 0.436846
vt 0.284375 0.442827
vt 0.271208 0.452127
vt 0.271000 0.444715
vt 0.923768 0.554702
vt 0.920248 0.540628
vt 0.931166 0.550860
vt 0.935504 0.561015
vt 0.936350 0.550277
vt 0.943296 0.559880
vt 0.300389 0.507650
vt 0.298461 0.514416
vt 0.296129 0.513631
vt 0.735645 0.638542
vt 0.733209 0.625030
vt 0.746857 0.625035
vt 0.747674 0.638907
vt 0.660438 0.725784
vt 0.662577 0.731001
vt 0.663989 0.747577
vt 0.660029 0.751582
vt 0.347014 0.296708
vt 0.349113 0.297371
vt 0.344008 0.302178
vt 0.377708 0.379998
vt 0.363872 0.381770
vt 0.364015 0.369873
vt 0.377993 0.366133
vt 0.363790 0.304582
vt 0.351144 0.310246
vt 0.362752 0.293793
vt 0.416384 0.395654
vt 0.415779 0.394442
vt 0.417228 0.394292
vt 0.361746 0.291123
vt 0.351016 0.304834
vt 0.350337 0.299313
vt 0.698259 0.628008
vt 0.703652 0.639854
vt 0.689112 0.635019
vt 0.696090 0.622931
vt 0.687892 0.629172
vt 0.686130 0.618989
vt 0.356294 0.286088
vt 0.893778 0.638544
vt 0.881747 0.638908
vt 0.882565 0.625036
vt 0.896214 0.625031
vt 0.426494 0.439545
vt 0.429848 0.435142
vt 0.428170 0.445714
vt 0.651813 0.721834
vt 0.657304 0.723115
vt 0.376833 0.503174
vt 0.374865 0.514476
vt 0.363242 0.495451
vt 0.364174 0.436023
vt 0.378408 0.446656
vt 0.364271 0.443434
vt 0.364289 0.447067
vt 0.378506 0.451287
vt 0.378547 0.460043
vt 0.418897 0.397319
vt 0.418793 0.398901
vt 0.417189 0.398168
vt 0.933334 0.622933
vt 0.943295 0.618991
vt 0.941532 0.629175
vt 0.931165 0.628010
vt 0.940312 0.635021
vt 0.925771 0.639856
vt 0.146109 0.821503
vt 0.148501 0.816715
vt 0.150890 0.821470
vt 0.362705 0.514816
vt 0.362799 0.522588
vt 0.354584 0.509020
s 1
usemtl MagnumSurvivalKnife_MTL
f 18/1/1 23/2/2 27/3/3
f 22/4/4 25/5/5 26/6/6
f 21/7/7 24/8/8 25/9/5
f 27/10/3 24/11/8 20/12/9
f 26/6/6 23/13/2 19/14/10
f 36/15/11 33/16/12 43/17/13
f 37/18/14 34/19/15 44/20/16
f 47/21/17 35/22/18 36/23/11
f 28/24/19 48/25/19 49/26/19
f 49/26/20 48/25/21 32/27/22
f 29/28/23 45/29/23 46/30/23
f 46/30/24 45/29/25 30/31/26
f 16/32/27 15/33/27 22/34/27
f 20/35/28 14/36/28 17/37/28
f 19/38/29 13/39/29 16/40/29
f 2/41/30 13/42/31 1/43/32
f 4/44/33 15/45/34 3/46/35
f 16/47/36 13/48/31 2/49/30
f 6/50/37 17/51/38 14/52/39
f 6/53/37 14/54/39 5/55/40
f 4/56/33 14/57/39 15/58/34
f 3/59/35 15/60/34 16/47/36
f 3/61/35 16/62/36 2/63/30
f 1/64/32 17/65/38 6/66/37
f 5/67/40 14/68/39 4/69/33
f 1/70/32 13/71/31 17/72/38
f 19/73/10 23/74/2 18/75/1
f 22/76/4 26/77/6 19/78/10
f 21/79/7 25/80/5 22/81/4
f 26/82/41 38/83/42 23/84/43
f 27/85/44 39/86/45 24/87/46
f 40/88/47 29/89/48 30/90/49
f 25/91/50 41/92/51 26/93/41
f 42/94/52 28/95/53 32/96/54
f 45/97/55 35/98/18 47/99/17
f 44/100/16 34/101/15 45/102/56
f 43/103/13 33/104/12 48/105/57
f 48/106/58 37/107/14 44/108/16
f 30/109/59 47/110/17 31/111/60
f 47/99/17 36/112/11 43/113/13
f 32/114/61 44/115/16 29/116/62
f 31/117/60 43/118/13 28/119/63
f 29/120/64 46/121/24 30/122/26
f 28/123/65 49/124/20 32/125/22
f 24/126/66 40/127/66 25/128/66
f 23/129/67 42/130/67 27/131/67
f 14/132/68 21/133/68 15/134/68
f 13/135/69 18/136/69 17/137/69
f 8/138/70 7/139/71 33/140/72
f 10/141/73 9/142/74 35/143/75
f 36/144/76 8/145/70 33/146/72
f 37/147/77 12/148/78 34/149/79
f 12/150/78 11/151/80 34/152/79
f 34/153/79 10/154/73 35/155/75
f 9/156/74 8/157/70 36/158/76
f 35/159/75 9/160/74 36/144/76
f 37/161/77 7/162/71 12/163/78
f 11/164/80 10/165/73 34/166/79
f 33/167/72 7/168/71 37/169/77
f 31/170/60 47/171/17 43/172/13
f 32/173/61 48/174/58 44/175/16
f 28/176/63 43/177/13 49/178/81
f 49/178/81 43/179/13 48/180/57
f 29/181/62 44/182/16 46/183/82
f 46/183/82 44/184/16 45/185/56
f 30/186/59 45/187/55 47/188/17
f 25/189/50 30/190/49 41/92/51
f 24/191/46 29/192/48 40/193/47
f 23/194/43 28/195/53 42/196/52
f 42/197/52 32/198/54 27/199/44
f 41/92/51 30/200/49 31/201/83 26/202/41
f 27/203/44 32/204/54 29/205/48 39/86/45
f 26/206/41 31/207/83 28/208/53 38/83/42
f 40/209/47 30/210/49 25/211/50
f 39/86/45 29/212/48 24/213/46
f 38/83/42 28/214/53 23/215/43
f 15/216/84 21/217/7 22/218/4
f 20/219/9 24/220/8 21/221/7
f 14/222/85 20/219/9 21/223/7
f 18/224/1 27/225/3 20/226/9
f 17/227/86 18/224/1 20/228/9
f 22/218/4 19/229/10 16/230/87
f 19/231/10 18/232/1 13/233/88
f 48/234/89 33/235/89 37/236/89
f 45/237/90 34/238/90 35/239/90
f 6/240/91 5/241/92 1/242/93
f 1/243/93 5/244/92 4/245/94 50/246/94
f 50/246/95 4/245/95 3/247/95
f 1/248/96 50/246/96 3/249/96 2/250/96
f 8/251/97 51/252/97 7/253/97
f 8/254/98 9/255/98 10/256/98 51/252/98
f 51/252/99 10/256/99 11/257/99 7/258/99
f 11/259/100 12/260/100 7/261/100
f 57/262/101 58/263/102 64/264/103
f 61/265/104 64/266/103 65/267/105
f 52/268/101 54/269/101 53/270/101
f 57/271/101 87/272/101 53/273/101 58/274/102
f 62/275/106 65/276/105 59/277/107
f 64/278/103 58/279/102 59/280/107
f 64/281/103 59/282/107 65/276/105
f 57/283/101 52/284/101 53/285/101 87/272/101
f 61/286/104 60/287/101 64/288/103
f 60/289/101 57/290/101 64/291/103
f 71/292/108 77/293/109 74/294/110
f 81/295/111 73/296/111 70/297/111
f 72/298/112 71/299/108 74/300/110
f 80/301/113 71/302/108 72/303/112
f 82/304/114 73/305/115 77/306/109
f 81/307/116 82/308/114 71/309/108
f 72/310/112 74/311/110 75/312/117
f 72/313/112 75/314/117 76/315/118
f 76/316/118 55/317/119 63/318/120
f 76/319/121 63/320/122 56/321/123
f 76/322/118 78/323/124 55/324/119
f 72/325/112 76/326/118 79/327/125
f 76/328/121 56/329/123 79/330/126
f 73/331/115 82/332/114 81/333/116
f 70/334/127 86/335/128 69/336/129
f 70/337/127 69/338/129 73/339/130
f 71/340/108 82/341/114 77/342/109
f 75/343/117 78/344/124 76/345/118
f 83/346/131 75/347/131 74/348/131
f 62/349/132 69/350/132 86/351/132
f 63/352/133 66/353/134 56/354/135
f 61/355/104 85/356/136 84/357/137
f 84/358/138 85/359/139 70/360/127
f 61/361/104 65/362/105 85/356/136
f 65/363/140 85/364/140 84/365/140
f 65/366/105 62/367/106 86/368/141
f 70/369/127 85/370/139 86/335/128
f 85/371/142 86/372/142 69/373/142
f 85/374/143 65/375/105 86/376/141
f 66/377/134 68/378/144 56/379/135
f 67/380/145 66/381/146 55/382/147
f 55/383/147 66/384/146 63/385/148
f 79/386/149 56/387/149 63/388/149 76/389/149
f 67/390/150 55/391/150 63/392/150 66/393/150
f 1/394/151 50/395/151 2/396/151
f 1/397/152 6/398/152 50/399/152
f 6/400/153 5/401/153 50/402/153
f 3/403/154 2/404/154 50/405/154
f 4/406/155 50/407/155 5/408/155
f 88/409/156 9/410/157 10/411/158
f 88/412/156 10/413/158 92/414/159
f 51/415/160 9/416/161 8/417/162
f 89/418/163 88/419/164 67/420/165 66/421/166
f 88/422/164 90/423/167 92/424/167 67/425/165
f 89/426/168 9/427/168 88/428/168
f 8/429/169 9/430/169 89/431/169
f 90/432/170 91/433/170 92/434/170
f 92/435/159 90/436/171 88/437/156
f 67/438/172 92/439/172 91/440/172
f 93/441/173 7/442/174 8/443/175
f 93/444/173 96/445/176 7/446/174
f 89/447/177 93/448/173 8/449/175
f 93/450/178 68/451/179 94/452/180
f 66/453/166 68/454/179 93/455/178 89/456/163
f 96/457/176 93/458/173 94/459/181
f 96/460/176 94/461/181 95/462/182
f 68/463/179 95/464/183 94/465/180
f 97/466/184 92/467/159 10/468/158 11/469/185
f 51/415/186 11/470/187 10/471/188
f 51/415/160 10/472/189 9/473/161
f 92/474/190 100/475/191 67/476/192
f 98/477/193 66/478/194 67/479/192 97/480/195
f 97/481/195 67/482/192 99/483/196
f 98/484/197 97/485/197 11/486/197
f 99/487/196 67/488/192 100/489/191
f 92/490/159 97/491/184 99/492/198
f 92/493/199 99/494/199 91/495/199
f 99/496/196 100/475/191 92/474/190
f 101/497/200 12/498/201 7/499/174 96/500/176
f 98/501/202 12/502/201 101/503/200
f 51/415/186 7/504/203 11/505/187
f 101/506/204 102/507/205 68/508/206
f 66/509/194 98/510/193 68/511/206
f 68/512/206 98/513/193 101/514/204
f 11/515/207 12/516/207 98/517/207
f 96/518/176 95/519/208 102/520/209
f 96/521/176 102/522/209 101/523/200
f 68/524/210 95/525/210 96/526/210
f 102/527/205 95/528/211 68/529/206
