# Blender 4.4.3
# www.blender.org
mtllib 4.mtl
o Magnum_Survival_Knife
v -0.061118 0.000001 -0.005714
v -0.059877 0.012526 0.003480
v -0.059866 -0.006735 0.008969
v -0.058325 -0.016346 0.000000
v 0.056466 0.000001 -0.010683
v 0.064147 0.015777 0.001072
v 0.057400 -0.003895 0.014264
v 0.065418 -0.016697 -0.000000
v -0.026521 0.005680 -0.009622
v -0.026366 -0.009597 0.006358
v -0.024389 0.008855 0.010155
v -0.007923 0.011916 -0.000000
v -0.009387 -0.009996 -0.006845
v -0.000038 -0.001523 0.012573
v 0.009915 0.005232 -0.009752
v 0.012982 -0.011217 0.003892
v 0.015207 0.010238 0.008759
v 0.031257 0.008995 -0.005414
v 0.030602 -0.010689 -0.000069
v 0.031353 0.004075 0.013063
v 0.018460 -0.007378 -0.011893
v -0.039546 -0.010165 -0.010166
v -0.011505 0.003671 -0.013696
v 0.037410 -0.003669 -0.013696
v 0.264969 0.000001 0.006450
v 0.096690 -0.000101 0.015385
v 0.089079 -0.000011 -0.012654
v 0.240552 0.000001 -0.003444
v 0.236364 0.000001 0.009515
v 0.219250 0.000001 -0.009737
v 0.203303 0.000001 -0.009198
v 0.207913 -0.000075 0.012805
v 0.076288 -0.000354 -0.001111
v 0.215450 0.000114 0.000211
v 0.175294 -0.000033 0.015126
v 0.176680 -0.000002 -0.007931
v 0.145078 -0.000013 -0.005005
v 0.118205 -0.000007 -0.003627
v 0.112569 -0.000025 0.015055
v 0.150035 -0.000034 0.016143
v 0.125783 -0.000029 0.016338
v 0.162422 0.000049 -0.016622
v 0.279374 0.000002 0.008937
v 0.114949 0.000085 0.017116
v 0.197168 0.000001 0.000226
v 0.070994 0.011682 0.020461
v 0.070437 -0.000967 0.030405
v 0.066687 0.016993 0.033272
v 0.070726 0.012210 -0.021050
v 0.070447 -0.000978 -0.030411
v 0.066687 0.016993 -0.033272
v 0.069958 -0.015553 0.018833
v 0.066687 -0.016991 0.033272
v 0.069220 -0.016898 -0.020151
v 0.066687 -0.016991 -0.033272
vn 0.6594 0.5363 -0.5269
vn -0.0260 -0.9692 -0.2448
vn -0.1859 0.5933 -0.7832
vn -0.3489 -0.3618 -0.8645
vn -0.0013 -0.6824 0.7310
vn -0.1508 0.2709 0.9507
vn -0.2560 0.9584 -0.1263
vn -0.2519 0.5782 0.7760
vn -0.0332 0.9617 0.2720
vn -0.0439 0.9534 0.2985
vn 0.1833 0.9345 -0.3052
vn -0.1822 0.0433 -0.9823
vn -0.0857 -0.6090 -0.7886
vn -0.2217 -0.9456 -0.2380
vn 0.7918 0.4706 0.3893
vn -0.1001 -0.9904 0.0959
vn 0.6493 -0.2193 -0.7282
vn -0.1308 0.8042 0.5798
vn 0.0956 0.2404 0.9660
vn 0.1197 0.9375 -0.3269
vn -0.0503 -0.4685 0.8820
vn 0.1214 0.5238 0.8432
vn -0.1348 -0.7739 0.6188
vn -0.0972 -0.5728 -0.8139
vn 0.0392 0.5847 -0.8103
vn -0.2297 -0.6403 0.7330
vn -0.2427 0.9371 0.2508
vn -0.0891 0.5145 -0.8529
vn 0.1043 -0.2817 -0.9538
vn -0.0085 -0.4016 -0.9158
vn 0.1903 -0.1990 -0.9613
vn 0.1720 -0.9081 -0.3819
vn 0.0013 -0.6125 0.7904
vn 0.1755 -0.2015 0.9636
vn -0.0068 0.2118 0.9773
vn 0.0110 0.8554 -0.5179
vn 0.1438 0.3580 -0.9226
vn -0.0512 0.2153 -0.9752
vn -0.0030 -0.4485 -0.8938
vn -0.1344 0.1441 -0.9804
vn 0.4089 -0.3066 -0.8595
vn 0.2667 -0.5877 -0.7639
vn 0.5194 -0.7614 -0.3881
vn 0.2332 -0.9603 -0.1530
vn 0.0224 0.6980 -0.7158
vn 0.1838 -0.6585 0.7298
vn 0.1477 0.2620 -0.9537
vn -0.2823 -0.8220 0.4946
vn -0.4834 -0.6351 -0.6025
vn 0.2135 -0.9289 0.3026
vn -0.2012 0.3508 -0.9146
vn 0.2511 0.7358 0.6289
vn 0.1332 0.9762 -0.1711
vn 0.0584 -0.2072 0.9765
vn 0.4071 -0.2420 0.8808
vn -0.9861 -0.1657 0.0081
vn -0.9949 0.0272 0.0973
vn 0.9208 -0.3786 -0.0936
vn 0.8683 0.4941 0.0447
vn 0.0004 -0.9999 0.0115
vn -0.0033 -1.0000 0.0079
vn -0.0027 -1.0000 0.0007
vn -0.0000 -1.0000 -0.0000
vn -0.0010 -1.0000 -0.0014
vn 0.0010 -0.9999 -0.0144
vn 0.0192 -0.9998 -0.0084
vn 0.0111 -0.9999 -0.0056
vn 0.0084 -0.9999 -0.0055
vn 0.0143 -0.9999 -0.0065
vn 0.0003 -1.0000 -0.0019
vn -0.0001 -1.0000 -0.0019
vn -0.0000 -1.0000 -0.0011
vn 0.0048 -1.0000 0.0005
vn -0.0000 -1.0000 -0.0016
vn -0.0005 -1.0000 0.0022
vn 0.0004 -1.0000 -0.0008
vn 0.0025 -1.0000 -0.0026
vn -0.0061 -0.9982 0.0602
vn -0.0020 -0.9998 0.0180
vn -0.0002 -1.0000 -0.0056
vn -0.0003 -1.0000 -0.0010
vn 0.0062 -1.0000 -0.0053
vn 0.0028 -1.0000 -0.0085
vn 0.0015 -1.0000 -0.0024
vn 0.0038 -1.0000 0.0025
vn -0.9539 -0.1585 -0.2550
vn 0.3990 0.5558 0.7293
vn 0.7983 0.6022 -0.0105
vn 0.7806 0.6074 -0.1474
vn 0.7996 0.6005 0.0098
vn 0.3147 0.8597 -0.4024
vn 0.7366 -0.4377 -0.5155
vn -0.7665 0.5177 0.3800
vn -0.9542 -0.1594 0.2530
vn 0.6024 0.4535 -0.6568
vn 0.7999 0.5826 0.1440
vn 0.3599 0.8314 0.4235
vn 0.7379 -0.4010 0.5428
vn -0.7390 0.5951 -0.3157
vn -0.9615 0.1894 -0.1990
vn 0.8163 -0.5540 -0.1631
vn -0.6943 -0.5818 0.4236
vn -0.6480 -0.4602 0.6069
vn -0.6956 -0.5867 0.4146
vn 0.3937 -0.7871 -0.4749
vn 0.5001 -0.8659 -0.0033
vn 0.5089 -0.8276 0.2368
vn 0.4214 -0.5721 0.7036
vn -0.7052 -0.6769 0.2111
vn -0.9636 0.1933 0.1847
vn 0.8268 -0.5389 0.1614
vn -0.8290 -0.4169 -0.3727
vn -0.8321 -0.4357 -0.3431
vn -0.7876 -0.2898 -0.5438
vn 0.0389 -0.9992 0.0135
vn 0.9626 -0.1952 -0.1877
vn -0.8279 -0.5403 -0.1508
vt 0.959489 0.309400
vt 0.944648 0.310888
vt 0.944636 0.307798
vt 0.929777 0.309273
vt 0.691188 0.070534
vt 0.676323 0.075174
vt 0.676179 0.066119
vt 0.945314 0.066121
vt 0.945169 0.075175
vt 0.930305 0.070536
vt 0.870541 0.070315
vt 0.855581 0.074827
vt 0.855606 0.065763
vt 0.780848 0.070273
vt 0.765912 0.074827
vt 0.765887 0.065762
vt 0.736297 0.167768
vt 0.721418 0.172331
vt 0.721405 0.163273
vt 0.751209 0.250891
vt 0.736326 0.256892
vt 0.736323 0.244954
vt 0.728879 0.244971
vt 0.721440 0.256923
vt 0.959705 0.251087
vt 0.944744 0.257021
vt 0.944769 0.245096
vt 0.944704 0.266076
vt 0.929825 0.261518
vt 0.937308 0.245079
vt 0.929835 0.256991
vt 0.974590 0.351850
vt 0.974420 0.360940
vt 0.959536 0.356273
vt 0.758702 0.339382
vt 0.766157 0.351287
vt 0.751289 0.351320
vt 0.810745 0.314150
vt 0.810745 0.318358
vt 0.795868 0.316251
vt 0.781126 0.410889
vt 0.766321 0.412927
vt 0.766308 0.408873
vt 0.869987 0.410938
vt 0.855167 0.412927
vt 0.855180 0.408873
vt 0.944207 0.409402
vt 0.944177 0.413455
vt 0.929320 0.411258
vt 0.692167 0.411257
vt 0.677312 0.413454
vt 0.677282 0.409400
vt 0.840395 0.395504
vt 0.832972 0.402174
vt 0.825569 0.395493
vt 0.766275 0.398863
vt 0.751461 0.402228
vt 0.751433 0.395557
vt 0.988498 0.392044
vt 0.973839 0.396387
vt 0.973859 0.387518
vt 0.988500 0.396434
vt 0.981228 0.403123
vt 0.966490 0.403024
vt 0.959097 0.396216
vt 0.959118 0.391788
vt 0.825635 0.180023
vt 0.825634 0.183036
vt 0.810745 0.181530
vt 0.662059 0.202584
vt 0.647303 0.206865
vt 0.647357 0.198340
vt 0.632690 0.202556
vt 0.959909 0.083188
vt 0.959840 0.086492
vt 0.945025 0.084717
vt 0.930129 0.086279
vt 0.930163 0.082970
vt 0.944831 0.102861
vt 0.944793 0.112240
vt 0.929973 0.107457
vt 0.721484 0.327574
vt 0.714060 0.339533
vt 0.706595 0.327635
vt 0.833053 0.327411
vt 0.840480 0.339341
vt 0.825612 0.339326
vt 0.982171 0.327836
vt 0.989748 0.339909
vt 0.974678 0.339862
vt 0.885168 0.233015
vt 0.885168 0.244955
vt 0.870283 0.238955
vt 0.944807 0.130537
vt 0.944821 0.139582
vt 0.929916 0.134986
vt 0.862849 0.189555
vt 0.870289 0.198101
vt 0.855404 0.198075
vt 0.654668 0.189793
vt 0.662073 0.198312
vt 0.639983 0.189881
vt 0.632707 0.198352
vt 0.788415 0.189517
vt 0.795859 0.198045
vt 0.780973 0.198056
vt 0.728626 0.086117
vt 0.736119 0.093203
vt 0.721209 0.093253
vt 0.803278 0.086001
vt 0.810746 0.093108
vt 0.795816 0.093110
vt 0.803304 0.283383
vt 0.810745 0.292109
vt 0.795864 0.292113
vt 0.815586 0.711491
vt 0.825365 0.714330
vt 0.816321 0.717014
vt 0.826509 0.742887
vt 0.831757 0.736037
vt 0.835574 0.745021
vt 0.707973 0.740821
vt 0.704516 0.732756
vt 0.712436 0.733935
vt 0.712484 0.710291
vt 0.721784 0.706388
vt 0.722140 0.709082
vt 0.106731 0.339205
vt 0.111233 0.329608
vt 0.104811 0.329086
vt 0.122060 0.264758
vt 0.115342 0.264429
vt 0.118326 0.283248
vt 0.101918 0.177486
vt 0.095924 0.191976
vt 0.096283 0.194535
vt 0.094146 0.298761
vt 0.090801 0.281469
vt 0.084290 0.315139
vt 0.399451 0.674691
vt 0.394495 0.664106
vt 0.391176 0.674716
vt 0.102916 0.343338
vt 0.096224 0.338358
vt 0.095017 0.347106
vt 0.103616 0.282292
vt 0.102025 0.263714
vt 0.096813 0.281851
vt 0.086589 0.543387
vt 0.076685 0.543767
vt 0.078791 0.549683
vt 0.311904 0.700454
vt 0.308440 0.710037
vt 0.314494 0.710090
vt 0.166365 0.676144
vt 0.163728 0.686005
vt 0.172050 0.679836
vt 0.110384 0.555494
vt 0.103514 0.562065
vt 0.112734 0.560672
vt 0.329667 0.668125
vt 0.326961 0.674792
vt 0.332355 0.674422
vt 0.260612 0.748457
vt 0.263162 0.744725
vt 0.259556 0.746411
vt 0.354101 0.679363
vt 0.359513 0.678599
vt 0.356493 0.671697
vt 0.170850 0.529894
vt 0.162385 0.531117
vt 0.164061 0.535092
vt 0.195255 0.672197
vt 0.187914 0.678861
vt 0.193567 0.681882
vt 0.254063 0.722874
vt 0.250216 0.737277
vt 0.260508 0.724137
vt 0.090871 0.389570
vt 0.081338 0.394149
vt 0.090229 0.399270
vt 0.098217 0.389838
vt 0.093896 0.399348
vt 0.110207 0.409039
vt 0.103531 0.409039
vt 0.106456 0.418480
vt 0.079965 0.428826
vt 0.075815 0.418885
vt 0.071267 0.429027
vt 0.066965 0.429088
vt 0.071455 0.418910
vt 0.062826 0.418901
vt 0.669176 0.506922
vt 0.660712 0.507800
vt 0.662535 0.505915
vt 0.201738 0.785118
vt 0.207169 0.785100
vt 0.204472 0.789649
vt 0.263554 0.380231
vt 0.256450 0.364789
vt 0.270777 0.369019
vt 0.188082 0.836123
vt 0.185868 0.824511
vt 0.190382 0.824530
vt 0.689814 0.569014
vt 0.684511 0.567399
vt 0.690645 0.567717
vt 0.746119 0.516902
vt 0.753623 0.520231
vt 0.742004 0.522954
vt 0.960246 0.506922
vt 0.966887 0.505915
vt 0.968709 0.507800
vt 0.201695 0.979586
vt 0.207134 0.977232
vt 0.207114 0.981970
vt 0.247380 0.424560
vt 0.256392 0.415392
vt 0.256435 0.429801
vt 0.185907 0.950022
vt 0.190456 0.954768
vt 0.185973 0.959572
vt 0.939606 0.569014
vt 0.938776 0.567718
vt 0.944910 0.567400
vt 0.883302 0.516901
vt 0.882375 0.523010
vt 0.874264 0.517393
vt 0.669178 0.671941
vt 0.662537 0.672948
vt 0.660715 0.671062
vt 0.392084 0.389372
vt 0.390906 0.378435
vt 0.393777 0.378110
vt 0.714155 0.649139
vt 0.703652 0.639854
vt 0.714698 0.636625
vt 0.256669 0.824562
vt 0.251939 0.818470
vt 0.256625 0.812368
vt 0.251892 0.807601
vt 0.256578 0.802828
vt 0.746119 0.661966
vt 0.747046 0.655857
vt 0.755157 0.661475
vt 0.960247 0.671944
vt 0.968710 0.671066
vt 0.966888 0.672951
vt 0.397517 0.433061
vt 0.395549 0.416707
vt 0.398025 0.416284
vt 0.915269 0.649142
vt 0.914725 0.636626
vt 0.925771 0.639856
vt 0.247304 0.961712
vt 0.251838 0.959515
vt 0.251809 0.963965
vt 0.363763 0.490055
vt 0.356854 0.495322
vt 0.351246 0.478972
vt 0.883302 0.661968
vt 0.874264 0.661477
vt 0.882375 0.655859
s 1
usemtl MagnumSurvivalKnife_MTL
f 15/1/1 19/2/1 21/3/1
f 21/3/2 19/2/2 16/4/2
f 2/5/3 9/6/3 1/7/3
f 1/8/4 22/9/4 4/10/4
f 4/11/5 10/12/5 3/13/5
f 3/14/6 11/15/6 2/16/6
f 11/17/7 12/18/7 9/19/7
f 14/20/8 17/21/9 12/22/10
f 12/23/10 17/21/9 15/24/11
f 15/25/12 21/26/13 13/27/14
f 21/26/15 15/28/15 16/29/15
f 13/30/14 21/26/13 16/31/16
f 21/32/17 18/33/17 19/34/17
f 17/35/18 20/36/19 18/37/20
f 16/38/21 20/39/19 17/40/18
f 7/41/22 6/42/22 20/43/22
f 8/44/23 7/45/23 19/46/23
f 19/47/24 5/48/24 8/49/24
f 6/50/25 5/51/25 18/52/25
f 19/53/26 7/54/26 20/55/26
f 20/56/27 6/57/27 18/58/27
f 18/59/28 24/60/29 21/61/30
f 18/62/28 5/63/31 24/60/29
f 24/60/29 5/64/31 19/65/32
f 21/61/30 24/60/29 19/66/32
f 10/67/33 14/68/34 11/69/35
f 12/70/36 15/71/37 23/72/38
f 23/72/38 15/71/37 13/73/39
f 1/74/40 9/75/41 22/76/42
f 22/76/42 10/77/43 4/78/44
f 22/79/42 9/80/41 10/81/43
f 17/82/18 18/83/20 15/84/45
f 16/85/21 19/86/46 20/87/19
f 15/88/45 18/89/20 21/90/47
f 13/91/14 16/92/16 14/93/48
f 9/94/49 13/95/49 10/96/49
f 10/97/33 13/98/50 14/99/34
f 9/100/51 12/101/36 23/72/38
f 9/102/51 23/72/38 13/103/39
f 11/104/35 14/105/34 12/106/52
f 2/107/53 11/108/53 9/109/53
f 3/110/54 10/111/54 11/112/54
f 14/113/55 16/114/55 17/115/55
f 4/116/56 3/117/56 1/118/56
f 1/119/57 3/120/57 2/121/57
f 6/122/58 7/123/58 5/124/58
f 7/125/59 8/126/59 5/127/59
f 31/128/60 30/129/61 34/130/62
f 28/131/63 29/132/64 30/133/61
f 25/134/63 29/135/64 28/136/63
f 34/137/62 29/138/64 32/139/65
f 33/140/66 27/141/67 26/142/68
f 31/143/69 34/144/69 32/145/69
f 30/146/61 29/147/64 34/148/62
f 36/149/70 35/150/71 40/151/72
f 38/152/73 39/153/73 26/154/73
f 37/155/74 40/156/72 41/157/75
f 36/158/70 40/159/72 37/160/74
f 27/161/67 38/162/76 39/163/77
f 44/164/78 39/165/79 41/166/75
f 39/167/77 26/168/68 27/169/67
f 42/170/80 36/171/70 37/172/74
f 37/173/74 41/174/75 38/175/81
f 38/176/81 41/177/75 39/178/79
f 34/179/82 32/180/83 45/181/84
f 31/182/85 34/179/82 45/183/84
f 31/184/85 45/185/84 36/186/70
f 36/187/70 45/188/84 35/189/71
f 35/190/71 45/191/84 32/192/83
f 46/193/86 47/194/86 48/195/86
f 46/196/87 47/197/87 26/198/87
f 6/199/88 46/200/89 33/201/90
f 33/202/91 46/203/91 26/204/91
f 46/205/92 47/206/92 7/207/92
f 46/208/93 6/209/93 7/210/93
f 49/211/94 51/212/94 50/213/94
f 49/214/95 27/215/95 50/216/95
f 49/217/96 6/218/88 33/219/90
f 33/220/97 27/221/97 49/222/97
f 49/223/98 5/224/98 50/225/98
f 49/226/99 5/227/99 6/228/99
f 52/229/100 53/230/100 47/231/100
f 8/232/101 33/233/101 52/234/101
f 52/235/102 47/236/103 7/237/104
f 33/238/105 26/239/106 52/240/107
f 52/240/107 26/241/106 47/242/108
f 52/243/102 7/244/104 8/245/109
f 54/246/110 50/247/110 55/248/110
f 54/249/111 33/250/111 8/251/111
f 54/252/112 5/253/113 50/254/114
f 27/255/115 33/256/115 50/257/115
f 54/258/116 50/259/116 33/260/116
f 54/261/112 8/262/117 5/263/113
l 25 43
