# Blender 4.4.3
# www.blender.org
mtllib 5.mtl
o Magnum_Survival_Knife
v -0.060552 0.000001 -0.003515
v -0.057181 0.008767 0.009839
v -0.057043 -0.014382 0.007383
v 0.063879 -0.000373 -0.008731
v 0.066495 0.009049 0.010306
v -0.021905 0.004258 -0.007571
v -0.020304 -0.007508 0.008061
v -0.005633 0.007213 0.008803
v 0.003689 -0.002338 -0.009904
v 0.015096 -0.007934 0.006502
v 0.017968 0.012375 -0.000235
v 0.037352 -0.009816 0.003732
v 0.029557 0.006280 -0.007102
v 0.023444 0.003794 0.014157
v 0.023444 -0.010363 -0.010364
v 0.261460 0.000001 0.005713
v 0.098944 -0.000227 0.013934
v 0.090964 0.000028 -0.012025
v 0.232806 0.000001 0.007552
v 0.215412 0.000001 -0.008807
v 0.200742 -0.000080 0.012119
v 0.171715 -0.000028 0.014126
v 0.175302 0.000007 -0.010785
v 0.143136 -0.000038 0.006755
v 0.121833 -0.000034 0.012216
v 0.139496 -0.000013 0.016898
v 0.204047 0.000001 -0.008474
v 0.069774 0.005422 0.033417
v 0.070187 -0.010069 -0.000871
v 0.070201 0.007776 -0.033221
v 0.068129 -0.016588 0.011486
v 0.070320 -0.015544 -0.029470
v 0.068886 -0.009426 -0.035772
v 0.072005 -0.007522 0.036031
vn 0.2012 0.9094 -0.3640
vn 0.5618 -0.5892 0.5808
vn -0.3766 0.7355 -0.5632
vn 0.2380 -0.4316 -0.8701
vn -0.1256 0.6271 -0.7687
vn 0.0795 0.0695 -0.9944
vn -0.1598 -0.8700 -0.4665
vn 0.4499 -0.7917 -0.4132
vn -0.2586 -0.5062 -0.8227
vn -0.4359 -0.2534 0.8636
vn 0.6401 0.2314 0.7326
vn 0.0415 0.3484 0.9364
vn 0.6983 0.6596 0.2779
vn 0.2357 0.8074 0.5409
vn 0.2943 0.2632 0.9188
vn -0.0664 0.9976 -0.0178
vn 0.0859 0.6321 -0.7701
vn -0.8626 0.3612 -0.3543
vn 0.0468 -0.9899 0.1340
vn 0.7245 0.3398 -0.5997
vn 0.8397 -0.3789 0.3890
vn -0.0095 0.8869 0.4619
vn 0.4542 -0.8217 0.3443
vn -0.5763 -0.8076 0.1252
vn -0.6217 0.5939 0.5107
vn -0.2538 -0.7851 -0.5650
vn -0.1173 0.1259 -0.9851
vn -0.1539 -0.6019 -0.7836
vn -0.4199 0.3580 0.8340
vn -0.9635 -0.0339 0.2655
vn 0.0006 -1.0000 -0.0007
vn 0.0001 -1.0000 -0.0029
vn 0.0011 -1.0000 -0.0025
vn -0.0000 -1.0000 -0.0000
vn 0.0075 -0.9999 -0.0122
vn 0.0070 -0.9998 -0.0194
vn 0.0075 -0.9999 -0.0129
vn -0.0003 -1.0000 0.0024
vn -0.0000 -1.0000 0.0013
vn -0.0005 -1.0000 -0.0011
vn 0.0005 -1.0000 0.0027
vn 0.0069 -0.9997 -0.0213
vn -0.0005 -1.0000 -0.0021
vn -0.0000 -1.0000 -0.0030
vn 0.2411 0.5241 -0.8168
vn 0.2614 0.9586 0.1134
vn -0.1074 0.8284 0.5498
vn -0.3784 0.9171 0.1254
vn -0.2698 0.9083 0.3196
vn -0.8924 -0.3434 0.2926
vn 0.0812 0.6590 0.7478
vn -0.5967 -0.7026 -0.3878
vn -0.9715 -0.1270 0.2003
vn -0.7240 -0.5397 0.4295
vn -0.2777 -0.9101 0.3075
vn -0.0148 -0.7815 -0.6237
vn 0.4062 -0.8242 0.3946
vn 0.4553 -0.8789 0.1425
vn 0.4605 -0.8145 -0.3530
vn -0.9897 -0.0570 0.1315
vn -0.7942 -0.0227 0.6072
vn 0.3099 -0.6826 0.6618
vn 0.9768 0.2113 -0.0359
vn -0.9452 -0.3210 -0.0588
vn 0.5214 0.7158 0.4645
vn 0.9879 0.0296 0.1525
vn 0.9971 0.0170 0.0741
vn 0.9663 -0.0361 -0.2550
vn -0.9708 0.1062 -0.2153
vn -0.9838 -0.1009 -0.1484
vn -0.9845 -0.0281 -0.1729
vn -0.9508 -0.3006 -0.0754
vn 0.9632 0.0475 0.2645
vt 0.691674 0.221977
vt 0.676781 0.224123
vt 0.676800 0.219908
vt 0.877727 0.219730
vt 0.885169 0.223957
vt 0.870285 0.223932
vt 0.736326 0.256892
vt 0.736329 0.265947
vt 0.721442 0.261450
vt 0.981919 0.314481
vt 0.989544 0.318627
vt 0.974512 0.318807
vt 0.974422 0.314587
vt 0.959558 0.316685
vt 0.959629 0.345770
vt 0.944649 0.351653
vt 0.944703 0.339721
vt 0.937191 0.351612
vt 0.929778 0.339641
vt 0.810744 0.339321
vt 0.803314 0.351245
vt 0.795877 0.339326
vt 0.795883 0.351249
vt 0.781021 0.351261
vt 0.781009 0.339340
vt 0.766097 0.273712
vt 0.766098 0.276794
vt 0.751215 0.275285
vt 0.721773 0.399002
vt 0.706949 0.402430
vt 0.706900 0.395757
vt 0.907681 0.102661
vt 0.915084 0.112070
vt 0.900199 0.112005
vt 0.780919 0.115420
vt 0.766016 0.118999
vt 0.766002 0.111888
vt 0.884740 0.421707
vt 0.884666 0.433192
vt 0.869910 0.427410
vt 0.795872 0.327402
vt 0.781004 0.333379
vt 0.959656 0.333825
vt 0.944703 0.327784
vt 0.885169 0.228486
vt 0.870284 0.232987
vt 0.780949 0.145229
vt 0.766059 0.151224
vt 0.766046 0.139271
vt 0.944642 0.189743
vt 0.944625 0.198286
vt 0.929791 0.193979
vt 0.825673 0.097797
vt 0.810746 0.102479
vt 0.810746 0.093108
vt 0.930062 0.093391
vt 0.929994 0.102769
vt 0.915154 0.098004
vt 0.706338 0.098002
vt 0.691498 0.102767
vt 0.691431 0.093389
vt 0.974109 0.371935
vt 0.966595 0.378579
vt 0.959318 0.371785
vt 0.781049 0.371238
vt 0.773637 0.377920
vt 0.766198 0.371258
vt 0.837172 0.710660
vt 0.845756 0.717764
vt 0.835739 0.714128
vt 0.082825 0.280974
vt 0.071611 0.314213
vt 0.077885 0.314670
vt 0.159943 0.247509
vt 0.154586 0.228117
vt 0.152260 0.247197
vt 0.302544 0.675157
vt 0.299038 0.682230
vt 0.304617 0.682427
vt 0.068758 0.609726
vt 0.081669 0.599620
vt 0.068187 0.605821
vt 0.190419 0.701151
vt 0.180191 0.714530
vt 0.184337 0.715027
vt 0.254399 0.749356
vt 0.252641 0.747019
vt 0.252135 0.751108
vt 0.104741 0.564745
vt 0.097020 0.568679
vt 0.103534 0.572108
vt 0.142878 0.382952
vt 0.134528 0.382328
vt 0.137914 0.391615
vt 0.120308 0.372399
vt 0.112638 0.376416
vt 0.119447 0.381357
vt 0.111818 0.385624
vt 0.118660 0.390610
vt 0.099622 0.428195
vt 0.103123 0.418546
vt 0.096637 0.418664
vt 0.185751 0.878547
vt 0.190275 0.875933
vt 0.190273 0.881164
vt 0.297355 0.280590
vt 0.294333 0.273367
vt 0.297584 0.274110
vt 0.193578 0.881164
vt 0.195761 0.881165
vt 0.194669 0.886391
vt 0.256392 0.415392
vt 0.247374 0.416665
vt 0.251889 0.405222
vt 0.185750 0.886395
vt 0.190274 0.889653
vt 0.185752 0.892913
vt 0.249215 0.482164
vt 0.258450 0.482818
vt 0.251028 0.499173
vt 0.357515 0.229037
vt 0.344115 0.221573
vt 0.359831 0.221205
vt 0.430727 0.392489
vt 0.432236 0.392588
vt 0.431044 0.397319
vt 0.364303 0.347564
vt 0.378562 0.334594
vt 0.378518 0.343348
vt 0.681561 0.629086
vt 0.677367 0.618475
vt 0.686130 0.618989
vt 0.352652 0.263478
vt 0.347337 0.273783
vt 0.344757 0.267370
vt 0.764779 0.660826
vt 0.767532 0.655622
vt 0.773718 0.660229
vt 0.392015 0.447643
vt 0.387247 0.445713
vt 0.386772 0.430773
vt 0.391437 0.431959
vt 0.400760 0.432457
vt 0.403154 0.449439
vt 0.399432 0.449807
vt 0.410974 0.400044
vt 0.412584 0.402252
vt 0.408722 0.403372
vt 0.344912 0.544498
vt 0.357171 0.542144
vt 0.351365 0.550417
vt 0.980395 0.609871
vt 0.980126 0.625195
vt 0.973213 0.617917
vt 0.973052 0.639457
vt 0.969606 0.621922
vt 0.351451 0.526374
vt 0.344708 0.527270
vt 0.344286 0.520130
s 1
usemtl MagnumSurvivalKnife_MTL
f 8/1/1 9/2/1 6/3/1
f 7/4/2 9/5/2 8/6/2
f 8/7/3 11/8/3 9/9/3
f 9/10/4 11/11/5 13/12/6
f 9/13/4 13/12/6 10/14/7
f 13/15/6 12/16/8 15/17/9
f 15/17/9 12/18/8 10/19/7
f 10/20/10 12/21/11 14/22/12
f 14/22/12 12/23/11 13/24/13 11/25/14
f 8/26/15 10/27/15 11/28/15
f 5/29/16 4/30/17 13/31/18
f 3/32/19 6/33/20 7/34/21
f 7/35/21 6/36/20 2/37/22
f 12/38/23 4/39/23 5/40/23
f 10/41/10 14/22/12 11/42/14
f 13/43/6 15/17/9 10/44/7
f 9/45/24 10/46/24 8/6/24
f 7/47/25 8/48/25 6/49/25
f 6/50/26 9/51/26 7/52/26
f 3/53/19 7/54/21 2/55/22
f 1/56/27 6/57/20 3/58/19
f 2/59/22 6/60/20 1/61/27
f 13/62/18 4/63/17 12/64/28
f 12/65/29 5/66/16 13/67/18
f 3/68/30 2/69/30 1/70/30
f 19/71/31 21/72/32 20/73/33
f 20/74/33 16/75/34 19/76/31
f 18/77/35 25/78/36 17/79/37
f 26/80/38 24/81/39 22/82/40
f 24/83/41 26/84/41 25/85/41
f 17/86/37 25/87/36 26/88/42
f 23/89/43 22/90/40 24/91/39
f 20/92/33 27/93/44 23/94/43
f 20/95/33 21/96/32 27/97/44
f 27/97/44 21/98/32 23/99/43
f 22/100/40 23/101/43 21/102/32
f 5/103/45 17/104/45 29/105/45
f 5/106/46 28/107/46 17/108/46
f 29/109/47 17/110/48 18/111/49
f 4/112/50 29/113/50 5/114/50
f 29/115/47 18/116/49 4/117/51
f 29/118/52 4/119/52 30/120/52
f 34/121/53 28/122/53 31/123/53
f 31/124/54 12/125/55 4/126/56
f 17/127/57 31/128/58 29/129/59
f 31/130/54 28/131/60 5/132/61
f 31/133/58 17/134/57 28/135/62
f 31/136/54 5/137/61 12/138/55
f 32/139/63 4/140/63 29/141/63 31/142/63
f 31/143/64 4/144/64 32/145/64
f 29/146/65 4/147/65 31/148/65
f 30/149/66 32/150/67 33/151/68
f 30/152/69 33/153/70 4/154/71
f 33/153/70 32/155/72 4/156/71
f 32/157/67 30/158/66 4/159/73
