# Blender 4.4.3
# www.blender.org
mtllib 6.mtl
o Magnum_Survival_Knife
v -0.059803 0.000001 -0.002258
v -0.053948 0.000001 0.013003
v 0.065998 0.000277 -0.007141
v -0.018261 -0.006018 0.003354
v -0.014708 0.010269 -0.005722
v 0.007609 0.004218 0.007304
v 0.008662 -0.005869 -0.010167
v 0.029358 -0.006129 0.007078
v 0.026704 0.012588 -0.002067
v 0.057067 0.008909 0.014221
v 0.259129 0.000001 0.005927
v 0.097769 -0.000177 0.014627
v 0.102598 0.000002 -0.013008
v 0.217453 -0.000024 0.008120
v 0.211744 0.000001 -0.012420
v 0.171290 -0.000032 0.013356
v 0.170839 0.000001 -0.011511
v 0.140370 -0.000028 0.010967
v 0.125418 -0.000019 0.016098
v 0.068688 0.011599 0.026885
v 0.068140 -0.010092 0.031427
v 0.070717 0.010674 -0.034531
v 0.067084 -0.017400 0.009428
v 0.070131 -0.015284 -0.033756
vn 0.0457 -0.4939 -0.8683
vn -0.2525 -0.4535 -0.8548
vn 0.2564 0.9287 -0.2681
vn -0.5339 0.7179 -0.4467
vn -0.3809 -0.8105 0.4450
vn -0.4086 0.3532 0.8416
vn -0.3245 0.5135 0.7944
vn -0.4149 -0.3722 -0.8303
vn -0.1112 0.9510 0.2884
vn 0.3020 0.4130 0.8592
vn 0.1857 0.6438 0.7423
vn 0.3253 -0.8217 0.4680
vn 0.2246 0.4533 0.8626
vn 0.6135 -0.2747 -0.7404
vn 0.4589 0.7811 -0.4233
vn 0.2533 -0.8311 0.4951
vn -0.2152 0.9731 0.0826
vn -0.1508 -0.9869 0.0579
vn 0.0002 -1.0000 -0.0013
vn 0.0005 -1.0000 -0.0014
vn 0.0003 -1.0000 -0.0013
vn -0.0000 -1.0000 -0.0013
vn 0.0041 -1.0000 -0.0039
vn -0.0007 -1.0000 -0.0002
vn 0.0014 -1.0000 -0.0018
vn 0.0060 -1.0000 -0.0054
vn -0.0088 -0.9999 -0.0080
vn 0.4413 0.1732 0.8805
vn 0.2348 0.9166 -0.3236
vn 0.1345 0.9370 -0.3224
vn -0.2051 -0.9020 0.3799
vn 0.0653 0.9291 0.3639
vn -0.9980 0.0188 0.0605
vn 0.4376 -0.8594 0.2645
vn 0.4477 -0.5967 -0.6659
vn -0.9864 0.0174 -0.1634
vn 0.0756 -0.8557 0.5120
vt 0.654382 0.126437
vt 0.661789 0.130618
vt 0.646856 0.130654
vt 0.646908 0.351850
vt 0.639565 0.361082
vt 0.631833 0.352035
vt 0.766315 0.410900
vt 0.751509 0.412963
vt 0.751491 0.408912
vt 0.691722 0.292348
vt 0.691721 0.301096
vt 0.676879 0.296774
vt 0.885148 0.296580
vt 0.870265 0.300905
vt 0.870269 0.292177
vt 0.781076 0.386706
vt 0.781093 0.395504
vt 0.766252 0.391127
vt 0.780973 0.198056
vt 0.780974 0.206588
vt 0.766088 0.202341
vt 0.974162 0.202601
vt 0.959447 0.206862
vt 0.959420 0.198318
vt 0.736157 0.102580
vt 0.728741 0.111979
vt 0.721255 0.102628
vt 0.855138 0.421642
vt 0.855099 0.433135
vt 0.840328 0.427369
vt 0.736357 0.318469
vt 0.736367 0.327518
vt 0.721479 0.323050
vt 0.661877 0.323323
vt 0.646851 0.327876
vt 0.646970 0.318806
vt 0.646949 0.224147
vt 0.646810 0.233200
vt 0.631833 0.228516
vt 0.929830 0.228610
vt 0.914943 0.233090
vt 0.914936 0.224034
vt 0.736138 0.097892
vt 0.721209 0.093253
vt 0.900284 0.093255
vt 0.900237 0.102629
vt 0.885354 0.097892
vt 0.159943 0.247509
vt 0.154586 0.228117
vt 0.152260 0.247197
vt 0.114467 0.583028
vt 0.105567 0.584948
vt 0.108695 0.590237
vt 0.273806 0.666158
vt 0.268512 0.665271
vt 0.269862 0.671918
vt 0.280738 0.673508
vt 0.276671 0.680184
vt 0.282263 0.680889
vt 0.411105 0.660588
vt 0.412455 0.626892
vt 0.404332 0.628248
vt 0.104736 0.390067
vt 0.105514 0.380599
vt 0.098988 0.380268
vt 0.098217 0.389838
vt 0.299939 0.238718
vt 0.310454 0.236337
vt 0.310961 0.239013
vt 0.256400 0.379198
vt 0.263614 0.366904
vt 0.270707 0.381264
vt 0.207184 0.364870
vt 0.205377 0.381062
vt 0.203310 0.369563
vt 0.711853 0.589436
vt 0.709930 0.582670
vt 0.712743 0.581274
vt 0.268982 0.522951
vt 0.265216 0.536026
vt 0.260767 0.534476
vt 0.747674 0.638907
vt 0.746857 0.625035
vt 0.760692 0.626296
vt 0.759928 0.639895
vt 0.408449 0.333533
vt 0.403244 0.328150
vt 0.408452 0.322802
vt 0.377708 0.379998
vt 0.386350 0.378958
vt 0.381874 0.389778
vt 0.371792 0.564902
vt 0.359765 0.573459
vt 0.357452 0.565623
vt 0.369552 0.520654
vt 0.378292 0.531736
vt 0.373933 0.533498
s 1
usemtl MagnumSurvivalKnife_MTL
f 1/1/1 5/2/1 4/3/1
f 9/4/2 3/5/2 8/6/2
f 10/7/3 3/8/3 9/9/3
f 6/10/4 9/11/4 7/12/4
f 7/13/5 8/14/5 6/15/5
f 8/16/6 10/17/6 9/18/6
f 4/19/7 6/20/7 5/21/7
f 5/22/8 7/23/8 4/24/8
f 2/25/9 4/26/10 5/27/11
f 8/28/12 3/29/12 10/30/12
f 6/31/13 8/32/13 9/33/13
f 9/34/14 8/35/14 7/36/14
f 5/37/15 6/38/15 7/39/15
f 7/40/16 6/41/16 4/42/16
f 2/43/9 5/27/11 1/44/17
f 1/45/18 4/46/18 2/47/18
f 15/48/19 11/49/20 14/50/21
f 17/51/22 16/52/22 18/53/22
f 13/54/23 18/55/24 19/56/25
f 13/57/23 19/58/25 12/59/26
f 12/60/27 3/61/27 13/62/27
f 17/63/22 15/64/19 14/65/21 16/66/22
f 20/67/28 21/68/28 12/69/28
f 20/70/29 12/71/29 3/72/29
f 20/73/30 3/74/30 10/75/30
f 12/76/31 20/77/31 10/78/31
f 3/79/32 13/80/32 22/81/32
f 21/82/33 20/83/33 3/84/33 23/85/33
f 23/86/34 12/87/34 21/88/34
f 12/89/35 23/90/35 3/91/35
f 24/92/36 3/93/36 22/94/36
f 3/95/37 24/96/37 13/97/37
