# Blender 4.4.3
# www.blender.org
mtllib 7.mtl
o Magnum_Survival_Knife
v -0.059099 0.000001 -0.000568
v 0.065932 0.000239 -0.007112
v -0.027914 0.001811 0.008840
v -0.005015 -0.000002 -0.004219
v 0.017019 -0.002637 0.004552
v 0.029320 0.011207 0.004335
v 0.256748 0.000001 0.005631
v 0.098424 -0.000219 0.015213
v 0.110615 -0.000005 -0.012894
v 0.213950 -0.000026 0.007013
v 0.189022 0.000001 -0.008626
v 0.168071 -0.000033 0.014149
v 0.138782 -0.000025 0.010333
v 0.175793 0.000001 -0.017796
v 0.067128 0.012325 0.030016
v 0.066752 -0.014939 0.031278
vn -0.2384 0.1969 -0.9510
vn -0.0104 0.9878 -0.1555
vn -0.0068 -0.9999 -0.0106
vn 0.0041 -1.0000 -0.0059
vn -0.0003 1.0000 0.0005
vn -0.0001 -1.0000 -0.0016
vn -0.2248 -0.9244 0.3082
vn 0.4389 0.0355 0.8978
vn 0.2358 -0.9020 -0.3616
vt 0.661823 0.339794
vt 0.654402 0.351794
vt 0.646800 0.339858
vt 0.654239 0.139662
vt 0.661715 0.151550
vt 0.646695 0.151590
vt 0.398254 0.603039
vt 0.384635 0.604996
vt 0.384730 0.619645
vt 0.254410 0.676003
vt 0.259950 0.677256
vt 0.259044 0.669793
vt 0.464964 0.303339
vt 0.472103 0.302213
vt 0.469157 0.306666
vt 0.159142 0.487139
vt 0.154441 0.483815
vt 0.150917 0.488520
vt 0.048260 0.418711
vt 0.042986 0.429072
vt 0.053309 0.429177
vt 0.747046 0.523011
vt 0.749505 0.530041
vt 0.738528 0.530304
vt 0.352366 0.219340
vt 0.346448 0.209918
vt 0.362068 0.213983
vt 0.424364 0.343582
vt 0.428174 0.348930
vt 0.426497 0.355098
s 1
usemtl MagnumSurvivalKnife_MTL
f 6/1/1 2/2/1 5/3/1
f 1/4/2 3/5/2 4/6/2
f 2/7/3 9/8/3 8/9/3
f 13/10/4 8/11/4 9/12/4
f 14/13/5 13/14/5 11/15/5
f 13/16/6 11/17/6 12/18/6
f 10/19/6 12/20/6 11/21/6
f 15/22/7 2/23/7 8/24/7
f 8/25/8 15/26/8 16/27/8
f 8/28/9 16/29/9 2/30/9
l 5 4
l 7 10
