# Blender 4.4.3
# www.blender.org
mtllib 8.mtl
o Magnum_Survival_Knife
v -0.058196 0.000001 -0.000251
v 0.066004 0.000217 -0.005895
v -0.012719 0.000697 0.002797
v 0.010743 -0.001368 -0.001969
v 0.024122 0.003061 0.011928
v 0.254085 0.000001 0.005433
v 0.101756 -0.000028 0.015492
v 0.209576 -0.000028 0.005673
v 0.183164 0.000001 -0.006763
v 0.164774 -0.000033 0.014251
v 0.137449 -0.000019 0.007855
v 0.107620 0.000001 -0.017367
vn 0.0463 -0.9638 0.2626
vn 0.0001 -1.0000 -0.0009
vn -0.0002 -1.0000 -0.0018
vt 0.877662 0.339422
vt 0.885072 0.351369
vt 0.870200 0.351321
vt 0.308236 0.615777
vt 0.303936 0.615799
vt 0.305814 0.624143
vt 0.043236 0.449949
vt 0.037646 0.439509
vt 0.032489 0.449688
s 1
usemtl MagnumSurvivalKnife_MTL
f 4/1/1 2/2/1 5/3/1
f 12/4/2 11/5/2 7/6/2
f 9/7/3 8/8/3 10/9/3
l 3 4
l 3 1
l 6 8
l 11 10
l 2 7
