# Blender 4.4.3
# www.blender.org
mtllib 9.mtl
o Magnum_Survival_Knife
v -0.057795 0.000001 -0.000153
v 0.066665 0.000198 -0.004706
v -0.010110 0.000001 0.002537
v 0.012271 0.000001 -0.000897
v 0.252689 0.000001 0.005060
v 0.104521 -0.000027 0.015679
v 0.207619 -0.000030 0.005707
v 0.165524 -0.000029 0.012005
v 0.137287 -0.000020 0.007171
v 0.202904 0.000001 -0.017797
vn -0.0002 -1.0000 -0.0013
vt 0.165846 0.389469
vt 0.159024 0.384393
vt 0.158249 0.393103
s 1
usemtl MagnumSurvivalKnife_MTL
f 10/1/1 7/2/1 8/3/1
l 1 3
l 4 3
l 2 4
l 5 7
l 2 6
l 9 6
l 9 8
