# Blender 4.4.3
# www.blender.org
mtllib 5.mtl
o texturedMesh
v 0.091164 0.220727 -0.092198
v -0.075994 -0.128953 0.154786
v 0.161452 -0.065702 0.088918
v -0.098524 0.138413 0.141731
v 0.115144 0.138638 -0.122533
v 0.004956 0.297708 -0.069666
v -0.052833 0.268730 -0.089002
v -0.020530 0.194261 0.020098
v 0.163315 0.102542 0.053354
v 0.049550 -0.287778 -0.004846
v 0.032243 -0.094715 0.211572
v -0.056424 0.184701 -0.193473
v 0.153720 -0.073967 -0.048928
v 0.044559 -0.021757 -0.154941
v 0.077198 0.082190 -0.099133
v -0.071099 -0.042945 0.190950
v 0.132079 0.187426 0.050524
v -0.151587 0.081219 0.100000
v 0.072251 -0.298879 0.089555
v -0.037100 -0.030019 -0.167520
v 0.095386 -0.035546 -0.064246
v 0.003809 -0.271628 0.128692
v -0.172096 0.129192 -0.109723
v 0.093458 -0.165228 -0.065463
v 0.034970 0.052435 -0.183866
v 0.043218 -0.246158 -0.081701
v -0.143045 -0.081847 -0.079061
v 0.119966 0.090092 -0.043346
v -0.015874 -0.131610 0.187763
v -0.083758 -0.266680 0.000124
v 0.104178 0.016065 0.156015
v 0.111805 0.076842 0.016583
v -0.064344 -0.223425 0.140940
v 0.107939 -0.222311 0.145349
v 0.127901 -0.153760 0.138338
v 0.113092 -0.017305 0.096537
v -0.002067 0.145207 0.166281
v 0.030194 0.022224 0.214676
v -0.103030 0.003047 0.118626
v 0.026219 -0.186545 0.183232
v -0.204858 0.082765 0.027951
v 0.030292 0.076186 0.167058
v 0.155294 0.023716 -0.021945
v 0.125671 0.095049 0.129218
v -0.125427 0.202791 -0.127933
v 0.166472 -0.068613 0.019272
v 0.016406 0.229840 -0.027089
v 0.067030 0.151258 0.018460
v 0.139996 -0.222938 0.032451
v -0.160014 0.170596 0.026010
v 0.186041 0.019087 0.062498
v 0.050102 0.229762 -0.156586
v -0.128387 0.019237 -0.116163
v -0.181462 -0.020964 0.102057
v 0.143677 -0.164269 -0.012972
v 0.132748 0.219974 -0.153951
v -0.020680 0.307809 0.006436
v 0.140479 0.188251 0.111253
v 0.018105 0.295832 -0.129909
v 0.064462 0.173224 0.123256
v -0.176988 -0.105340 0.065114
v 0.078746 0.036707 -0.122979
v 0.110656 0.182475 -0.187595
v -0.052806 0.235861 -0.144087
v -0.130744 -0.057587 0.146774
v -0.185172 0.164833 -0.044718
v -0.083391 0.083699 -0.159989
v -0.129216 0.229086 -0.026416
v -0.120572 -0.235479 0.042284
v 0.009025 0.141606 -0.032718
v -0.192200 0.072319 -0.053911
v 0.143739 -0.153224 0.066265
v -0.107642 -0.169150 -0.091483
v 0.053756 0.163909 -0.071424
v 0.092991 -0.115986 0.159959
v -0.032265 -0.176473 -0.121249
v 0.054623 -0.143283 -0.150468
v -0.082692 0.181074 0.040985
v -0.082045 0.077025 0.148341
v -0.170467 -0.152912 -0.005815
v 0.010526 -0.317657 0.065574
v 0.093806 -0.036513 -0.116886
v -0.035506 -0.271564 0.069569
v -0.081978 -0.234045 -0.090156
v 0.062508 -0.196734 -0.124762
v -0.198985 -0.062922 -0.028350
v 0.025645 0.127162 -0.177873
v 0.078876 -0.198283 0.188941
v 0.096362 -0.104906 -0.100289
v -0.059998 -0.102435 -0.151228
v -0.122534 -0.190819 0.060361
v -0.109828 -0.020702 -0.165617
v 0.163355 -0.132607 -0.051327
v 0.089885 -0.235576 -0.026722
v -0.027675 -0.280506 0.017593
v -0.142534 -0.182293 0.127909
v 0.198308 0.009494 0.005549
v 0.007417 -0.199955 -0.114318
v 0.013417 0.183694 0.082951
v 0.174837 0.153233 0.106722
v 0.055469 -0.236032 0.130458
v 0.199895 -0.022680 0.021469
v 0.160794 -0.122420 0.003730
v -0.046426 0.029761 0.186270
v 0.092308 -0.237699 0.058948
v 0.038947 -0.043117 0.174970
v 0.124418 0.155347 0.144472
v 0.064701 0.129427 0.166669
v 0.092693 -0.067166 0.137942
v -0.013557 0.367226 -0.002369
v 0.153201 -0.109644 0.128796
v 0.102501 0.065625 0.172680
v -0.179201 0.232721 -0.084476
v -0.103380 -0.205336 -0.031469
v -0.117303 0.168708 -0.190587
v 0.091223 0.175926 -0.019941
v -0.052338 0.038165 -0.205486
v -0.106876 0.135179 0.054272
v -0.169214 0.062995 -0.132219
v 0.079767 0.105562 -0.180765
v -0.020540 0.274259 -0.149604
v -0.090682 0.221652 -0.071238
v -0.012085 0.032212 0.052547
v -0.169275 0.244870 -0.059955
v -0.075635 0.126260 -0.061932
v -0.010272 0.176973 -0.133747
v -0.182932 0.037772 -0.020638
v 0.014977 -0.087972 -0.129984
v 0.014267 0.068388 0.016955
v -0.033243 0.205791 -0.053841
v -0.110417 0.129548 -0.174032
v -0.215024 -0.011900 -0.003511
v -0.053291 0.159775 0.096958
v 0.011205 0.187592 0.136814
v -0.188169 -0.010643 -0.081760
v -0.179839 -0.031021 0.041012
v -0.015213 -0.014660 0.225321
v -0.085421 0.044475 0.035768
v -0.046232 -0.192036 0.192728
v -0.040881 0.110617 -0.175412
v -0.155881 -0.103100 0.127102
v -0.150247 -0.132890 0.136193
v -0.090728 -0.278626 0.075278
v -0.064719 0.063220 -0.022315
v -0.211177 0.010887 -0.060677
v -0.092375 -0.227950 0.091866
v -0.150495 0.133719 0.080507
v -0.180492 0.014645 0.044739
v -0.159933 -0.145732 -0.051111
v -0.019828 -0.263905 -0.055129
v 0.151332 0.186823 -0.130088
v 0.057584 -0.081174 -0.127104
v -0.041566 -0.235173 -0.055312
v 0.055816 0.020281 -0.047147
v 0.056845 -0.180628 -0.006805
v 0.119909 -0.211379 0.088001
v -0.007569 -0.230795 0.187590
v -0.038601 0.091876 0.137953
v 0.134955 0.042276 0.092636
v 0.012393 0.117815 0.078937
v 0.110447 0.148353 -0.053258
v -0.016289 0.048368 0.220857
v 0.056422 0.269757 -0.077170
v -0.000286 -0.138651 -0.153554
v 0.124767 0.132748 -0.016355
v -0.008959 0.069155 -0.073021
v 0.026607 -0.029773 0.014109
v 0.091615 0.151573 -0.184673
v -0.034415 0.060226 -0.024433
v -0.038921 0.174765 -0.077991
v -0.079118 0.131098 -0.198673
v -0.223057 0.144130 0.012125
v -0.122261 -0.099534 -0.143382
v -0.101714 0.031610 -0.200171
v -0.098368 0.176004 -0.019423
v -0.199768 0.136055 0.060155
v -0.193888 0.043759 0.088268
v 0.002203 -0.018830 0.050466
v -0.019416 -0.115463 0.120903
v -0.082315 -0.017052 -0.067621
v -0.164470 -0.162551 0.080795
v -0.156853 -0.072814 0.019209
v -0.118852 0.043618 -0.176996
v 0.126452 -0.112130 0.029239
v -0.040049 -0.022587 0.004867
v 0.177323 -0.021919 -0.022191
v -0.119519 -0.093673 0.120541
v 0.067179 0.079158 0.070684
v -0.005407 0.129197 -0.112640
v -0.033312 0.302196 -0.127197
v -0.065812 0.002044 0.017015
v -0.032511 0.007500 0.116895
v -0.046923 0.108839 0.052498
v -0.020414 -0.038658 0.025283
v -0.060722 0.110004 0.062823
v -0.141884 0.027549 0.127137
v -0.045730 -0.015372 0.035037
v -0.001800 0.018602 -0.139730
v -0.023829 -0.058403 0.171449
v 0.071551 0.014009 0.034826
v 0.145620 0.040717 0.133541
v -0.134578 0.073397 0.021769
v -0.044284 0.075739 -0.092017
vn 0.5876 -0.4594 0.6661
vn -0.3479 -0.2778 0.8954
vn -0.1415 -0.4459 -0.8838
vn -0.1652 0.4328 0.8862
vn -0.0285 -0.4911 -0.8706
vn 0.8135 -0.1502 -0.5618
vn 0.4750 0.4110 -0.7781
vn 0.4768 -0.1904 -0.8581
vn 0.9164 -0.3966 0.0546
vn 0.8992 -0.2291 0.3728
vn 0.1801 0.6698 -0.7204
vn 0.9867 0.1615 0.0160
vn 0.4428 -0.8323 0.3333
vn 0.6344 0.3907 0.6670
vn 0.7796 -0.5294 0.3346
vn -0.3856 -0.2338 0.8926
vn 0.3995 -0.2518 0.8815
vn -0.0414 0.7033 0.7097
vn 0.2457 0.9675 -0.0599
vn 0.7028 0.7033 -0.1068
vn -0.3188 0.5200 -0.7925
vn 0.6397 -0.1452 0.7548
vn 0.6357 -0.5018 -0.5866
vn -0.0225 0.0771 -0.9968
vn -0.1315 -0.6034 0.7865
vn -0.5242 0.3959 -0.7540
vn -0.4219 0.9056 -0.0427
vn -0.4502 0.7586 -0.4710
vn -0.2029 0.9368 -0.2851
vn 0.0448 0.8897 0.4544
vn 0.6670 -0.5090 -0.5440
vn 0.5393 0.7419 -0.3985
vn -0.8984 -0.1611 0.4085
vn -0.4270 0.8349 0.3474
vn -0.7224 -0.3252 -0.6102
vn -0.7622 0.0328 0.6465
vn -0.9428 -0.0795 0.3239
vn -0.4664 -0.3202 0.8246
vn -0.8446 -0.1911 0.5001
vn -0.8301 -0.2522 0.4974
vn -0.1853 -0.9677 -0.1710
vn -0.5842 -0.3309 -0.7411
vn -0.7896 -0.3509 -0.5034
vn -0.8602 0.2148 0.4626
vn -0.5955 0.6538 -0.4669
vn 0.1496 0.7688 -0.6218
vn 0.3122 0.1258 -0.9417
vn -0.7775 -0.5896 -0.2185
vn -0.3761 -0.1674 -0.9113
vn 0.9069 -0.2425 -0.3445
vn 0.6202 0.1335 -0.7730
vn 0.3822 -0.4758 -0.7922
vn 0.4522 -0.7877 -0.4183
vn 0.6220 0.0630 -0.7805
vn 0.5418 -0.2563 -0.8005
vn 0.6682 0.3504 -0.6562
vn 0.9991 0.0299 -0.0305
vn 0.8102 0.5850 -0.0351
vn 0.1250 -0.3983 -0.9087
vn 0.6475 0.2411 -0.7230
vn 0.0071 0.3518 -0.9361
vn -0.1093 -0.6284 -0.7702
vn 0.8513 -0.4917 -0.1830
vn 0.9072 -0.2374 -0.3474
vn 0.6489 -0.6278 -0.4299
vn 0.6312 -0.6591 -0.4089
vn 0.0451 -0.8769 -0.4786
vn 0.7831 -0.6208 -0.0375
vn 0.8722 -0.4153 -0.2586
vn 0.3533 -0.9154 -0.1926
vn 0.2794 -0.9596 -0.0317
vn 0.7271 -0.4482 -0.5200
vn -0.7839 -0.2685 -0.5598
vn 0.0843 0.9684 -0.2349
vn 0.6708 -0.3836 -0.6347
vn 0.5607 0.6719 0.4839
vn 0.5141 -0.2876 0.8081
vn 0.3814 -0.5250 -0.7608
vn 0.3909 0.2392 -0.8888
vn 0.9637 -0.2545 0.0801
vn 0.5357 -0.3531 -0.7670
vn 0.9725 0.1400 0.1859
vn 0.5813 0.2848 -0.7622
vn 0.4645 0.2288 -0.8555
vn 0.7509 -0.5274 -0.3974
vn 0.8722 -0.1817 -0.4541
vn 0.9270 -0.3453 -0.1462
vn 0.9729 -0.2174 0.0792
vn 0.9824 -0.0518 -0.1796
vn 0.9015 -0.4162 0.1189
vn 0.9983 -0.0571 0.0072
vn 0.9807 -0.1953 -0.0123
vn 0.9336 -0.3335 0.1313
vn 0.9450 -0.2541 0.2058
vn 0.2151 -0.9674 0.1334
vn 0.6873 -0.7263 0.0050
vn 0.8867 -0.0614 0.4582
vn 0.0875 0.5597 -0.8241
vn 0.0162 -0.8070 0.5903
vn 0.0752 -0.8512 0.5194
vn -0.2360 -0.7707 0.5919
vn 0.2923 -0.4656 0.8353
vn 0.6005 -0.3897 0.6983
vn -0.0271 0.3362 0.9414
vn -0.2526 -0.2702 0.9291
vn 0.5639 -0.2771 0.7779
vn 0.6369 0.1566 0.7548
vn 0.7767 -0.1640 0.6082
vn 0.5563 -0.3758 0.7411
vn 0.4715 -0.2488 0.8460
vn 0.6764 0.3062 0.6699
vn 0.5247 0.4065 0.7480
vn 0.4819 0.5375 0.6920
vn 0.8690 -0.4578 0.1876
vn 0.4646 -0.0756 0.8823
vn 0.3933 0.3800 0.8372
vn 0.3356 0.1901 0.9226
vn 0.9482 0.2755 0.1578
vn 0.8993 -0.3098 0.3086
vn 0.4661 -0.1136 0.8774
vn -0.2443 0.5230 -0.8165
vn 0.5721 0.2417 0.7838
vn -0.6394 0.6078 0.4709
vn 0.9467 0.2786 -0.1616
vn 0.8821 0.3129 -0.3522
vn -0.3939 -0.9027 -0.1733
vn -0.1253 0.7748 -0.6197
vn -0.3294 -0.2213 0.9179
vn 0.4537 0.2942 -0.8412
vn 0.0696 -0.7757 0.6273
vn -0.6433 0.3977 0.6542
vn -0.6662 0.3804 0.6415
vn -0.8872 0.3473 -0.3038
vn 0.3857 -0.9171 0.1008
vn 0.0862 -0.9898 0.1135
vn -0.0767 -0.2920 -0.9533
vn 0.4208 0.7154 -0.5578
vn 0.0057 -0.0218 0.9997
vn 0.6401 0.5426 0.5439
vn 0.5836 -0.1877 0.7900
vn 0.9198 0.3196 -0.2276
vn 0.4444 -0.8833 -0.1495
vn 0.3682 0.2073 0.9063
vn 0.5450 0.5542 0.6292
vn -0.1200 -0.3201 0.9398
vn -0.0699 0.0524 0.9962
vn -0.0035 0.0096 0.9999
vn 0.9057 -0.1073 0.4102
vn 0.6367 0.4371 0.6353
vn 0.1229 0.5403 0.8325
vn 0.3476 0.6610 0.6650
vn 0.3358 0.9235 -0.1854
vn -0.3795 0.8568 0.3490
vn -0.4003 0.8949 -0.1974
vn -0.1919 0.9813 0.0132
vn -0.0321 0.7178 0.6955
vn 0.5482 0.4464 0.7072
vn 0.8384 0.2932 -0.4595
vn 0.3686 0.8094 -0.4572
vn 0.9622 0.2710 0.0272
vn 0.3766 0.3926 -0.8391
vn -0.3119 0.9334 0.1774
vn 0.5449 -0.8184 -0.1824
vn 0.1153 0.9912 0.0655
vn 0.4419 -0.1945 0.8757
vn 0.6312 0.6540 0.4170
vn 0.0993 0.6315 -0.7690
vn 0.8143 0.0397 -0.5790
vn 0.6838 -0.5824 -0.4396
vn 0.7679 -0.2767 0.5777
vn 0.8837 -0.2606 -0.3889
vn 0.7648 -0.5086 -0.3955
vn 0.9205 0.2164 0.3252
vn 0.8802 -0.3127 -0.3571
vn 0.5735 0.5346 -0.6207
vn 0.9806 -0.1709 0.0957
vn 0.9411 0.0987 -0.3234
vn 0.9848 0.1682 0.0432
vn 0.6628 -0.6198 -0.4203
vn -0.8470 0.5156 -0.1297
vn -0.2964 -0.9484 0.1129
vn 0.6154 -0.0890 0.7832
vn 0.7907 0.6102 -0.0488
vn 0.5623 0.3191 0.7629
vn 0.5599 0.4904 0.6678
vn 0.2094 0.4190 -0.8835
vn 0.8277 0.5135 0.2262
vn 0.2475 -0.1755 -0.9529
vn 0.7883 -0.1324 -0.6009
vn 0.1766 -0.3376 -0.9246
vn 0.6753 -0.5970 -0.4331
vn -0.7757 0.6167 0.1341
vn -0.7302 0.5750 0.3690
vn -0.1452 -0.6064 -0.7818
vn -0.5317 0.8243 0.1945
vn -0.4085 0.7135 0.5692
vn -0.5519 0.2935 -0.7805
vn -0.5280 -0.7779 -0.3406
vn 0.8663 0.0947 0.4905
vn 0.9579 -0.1071 0.2664
vn 0.3135 -0.2230 0.9230
vn -0.6698 0.0588 -0.7402
vn -0.0878 -0.0400 -0.9953
vn -0.0788 -0.0642 -0.9948
vn -0.2735 0.2575 -0.9268
vn 0.2705 0.7573 -0.5945
vn -0.4778 0.5907 0.6502
vn 0.3990 0.5347 0.7449
vn 0.6537 0.2436 0.7165
vn 0.4846 0.8712 0.0786
vn 0.7040 0.6102 -0.3633
vn -0.7536 -0.6095 0.2462
vn 0.7943 0.5149 -0.3225
vn -0.4681 0.4116 0.7820
vn -0.5543 0.2677 0.7881
vn -0.1435 0.4483 0.8823
vn -0.4132 0.9029 -0.1183
vn 0.1247 0.7138 0.6892
vn 0.0380 0.6357 -0.7710
vn -0.8813 -0.0245 -0.4719
vn -0.7428 0.5748 -0.3434
vn 0.1953 0.4471 -0.8729
vn -0.1228 -0.0393 -0.9917
vn 0.1697 0.3548 -0.9194
vn -0.0550 0.0730 -0.9958
vn 0.1325 -0.3978 0.9079
vn 0.4708 -0.1145 -0.8748
vn -0.2505 -0.8928 -0.3743
vn -0.1142 -0.3519 -0.9290
vn 0.0218 -0.2325 -0.9724
vn -0.6724 0.4350 0.5989
vn -0.6482 0.2515 0.7187
vn 0.3610 -0.5278 -0.7689
vn 0.0588 0.8340 0.5486
vn -0.1259 -0.5949 0.7939
vn 0.8199 -0.1045 0.5630
vn 0.0202 -0.1588 -0.9871
vn -0.2076 -0.1787 -0.9618
vn 0.5811 0.7327 -0.3542
vn 0.7365 0.4421 -0.5119
vn -0.7945 0.5213 -0.3114
vn -0.3762 -0.5253 0.7633
vn 0.2452 0.1324 0.9604
vn 0.7539 0.0593 0.6543
vn 0.5885 0.2338 0.7740
vn 0.8424 0.2612 0.4713
vn 0.2971 -0.8842 0.3603
vn -0.9468 -0.2597 0.1900
vn 0.8551 0.4801 0.1957
vn 0.7016 0.6317 -0.3297
vn -0.1557 0.6757 -0.7206
vn -0.9639 0.0978 -0.2475
vn -0.9562 0.0560 -0.2873
vn -0.1661 -0.4725 -0.8655
vn -0.7078 0.1995 -0.6777
vn -0.1965 -0.3912 -0.8991
vn -0.5531 -0.4050 -0.7280
vn -0.0810 0.1302 -0.9882
vn -0.9825 -0.1843 -0.0272
vn -0.6944 0.2759 -0.6645
vn -0.8170 0.4204 -0.3948
vn -0.6965 -0.3160 -0.6442
vn -0.2133 0.6863 -0.6953
vn 0.1029 0.8741 -0.4747
vn 0.2016 0.8857 -0.4182
vn 0.2946 0.9508 0.0956
vn -0.5573 0.2608 0.7883
vn -0.9358 0.2358 0.2620
vn 0.7036 0.4782 0.5256
vn -0.7657 0.6032 0.2232
vn 0.8495 0.4596 -0.2590
vn -0.7551 -0.0793 -0.6508
vn -0.3516 0.9326 -0.0819
vn -0.7484 0.2445 0.6165
vn -0.4851 -0.2955 -0.8230
vn -0.2815 0.9450 0.1665
vn -0.5722 -0.0656 0.8175
vn -0.5191 0.8547 -0.0075
vn -0.2089 -0.3433 0.9157
vn 0.1801 0.1530 0.9717
vn -0.4180 -0.1860 0.8892
vn -0.5949 0.5760 0.5606
vn -0.1437 0.9417 0.3041
vn -0.9538 0.0061 -0.3004
vn 0.3660 -0.8969 0.2484
vn -0.3465 0.3328 0.8770
vn 0.9638 -0.1102 -0.2429
vn -0.1989 0.7952 0.5728
vn -0.0164 -0.6385 -0.7694
vn -0.2266 0.0627 -0.9720
vn 0.3112 0.2601 -0.9141
vn 0.4041 0.4756 -0.7813
vn 0.6529 0.4567 0.6043
vn -0.8285 0.4026 -0.3891
vn 0.4975 -0.4846 0.7195
vn -0.2705 -0.8331 0.4825
vn -0.1895 0.8475 -0.4959
vn -0.4855 0.7668 0.4199
vn 0.6308 -0.4042 -0.6623
vn 0.9442 0.2296 0.2362
vn 0.9389 0.1769 0.2951
vn 0.7817 0.5029 0.3688
vn 0.0366 0.6563 0.7536
vn 0.9173 0.1410 0.3724
vn 0.2014 -0.9509 -0.2351
vn 0.9261 0.3023 0.2258
vn -0.7771 -0.2695 0.5688
vn -0.3988 0.9146 0.0673
vn -0.8455 0.1160 -0.5212
vn -0.9454 -0.3079 -0.1069
vn -0.7308 0.1850 0.6570
vn -0.9988 -0.0445 -0.0192
vn -0.6495 0.5791 0.4927
vn -0.9643 -0.2174 -0.1514
vn -0.9358 -0.3483 -0.0550
vn -0.9272 -0.1904 0.3226
vn -0.6489 0.0298 0.7603
vn -0.3671 0.1259 0.9216
vn -0.9996 -0.0123 -0.0246
vn 0.1161 0.9324 0.3423
vn 0.9544 -0.2933 0.0562
vn -0.0270 -0.3660 0.9302
vn -0.9816 -0.0236 -0.1893
vn 0.3747 0.8106 -0.4500
vn -0.0675 0.9460 -0.3171
vn -0.2340 0.5130 0.8259
vn 0.2478 -0.2396 -0.9387
vn -0.3254 0.5164 0.7921
vn -0.0641 -0.4166 0.9068
vn -0.5856 0.0598 0.8084
vn -0.5029 0.3159 0.8046
vn -0.5314 0.3038 0.7908
vn 0.4364 0.2406 0.8670
vn -0.9768 -0.0604 0.2053
vn -0.6585 0.4905 0.5708
vn 0.5851 -0.2510 0.7712
vn -0.1824 0.6179 0.7648
vn 0.0791 -0.8290 0.5536
vn 0.4266 0.5980 0.6786
vn 0.5034 -0.3985 0.7667
vn -0.5962 0.2514 0.7625
vn 0.1714 0.0725 0.9825
vn -0.6151 0.2567 0.7454
vn -0.7416 0.5299 0.4113
vn -0.5167 -0.3067 0.7993
vn -0.2284 -0.1956 0.9537
vn -0.8931 -0.1711 0.4161
vn -0.2486 -0.1704 0.9535
vn 0.1301 -0.0017 0.9915
vn -0.5451 -0.6188 0.5657
vn 0.1287 0.0168 0.9915
vn 0.4549 -0.6883 0.5651
vn -0.0879 0.9672 0.2382
vn -0.4634 -0.7677 0.4427
vn -0.4495 0.2951 0.8432
vn 0.1622 -0.7864 0.5960
vn -0.4812 -0.8041 0.3490
vn -0.7155 -0.6873 -0.1251
vn -0.4805 -0.8047 0.3486
vn -0.5035 -0.7968 0.3340
vn -0.6255 -0.6606 0.4152
vn -0.7068 -0.7072 0.0152
vn -0.2199 -0.8483 -0.4818
vn 0.1437 -0.9714 0.1888
vn -0.7439 -0.6458 -0.1717
vn -0.8273 -0.2416 0.5072
vn -0.8400 -0.1933 0.5070
vn -0.8026 -0.5269 0.2796
vn -0.9176 -0.2008 0.3431
vn -0.9436 -0.1221 0.3077
vn -0.5807 -0.8112 -0.0695
vn -0.6464 -0.1559 -0.7469
vn -0.8983 -0.3509 -0.2645
vn -0.6897 -0.1294 -0.7125
vn -0.6782 -0.4518 -0.5796
vn -0.8390 -0.1967 -0.5074
vn -0.3152 0.8341 0.4527
vn -0.9555 -0.2781 0.0987
vn -0.7837 -0.4531 0.4248
vn -0.9615 -0.2268 -0.1551
vn -0.7981 0.5763 0.1760
vn 0.3273 -0.8750 0.3567
vn -0.7773 0.5834 0.2354
vn -0.7956 -0.0606 0.6027
vn -0.9304 -0.3552 -0.0909
vn -0.6167 -0.7872 -0.0042
vn -0.6546 -0.7082 -0.2645
vn -0.6058 -0.6996 -0.3788
vn -0.9175 -0.3660 -0.1555
vn -0.3747 -0.2711 -0.8866
vn -0.9767 0.0422 -0.2104
vn -0.7320 -0.0296 0.6807
vn 0.6649 0.7451 -0.0530
vn 0.6785 0.7331 -0.0476
vn -0.1730 -0.5948 0.7850
vn -0.8885 -0.2369 -0.3931
vn 0.1351 0.0481 -0.9897
vn -0.1382 -0.6404 -0.7555
vn -0.5555 -0.4249 -0.7148
vn -0.8103 -0.4515 -0.3734
vn -0.5137 -0.5170 -0.6848
vn -0.0479 -0.8523 -0.5208
vn -0.3060 -0.8945 0.3260
vn -0.1588 -0.9587 -0.2360
vn -0.2949 -0.6927 -0.6582
vn 0.4583 -0.6950 -0.5540
vn -0.3641 -0.4635 -0.8079
vn -0.3079 -0.4539 -0.8362
vn 0.0019 -0.5389 -0.8424
vn -0.1803 -0.5462 -0.8180
vn 0.0850 0.3990 -0.9130
vn 0.1873 0.3673 -0.9110
vn 0.1794 -0.4161 -0.8914
vn 0.3133 -0.3017 -0.9005
vn 0.7590 -0.6345 0.1460
vn 0.2821 -0.4178 -0.8636
vn -0.0910 -0.5390 -0.8374
vn -0.4182 0.6425 -0.6421
vn -0.1657 0.6382 -0.7518
vn -0.3729 0.6220 -0.6885
vn -0.6940 -0.2187 -0.6859
vn -0.8348 -0.2073 -0.5099
vn -0.7522 -0.6213 0.2195
vn -0.9011 0.3116 -0.3016
vn -0.3940 -0.6174 -0.6808
vn -0.6783 -0.4518 -0.5795
vn -0.1325 -0.2497 -0.9592
vn -0.0517 -0.2036 -0.9777
vn -0.9451 0.0584 -0.3215
vn -0.6058 0.4924 -0.6250
vn -0.1270 -0.6099 -0.7823
vn -0.9173 -0.3432 -0.2020
vn 0.9514 -0.1848 0.2462
vn 0.6309 0.3264 0.7038
vn 0.0058 -0.7768 0.6298
vn -0.7466 -0.5272 0.4058
vn 0.0915 0.3064 0.9475
vn 0.2785 -0.5065 0.8160
vn -0.0353 0.7841 0.6197
vn -0.8965 -0.2357 -0.3751
vn -0.4727 -0.5176 -0.7132
vn 0.1759 0.9843 0.0141
vn 0.8490 0.5284 -0.0027
vn -0.3587 0.8210 0.4443
vn -0.0811 0.3713 -0.9250
vn 0.2815 0.6147 -0.7368
vn -0.7321 0.2901 -0.6163
vn 0.7622 0.0772 0.6428
vn 0.8482 0.2839 0.4471
vn -0.1091 -0.9894 -0.0953
vn 0.5231 -0.8511 -0.0437
vn -0.9249 0.1812 0.3342
vn -0.7026 -0.1685 -0.6914
vn 0.7036 -0.3376 -0.6253
vn 0.1327 0.9702 -0.2029
vn 0.2474 0.1757 -0.9528
vn 0.7747 0.5182 -0.3624
vn -0.2182 0.9738 0.0646
vn -0.7110 -0.4135 -0.5688
vn -0.9427 0.1838 0.2783
vn -0.0279 -0.9060 -0.4223
vn -0.9327 -0.3465 -0.1000
vn 0.1118 0.5426 0.8325
vn 0.0666 0.9746 0.2140
vn -0.9632 0.1003 0.2495
vn -0.0508 0.9376 0.3440
vn -0.4721 0.5455 -0.6925
vn 0.1712 0.3202 -0.9318
vn 0.5598 -0.8194 0.1236
vn -0.7551 0.0516 -0.6536
vn 0.0620 -0.9792 0.1934
vn 0.2218 0.6568 -0.7207
vn -0.6568 -0.5997 0.4571
vt 0.172578 0.903577
vt 0.172846 0.904148
vt 0.172338 0.903948
vt 0.299359 0.361481
vt 0.299539 0.361055
vt 0.299936 0.361691
vt 0.118510 0.864320
vt 0.118589 0.863870
vt 0.119062 0.864281
vt 0.007102 0.407896
vt 0.006589 0.407895
vt 0.006983 0.407328
vt 0.118627 0.446706
vt 0.118239 0.446997
vt 0.118302 0.446441
vt 0.212683 0.056902
vt 0.212206 0.057144
vt 0.212290 0.056503
vt 0.095554 0.417166
vt 0.095643 0.417563
vt 0.095085 0.417647
vt 0.117447 0.363993
vt 0.117787 0.363363
vt 0.118250 0.364039
vt 0.009761 0.033169
vt 0.009717 0.033574
vt 0.009339 0.033220
vt 0.013084 0.235523
vt 0.012523 0.235485
vt 0.012755 0.235168
vt 0.077147 0.755707
vt 0.077499 0.755782
vt 0.077237 0.756077
vt 0.024886 0.043930
vt 0.024874 0.044460
vt 0.024382 0.043887
vt 0.291630 0.759974
vt 0.291102 0.759765
vt 0.291326 0.759366
vt 0.206808 0.871556
vt 0.207292 0.871207
vt 0.207446 0.871812
vt 0.084807 0.310264
vt 0.085500 0.310202
vt 0.085128 0.310719
vt 0.114476 0.652307
vt 0.114813 0.651665
vt 0.114988 0.652335
vt 0.140049 0.849684
vt 0.140074 0.849083
vt 0.140409 0.849584
vt 0.214701 0.507873
vt 0.214817 0.508272
vt 0.214317 0.508271
vt 0.283213 0.013275
vt 0.282900 0.013354
vt 0.282945 0.012970
vt 0.232923 0.324532
vt 0.232780 0.324835
vt 0.232643 0.324421
vt 0.228441 0.135264
vt 0.227964 0.133285
vt 0.230265 0.131342
vt 0.182935 0.742407
vt 0.182738 0.741547
vt 0.182056 0.742008
vt 0.084064 0.921618
vt 0.084650 0.921523
vt 0.084565 0.921913
vt 0.398269 0.957658
vt 0.398288 0.957903
vt 0.398025 0.957864
vt 0.208185 0.286597
vt 0.207379 0.289177
vt 0.210584 0.287888
vt 0.192951 0.412187
vt 0.192438 0.411953
vt 0.192579 0.411459
vt 0.318300 0.775264
vt 0.318011 0.774951
vt 0.318568 0.774847
vt 0.071881 0.723252
vt 0.072486 0.723229
vt 0.072256 0.723838
vt 0.313216 0.820087
vt 0.312646 0.819834
vt 0.313177 0.819489
vt 0.127101 0.835286
vt 0.127619 0.835161
vt 0.127403 0.835679
vt 0.043834 0.294197
vt 0.044459 0.294410
vt 0.044204 0.294789
vt 0.090567 0.369422
vt 0.090689 0.368682
vt 0.091288 0.368813
vt 0.339832 0.122759
vt 0.339723 0.123060
vt 0.339306 0.122802
vt 0.032744 0.126453
vt 0.032989 0.126641
vt 0.032889 0.126856
vt 0.055377 0.259110
vt 0.053323 0.260769
vt 0.054169 0.257931
vt 0.293230 0.131283
vt 0.293353 0.131692
vt 0.292978 0.131587
vt 0.072296 0.041674
vt 0.072524 0.041262
vt 0.072607 0.041889
vt 0.274161 0.427229
vt 0.273930 0.426730
vt 0.274478 0.427094
vt 0.170958 0.793662
vt 0.170523 0.793852
vt 0.170673 0.793325
vt 0.172866 0.803386
vt 0.172181 0.803593
vt 0.172167 0.803071
vt 0.258658 0.162575
vt 0.257983 0.162303
vt 0.258455 0.161980
vt 0.230347 0.855031
vt 0.230125 0.854676
vt 0.230532 0.854627
vt 0.115091 0.742884
vt 0.114738 0.743121
vt 0.114709 0.742576
vt 0.119434 0.120144
vt 0.118703 0.119976
vt 0.119307 0.119647
vt 0.077606 0.120065
vt 0.078125 0.120006
vt 0.077996 0.120466
vt 0.084174 0.120161
vt 0.083784 0.120437
vt 0.083855 0.120041
vt 0.233479 0.389136
vt 0.234235 0.391470
vt 0.230269 0.392843
vt 0.272342 0.934206
vt 0.272448 0.934900
vt 0.271951 0.934754
vt 0.197220 0.447367
vt 0.196693 0.447115
vt 0.196779 0.446773
vt 0.211738 0.057019
vt 0.211854 0.056712
vt 0.086123 0.405749
vt 0.085884 0.406037
vt 0.085681 0.405656
vt 0.174062 0.868549
vt 0.173730 0.868841
vt 0.173672 0.868364
vt 0.171052 0.864579
vt 0.170847 0.865147
vt 0.170495 0.864509
vt 0.294868 0.813942
vt 0.294617 0.814312
vt 0.294454 0.813832
vt 0.120963 0.366705
vt 0.121316 0.367312
vt 0.120906 0.367277
vt 0.327374 0.050175
vt 0.326211 0.050363
vt 0.326553 0.049853
vt 0.110433 0.360928
vt 0.110131 0.360567
vt 0.110386 0.360398
vt 0.229189 0.297520
vt 0.228984 0.297604
vt 0.228896 0.297422
vt 0.125947 0.363005
vt 0.126127 0.363694
vt 0.125692 0.363445
vt 0.175493 0.186088
vt 0.176134 0.185676
vt 0.176281 0.186067
vt 0.177778 0.186440
vt 0.178252 0.186231
vt 0.178152 0.186585
vt 0.123941 0.850262
vt 0.123682 0.849657
vt 0.124234 0.849933
vt 0.172237 0.643683
vt 0.171819 0.643886
vt 0.171854 0.643496
vt 0.253405 0.231972
vt 0.253771 0.232131
vt 0.253529 0.232566
vt 0.265927 0.714719
vt 0.265939 0.714472
vt 0.266223 0.714574
vt 0.186907 0.468673
vt 0.186361 0.468812
vt 0.186473 0.468339
vt 0.229939 0.904775
vt 0.229757 0.904382
vt 0.230066 0.904535
vt 0.111308 0.594189
vt 0.111354 0.593830
vt 0.111793 0.594254
vt 0.249234 0.571970
vt 0.249074 0.571559
vt 0.249492 0.571567
vt 0.245359 0.676415
vt 0.245147 0.675721
vt 0.245671 0.675619
vt 0.195309 0.427886
vt 0.194888 0.427642
vt 0.195523 0.427698
vt 0.195708 0.435059
vt 0.195555 0.435461
vt 0.195178 0.435056
vt 0.482843 0.926705
vt 0.483385 0.926028
vt 0.483973 0.926817
vt 0.230412 0.670285
vt 0.235759 0.668135
vt 0.232937 0.668689
vt 0.319900 0.800195
vt 0.319957 0.799751
vt 0.320532 0.799967
vt 0.005057 0.039338
vt 0.004738 0.039702
vt 0.004904 0.039046
vt 0.288510 0.714609
vt 0.289072 0.714707
vt 0.289026 0.715309
vt 0.260646 0.729066
vt 0.260852 0.729506
vt 0.260065 0.729282
vt 0.093479 0.492880
vt 0.093859 0.493354
vt 0.093321 0.493443
vt 0.165760 0.902139
vt 0.165228 0.902219
vt 0.165274 0.901799
vt 0.173963 0.904315
vt 0.173978 0.904013
vt 0.174307 0.904490
vt 0.173369 0.905015
vt 0.173265 0.904563
vt 0.173574 0.904806
vt 0.083214 0.493325
vt 0.083425 0.493784
vt 0.082889 0.493678
vt 0.084500 0.492756
vt 0.084728 0.492274
vt 0.084985 0.492660
vt 0.080244 0.490629
vt 0.080692 0.490873
vt 0.079996 0.491118
vt 0.080524 0.491549
vt 0.080269 0.491920
vt 0.080243 0.491504
vt 0.081840 0.490496
vt 0.081681 0.490280
vt 0.081946 0.490286
vt 0.147812 0.361537
vt 0.148189 0.361799
vt 0.147830 0.362076
vt 0.022372 0.046463
vt 0.022201 0.047048
vt 0.021862 0.046666
vt 0.021916 0.036429
vt 0.022129 0.036285
vt 0.022320 0.036457
vt 0.113583 0.145872
vt 0.113175 0.145976
vt 0.113224 0.145470
vt 0.146990 0.252318
vt 0.146786 0.252106
vt 0.147305 0.252029
vt 0.354992 0.192891
vt 0.354623 0.192265
vt 0.354980 0.192523
vt 0.236198 0.555335
vt 0.235889 0.554665
vt 0.236265 0.554769
vt 0.366703 0.088768
vt 0.366347 0.088939
vt 0.366357 0.088499
vt 0.098191 0.692804
vt 0.098444 0.692909
vt 0.098391 0.693453
vt 0.086598 0.230061
vt 0.086289 0.230217
vt 0.086535 0.229655
vt 0.081441 0.229030
vt 0.081927 0.228776
vt 0.082024 0.229275
vt 0.144364 0.032692
vt 0.144284 0.032218
vt 0.144836 0.032538
vt 0.311410 0.197759
vt 0.310952 0.197645
vt 0.311253 0.197343
vt 0.140126 0.148115
vt 0.140301 0.148468
vt 0.139925 0.148609
vt 0.292707 0.925081
vt 0.292453 0.924564
vt 0.292928 0.924571
vt 0.139288 0.319350
vt 0.139840 0.319601
vt 0.139499 0.320029
vt 0.121945 0.215013
vt 0.121864 0.215547
vt 0.121361 0.215164
vt 0.109118 0.090949
vt 0.109360 0.090579
vt 0.109703 0.091131
vt 0.123525 0.093910
vt 0.123233 0.094097
vt 0.123180 0.093647
vt 0.289382 0.873014
vt 0.288966 0.872955
vt 0.289239 0.872457
vt 0.058400 0.142004
vt 0.058050 0.141717
vt 0.058654 0.141744
vt 0.060957 0.048592
vt 0.060453 0.048488
vt 0.060621 0.048004
vt 0.169353 0.199346
vt 0.167954 0.199769
vt 0.169089 0.198343
vt 0.208002 0.866759
vt 0.207842 0.866391
vt 0.208275 0.866220
vt 0.171565 0.815743
vt 0.172066 0.816087
vt 0.171685 0.816228
vt 0.197850 0.232694
vt 0.197939 0.233084
vt 0.197561 0.232873
vt 0.143806 0.250994
vt 0.144116 0.251028
vt 0.143899 0.251387
vt 0.136530 0.253513
vt 0.136002 0.253159
vt 0.136349 0.252973
vt 0.255591 0.404651
vt 0.254986 0.404736
vt 0.255256 0.404191
vt 0.247050 0.697572
vt 0.246516 0.697501
vt 0.246728 0.697222
vt 0.027673 0.167480
vt 0.027882 0.167144
vt 0.027984 0.167466
vt 0.152377 0.930788
vt 0.152357 0.930306
vt 0.152966 0.930437
vt 0.001619 0.170064
vt 0.001727 0.169640
vt 0.002081 0.170155
vt 0.172785 0.469359
vt 0.172722 0.468793
vt 0.172929 0.469172
vt 0.006924 0.173634
vt 0.007210 0.173343
vt 0.007534 0.173782
vt 0.007801 0.175755
vt 0.007322 0.175763
vt 0.007458 0.175331
vt 0.178140 0.474476
vt 0.178165 0.474982
vt 0.177844 0.474692
vt 0.310585 0.790621
vt 0.310563 0.790282
vt 0.310766 0.790203
vt 0.310892 0.789663
vt 0.311024 0.790156
vt 0.310984 0.790543
vt 0.232675 0.378317
vt 0.232052 0.378083
vt 0.232467 0.378738
vt 0.311025 0.788899
vt 0.311544 0.789239
vt 0.311281 0.789511
vt 0.264176 0.960884
vt 0.262704 0.958147
vt 0.259627 0.957377
vt 0.208834 0.693542
vt 0.208931 0.692894
vt 0.209384 0.693303
vt 0.276879 0.877581
vt 0.281996 0.882468
vt 0.284396 0.878726
vt 0.308438 0.006134
vt 0.308894 0.004999
vt 0.309401 0.006191
vt 0.203092 0.076017
vt 0.203426 0.074708
vt 0.204316 0.075448
vt 0.265823 0.258837
vt 0.265237 0.254776
vt 0.267731 0.258528
vt 0.148447 0.127058
vt 0.148732 0.124483
vt 0.147938 0.121397
vt 0.147652 0.123972
vt 0.508033 0.941215
vt 0.509290 0.940178
vt 0.507871 0.940126
vt 0.324664 0.485110
vt 0.323219 0.486584
vt 0.323162 0.485220
vt 0.342874 0.528752
vt 0.342235 0.528453
vt 0.342872 0.528148
vt 0.126509 0.651724
vt 0.126243 0.651461
vt 0.126430 0.651155
vt 0.149998 0.501682
vt 0.150465 0.501915
vt 0.149924 0.502054
vt 0.150264 0.501368
vt 0.149591 0.501763
vt 0.084696 0.801067
vt 0.084821 0.801542
vt 0.084432 0.801217
vt 0.089137 0.803117
vt 0.089421 0.803519
vt 0.089067 0.803794
vt 0.089709 0.807521
vt 0.089834 0.807887
vt 0.089361 0.807788
vt 0.195302 0.811065
vt 0.194809 0.811045
vt 0.194995 0.810760
vt 0.134947 0.509167
vt 0.135151 0.509687
vt 0.134575 0.509622
vt 0.146183 0.839017
vt 0.146358 0.839319
vt 0.145841 0.839251
vt 0.207215 0.521865
vt 0.207383 0.521597
vt 0.207622 0.521953
vt 0.209099 0.521485
vt 0.209132 0.520995
vt 0.209472 0.521215
vt 0.302304 0.492356
vt 0.301794 0.492822
vt 0.301843 0.491669
vt 0.131328 0.465027
vt 0.131777 0.464624
vt 0.131690 0.465182
vt 0.354386 0.696931
vt 0.353918 0.696587
vt 0.354387 0.696481
vt 0.328238 0.459183
vt 0.328081 0.458888
vt 0.328521 0.458875
vt 0.251173 0.948418
vt 0.251127 0.948919
vt 0.250698 0.948545
vt 0.255066 0.947554
vt 0.255472 0.947720
vt 0.254916 0.947877
vt 0.213027 0.598580
vt 0.212611 0.598530
vt 0.212880 0.598072
vt 0.269970 0.777379
vt 0.270308 0.777639
vt 0.269787 0.777983
vt 0.343667 0.593596
vt 0.343428 0.593440
vt 0.343787 0.593185
vt 0.273978 0.775310
vt 0.273776 0.775784
vt 0.273609 0.775441
vt 0.269283 0.275923
vt 0.268711 0.276055
vt 0.269075 0.275651
vt 0.357641 0.078846
vt 0.357230 0.078934
vt 0.357628 0.078423
vt 0.026025 0.018024
vt 0.026028 0.018323
vt 0.025612 0.018265
vt 0.024595 0.412284
vt 0.024589 0.411822
vt 0.025132 0.412311
vt 0.028817 0.417061
vt 0.028816 0.416454
vt 0.029188 0.416689
vt 0.009169 0.327302
vt 0.008780 0.327234
vt 0.008945 0.327018
vt 0.344070 0.200261
vt 0.343802 0.199928
vt 0.344164 0.199945
vt 0.278530 0.490917
vt 0.278242 0.491048
vt 0.278141 0.490748
vt 0.072774 0.930870
vt 0.072401 0.930419
vt 0.072910 0.930354
vt 0.053635 0.034860
vt 0.053593 0.035185
vt 0.053320 0.034820
vt 0.282629 0.057592
vt 0.282933 0.057614
vt 0.282801 0.057840
vt 0.105539 0.774214
vt 0.105677 0.773564
vt 0.105825 0.774227
vt 0.075026 0.931899
vt 0.074553 0.932072
vt 0.074667 0.931695
vt 0.072282 0.753763
vt 0.072277 0.753257
vt 0.072708 0.753451
vt 0.191552 0.956756
vt 0.191410 0.956303
vt 0.191949 0.956483
vt 0.205757 0.153853
vt 0.205313 0.153832
vt 0.205501 0.153468
vt 0.300618 0.767739
vt 0.301080 0.767524
vt 0.301031 0.767787
vt 0.218356 0.139564
vt 0.218002 0.139359
vt 0.218412 0.139201
vt 0.274016 0.773996
vt 0.273904 0.774357
vt 0.273723 0.773959
vt 0.007233 0.405129
vt 0.006861 0.405102
vt 0.007135 0.404721
vt 0.006664 0.404790
vt 0.148582 0.195622
vt 0.148501 0.195063
vt 0.149098 0.195369
vt 0.142521 0.190817
vt 0.142841 0.191175
vt 0.142174 0.191173
vt 0.143631 0.193367
vt 0.143251 0.193267
vt 0.143695 0.192866
vt 0.182815 0.068456
vt 0.184229 0.068087
vt 0.182473 0.069133
vt 0.194452 0.579551
vt 0.194781 0.579964
vt 0.194218 0.579986
vt 0.144548 0.553394
vt 0.144607 0.553926
vt 0.144041 0.553613
vt 0.123158 0.770166
vt 0.122847 0.769659
vt 0.123326 0.769689
vt 0.046306 0.017959
vt 0.046102 0.017518
vt 0.046897 0.017312
vt 0.151313 0.558178
vt 0.150950 0.558139
vt 0.151154 0.557629
vt 0.306645 0.509815
vt 0.312012 0.508044
vt 0.309387 0.505093
vt 0.061693 0.265696
vt 0.061457 0.269083
vt 0.056866 0.265141
vt 0.248341 0.351925
vt 0.250982 0.348748
vt 0.248124 0.347908
vt 0.267928 0.274302
vt 0.267388 0.274312
vt 0.267822 0.273892
vt 0.447257 0.918318
vt 0.447303 0.918005
vt 0.448552 0.917733
vt 0.316339 0.584264
vt 0.315460 0.584114
vt 0.315735 0.583646
vt 0.471364 0.939449
vt 0.470525 0.940238
vt 0.471921 0.940352
vt 0.389029 0.957369
vt 0.388515 0.957196
vt 0.388752 0.957805
vt 0.355002 0.510758
vt 0.356093 0.510920
vt 0.355258 0.509726
vt 0.326595 0.019921
vt 0.328034 0.018577
vt 0.328555 0.020605
vt 0.059664 0.217327
vt 0.058934 0.213203
vt 0.062973 0.215888
vt 0.245948 0.198974
vt 0.246104 0.198743
vt 0.246437 0.199003
vt 0.014155 0.092056
vt 0.013819 0.092242
vt 0.013528 0.091963
vt 0.020299 0.100457
vt 0.020744 0.100389
vt 0.020662 0.100851
vt 0.044598 0.205884
vt 0.044395 0.206324
vt 0.044110 0.205963
vt 0.079503 0.945172
vt 0.079167 0.945404
vt 0.078549 0.944868
vt 0.122440 0.678675
vt 0.122302 0.678152
vt 0.122671 0.678382
vt 0.124073 0.675957
vt 0.124007 0.676251
vt 0.123873 0.675977
vt 0.055180 0.185873
vt 0.054741 0.185941
vt 0.055025 0.185572
vt 0.063220 0.179681
vt 0.063402 0.179818
vt 0.063130 0.179930
vt 0.062533 0.180443
vt 0.062342 0.180160
vt 0.062762 0.180148
vt 0.063267 0.180336
vt 0.063653 0.180035
vt 0.299354 0.811618
vt 0.298854 0.811474
vt 0.299203 0.811122
vt 0.300714 0.364456
vt 0.301359 0.364444
vt 0.300887 0.364991
vt 0.275039 0.074366
vt 0.274686 0.074506
vt 0.274624 0.074123
vt 0.258199 0.564411
vt 0.258909 0.564188
vt 0.258509 0.564715
vt 0.175923 0.568259
vt 0.176197 0.568638
vt 0.175673 0.568719
vt 0.175502 0.566594
vt 0.175656 0.566977
vt 0.175224 0.566776
vt 0.177561 0.565911
vt 0.177286 0.566074
vt 0.177366 0.565715
vt 0.284561 0.287339
vt 0.284228 0.287618
vt 0.284278 0.287222
vt 0.014928 0.443579
vt 0.014846 0.443144
vt 0.015404 0.443030
vt 0.190143 0.378518
vt 0.190750 0.378495
vt 0.190398 0.378806
vt 0.193141 0.356334
vt 0.193110 0.355684
vt 0.193687 0.356040
vt 0.192589 0.356620
vt 0.192106 0.356057
vt 0.192658 0.356160
vt 0.193957 0.357005
vt 0.193669 0.356538
vt 0.194125 0.356469
vt 0.078145 0.380584
vt 0.078081 0.380168
vt 0.078322 0.380351
vt 0.083209 0.376021
vt 0.082645 0.375865
vt 0.083247 0.375580
vt 0.082683 0.375472
vt 0.083215 0.375196
vt 0.070517 0.381198
vt 0.069938 0.381688
vt 0.070025 0.381051
vt 0.348768 0.564916
vt 0.349687 0.564943
vt 0.349064 0.564170
vt 0.092702 0.370079
vt 0.093356 0.369431
vt 0.093746 0.369542
vt 0.369178 0.592726
vt 0.370951 0.592787
vt 0.369290 0.591270
vt 0.345714 0.820185
vt 0.345109 0.821195
vt 0.344491 0.820607
vt 0.211085 0.282014
vt 0.207538 0.284263
vt 0.210381 0.285021
vt 0.573310 0.913298
vt 0.572875 0.913275
vt 0.573167 0.913717
vt 0.071328 0.296041
vt 0.069786 0.295027
vt 0.070706 0.294737
vt 0.062684 0.625438
vt 0.062007 0.625163
vt 0.062572 0.624621
vt 0.074765 0.282693
vt 0.075326 0.283155
vt 0.074827 0.283157
vt 0.076166 0.291817
vt 0.076211 0.292517
vt 0.075766 0.292121
vt 0.332642 0.180940
vt 0.333173 0.180990
vt 0.332922 0.181472
vt 0.347402 0.160467
vt 0.349632 0.160008
vt 0.348639 0.161575
vt 0.260462 0.762205
vt 0.261040 0.762522
vt 0.260451 0.762751
vt 0.270556 0.176615
vt 0.269577 0.174114
vt 0.271222 0.174722
vt 0.271770 0.173438
vt 0.309950 0.938326
vt 0.315056 0.940486
vt 0.313097 0.936220
vt 0.174188 0.927568
vt 0.168453 0.926615
vt 0.171130 0.928541
vt 0.326034 0.749389
vt 0.328993 0.741044
vt 0.324340 0.742582
vt 0.168072 0.929514
vt 0.171475 0.936717
vt 0.053216 0.073792
vt 0.051542 0.076145
vt 0.052209 0.074500
vt 0.243797 0.899302
vt 0.244010 0.903975
vt 0.247907 0.899830
vt 0.032317 0.285521
vt 0.032484 0.285165
vt 0.032645 0.285640
vt 0.244789 0.094300
vt 0.244974 0.094517
vt 0.244762 0.094682
vt 0.160847 0.016481
vt 0.160542 0.016502
vt 0.160802 0.015958
vt 0.291807 0.549006
vt 0.292106 0.549188
vt 0.291583 0.549349
vt 0.289722 0.547834
vt 0.290069 0.547618
vt 0.290067 0.548136
vt 0.091016 0.386581
vt 0.090428 0.386618
vt 0.090657 0.385962
vt 0.435086 0.918322
vt 0.434834 0.918518
vt 0.434731 0.918223
vt 0.118506 0.532575
vt 0.118164 0.532083
vt 0.118640 0.531897
vt 0.122922 0.529181
vt 0.123381 0.529434
vt 0.122817 0.529540
vt 0.269753 0.742360
vt 0.269871 0.742840
vt 0.269566 0.742603
vt 0.269627 0.746227
vt 0.269469 0.745736
vt 0.269862 0.745941
vt 0.034532 0.605721
vt 0.034440 0.606289
vt 0.033899 0.605893
vt 0.093065 0.903393
vt 0.092301 0.903558
vt 0.092756 0.903051
vt 0.091619 0.903868
vt 0.091050 0.904256
vt 0.091035 0.903558
vt 0.232965 0.752862
vt 0.233330 0.752952
vt 0.232905 0.753204
vt 0.346390 0.779809
vt 0.346286 0.779197
vt 0.346575 0.778741
vt 0.353839 0.634040
vt 0.353534 0.633663
vt 0.354098 0.633640
vt 0.632221 0.923979
vt 0.631440 0.924366
vt 0.632105 0.924449
vt 0.321845 0.950603
vt 0.321356 0.950447
vt 0.321280 0.950025
vt 0.632515 0.924124
vt 0.202664 0.938956
vt 0.202780 0.939310
vt 0.202488 0.939385
vt 0.240014 0.118436
vt 0.240002 0.118178
vt 0.240271 0.118291
vt 0.209029 0.351375
vt 0.208711 0.351232
vt 0.208967 0.350871
vt 0.313023 0.818921
vt 0.312547 0.819272
vt 0.208381 0.352373
vt 0.208587 0.352076
vt 0.208779 0.352367
vt 0.068454 0.435002
vt 0.068795 0.434826
vt 0.068534 0.435366
vt 0.147486 0.584853
vt 0.147251 0.584415
vt 0.147753 0.584513
vt 0.214373 0.382845
vt 0.214410 0.383299
vt 0.214018 0.383168
vt 0.212000 0.380933
vt 0.212413 0.380773
vt 0.212497 0.381218
vt 0.304237 0.473968
vt 0.303845 0.474343
vt 0.303886 0.473696
vt 0.206054 0.576608
vt 0.206492 0.576553
vt 0.206455 0.577052
vt 0.303443 0.635354
vt 0.303896 0.635276
vt 0.303709 0.635694
vt 0.292286 0.524410
vt 0.288748 0.526543
vt 0.290596 0.528635
vt 0.230653 0.504968
vt 0.229526 0.502113
vt 0.232529 0.503836
vt 0.057988 0.470916
vt 0.058199 0.470552
vt 0.058229 0.470828
vt 0.060559 0.471834
vt 0.060065 0.471872
vt 0.060407 0.471310
vt 0.057692 0.472665
vt 0.058009 0.472466
vt 0.057969 0.472899
vt 0.354292 0.802359
vt 0.354300 0.802733
vt 0.354023 0.802516
vt 0.243655 0.379272
vt 0.243516 0.378875
vt 0.243992 0.378975
vt 0.059388 0.004892
vt 0.062826 0.003129
vt 0.058148 0.001274
vt 0.282710 0.032600
vt 0.283142 0.034566
vt 0.284032 0.033649
vt 0.321657 0.967982
vt 0.321161 0.967884
vt 0.321581 0.967672
vt 0.349423 0.148008
vt 0.348896 0.148145
vt 0.348853 0.147693
vt 0.337261 0.806439
vt 0.337703 0.806875
vt 0.337913 0.804865
vt 0.349650 0.147701
vt 0.349355 0.147394
vt 0.349932 0.147515
vt 0.301338 0.930933
vt 0.300557 0.930348
vt 0.301692 0.930044
vt 0.362887 0.361777
vt 0.362852 0.363264
vt 0.361100 0.362050
vt 0.236167 0.474697
vt 0.236124 0.473840
vt 0.236590 0.474342
vt 0.327579 0.450172
vt 0.328475 0.449649
vt 0.326455 0.447682
vt 0.322932 0.448644
vt 0.325445 0.452184
vt 0.325574 0.447922
vt 0.326374 0.455796
vt 0.327821 0.453386
vt 0.351537 0.361039
vt 0.350205 0.360442
vt 0.350175 0.361873
vt 0.042942 0.300211
vt 0.046993 0.301306
vt 0.045076 0.298821
vt 0.300296 0.930153
vt 0.299228 0.928622
vt 0.300514 0.928686
vt 0.364990 0.536342
vt 0.367401 0.537295
vt 0.367756 0.539115
vt 0.055088 0.468356
vt 0.054976 0.468058
vt 0.055242 0.468225
vt 0.345264 0.737981
vt 0.345038 0.738283
vt 0.344846 0.737898
vt 0.171263 0.895571
vt 0.170768 0.895728
vt 0.170833 0.895284
vt 0.174928 0.890451
vt 0.175276 0.890105
vt 0.175327 0.890605
vt 0.115234 0.617550
vt 0.115601 0.617879
vt 0.115283 0.618240
vt 0.123515 0.617974
vt 0.123138 0.617741
vt 0.123490 0.617490
vt 0.224276 0.047833
vt 0.223927 0.047617
vt 0.224246 0.047521
vt 0.225475 0.041572
vt 0.225774 0.042056
vt 0.225150 0.042027
vt 0.200291 0.728604
vt 0.199957 0.728660
vt 0.200144 0.728310
vt 0.270390 0.694210
vt 0.270093 0.693847
vt 0.270550 0.693798
vt 0.291730 0.491264
vt 0.291544 0.490775
vt 0.291954 0.491092
vt 0.182548 0.611446
vt 0.183059 0.611344
vt 0.182903 0.611695
vt 0.032888 0.004013
vt 0.032081 0.004057
vt 0.032472 0.003627
vt 0.317627 0.603146
vt 0.316531 0.602041
vt 0.318090 0.602598
vt 0.122593 0.838159
vt 0.122836 0.838603
vt 0.122280 0.838501
vt 0.185311 0.837692
vt 0.185311 0.838197
vt 0.184802 0.837945
vt 0.287569 0.527411
vt 0.288278 0.527633
vt 0.293806 0.529856
vt 0.296569 0.528745
vt 0.065611 0.643424
vt 0.064016 0.642796
vt 0.065288 0.642602
vt 0.430566 0.905118
vt 0.430165 0.905176
vt 0.430155 0.904878
vt 0.359498 0.721349
vt 0.359523 0.720961
vt 0.359902 0.721125
vt 0.483400 0.965327
vt 0.483612 0.964993
vt 0.483759 0.965282
vt 0.258447 0.696290
vt 0.258349 0.696665
vt 0.258100 0.696433
vt 0.255472 0.700677
vt 0.255184 0.700663
vt 0.255359 0.700299
vt 0.255344 0.700932
vt 0.182737 0.839519
vt 0.182328 0.840019
vt 0.182307 0.839486
vt 0.284185 0.665235
vt 0.284364 0.665479
vt 0.284095 0.665566
vt 0.369539 0.050231
vt 0.369734 0.049709
vt 0.370409 0.050344
vt 0.211760 0.545525
vt 0.212231 0.545574
vt 0.211946 0.545989
vt 0.038617 0.181263
vt 0.038141 0.181295
vt 0.038232 0.180805
vt 0.135331 0.590225
vt 0.134912 0.590122
vt 0.134946 0.589688
vt 0.332498 0.672802
vt 0.333030 0.672467
vt 0.333255 0.672946
vt 0.294819 0.742206
vt 0.294682 0.742557
vt 0.294419 0.742191
vt 0.287916 0.729479
vt 0.288248 0.728863
vt 0.288445 0.729354
vt 0.072575 0.577036
vt 0.072154 0.577337
vt 0.072090 0.576881
vt 0.349791 0.435814
vt 0.350098 0.436006
vt 0.349622 0.436161
vt 0.022014 0.754412
vt 0.022717 0.754266
vt 0.022187 0.754918
vt 0.018787 0.758302
vt 0.019115 0.758866
vt 0.018582 0.758832
vt 0.144286 0.221930
vt 0.144458 0.222454
vt 0.144023 0.222365
vt 0.089626 0.035697
vt 0.089142 0.035663
vt 0.089608 0.035236
vt 0.166578 0.693909
vt 0.166386 0.693367
vt 0.166883 0.693421
vt 0.257850 0.205735
vt 0.257593 0.205757
vt 0.257576 0.205499
vt 0.149777 0.161527
vt 0.149696 0.161954
vt 0.149442 0.161526
vt 0.166063 0.425487
vt 0.165894 0.425711
vt 0.165690 0.425415
vt 0.137792 0.344794
vt 0.138096 0.344300
vt 0.138298 0.344867
vt 0.139166 0.316125
vt 0.139421 0.315745
vt 0.139640 0.316274
vt 0.263032 0.304436
vt 0.262334 0.304894
vt 0.262985 0.305221
vt 0.293816 0.159092
vt 0.293691 0.159551
vt 0.293249 0.159399
vt 0.174031 0.698278
vt 0.173972 0.698652
vt 0.173680 0.698456
vt 0.163123 0.454069
vt 0.162622 0.453756
vt 0.163075 0.453466
vt 0.172904 0.941001
vt 0.173363 0.941520
vt 0.172566 0.941275
vt 0.172744 0.940551
vt 0.172279 0.940792
vt 0.374495 0.717730
vt 0.374684 0.717214
vt 0.375223 0.717699
vt 0.319035 0.524488
vt 0.319071 0.525641
vt 0.318272 0.525344
vt 0.209778 0.953884
vt 0.210011 0.953660
vt 0.210148 0.953967
vt 0.060234 0.241272
vt 0.060649 0.240959
vt 0.060594 0.241361
vt 0.328496 0.657959
vt 0.328246 0.657623
vt 0.328623 0.657462
vt 0.055723 0.438286
vt 0.055586 0.438739
vt 0.055423 0.438537
vt 0.191238 0.032141
vt 0.191762 0.031938
vt 0.191517 0.032397
vt 0.294507 0.361135
vt 0.294270 0.361048
vt 0.294634 0.360792
vt 0.294777 0.359375
vt 0.294451 0.359427
vt 0.294584 0.359023
vt 0.152329 0.402415
vt 0.152790 0.402417
vt 0.152509 0.402899
vt 0.223741 0.495654
vt 0.223876 0.496097
vt 0.223519 0.495837
vt 0.223509 0.496465
vt 0.223436 0.496085
vt 0.223771 0.496367
vt 0.191635 0.389760
vt 0.191365 0.390355
vt 0.191063 0.389959
vt 0.168110 0.062438
vt 0.168340 0.061794
vt 0.168877 0.062260
vt 0.110301 0.984555
vt 0.109997 0.984933
vt 0.110017 0.984325
vt 0.173499 0.064712
vt 0.173891 0.064683
vt 0.173835 0.065169
vt 0.079509 0.098229
vt 0.079825 0.098095
vt 0.079801 0.098546
vt 0.136999 0.184801
vt 0.136585 0.184400
vt 0.137212 0.184337
vt 0.331920 0.444857
vt 0.332334 0.444591
vt 0.332172 0.445148
vt 0.129265 0.996056
vt 0.128973 0.996195
vt 0.129077 0.995763
vt 0.178085 0.369479
vt 0.177759 0.369728
vt 0.177418 0.369213
vt 0.116090 0.742921
vt 0.115827 0.743125
vt 0.115884 0.742662
vt 0.122867 0.174342
vt 0.123042 0.174937
vt 0.122736 0.174743
vt 0.118806 0.117098
vt 0.117938 0.117198
vt 0.118118 0.116452
vt 0.172160 0.483931
vt 0.172441 0.484196
vt 0.172192 0.484552
vt 0.149350 0.771551
vt 0.149706 0.771645
vt 0.149402 0.771890
vt 0.184812 0.722443
vt 0.184438 0.722289
vt 0.184780 0.721875
vt 0.215686 0.898830
vt 0.215717 0.898549
vt 0.216166 0.898934
vt 0.210135 0.908405
vt 0.210665 0.908405
vt 0.210350 0.908785
vt 0.207955 0.909042
vt 0.208160 0.908706
vt 0.208416 0.908849
vt 0.087520 0.239940
vt 0.088085 0.239965
vt 0.087822 0.240326
vt 0.303565 0.191107
vt 0.304047 0.191467
vt 0.303554 0.191661
vt 0.259263 0.842733
vt 0.259772 0.842761
vt 0.259671 0.843124
vt 0.301468 0.934888
vt 0.300546 0.936181
vt 0.301861 0.937143
vt 0.129054 0.407196
vt 0.129295 0.408796
vt 0.129576 0.407206
vt 0.125577 0.413087
vt 0.126810 0.411984
vt 0.125768 0.411113
vt 0.218269 0.854631
vt 0.219964 0.855319
vt 0.219036 0.855574
vt 0.318967 0.752838
vt 0.317900 0.751247
vt 0.315919 0.749771
vt 0.309843 0.286877
vt 0.309779 0.287535
vt 0.310896 0.287112
vt 0.280910 0.407205
vt 0.281034 0.406425
vt 0.281560 0.406610
vt 0.282408 0.408758
vt 0.281642 0.408816
vt 0.282237 0.408009
vt 0.255786 0.838928
vt 0.255510 0.838122
vt 0.256073 0.838506
vt 0.161554 0.526261
vt 0.161142 0.526279
vt 0.161165 0.526128
vt 0.331552 0.545050
vt 0.331086 0.544534
vt 0.331739 0.544607
vt 0.309436 0.625752
vt 0.309749 0.625551
vt 0.309799 0.625875
vt 0.260593 0.121099
vt 0.260235 0.121181
vt 0.260486 0.120890
vt 0.139892 0.607879
vt 0.140387 0.607633
vt 0.140270 0.608141
vt 0.142275 0.608767
vt 0.142123 0.608369
vt 0.142655 0.608194
vt 0.340138 0.668063
vt 0.340406 0.667775
vt 0.340575 0.668171
vt 0.091141 0.554217
vt 0.091069 0.554561
vt 0.090755 0.554354
vt 0.087516 0.549262
vt 0.087222 0.548981
vt 0.087644 0.548996
vt 0.088635 0.549289
vt 0.088150 0.549422
vt 0.088071 0.549065
vt 0.087714 0.560586
vt 0.088164 0.560583
vt 0.087868 0.560995
vt 0.088329 0.560893
vt 0.088687 0.560546
vt 0.087674 0.765091
vt 0.087350 0.764543
vt 0.087873 0.764658
vt 0.364960 0.664396
vt 0.366126 0.663809
vt 0.365645 0.664753
vt 0.349071 0.636139
vt 0.349874 0.636071
vt 0.349627 0.636515
vt 0.318807 0.322979
vt 0.318935 0.323199
vt 0.318503 0.323278
vt 0.119586 0.445346
vt 0.119256 0.444998
vt 0.119984 0.444987
vt 0.109581 0.896711
vt 0.110026 0.896624
vt 0.109927 0.896940
vt 0.090202 0.459366
vt 0.090571 0.459206
vt 0.090514 0.459564
vt 0.118212 0.893262
vt 0.118869 0.892980
vt 0.118694 0.893602
vt 0.118861 0.891118
vt 0.119058 0.890641
vt 0.119441 0.890874
vt 0.114140 0.890250
vt 0.114417 0.889816
vt 0.114861 0.890398
vt 0.120748 0.891215
vt 0.120704 0.890666
vt 0.121218 0.891059
vt 0.116263 0.122290
vt 0.116500 0.121705
vt 0.116814 0.122093
vt 0.114071 0.117983
vt 0.114185 0.117546
vt 0.114654 0.117921
vt 0.247121 0.612555
vt 0.247756 0.612562
vt 0.247552 0.613082
vt 0.094052 0.525719
vt 0.094039 0.525986
vt 0.093706 0.526071
vt 0.087183 0.535492
vt 0.087669 0.535244
vt 0.087724 0.535698
vt 0.195713 0.302479
vt 0.195321 0.302566
vt 0.195461 0.302167
vt 0.247261 0.613849
vt 0.247576 0.613847
vt 0.247576 0.614151
vt 0.136968 0.018250
vt 0.136833 0.017954
vt 0.137162 0.017864
vt 0.080146 0.854114
vt 0.080314 0.853759
vt 0.080689 0.853924
vt 0.169983 0.197645
vt 0.170247 0.198648
vt 0.168464 0.195708
vt 0.166414 0.196190
vt 0.167258 0.195134
vt 0.284377 0.667376
vt 0.284853 0.667369
vt 0.284561 0.667638
vt 0.430706 0.906145
vt 0.430338 0.905479
vt 0.430935 0.905784
vt 0.218986 0.480056
vt 0.218913 0.480405
vt 0.218656 0.480334
vt 0.218666 0.480608
vt 0.307623 0.612953
vt 0.307543 0.612660
vt 0.308740 0.612324
vt 0.330078 0.822597
vt 0.332612 0.821658
vt 0.329826 0.820775
vt 0.217667 0.079521
vt 0.217411 0.080465
vt 0.216473 0.079346
vt 0.258080 0.638689
vt 0.257807 0.637173
vt 0.258726 0.637392
vt 0.288093 0.142301
vt 0.287834 0.140559
vt 0.289013 0.142526
vt 0.260420 0.638820
vt 0.260978 0.638963
vt 0.261139 0.640026
vt 0.119980 0.418591
vt 0.118533 0.415694
vt 0.117657 0.416468
vt 0.299649 0.938300
vt 0.301259 0.938133
vt 0.300962 0.936814
vt 0.063346 0.267079
vt 0.063189 0.269337
vt 0.061614 0.266825
vt 0.270253 0.823952
vt 0.268851 0.822534
vt 0.268452 0.822767
vt 0.302076 0.381575
vt 0.302543 0.380561
vt 0.299147 0.380247
vt 0.212089 0.202221
vt 0.212705 0.203564
vt 0.214094 0.202279
vt 0.165395 0.927588
vt 0.270376 0.475273
vt 0.272084 0.476428
vt 0.270780 0.476405
vt 0.141405 0.130614
vt 0.143269 0.132741
vt 0.145206 0.125526
vt 0.145033 0.132220
vt 0.147367 0.126548
vt 0.145746 0.125782
vt 0.218786 0.853824
vt 0.218839 0.853145
vt 0.219610 0.853221
vt 0.129712 0.419340
vt 0.129107 0.415616
vt 0.128527 0.415294
vt 0.128093 0.413500
vt 0.127948 0.414971
vt 0.204449 0.804745
vt 0.204753 0.803848
vt 0.205049 0.805008
vt 0.213227 0.079035
vt 0.211770 0.079850
vt 0.211103 0.078600
vt 0.058611 0.739039
vt 0.056830 0.738172
vt 0.057688 0.737392
vt 0.057418 0.744036
vt 0.059439 0.742616
vt 0.059343 0.744547
vt 0.362703 0.972672
vt 0.362040 0.972543
vt 0.362590 0.973087
vt 0.253393 0.633017
vt 0.254556 0.634086
vt 0.253333 0.634473
vt 0.257297 0.634358
vt 0.258119 0.633986
vt 0.257193 0.635420
vt 0.056351 0.651293
vt 0.054213 0.650881
vt 0.056751 0.650242
vt 0.224671 0.395519
vt 0.224896 0.394324
vt 0.226663 0.394249
vt 0.284168 0.032934
vt 0.284325 0.032295
vt 0.283439 0.032767
vt 0.339219 0.806160
vt 0.338132 0.804638
vt 0.200009 0.508556
vt 0.198896 0.507247
vt 0.198625 0.508447
vt 0.340493 0.471124
vt 0.339943 0.470466
vt 0.340556 0.471746
vt 0.338499 0.807517
vt 0.337488 0.807994
vt 0.271395 0.161295
vt 0.271538 0.161865
vt 0.270853 0.162026
vt 0.135011 0.186796
vt 0.133321 0.186094
vt 0.134259 0.185883
s 0
usemtl material_1001
f 46/1/1 102/2/1 51/3/1
f 122/4/2 130/5/2 47/6/2
f 77/7/3 85/8/3 98/9/3
f 1/10/4 74/11/4 161/12/4
f 174/13/5 117/14/5 20/15/5
f 77/16/6 89/17/6 85/18/6
f 89/19/7 21/20/7 13/21/7
f 82/22/8 89/23/8 152/24/8
f 55/25/9 103/26/9 72/27/9
f 49/28/10 72/29/10 156/30/10
f 43/31/11 32/32/11 9/33/11
f 93/34/12 13/35/12 103/36/12
f 49/37/13 156/38/13 105/39/13
f 11/40/14 109/41/14 106/42/14
f 44/43/15 9/44/15 100/45/15
f 60/46/16 44/47/16 107/48/16
f 108/49/17 42/50/17 44/51/17
f 107/52/18 60/53/18 108/54/18
f 60/55/19 99/56/19 134/57/19
f 100/58/20 17/59/20 58/60/20
f 70/61/21 15/62/21 166/63/21
f 47/64/22 74/65/22 1/66/22
f 62/67/23 25/68/23 120/69/23
f 25/70/24 87/71/24 120/72/24
f 74/73/25 47/74/25 130/75/25
f 67/76/26 140/77/26 117/78/26
f 64/79/27 45/80/27 122/81/27
f 115/82/28 45/83/28 64/84/28
f 133/85/29 118/86/29 147/87/29
f 39/88/30 123/89/30 138/90/30
f 118/91/31 78/92/31 133/93/31
f 74/94/32 87/95/32 126/96/32
f 41/97/33 176/98/33 172/99/33
f 172/100/34 176/101/34 50/102/34
f 167/103/35 154/104/35 21/105/35
f 137/106/36 162/107/36 104/108/36
f 61/109/37 142/110/37 141/111/37
f 16/112/38 2/113/38 29/114/38
f 33/115/39 146/116/39 143/117/39
f 33/118/40 91/119/40 146/120/40
f 95/121/41 143/122/41 30/123/41
f 61/124/42 91/125/42 181/126/42
f 145/127/43 135/128/43 86/129/43
f 71/130/44 145/131/44 127/132/44
f 53/133/45 135/134/45 127/135/45
f 145/136/46 127/137/46 135/138/46
f 178/139/47 197/140/47 123/141/47
f 95/142/48 153/143/48 150/144/48
f 73/145/49 76/146/49 84/147/49
f 24/148/50 85/149/50 89/17/50
f 89/150/51 13/151/51 93/152/51
f 24/153/52 89/154/52 93/155/52
f 24/156/53 93/157/53 55/158/53
f 14/159/54 62/160/54 82/161/54
f 152/162/55 14/163/55 82/164/55
f 152/165/56 21/166/56 89/167/56
f 82/168/57 21/169/57 89/170/57
f 82/171/58 154/172/58 21/173/58
f 128/174/59 14/175/59 152/176/59
f 89/177/60 77/178/60 152/179/60
f 152/180/61 77/181/61 128/182/61
f 85/183/62 26/184/62 98/185/62
f 85/186/63 24/187/63 26/188/63
f 94/189/64 85/190/64 24/191/64
f 85/192/65 94/193/65 26/194/65
f 26/195/66 94/196/66 10/197/66
f 26/198/67 10/199/67 150/200/67
f 105/201/68 10/202/68 94/203/68
f 105/204/69 19/205/69 10/206/69
f 10/207/70 19/208/70 81/209/70
f 94/210/71 49/211/71 105/212/71
f 94/213/72 55/214/72 49/215/72
f 24/216/73 94/217/73 155/218/73
f 36/219/74 167/220/74 178/221/74
f 24/222/75 55/223/75 94/224/75
f 103/225/76 184/226/76 72/227/76
f 184/228/77 103/229/77 46/230/77
f 72/231/78 184/232/78 46/233/78
f 13/234/79 21/235/79 43/236/79
f 46/237/80 51/238/80 3/239/80
f 102/240/81 46/241/81 97/242/81
f 51/243/82 102/244/82 97/245/82
f 186/246/83 43/247/83 97/248/83
f 186/249/84 13/250/84 43/251/84
f 46/252/85 186/253/85 102/254/85
f 186/255/86 97/256/86 102/257/86
f 186/258/87 46/259/87 13/260/87
f 72/261/88 46/262/88 3/263/88
f 103/264/89 13/265/89 46/266/89
f 103/267/90 55/268/90 93/269/90
f 55/270/91 72/271/91 49/272/91
f 3/273/92 111/274/92 72/275/92
f 72/276/93 34/277/93 156/278/93
f 35/279/94 34/280/94 72/281/94
f 105/282/95 34/283/95 101/284/95
f 34/285/96 105/286/96 156/287/96
f 105/288/97 101/289/97 19/290/97
f 34/291/98 19/292/98 101/293/98
f 22/294/99 81/295/99 19/296/99
f 88/297/100 101/298/100 34/299/100
f 101/300/101 88/301/101 40/302/101
f 101/303/102 22/304/102 19/305/102
f 157/306/103 101/307/103 40/308/103
f 88/309/104 75/310/104 40/311/104
f 29/312/105 40/313/105 11/314/105
f 75/315/106 11/316/106 40/317/106
f 35/318/107 75/319/107 88/320/107
f 35/321/108 88/322/108 34/323/108
f 31/324/109 38/325/109 106/326/109
f 31/327/110 106/328/110 109/329/110
f 109/330/111 11/331/111 75/332/111
f 109/333/112 3/334/112 36/335/112
f 111/336/113 3/337/113 109/338/113
f 35/339/114 72/340/114 111/341/114
f 111/342/115 75/343/115 35/344/115
f 111/345/116 109/346/116 75/347/116
f 51/348/117 36/349/117 3/350/117
f 9/351/118 51/352/118 97/353/118
f 159/354/119 31/355/119 36/356/119
f 159/357/120 36/358/120 51/359/120
f 44/360/121 51/361/121 159/362/121
f 159/363/122 51/364/122 9/365/122
f 9/366/123 32/367/123 159/368/123
f 159/369/124 32/370/124 44/371/124
f 17/372/125 9/373/125 165/374/125
f 165/374/126 9/375/126 48/376/126
f 17/377/127 165/374/127 48/376/127
f 48/378/128 32/379/128 17/380/128
f 9/381/129 32/382/129 48/383/129
f 32/384/130 129/385/130 154/386/130
f 70/387/131 129/388/131 48/389/131
f 36/390/132 200/391/132 167/392/132
f 129/393/133 123/394/133 160/395/133
f 9/396/134 44/397/134 32/398/134
f 32/399/135 188/400/135 129/401/135
f 188/402/136 200/403/136 36/404/136 178/405/136
f 160/406/137 188/407/137 129/408/137
f 32/409/138 48/410/138 129/411/138
f 60/412/139 108/413/139 44/414/139
f 100/415/140 107/416/140 44/417/140
f 201/418/141 159/419/141 44/420/141
f 31/421/142 159/419/142 201/418/142
f 44/420/143 31/422/143 201/418/143
f 31/423/144 42/424/144 38/425/144
f 31/426/145 112/427/145 42/428/145
f 112/429/146 108/430/146 42/431/146
f 108/432/147 37/433/147 42/434/147
f 31/435/148 44/436/148 112/437/148
f 112/438/149 44/439/149 108/440/149
f 37/441/150 108/442/150 134/443/150
f 134/444/151 108/445/151 60/446/151
f 99/447/152 60/448/152 48/449/152
f 47/450/153 8/451/153 99/452/153
f 48/453/154 60/454/154 17/455/154
f 58/456/155 17/457/155 60/458/155
f 107/459/156 58/460/156 60/461/156
f 107/462/157 100/463/157 58/464/157
f 17/465/158 100/466/158 9/467/158
f 116/468/159 161/469/159 74/470/159
f 1/471/160 161/472/160 5/473/160
f 15/474/161 74/475/161 161/476/161
f 70/477/162 48/478/162 74/479/162
f 116/480/163 17/481/163 48/482/163
f 56/483/164 52/484/164 1/485/164
f 1/486/165 5/487/165 151/488/165
f 1/489/166 151/490/166 56/491/166
f 52/492/167 56/493/167 63/494/167
f 56/495/168 151/496/168 63/497/168
f 63/498/169 151/499/169 5/500/169
f 5/501/170 15/502/170 62/503/170
f 120/504/171 168/505/171 5/506/171
f 5/507/172 168/508/172 63/509/172
f 154/510/173 82/511/173 62/512/173
f 120/513/174 5/514/174 62/515/174
f 9/516/175 97/517/175 43/518/175
f 165/519/176 32/520/176 28/521/176
f 161/522/177 165/523/177 28/524/177
f 28/525/178 5/526/178 161/527/178
f 5/528/179 28/529/179 15/530/179
f 5/531/180 15/532/180 161/533/180
f 161/534/181 74/535/181 5/536/181
f 74/535/182 15/537/182 5/536/182
f 116/538/183 165/539/183 161/540/183
f 32/541/184 165/542/184 48/543/184
f 116/544/185 48/545/185 165/546/185
f 21/547/186 154/548/186 43/549/186
f 43/550/187 28/551/187 32/552/187
f 154/553/188 28/554/188 43/555/188
f 25/556/189 62/557/189 14/558/189
f 25/559/190 14/560/190 20/561/190
f 15/562/191 28/563/191 154/564/191
f 32/565/192 154/566/192 167/567/192
f 200/568/193 32/569/193 167/570/193
f 166/571/194 15/572/194 154/573/194
f 74/574/195 48/575/195 116/576/195
f 52/577/196 126/578/196 74/579/196
f 126/580/197 52/581/197 87/582/197
f 47/583/198 116/584/198 99/585/198
f 167/586/199 154/587/199 129/588/199
f 15/589/200 154/590/200 62/591/200
f 74/592/201 166/593/201 15/594/201
f 74/595/202 15/596/202 70/597/202
f 63/598/203 168/599/203 87/600/203
f 87/601/204 168/602/204 120/603/204
f 63/604/205 87/605/205 52/606/205
f 120/607/206 87/608/206 5/609/206
f 87/610/207 15/611/207 5/612/207
f 6/613/208 47/614/208 163/615/208
f 1/616/209 163/617/209 47/618/209
f 59/619/210 6/620/210 163/621/210
f 1/622/211 52/623/211 163/624/211
f 59/625/212 1/626/212 163/627/212
f 59/628/213 163/624/213 52/629/213
f 6/630/214 7/631/214 47/632/214
f 130/633/215 47/634/215 7/635/215
f 130/636/216 7/637/216 122/638/216
f 59/639/217 7/640/217 6/641/217
f 190/642/218 7/643/218 59/644/218
f 121/645/219 190/646/219 59/647/219
f 7/648/220 190/649/220 121/650/220
f 7/651/221 121/652/221 64/653/221
f 59/654/222 52/655/222 121/656/222
f 52/657/223 64/658/223 121/659/223
f 140/660/224 25/661/224 117/662/224
f 87/663/225 25/664/225 140/665/225
f 87/666/226 140/667/226 117/668/226
f 12/669/227 140/670/227 171/671/227
f 171/672/228 140/673/228 131/674/228
f 140/675/229 67/676/229 131/674/229
f 140/677/230 12/678/230 87/679/230
f 74/680/231 189/681/231 166/682/231
f 74/683/232 126/684/232 189/685/232
f 70/686/233 125/687/233 170/688/233
f 74/689/234 170/690/234 70/691/234
f 170/692/235 74/693/235 130/694/235
f 8/695/236 70/696/236 47/697/236
f 64/698/237 121/699/237 126/700/237
f 121/701/238 52/702/238 126/703/238
f 87/704/239 12/705/239 126/706/239
f 12/707/240 64/708/240 126/709/240
f 64/710/241 122/711/241 7/712/241
f 170/713/242 130/714/242 122/715/242
f 125/716/243 170/717/243 122/718/243
f 138/719/244 191/720/244 169/721/244
f 169/721/245 191/720/245 185/722/245
f 189/723/246 170/724/246 166/725/246
f 125/726/247 67/727/247 189/728/247
f 170/729/248 140/730/248 166/731/248
f 125/726/249 189/728/249 140/732/249 170/733/249
f 67/734/250 125/735/250 203/736/250
f 127/737/251 118/738/251 144/739/251
f 23/740/252 71/741/252 66/742/252
f 119/743/253 71/744/253 23/745/253
f 119/746/254 67/747/254 53/748/254
f 119/749/255 23/750/255 131/751/255
f 67/752/256 119/753/256 131/754/256
f 115/755/257 171/756/257 131/757/257
f 115/758/258 12/759/258 171/760/258
f 45/761/259 115/762/259 131/763/259
f 131/764/260 23/765/260 45/766/260
f 23/767/261 66/768/261 45/769/261
f 113/770/262 45/771/262 66/772/262
f 115/773/263 64/774/263 12/775/263
f 113/776/264 124/777/264 45/778/264
f 124/779/265 122/780/265 45/781/265
f 122/782/266 124/783/266 68/784/266
f 68/785/267 124/786/267 66/787/267
f 113/788/268 66/789/268 124/790/268
f 175/791/269 122/792/269 68/793/269
f 50/794/270 68/795/270 66/796/270
f 68/793/271 78/797/271 175/791/271
f 8/798/272 57/799/272 47/800/272
f 99/801/273 133/802/273 134/803/273
f 4/804/274 147/805/274 18/806/274
f 18/807/275 147/87/275 118/808/275
f 133/809/276 147/810/276 4/811/276
f 18/812/277 79/813/277 4/814/277
f 42/815/278 104/816/278 162/817/278
f 158/818/279 37/819/279 4/820/279
f 4/821/280 79/822/280 158/823/280
f 42/824/281 37/825/281 158/826/281
f 133/827/282 37/828/282 134/829/282
f 4/830/283 37/831/283 133/832/283
f 123/833/284 192/834/284 158/835/284
f 158/836/285 79/837/285 138/838/285
f 176/839/286 18/840/286 147/841/286
f 50/842/287 147/843/287 18/844/287
f 176/845/288 147/846/288 50/847/288
f 18/848/289 50/849/289 118/850/289
f 99/851/290 160/852/290 133/853/290
f 118/854/291 195/855/291 138/856/291
f 195/857/292 118/858/292 133/859/292
f 70/860/293 193/861/293 129/862/293
f 193/863/294 70/864/294 169/865/294
f 193/866/295 195/867/295 138/868/295
f 193/869/296 169/870/296 129/871/296
f 202/872/297 144/873/297 127/874/297
f 123/875/298 129/876/298 169/877/298
f 70/878/299 129/879/299 169/880/299
f 175/881/300 118/882/300 125/883/300
f 122/884/301 175/885/301 125/886/301
f 175/885/302 68/887/302 118/888/302
f 50/889/303 118/890/303 68/891/303
f 144/892/304 118/893/304 138/894/304
f 144/895/305 138/896/305 127/897/305
f 144/898/306 125/899/306 118/900/306
f 176/901/307 41/902/307 18/903/307
f 172/904/308 50/905/308 66/906/308
f 172/907/309 66/908/309 71/909/309
f 71/910/310 41/911/310 172/912/310
f 61/913/311 136/914/311 132/915/311
f 54/916/312 136/917/312 61/918/312
f 18/919/313 41/920/313 177/921/313
f 54/922/314 177/923/314 148/924/314
f 177/925/315 41/926/315 148/927/315
f 54/928/316 61/929/316 141/930/316
f 54/931/317 141/932/317 65/933/317
f 177/934/318 54/935/318 18/936/318
f 54/937/319 148/938/319 136/939/319
f 144/940/320 138/941/320 169/942/320
f 39/943/321 138/944/321 79/945/321
f 39/946/322 79/947/322 196/948/322
f 104/949/323 158/950/323 192/834/323
f 123/833/324 158/951/324 42/952/324
f 104/953/325 192/954/325 39/955/325
f 2/956/326 187/957/326 142/958/326
f 142/959/327 141/960/327 2/961/327
f 54/962/328 65/963/328 39/964/328
f 39/965/329 196/966/329 54/967/329
f 196/968/330 177/969/330 54/970/330
f 177/969/331 196/968/331 18/971/331
f 79/972/332 18/973/332 196/974/332
f 29/975/333 199/976/333 16/977/333
f 199/978/334 29/979/334 137/980/334
f 29/981/335 11/982/335 106/983/335
f 106/984/336 137/985/336 29/986/336
f 42/987/337 158/988/337 104/989/337
f 16/990/338 106/991/338 137/992/338
f 38/993/339 42/994/339 162/995/339
f 137/996/340 106/997/340 38/998/340
f 137/999/341 104/1000/341 16/1001/341
f 137/1002/342 38/1003/342 162/1004/342
f 65/1005/343 16/1006/343 104/1007/343
f 65/1008/344 104/1009/344 39/1010/344
f 2/1011/345 16/1012/345 65/1013/345
f 2/1014/346 142/1015/346 96/1016/346
f 2/1017/347 33/1018/347 139/1019/347
f 2/1020/348 96/1021/348 33/1022/348
f 157/1023/349 40/1024/349 139/1025/349
f 157/1026/350 139/1027/350 33/1028/350
f 139/1029/351 40/1030/351 29/1031/351
f 157/1032/352 22/1033/352 101/1034/352
f 179/1035/353 2/1036/353 29/1037/353
f 22/1038/354 157/1039/354 33/1040/354
f 139/1041/355 29/1042/355 2/1043/355
f 33/1044/356 143/1045/356 83/1046/356
f 146/1047/357 33/1048/357 96/1049/357
f 91/1050/358 146/1047/358 96/1051/358
f 146/1052/359 83/1053/359 33/1054/359
f 22/1055/360 33/1056/360 83/1057/360
f 83/1058/361 81/1059/361 22/1060/361
f 95/1061/362 81/1062/362 83/1063/362
f 95/1064/363 10/1065/363 81/1066/363
f 95/1067/364 83/1068/364 143/1069/364
f 30/1070/365 143/1071/365 69/1072/365
f 91/1073/366 69/1074/366 146/1075/366
f 146/1076/367 69/1077/367 143/1078/367
f 80/1079/368 91/1080/368 61/1081/368
f 96/1082/369 142/1083/369 181/1084/369
f 61/1085/370 181/1086/370 142/1087/370
f 96/1088/371 181/1089/371 91/1090/371
f 27/1091/372 73/1092/372 149/1093/372
f 80/1094/373 86/1095/373 149/1096/373
f 149/1097/374 86/1098/374 27/1099/374
f 27/1100/375 86/1101/375 135/1102/375
f 136/1103/376 182/1104/376 61/1105/376
f 86/1106/377 61/1107/377 182/1108/377
f 61/1109/378 86/1110/378 80/1111/378
f 136/1112/379 132/1113/379 86/1114/379
f 132/1115/380 145/1116/380 86/1117/380
f 132/1118/381 127/1119/381 145/1120/381
f 127/1121/382 145/1122/382 53/1123/382
f 132/1124/383 148/1125/383 127/1126/383
f 132/1127/384 136/1128/384 148/1129/384
f 41/1130/385 127/1131/385 148/1132/385
f 114/1133/386 91/1134/386 80/1135/386
f 114/1136/387 80/1137/387 149/1138/387
f 73/1139/388 114/1140/388 149/1141/388
f 84/1142/389 114/1143/389 73/1144/389
f 27/1145/390 135/1146/390 53/1147/390
f 114/1148/391 69/1149/391 91/1150/391
f 185/1151/392 194/1152/392 178/1153/392
f 185/1154/393 197/1155/393 194/1156/393
f 191/1157/394 197/1158/394 185/1159/394
f 167/1160/395 123/1161/395 185/1162/395
f 138/1163/396 144/1164/396 191/1165/396
f 27/1166/397 135/1167/397 180/1168/397
f 98/1169/398 26/1170/398 150/1171/398
f 153/1172/399 98/1173/399 150/1174/399
f 114/1175/400 30/1176/400 69/1177/400
f 30/1178/401 114/1179/401 153/1180/401
f 153/1181/402 95/1182/402 30/1183/402
f 84/1184/403 153/1185/403 114/1186/403
f 10/1187/404 95/1188/404 150/1189/404
f 98/1190/405 153/1191/405 76/1192/405
f 76/1193/406 153/1194/406 84/1195/406
f 76/1196/407 73/1197/407 90/1198/407
f 76/1199/408 90/1200/408 164/1201/408
f 164/1202/409 77/1203/409 98/1204/409
f 76/1205/410 164/1206/410 98/1207/410
f 77/1208/411 164/1209/411 128/1210/411
f 128/1211/412 164/1209/412 90/1212/412
f 14/1213/413 128/1214/413 20/1215/413
f 128/1216/414 90/1217/414 20/1218/414
f 198/1219/415 20/1220/415 25/1221/415
f 20/1222/416 117/1223/416 25/1224/416
f 174/1225/417 20/1226/417 92/1227/417
f 174/1228/418 183/1229/418 67/1230/418
f 117/1231/419 174/1232/419 67/1233/419
f 183/1234/420 119/1235/420 67/1236/420
f 183/1237/421 92/1238/421 119/1239/421
f 174/1240/422 92/1241/422 183/1242/422
f 119/1243/423 92/1244/423 53/1245/423
f 119/1246/424 145/1247/424 71/1248/424
f 119/1249/425 53/1250/425 145/1251/425
f 92/1252/426 27/1253/426 135/1254/426
f 173/1255/427 92/1256/427 90/1257/427
f 20/1258/428 90/1259/428 92/1260/428
f 27/1261/429 92/1262/429 173/1263/429
f 92/1264/430 135/1265/430 53/1266/430
f 173/1267/431 90/1268/431 73/1269/431
f 173/1270/432 73/1271/432 27/1272/432
f 109/329/433 36/1273/433 31/1274/433
f 36/1275/434 106/1276/434 109/1277/434
f 16/1278/435 199/1279/435 137/1280/435
f 65/1281/436 187/1282/436 2/1283/436
f 142/1284/437 187/1285/437 141/1286/437
f 141/1286/438 187/1285/438 65/1287/438
f 180/1288/439 53/1289/439 135/1290/439
f 192/1291/440 123/1292/440 178/1293/440
f 160/1294/441 48/1295/441 188/1296/441
f 67/1297/442 203/1298/442 166/1299/442
f 169/1300/443 203/1301/443 125/1302/443
f 67/1303/444 166/1304/444 140/1305/444
f 138/1306/445 185/1307/445 191/1308/445
f 197/1309/446 178/1310/446 194/1311/446
f 188/1312/447 32/1313/447 200/1314/447
f 123/1315/448 167/1316/448 129/1317/448
f 126/1318/449 170/1319/449 189/1320/449
f 126/1321/450 74/1322/450 170/1323/450
f 189/728/451 67/1324/451 140/732/451
f 185/1325/452 123/1326/452 169/1327/452
f 123/1328/453 129/1329/453 178/1330/453
f 129/1331/454 188/1332/454 178/1333/454
f 167/1334/455 185/1335/455 178/1336/455
f 123/1337/456 197/1338/456 138/1339/456
f 138/1339/457 197/1340/457 191/1341/457
f 129/1342/458 166/1343/458 169/1344/458
f 188/1345/459 48/1346/459 32/1347/459
f 42/1348/460 160/1349/460 123/1350/460
f 160/1351/461 42/1352/461 158/1353/461
f 127/1354/462 41/1355/462 71/1356/462
f 144/1357/463 169/1358/463 125/1359/463
f 169/1360/464 166/1361/464 203/1362/464
f 70/1363/465 166/1364/465 129/1365/465
f 39/1366/466 192/1367/466 123/1368/466
f 133/1369/467 193/1370/467 195/1371/467
f 160/1372/468 138/1373/468 195/867/468
f 158/1374/469 138/1375/469 160/1376/469
f 48/1377/470 160/1378/470 99/1379/470
f 160/1380/471 195/867/471 193/1381/471
f 160/1382/472 193/1383/472 133/1384/472
f 136/1385/473 86/1386/473 182/1387/473
l 78 8
l 110 57
l 185 180
l 50 78
l 125 45
l 167 194
