# Blender 4.4.3
# www.blender.org
mtllib 6.mtl
o texturedMesh
v 0.088309 0.214892 -0.096761
v -0.081178 -0.131177 0.159588
v 0.152331 -0.065859 0.084579
v -0.085307 0.128369 0.131128
v 0.102444 0.128539 -0.138627
v -0.012777 0.296295 -0.060830
v -0.016206 0.183831 0.021593
v 0.153948 0.102605 0.054063
v 0.047359 -0.280131 -0.001988
v 0.038057 -0.085421 0.198587
v -0.059175 0.182771 -0.177762
v 0.143056 -0.074479 -0.050081
v 0.036543 -0.018241 -0.151675
v -0.074580 -0.012171 0.182540
v 0.113796 0.188170 0.071968
v 0.068444 -0.276084 0.105698
v -0.016829 -0.249609 0.130860
v -0.166048 0.131712 -0.103470
v 0.088502 -0.175654 -0.073633
v -0.143279 -0.082509 -0.082070
v -0.087668 -0.253908 -0.000089
v 0.088401 0.028455 0.161672
v 0.094494 0.034121 -0.033642
v 0.114337 -0.196124 0.147552
v 0.024674 0.135938 0.163902
v 0.007573 0.039347 0.217868
v -0.121020 0.009428 0.109501
v -0.195254 0.083138 0.029324
v -0.118769 -0.208510 0.086142
v 0.151648 -0.197524 0.031846
v -0.155770 0.186707 0.002321
v -0.127170 0.030931 -0.128730
v 0.204189 0.006997 0.015668
v -0.190322 -0.050096 0.087219
v -0.170555 -0.123896 0.047396
v 0.001178 -0.193295 0.188603
v 0.078696 0.205162 -0.181755
v -0.089143 0.232419 -0.103087
v 0.104176 0.142305 0.131847
v 0.099175 -0.128189 0.137757
v -0.038418 -0.174635 -0.122451
v 0.054552 -0.152304 -0.157505
v -0.139089 -0.180496 -0.024613
v -0.069864 -0.011897 -0.190374
v 0.043350 0.059444 -0.104886
v 0.036258 -0.036528 0.008328
v 0.132308 -0.132260 0.025544
v 0.021746 0.107612 -0.181232
v 0.003513 0.147517 -0.059935
v -0.059355 0.071230 -0.180619
v -0.169492 0.237098 -0.059864
v -0.012632 0.046801 0.039416
v 0.017349 0.264992 -0.153690
v -0.068854 0.096284 -0.043526
v -0.220653 -0.016034 -0.037092
v 0.039670 0.171189 0.093605
v -0.044247 0.050336 0.177534
v -0.133131 0.083906 0.085320
v 0.019850 -0.250203 -0.085571
v -0.017327 -0.070496 -0.093756
v -0.111752 -0.223415 -0.082021
v -0.160641 -0.174594 0.127742
v 0.049406 -0.038318 0.105234
v 0.048197 0.119510 0.031705
v -0.020699 0.364246 0.011199
v -0.037814 0.052540 -0.027652
v -0.097002 0.030414 0.004011
v -0.043701 -0.029971 -0.019264
v 0.046136 0.250386 0.004286
v -0.198101 0.192175 -0.048929
v -0.100897 -0.110799 -0.156897
v -0.079224 0.114166 0.061279
vn -0.6396 0.4378 -0.6319
vn 0.4727 -0.6787 -0.5620
vn 0.8404 0.5319 -0.1042
vn 0.9308 0.1397 -0.3379
vn 0.6335 -0.1656 -0.7558
vn 0.1109 -0.9449 -0.3079
vn 0.8576 0.2087 -0.4701
vn 0.9228 0.2484 0.2946
vn 0.0965 -0.5045 0.8580
vn -0.5687 -0.4154 0.7099
vn -0.5186 -0.8147 0.2594
vn 0.1172 0.8775 0.4650
vn 0.7544 -0.3859 0.5310
vn 0.5050 -0.2992 -0.8096
vn -0.3331 0.7521 0.5687
vn -0.0409 0.9016 0.4307
vn -0.5288 0.3217 0.7854
vn -0.7034 -0.4742 0.5296
vn -0.5620 -0.4094 0.7187
vn -0.5107 -0.5305 0.6766
vn -0.4004 0.3179 -0.8594
vn -0.7566 -0.5911 -0.2796
vn -0.9125 -0.2764 -0.3018
vn 0.5652 0.0240 0.8246
vn -0.8235 -0.5664 0.0313
vn 0.7366 0.3004 -0.6060
vn 0.8008 0.4224 -0.4247
vn 0.5035 0.0951 0.8588
vn -0.4404 0.6983 0.5643
vn 0.8677 -0.0392 -0.4956
vn -0.3514 -0.0065 -0.9362
vn 0.3521 -0.1771 -0.9191
vn 0.6963 -0.5717 -0.4339
vn -0.2553 -0.9667 0.0168
vn -0.0169 -0.6396 0.7685
vn 0.8334 -0.4857 0.2637
vn 0.9186 0.2973 0.2604
vn 0.8379 0.1992 -0.5082
vn 0.6314 -0.5921 -0.5008
vn 0.6370 -0.7649 -0.0960
vn 0.8066 -0.5909 -0.0177
vn 0.9678 -0.2466 -0.0509
vn 0.8809 -0.4280 -0.2018
vn 0.7741 -0.5786 0.2566
vn 0.2162 -0.7318 0.6463
vn 0.5783 -0.2690 0.7702
vn -0.3299 0.1982 -0.9230
vn 0.3382 0.2078 0.9179
vn 0.5720 0.0130 0.8202
vn 0.8957 -0.4312 -0.1087
vn -0.7191 -0.1530 0.6778
vn 0.6809 -0.0645 0.7295
vn 0.7363 -0.0524 0.6746
vn 0.7317 0.1147 0.6719
vn 0.8200 0.0944 0.5645
vn -0.3478 -0.2043 0.9150
vn 0.0974 -0.5710 0.8151
vn -0.0276 0.1282 0.9914
vn 0.5031 -0.3365 0.7961
vn -0.1702 0.8293 -0.5322
vn 0.8471 0.0217 0.5310
vn 0.5778 0.1310 0.8056
vn 0.3099 0.4213 0.8523
vn -0.2896 0.8789 0.3790
vn 0.8633 0.3241 0.3870
vn 0.9654 0.2234 -0.1348
vn -0.8273 -0.2349 0.5104
vn 0.4536 0.3283 -0.8285
vn 0.4534 0.5269 -0.7188
vn 0.9704 0.2135 -0.1128
vn 0.8742 -0.3921 -0.2864
vn 0.8769 0.4479 -0.1741
vn 0.4634 -0.6761 -0.5729
vn 0.1168 0.9174 -0.3804
vn 0.0987 -0.9805 -0.1702
vn 0.6686 -0.6056 0.4315
vn -0.5502 0.8079 0.2111
vn -0.8628 0.5039 0.0399
vn 0.1201 0.1744 -0.9773
vn 0.0310 -0.0128 0.9994
vn 0.6794 0.1449 -0.7193
vn 0.6023 0.4599 0.6525
vn -0.9757 -0.0531 -0.2124
vn -0.9114 -0.4114 -0.0017
vn -0.6707 0.6688 -0.3208
vn 0.9696 0.0582 -0.2377
vn -0.4823 0.6278 -0.6109
vn 0.6111 0.7887 -0.0676
vn 0.3854 -0.5531 -0.7386
vn -0.6882 0.4424 0.5750
vn -0.4398 0.7982 -0.4117
vn 0.5941 -0.7333 0.3306
vn -0.7036 -0.6966 0.1401
vn 0.6598 0.7203 -0.2141
vn 0.1930 0.9472 0.2562
vn -0.0689 0.3912 0.9177
vn 0.5954 -0.7820 0.1842
vn -0.4135 0.3125 0.8552
vn 0.3307 -0.8444 0.4214
vn -0.9382 0.3359 -0.0835
vn -0.5965 -0.0291 -0.8021
vn -0.5777 0.0218 -0.8160
vn -0.6430 0.4932 -0.5860
vn -0.4316 0.3328 -0.8384
vn -0.0722 0.7671 0.6375
vn -0.6223 0.5353 0.5711
vn -0.5928 -0.6896 0.4161
vn -0.6759 0.2628 -0.6886
vn -0.6437 0.2848 0.7103
vn -0.6685 -0.0457 0.7423
vn -0.4560 0.2069 0.8656
vn -0.7346 0.0985 0.6713
vn -0.7790 0.5964 -0.1936
vn -0.1698 0.9182 0.3578
vn 0.5894 -0.3124 0.7450
vn -0.6135 0.4099 0.6750
vn -0.4236 -0.1277 -0.8968
vn 0.1019 -0.5604 -0.8219
vn -0.7859 0.2744 0.5542
vn 0.0050 -0.6275 -0.7786
vn -0.3737 -0.0692 -0.9250
vn 0.0583 0.8457 -0.5305
vn 0.4961 0.0370 0.8675
vn -0.5376 0.3233 0.7788
vn -0.2467 -0.1703 0.9540
vn -0.4669 0.4929 0.7342
vn -0.3880 0.9148 -0.1122
vn -0.2712 -0.2114 0.9390
vn -0.7182 0.3944 0.5733
vn -0.4426 0.1870 0.8770
vn -0.8498 -0.0540 0.5243
vn -0.5610 0.6671 0.4902
vn 0.5049 0.4526 -0.7350
vn 0.1115 -0.7123 0.6930
vn -0.3181 0.0210 0.9478
vn -0.2713 -0.9584 0.0891
vn -0.1871 -0.9733 0.1332
vn -0.4614 -0.8428 0.2773
vn -0.8582 -0.5125 0.0278
vn -0.9457 -0.1935 -0.2611
vn -0.7189 -0.6037 -0.3445
vn -0.9638 0.0755 0.2558
vn -0.9353 -0.3255 0.1390
vn -0.7204 0.5038 -0.4767
vn -0.6244 -0.2196 -0.7496
vn -0.6212 -0.4160 -0.6641
vn 0.4506 0.8872 -0.0990
vn 0.2434 -0.9604 -0.1356
vn 0.1636 -0.9843 0.0658
vn -0.3137 0.9465 0.0750
vn 0.4904 -0.8332 -0.2554
vn -0.8288 -0.4904 0.2692
vn -0.6977 -0.2517 0.6707
vn -0.7564 0.1194 0.6432
vn 0.3351 -0.8466 -0.4136
vn -0.1870 -0.9428 -0.2760
vn -0.4592 -0.6497 -0.6058
vn -0.7016 -0.0634 -0.7097
vn 0.1610 -0.8026 -0.5744
vn 0.3445 0.0663 -0.9364
vn 0.0903 -0.2176 -0.9718
vn -0.6604 0.1693 -0.7316
vn -0.7728 -0.1445 -0.6180
vn -0.6797 -0.7251 -0.1109
vn -0.8511 0.0921 -0.5169
vn 0.1436 -0.3574 -0.9228
vn -0.8199 -0.5724 0.0056
vn -0.1284 0.8514 -0.5086
vn 0.9501 -0.2241 -0.2168
vn 0.2382 0.5252 -0.8170
vn 0.3200 0.4902 -0.8108
vn -0.6952 -0.7055 0.1376
vn 0.0503 0.3738 0.9261
vn -0.9283 0.1026 0.3573
vn 0.7835 -0.0600 -0.6185
vn 0.5272 0.5945 0.6072
vn -0.6908 0.0555 -0.7209
vn 0.2401 0.5263 -0.8157
vn -0.2064 0.8849 0.4176
vn 0.3509 0.8463 -0.4009
vn 0.3870 -0.8570 0.3401
vn -0.2569 0.8157 -0.5182
vn -0.0191 0.0256 -0.9995
vn 0.6022 -0.7769 0.1837
vn -0.8120 0.4706 0.3452
vn -0.0537 0.8097 -0.5843
vn 0.5480 0.1296 -0.8264
vn 0.7592 0.5774 0.3004
vn 0.4499 0.4134 0.7916
vn -0.1252 -0.7885 0.6021
vt 0.080915 0.238318
vt 0.081041 0.237804
vt 0.081439 0.238207
vt 0.085727 0.922641
vt 0.085993 0.923126
vt 0.085531 0.923148
vt 0.061222 0.757486
vt 0.054755 0.763880
vt 0.056976 0.755819
vt 0.189113 0.175667
vt 0.189252 0.176020
vt 0.188754 0.175745
vt 0.110409 0.359767
vt 0.110509 0.360068
vt 0.110146 0.360139
vt 0.114720 0.854741
vt 0.114826 0.854232
vt 0.115185 0.854455
vt 0.119574 0.159283
vt 0.120188 0.159357
vt 0.119554 0.159586
vt 0.343365 0.328937
vt 0.344420 0.330574
vt 0.342751 0.329796
vt 0.153534 0.141154
vt 0.152866 0.141227
vt 0.153257 0.140847
vt 0.347596 0.757355
vt 0.348660 0.756718
vt 0.347378 0.758012
vt 0.054101 0.823116
vt 0.056821 0.822299
vt 0.054624 0.822467
vt 0.147959 0.874071
vt 0.148053 0.874493
vt 0.147721 0.874366
vt 0.299619 0.885581
vt 0.300173 0.885666
vt 0.299752 0.885937
vt 0.028996 0.090784
vt 0.028818 0.091354
vt 0.028366 0.090456
vt 0.525592 0.917982
vt 0.525745 0.918967
vt 0.524989 0.918426
vt 0.224035 0.967349
vt 0.224942 0.967430
vt 0.224525 0.967081
vt 0.225837 0.719035
vt 0.226108 0.719106
vt 0.225747 0.719209
vt 0.151235 0.286470
vt 0.150883 0.286786
vt 0.150745 0.286324
vt 0.136775 0.160139
vt 0.136914 0.160534
vt 0.136537 0.160482
vt 0.246738 0.042804
vt 0.246851 0.043313
vt 0.246359 0.043093
vt 0.273090 0.705471
vt 0.273239 0.706209
vt 0.272557 0.705943
vt 0.230009 0.488749
vt 0.229732 0.489114
vt 0.229542 0.488665
vt 0.215664 0.491045
vt 0.215390 0.491112
vt 0.215490 0.490606
vt 0.328608 0.756614
vt 0.328825 0.757791
vt 0.327685 0.756279
vt 0.081691 0.237902
vt 0.104780 0.762843
vt 0.104728 0.763264
vt 0.104482 0.762908
vt 0.231262 0.292483
vt 0.231587 0.292749
vt 0.231212 0.292931
vt 0.332191 0.551310
vt 0.331798 0.551453
vt 0.332251 0.551835
vt 0.281486 0.425136
vt 0.282705 0.425796
vt 0.281378 0.426014
vt 0.225897 0.225568
vt 0.225114 0.225271
vt 0.226067 0.224282
vt 0.082157 0.562982
vt 0.082803 0.562981
vt 0.082346 0.563369
vt 0.058027 0.168737
vt 0.057477 0.169158
vt 0.057456 0.168590
vt 0.317122 0.705012
vt 0.317568 0.705086
vt 0.317413 0.705463
vt 0.149072 0.112680
vt 0.147143 0.118311
vt 0.150660 0.111058
vt 0.367793 0.544102
vt 0.366381 0.545301
vt 0.367486 0.546031
vt 0.326227 0.964972
vt 0.325370 0.965199
vt 0.325414 0.964823
vt 0.332854 0.872436
vt 0.332615 0.872721
vt 0.332257 0.872477
vt 0.107866 0.159082
vt 0.107369 0.158861
vt 0.107596 0.158656
vt 0.192759 0.436988
vt 0.192933 0.437428
vt 0.192539 0.437394
vt 0.029953 0.215396
vt 0.029642 0.214655
vt 0.030481 0.215222
vt 0.125275 0.515973
vt 0.125739 0.515814
vt 0.125526 0.516415
vt 0.009345 0.039193
vt 0.009473 0.039694
vt 0.009199 0.039729
vt 0.016113 0.032074
vt 0.016387 0.032379
vt 0.015906 0.032583
vt 0.022781 0.226702
vt 0.023238 0.226968
vt 0.022858 0.227103
vt 0.374862 0.353086
vt 0.375090 0.352318
vt 0.375251 0.352698
vt 0.226397 0.819025
vt 0.226680 0.819526
vt 0.226155 0.819557
vt 0.226126 0.818499
vt 0.226333 0.817895
vt 0.226542 0.818507
vt 0.226837 0.818302
vt 0.244808 0.318818
vt 0.244245 0.318807
vt 0.244531 0.318448
vt 0.363029 0.996864
vt 0.363527 0.996706
vt 0.363469 0.997227
vt 0.266601 0.371998
vt 0.267062 0.371739
vt 0.267105 0.372139
vt 0.271012 0.838469
vt 0.271274 0.838867
vt 0.270714 0.839006
vt 0.159991 0.808053
vt 0.160412 0.808332
vt 0.159940 0.808678
vt 0.019695 0.150896
vt 0.019302 0.151086
vt 0.019427 0.150637
vt 0.224555 0.025279
vt 0.224552 0.025793
vt 0.224155 0.025517
vt 0.216233 0.702950
vt 0.216120 0.703550
vt 0.215697 0.703132
vt 0.311095 0.316765
vt 0.311600 0.317086
vt 0.310904 0.317530
vt 0.209840 0.694378
vt 0.210441 0.693915
vt 0.210407 0.694432
vt 0.343051 0.810453
vt 0.342932 0.810019
vt 0.343263 0.809920
vt 0.507906 0.980080
vt 0.509469 0.980018
vt 0.509593 0.981072
vt 0.146223 0.524064
vt 0.146024 0.523570
vt 0.146434 0.523607
vt 0.134967 0.846391
vt 0.134653 0.846037
vt 0.135025 0.845880
vt 0.073138 0.812189
vt 0.074060 0.813076
vt 0.072817 0.813162
vt 0.149034 0.880010
vt 0.149530 0.879578
vt 0.149464 0.879972
vt 0.083803 0.607626
vt 0.083709 0.608237
vt 0.083400 0.607947
vt 0.110145 0.337917
vt 0.110304 0.337476
vt 0.110877 0.337788
vt 0.107266 0.770662
vt 0.107191 0.770183
vt 0.107606 0.770397
vt 0.079387 0.502293
vt 0.078948 0.502358
vt 0.079130 0.501885
vt 0.074881 0.508137
vt 0.074714 0.508509
vt 0.074511 0.508132
vt 0.150223 0.198259
vt 0.150080 0.197907
vt 0.150435 0.197923
vt 0.197803 0.950279
vt 0.197832 0.950752
vt 0.197352 0.950549
vt 0.204893 0.151287
vt 0.204630 0.151712
vt 0.204512 0.150827
vt 0.241719 0.373359
vt 0.241607 0.373941
vt 0.241183 0.373628
vt 0.266462 0.276931
vt 0.266805 0.276885
vt 0.266648 0.277308
vt 0.425118 0.909192
vt 0.422751 0.907622
vt 0.423993 0.909089
vt 0.267136 0.276997
vt 0.267468 0.276921
vt 0.267367 0.277328
vt 0.266516 0.276484
vt 0.289783 0.439600
vt 0.289896 0.440458
vt 0.289394 0.439990
vt 0.056582 0.634071
vt 0.056220 0.634526
vt 0.056209 0.634005
vt 0.354232 0.404946
vt 0.354667 0.405033
vt 0.354422 0.405230
vt 0.088252 0.168753
vt 0.088860 0.168819
vt 0.088591 0.169044
vt 0.195804 0.758033
vt 0.194534 0.758457
vt 0.195373 0.758738
vt 0.355172 0.629526
vt 0.354929 0.629012
vt 0.355357 0.628708
vt 0.224691 0.140906
vt 0.223982 0.141055
vt 0.224977 0.139358
vt 0.059990 0.219175
vt 0.059664 0.217327
vt 0.061858 0.218088
vt 0.069037 0.333525
vt 0.069348 0.333183
vt 0.069310 0.333729
vt 0.016356 0.437189
vt 0.016875 0.436914
vt 0.016879 0.437268
vt 0.083710 0.182377
vt 0.084172 0.182265
vt 0.084010 0.182747
vt 0.325162 0.386140
vt 0.324747 0.386376
vt 0.324850 0.385890
vt 0.269241 0.073018
vt 0.269631 0.072945
vt 0.269612 0.073316
vt 0.025143 0.452768
vt 0.024796 0.452192
vt 0.025313 0.452437
vt 0.171475 0.936717
vt 0.176853 0.933545
vt 0.174188 0.927568
vt 0.207538 0.284263
vt 0.208185 0.286597
vt 0.210381 0.285021
vt 0.304123 0.563139
vt 0.305754 0.562848
vt 0.305320 0.562266
vt 0.294403 0.227034
vt 0.294861 0.226638
vt 0.294766 0.227106
vt 0.313457 0.898655
vt 0.314337 0.898830
vt 0.314000 0.898211
vt 0.168453 0.926615
vt 0.171130 0.928541
vt 0.284325 0.440246
vt 0.286671 0.439422
vt 0.285875 0.437568
vt 0.045598 0.536630
vt 0.046845 0.535053
vt 0.044814 0.535317
vt 0.006109 0.124189
vt 0.006662 0.124203
vt 0.006332 0.124616
vt 0.315796 0.999644
vt 0.316466 0.999008
vt 0.314275 0.999166
vt 0.112096 0.522216
vt 0.112472 0.521723
vt 0.112784 0.522122
vt 0.081277 0.714493
vt 0.080980 0.714017
vt 0.081518 0.713978
vt 0.231183 0.461901
vt 0.230648 0.462049
vt 0.230917 0.461550
vt 0.290554 0.227842
vt 0.290290 0.227479
vt 0.290946 0.227436
vt 0.269016 0.495023
vt 0.268813 0.494487
vt 0.269283 0.494487
vt 0.268730 0.493915
vt 0.268087 0.495533
vt 0.267802 0.495137
vt 0.268253 0.495108
vt 0.143887 0.414040
vt 0.144060 0.414411
vt 0.143713 0.414460
vt 0.144550 0.419729
vt 0.144160 0.419574
vt 0.144564 0.419270
vt 0.150441 0.414103
vt 0.150809 0.414109
vt 0.150660 0.414422
vt 0.151380 0.415413
vt 0.151511 0.415922
vt 0.151137 0.415779
vt 0.136118 0.589389
vt 0.135716 0.589587
vt 0.135622 0.589003
vt 0.240892 0.117387
vt 0.240611 0.117023
vt 0.240993 0.117034
vt 0.224456 0.508625
vt 0.225197 0.508176
vt 0.225171 0.509503
vt 0.143197 0.433517
vt 0.143581 0.433607
vt 0.143329 0.433904
vt 0.279706 0.031280
vt 0.282763 0.032211
vt 0.283028 0.030268
vt 0.277385 0.035078
vt 0.280326 0.035178
vt 0.278559 0.033632
vt 0.054716 0.008387
vt 0.056015 0.008249
vt 0.055046 0.006621
vt 0.058424 0.007538
vt 0.059388 0.004892
vt 0.056588 0.000655
vt 0.291511 0.510240
vt 0.290937 0.511842
vt 0.289731 0.509988
vt 0.254739 0.414313
vt 0.254546 0.412477
vt 0.254254 0.413870
vt 0.144069 0.572639
vt 0.144402 0.572983
vt 0.143839 0.573100
vt 0.152862 0.744808
vt 0.152654 0.745241
vt 0.152484 0.744615
vt 0.141868 0.582904
vt 0.142424 0.582664
vt 0.142045 0.583233
vt 0.027522 0.782447
vt 0.027293 0.781919
vt 0.027807 0.782200
vt 0.085484 0.578825
vt 0.084947 0.578701
vt 0.085121 0.578220
vt 0.031485 0.772301
vt 0.031158 0.772415
vt 0.031483 0.771777
vt 0.058407 0.494168
vt 0.058088 0.493971
vt 0.058365 0.493599
vt 0.060527 0.495408
vt 0.060777 0.495982
vt 0.060238 0.495929
vt 0.234242 0.493053
vt 0.233784 0.493178
vt 0.233936 0.492689
vt 0.229245 0.692764
vt 0.229172 0.692232
vt 0.229546 0.692429
vt 0.141703 0.275560
vt 0.141407 0.275157
vt 0.141919 0.275124
vt 0.149681 0.344388
vt 0.149858 0.344659
vt 0.149332 0.344604
vt 0.208504 0.947629
vt 0.208408 0.948103
vt 0.208136 0.947872
vt 0.261397 0.337533
vt 0.261043 0.337661
vt 0.261178 0.337149
vt 0.162936 0.446097
vt 0.162571 0.446503
vt 0.162446 0.446098
vt 0.150303 0.391256
vt 0.150724 0.391226
vt 0.150575 0.391613
vt 0.120244 0.982552
vt 0.119702 0.982530
vt 0.119985 0.982328
vt 0.164984 0.368880
vt 0.165371 0.369149
vt 0.164858 0.369418
vt 0.141855 0.765725
vt 0.142267 0.765581
vt 0.142276 0.766062
vt 0.173890 0.380044
vt 0.174251 0.380151
vt 0.173963 0.380406
vt 0.112333 0.182732
vt 0.112077 0.182217
vt 0.112466 0.182236
vt 0.085039 0.107683
vt 0.085378 0.108074
vt 0.085011 0.108078
vt 0.087358 0.254971
vt 0.087268 0.255377
vt 0.086790 0.255094
vt 0.318865 0.219331
vt 0.320365 0.221629
vt 0.318468 0.221448
vt 0.313589 0.574148
vt 0.311875 0.573479
vt 0.313954 0.574966
vt 0.315079 0.743713
vt 0.315919 0.749771
vt 0.318318 0.749252
vt 0.320718 0.748734
vt 0.188719 0.309560
vt 0.188222 0.311106
vt 0.189844 0.309245
vt 0.291796 0.830072
vt 0.292132 0.833927
vt 0.296715 0.838464
vt 0.323827 0.128911
vt 0.325085 0.129882
vt 0.324474 0.128608
vt 0.308961 0.389873
vt 0.308748 0.391693
vt 0.310671 0.390257
vt 0.204107 0.860101
vt 0.205892 0.856864
vt 0.208746 0.860286
vt 0.080793 0.237417
vt 0.081241 0.237388
vt 0.284308 0.721137
vt 0.284023 0.721388
vt 0.284041 0.720920
vt 0.129925 0.483745
vt 0.130178 0.483814
vt 0.129850 0.484221
vt 0.342452 0.676670
vt 0.342827 0.676202
vt 0.343899 0.676521
vt 0.225315 0.226623
vt 0.224544 0.227785
vt 0.223585 0.226629
vt 0.096841 0.325472
vt 0.097296 0.326055
vt 0.096757 0.326513
vt 0.193530 0.349100
vt 0.194218 0.349386
vt 0.193673 0.349531
vt 0.108387 0.894293
vt 0.108650 0.894676
vt 0.108171 0.894604
vt 0.091820 0.536941
vt 0.092214 0.537277
vt 0.091781 0.537401
vt 0.091596 0.514979
vt 0.092070 0.514963
vt 0.091582 0.515367
vt 0.091917 0.515644
vt 0.092317 0.515644
vt 0.092081 0.516018
vt 0.090475 0.515430
vt 0.091030 0.515348
vt 0.091158 0.515842
vt 0.152190 0.382108
vt 0.152784 0.382888
vt 0.152118 0.382786
vt 0.282464 0.516118
vt 0.279113 0.515850
vt 0.280250 0.513773
vt 0.111606 0.409343
vt 0.110471 0.407983
vt 0.110248 0.409471
vt 0.113856 0.406834
vt 0.113000 0.405399
vt 0.110917 0.405008
vt 0.128399 0.400946
vt 0.129250 0.401305
vt 0.129873 0.399715
vt 0.202849 0.854200
vt 0.203534 0.854841
vt 0.202154 0.855246
vt 0.278006 0.514677
vt 0.278412 0.515739
vt 0.209528 0.853886
vt 0.210611 0.851921
vt 0.212462 0.852180
vt 0.321726 0.546801
vt 0.321900 0.547442
vt 0.321187 0.547259
vt 0.357376 0.145519
vt 0.358178 0.145253
vt 0.357616 0.146047
vt 0.058827 0.649734
vt 0.058570 0.650470
vt 0.058079 0.650492
vt 0.120752 0.408393
vt 0.122063 0.407327
vt 0.122436 0.406475
vt 0.258830 0.639593
vt 0.258693 0.638835
vt 0.259306 0.638981
vt 0.046967 0.300307
vt 0.047252 0.299798
vt 0.046941 0.299308
vt 0.165395 0.927588
vt 0.334288 0.667848
vt 0.333387 0.668404
vt 0.333130 0.667586
vt 0.258506 0.222952
vt 0.257374 0.222377
vt 0.257980 0.223581
vt 0.172980 0.920615
vt 0.172894 0.923034
vt 0.173891 0.924199
vt 0.060689 0.650535
vt 0.061845 0.650546
vt 0.061941 0.651678
vt 0.258629 0.630295
vt 0.258924 0.631697
vt 0.257930 0.631521
vt 0.318810 0.545957
vt 0.318265 0.544979
vt 0.318842 0.544609
vt 0.324693 0.448163
vt 0.323518 0.444360
vt 0.322932 0.448644
vt 0.352255 0.979539
vt 0.354918 0.981370
vt 0.354489 0.977847
vt 0.225686 0.511360
vt 0.225887 0.510380
vt 0.226250 0.511448
s 0
usemtl material_1001
f 41/1/1 61/2/1 43/3/1
f 45/4/2 48/5/2 5/6/2
f 46/7/3 52/8/3 63/9/3
f 42/10/4 13/11/4 19/12/4
f 19/13/5 13/14/5 12/15/5
f 42/16/6 19/17/6 41/18/6
f 30/19/7 19/20/7 47/21/7
f 24/22/8 30/23/8 40/24/8
f 24/25/9 17/26/9 16/27/9
f 23/28/10 8/29/10 15/30/10
f 7/31/11 39/32/11 56/33/11
f 39/34/12 56/35/12 25/36/12
f 45/37/13 13/38/13 5/39/13
f 48/40/14 37/41/14 5/42/14
f 50/43/15 45/44/15 48/45/15
f 4/46/16 7/47/16 31/48/16
f 34/49/17 27/50/17 28/51/17
f 2/52/18 34/53/18 35/54/18
f 29/55/19 36/56/19 2/57/19
f 17/58/20 36/59/20 29/60/20
f 41/61/21 60/62/21 42/63/21
f 62/64/22 35/65/22 29/66/22
f 28/67/23 18/68/23 32/69/23
f 23/70/24 52/71/24 46/72/24
f 21/73/25 43/3/25 61/2/25
f 13/74/26 45/75/26 12/76/26
f 12/77/27 45/78/27 23/79/27
f 46/80/28 12/81/28 23/82/28
f 46/83/29 23/84/29 45/85/29
f 44/86/30 60/87/30 41/88/30
f 42/89/31 41/90/31 13/91/31
f 41/92/32 19/93/32 59/94/32
f 9/95/33 59/96/33 19/97/33
f 63/98/34 46/99/34 3/100/34
f 3/101/35 22/102/35 63/103/35
f 47/104/36 3/105/36 40/106/36
f 30/107/37 47/108/37 40/109/37
f 47/110/38 3/111/38 30/112/38
f 9/113/39 19/114/39 30/115/39
f 16/116/40 9/117/40 30/118/40
f 3/119/41 12/120/41 33/121/41
f 47/122/42 12/123/42 3/124/42
f 19/125/43 12/126/43 47/127/43
f 16/128/44 30/129/44 24/130/44
f 36/131/45 17/132/45 24/133/45
f 36/134/46 40/135/46 10/136/46
f 10/137/47 24/138/47 36/139/47
f 24/138/48 40/140/48 36/139/48
f 22/141/49 26/142/49 10/143/49
f 10/144/50 63/145/50 22/146/50
f 63/147/51 40/148/51 22/149/51
f 40/150/52 22/151/52 10/152/52
f 40/153/53 3/154/53 22/155/53
f 33/156/54 8/157/54 3/158/54
f 3/159/55 8/160/55 22/161/55
f 64/162/56 15/163/56 7/164/56
f 23/165/57 15/166/57 64/167/57
f 7/168/58 52/169/58 64/170/58
f 64/171/59 52/172/59 23/173/59
f 8/174/60 23/175/60 39/176/60
f 39/177/61 22/178/61 8/179/61
f 39/180/62 26/181/62 22/182/62
f 26/183/63 39/184/63 25/185/63
f 25/186/64 56/187/64 7/188/64
f 8/189/65 15/190/65 39/191/65
f 1/192/66 5/193/66 37/194/66
f 23/195/67 45/196/67 13/197/67
f 23/198/68 33/199/68 12/200/68
f 23/201/69 8/202/69 33/203/69
f 1/204/70 15/205/70 5/206/70
f 23/207/71 5/208/71 8/209/71
f 5/210/72 15/211/72 8/212/72
f 45/213/73 5/214/73 23/215/73
f 15/216/74 49/217/74 7/218/74
f 7/219/75 1/220/75 15/221/75
f 49/222/76 1/223/76 7/224/76
f 1/225/77 49/217/77 15/216/77
f 48/226/78 1/227/78 37/228/78
f 11/229/79 53/230/79 48/231/79
f 11/232/80 48/233/80 37/234/80
f 1/235/81 48/236/81 53/237/81
f 7/238/82 1/239/82 6/240/82
f 7/241/83 49/242/83 52/243/83
f 49/244/84 48/245/84 45/246/84
f 1/247/85 48/248/85 49/249/85
f 45/250/86 13/251/86 48/252/86
f 53/253/87 11/254/87 38/255/87
f 1/256/88 53/257/88 6/258/88
f 6/259/89 69/260/89 7/261/89
f 38/262/90 7/263/90 6/264/90
f 6/265/91 53/266/91 38/267/91
f 48/268/92 49/269/92 54/270/92
f 49/271/93 7/272/93 38/273/93
f 11/274/94 38/275/94 48/276/94
f 51/277/95 7/278/95 38/279/95
f 49/280/96 38/281/96 54/282/96
f 54/270/97 50/283/97 49/284/97
f 38/285/98 18/286/98 54/287/98
f 54/288/99 28/289/99 32/290/99
f 18/291/100 28/292/100 31/293/100
f 32/294/101 18/295/101 50/296/101
f 11/297/102 50/298/102 18/299/102
f 38/300/103 11/301/103 18/302/103
f 51/303/104 38/304/104 18/305/104
f 51/306/105 31/307/105 7/308/105
f 51/309/106 70/310/106 31/311/106
f 31/311/107 70/310/107 18/312/107
f 51/313/108 18/314/108 70/315/108
f 34/316/109 58/317/109 28/318/109
f 4/319/110 28/320/110 58/321/110
f 34/322/111 27/323/111 58/324/111
f 27/325/112 4/326/112 58/327/112
f 25/328/113 52/329/113 57/330/113
f 25/331/114 7/332/114 4/333/114
f 4/334/115 27/335/115 52/336/115
f 28/337/116 58/338/116 31/339/116
f 72/340/117 7/341/117 52/342/117
f 31/343/118 7/344/118 72/345/118
f 4/346/119 31/347/119 58/348/119
f 58/348/120 31/347/120 72/349/120
f 58/348/121 72/350/121 52/351/121
f 67/352/122 58/353/122 52/354/122
f 31/355/123 28/356/123 54/357/123
f 14/358/124 26/359/124 57/360/124
f 10/361/125 14/362/125 2/363/125
f 57/364/126 26/365/126 25/366/126
f 52/367/127 27/368/127 57/369/127
f 26/370/128 14/371/128 10/372/128
f 57/373/129 27/374/129 14/375/129
f 27/376/130 34/377/130 2/378/130
f 2/379/131 14/380/131 27/381/131
f 2/382/132 35/383/132 62/384/132
f 2/385/133 17/386/133 29/387/133
f 62/388/134 29/389/134 2/390/134
f 36/391/135 10/392/135 2/393/135
f 16/394/136 17/395/136 9/396/136
f 9/397/137 17/398/137 21/399/137
f 17/400/138 29/401/138 21/402/138
f 43/403/139 29/404/139 35/405/139
f 35/406/140 20/407/140 43/408/140
f 20/409/141 35/410/141 55/411/141
f 55/412/142 34/413/142 28/414/142
f 35/415/143 34/416/143 55/417/143
f 28/418/144 32/419/144 55/420/144
f 20/421/145 55/422/145 32/423/145
f 43/424/146 20/425/146 41/426/146
f 67/427/147 32/428/147 28/429/147
f 27/430/148 67/431/148 52/432/148
f 32/433/149 52/434/149 66/435/149 67/436/149
f 66/437/150 32/438/150 67/439/150
f 32/440/151 66/441/151 52/442/151
f 52/443/152 54/444/152 66/445/152
f 66/446/153 54/447/153 32/448/153
f 32/449/154 68/450/154 66/451/154
f 41/452/155 21/453/155 61/2/155
f 21/454/156 59/455/156 9/456/156
f 59/457/157 21/458/157 41/459/157
f 13/460/158 42/461/158 60/462/158
f 44/463/159 13/464/159 60/465/159
f 13/466/160 44/467/160 50/468/160
f 13/469/161 50/470/161 48/471/161
f 44/472/162 32/473/162 50/474/162
f 44/475/163 20/476/163 32/477/163
f 41/478/164 20/479/164 71/480/164
f 71/481/165 20/482/165 44/483/165
f 41/484/166 71/485/166 44/486/166
f 21/487/167 29/488/167 43/489/167
f 68/490/168 60/491/168 20/492/168
f 67/493/169 20/494/169 32/495/169
f 67/496/170 68/497/170 20/498/170
f 68/499/171 52/500/171 46/501/171
f 60/502/172 68/503/172 32/504/172
f 20/505/173 60/491/173 32/506/173
f 66/507/174 68/508/174 52/509/174
f 52/510/175 7/511/175 56/512/175
f 54/513/176 66/514/176 45/515/176
f 66/516/177 49/517/177 45/518/177
f 67/519/178 52/520/178 68/521/178
f 50/522/179 32/523/179 45/524/179
f 28/525/180 58/526/180 67/527/180
f 49/284/181 50/283/181 48/528/181
f 52/529/182 39/530/182 23/531/182
f 50/532/183 11/533/183 48/534/183
f 32/535/184 50/536/184 54/537/184
f 66/538/185 52/539/185 49/540/185
f 54/541/186 45/542/186 32/543/186
f 56/544/187 39/545/187 52/546/187
f 31/547/188 54/548/188 51/549/188
f 38/550/189 51/551/189 54/552/189
f 4/553/190 52/554/190 25/555/190
l 65 6
