# Blender 4.4.3
# www.blender.org
mtllib 7.mtl
o texturedMesh
v 0.074456 0.202688 -0.100011
v -0.078724 -0.130867 0.151673
v 0.145127 -0.065145 0.081205
v -0.083896 0.120996 0.119619
v -0.068686 0.252252 -0.075175
v 0.003235 0.161404 0.039973
v 0.139450 0.120183 0.071415
v 0.043477 -0.267878 0.011259
v 0.044209 -0.067542 0.202279
v -0.063237 0.136063 -0.178491
v 0.112412 -0.088102 -0.076028
v 0.016772 -0.015300 -0.158565
v 0.021981 -0.254012 0.128532
v -0.176420 0.114820 -0.077235
v -0.145385 -0.090117 -0.068804
v -0.099016 -0.234467 -0.024511
v -0.148191 0.004333 0.078528
v -0.210107 0.098819 0.021460
v 0.047082 0.092913 0.176495
v 0.139699 -0.207138 0.100712
v -0.190435 -0.104290 0.065086
v 0.019881 -0.185104 -0.129857
v 0.092882 -0.171486 -0.109326
v -0.163775 0.220385 -0.015484
v -0.096875 0.020147 -0.201813
v 0.056721 0.050952 -0.060850
v 0.057054 0.107579 -0.179793
v -0.049909 0.059287 -0.045795
v 0.023047 -0.041584 0.019235
vn -0.3554 -0.7182 0.5982
vn 0.1798 0.7338 -0.6551
vn -0.0788 -0.8656 -0.4945
vn 0.2940 -0.1541 -0.9433
vn 0.2000 0.3226 -0.9252
vn 0.6797 -0.6830 -0.2674
vn 0.7423 0.0580 0.6676
vn -0.8895 -0.0139 -0.4567
vn 0.3611 0.8285 0.4281
vn -0.7786 -0.6237 -0.0690
vn -0.8814 -0.1519 -0.4474
vn 0.4241 0.6554 0.6250
vn 0.7514 0.3612 -0.5521
vn 0.6988 0.1181 -0.7055
vn 0.7619 -0.4950 -0.4177
vn 0.9452 -0.2850 0.1594
vn 0.2806 0.9397 -0.1956
vn 0.4003 -0.8986 0.1796
vn 0.9783 0.0191 -0.2063
vn 0.9788 -0.0641 -0.1943
vn 0.9627 -0.1309 -0.2368
vn 0.7663 0.0586 0.6399
vn -0.2035 -0.3390 0.9185
vn 0.3534 -0.3802 0.8547
vn 0.7642 0.0890 0.6388
vn 0.1818 0.9011 0.3937
vn -0.0036 0.8934 0.4493
vn 0.1912 0.9108 0.3659
vn 0.9472 -0.1793 -0.2657
vn 0.8746 -0.2144 -0.4348
vn -0.7016 -0.3488 0.6214
vn -0.5715 0.2671 0.7759
vn 0.2134 0.8819 0.4204
vn 0.9304 -0.3319 -0.1554
vn -0.0474 -0.1549 -0.9868
vn 0.1012 0.6637 -0.7411
vn -0.2856 0.9566 0.0576
vn 0.1302 0.8951 0.4265
vn -0.0338 -0.1877 0.9816
vn 0.2231 -0.9738 0.0451
vn -0.8964 -0.3173 0.3095
vn 0.1361 -0.6777 0.7226
vn 0.6807 0.6501 0.3377
vn -0.6274 0.5008 -0.5963
vn -0.5774 0.4627 -0.6727
vn 0.0931 0.8091 0.5802
vn -0.4163 -0.4214 0.8057
vn -0.2906 0.9433 0.1606
vn -0.6198 0.0661 0.7820
vn -0.5879 0.1299 0.7984
vn -0.8889 0.3778 -0.2591
vn -0.9112 -0.3546 0.2100
vn -0.4131 -0.0915 0.9061
vn -0.4959 0.1464 0.8560
vn -0.4671 0.2229 0.8557
vn -0.6538 -0.6170 0.4381
vn 0.1214 0.9820 0.1448
vn -0.5337 -0.7007 0.4735
vn -0.8642 -0.3791 -0.3309
vn -0.8722 -0.4192 0.2521
vn -0.9271 -0.1544 -0.3415
vn 0.4004 0.5120 0.7600
vn -0.7230 0.6245 -0.2955
vn -0.3958 -0.6824 -0.6145
vn -0.2443 -0.9672 0.0696
vn -0.4211 -0.1587 -0.8930
vn 0.3755 0.0769 -0.9236
vn 0.0024 -0.7703 -0.6377
vn -0.6633 0.3278 -0.6727
vn -0.5103 -0.3979 -0.7624
vn 0.0391 0.8416 -0.5388
vn -0.4968 0.1870 0.8475
vn 0.7595 -0.5410 0.3613
vn 0.3988 0.4592 -0.7938
vn 0.5778 -0.3797 0.7225
vn -0.0545 0.6587 -0.7505
vn 0.4477 0.8262 -0.3420
vn -0.4847 0.8717 -0.0728
vn 0.2957 -0.8016 -0.5196
vn 0.1973 -0.4089 -0.8910
vn 0.6887 -0.5471 0.4758
vn 0.7638 0.2405 0.5990
vt 0.271096 0.565800
vt 0.270371 0.566475
vt 0.270033 0.565329
vt 0.060365 0.756368
vt 0.057942 0.762558
vt 0.054006 0.765459
vt 0.054640 0.760881
vt 0.366287 0.277686
vt 0.366844 0.278061
vt 0.366445 0.278627
vt 0.141664 0.800090
vt 0.141356 0.799610
vt 0.141876 0.799534
vt 0.172260 0.652807
vt 0.172395 0.653477
vt 0.171928 0.653166
vt 0.157425 0.995306
vt 0.157558 0.994915
vt 0.157670 0.995410
vt 0.269037 0.136659
vt 0.268959 0.137118
vt 0.268687 0.136734
vt 0.231006 0.133031
vt 0.228441 0.135264
vt 0.230265 0.131342
vt 0.055969 0.414765
vt 0.055840 0.415324
vt 0.055564 0.414665
vt 0.315398 0.523571
vt 0.315520 0.523328
vt 0.315859 0.523419
vt 0.241538 0.136168
vt 0.241862 0.136018
vt 0.241795 0.136509
vt 0.188852 0.316685
vt 0.188863 0.313870
vt 0.186897 0.316838
vt 0.319450 0.459506
vt 0.320159 0.460570
vt 0.319792 0.461072
vt 0.140954 0.799659
vt 0.141169 0.799948
vt 0.140720 0.799960
vt 0.318542 0.889650
vt 0.319212 0.889568
vt 0.318920 0.890017
vt 0.300599 0.350798
vt 0.301211 0.351153
vt 0.301057 0.351946
vt 0.194248 0.605007
vt 0.197372 0.601650
vt 0.195067 0.601748
vt 0.288088 0.754993
vt 0.288517 0.755344
vt 0.288081 0.755303
vt 0.083955 0.497051
vt 0.083664 0.496668
vt 0.084262 0.496552
vt 0.117603 0.144273
vt 0.117301 0.143721
vt 0.117802 0.143740
vt 0.157242 0.995977
vt 0.157507 0.996062
vt 0.157293 0.996481
vt 0.182686 0.094711
vt 0.182447 0.094417
vt 0.182910 0.094281
vt 0.136205 0.323470
vt 0.136332 0.323042
vt 0.136667 0.323456
vt 0.246943 0.237916
vt 0.246416 0.238426
vt 0.246320 0.237571
vt 0.213353 0.421037
vt 0.212714 0.420881
vt 0.213157 0.420503
vt 0.150168 0.863910
vt 0.149905 0.864294
vt 0.149513 0.863948
vt 0.491514 0.939960
vt 0.491479 0.940227
vt 0.490989 0.939900
vt 0.120690 0.055320
vt 0.120615 0.055034
vt 0.120973 0.054724
vt 0.135836 0.096743
vt 0.135510 0.097302
vt 0.135557 0.096930
vt 0.161447 0.042112
vt 0.160958 0.041897
vt 0.161318 0.041689
vt 0.251763 0.958854
vt 0.253284 0.959686
vt 0.254612 0.957859
vt 0.324540 0.020275
vt 0.326595 0.019921
vt 0.325815 0.021284
vt 0.087030 0.939419
vt 0.087431 0.939196
vt 0.087335 0.939772
vt 0.087752 0.932848
vt 0.087943 0.932383
vt 0.088270 0.932803
vt 0.094228 0.933005
vt 0.094137 0.933555
vt 0.093778 0.933371
vt 0.302819 0.452631
vt 0.303015 0.453005
vt 0.302405 0.453324
vt 0.188601 0.321410
vt 0.188293 0.320386
vt 0.187424 0.322045
vt 0.260259 0.637757
vt 0.260978 0.638963
vt 0.260420 0.638820
vt 0.077025 0.485359
vt 0.077047 0.484282
vt 0.078027 0.485100
vt 0.331056 0.590706
vt 0.330420 0.592161
vt 0.331418 0.592733
vt 0.284325 0.440246
vt 0.286671 0.439422
vt 0.285875 0.437568
vt 0.186746 0.321955
vt 0.187181 0.321126
vt 0.242427 0.899126
vt 0.244010 0.903975
vt 0.246537 0.899654
vt 0.312627 0.297143
vt 0.312589 0.296674
vt 0.312957 0.296849
vt 0.363454 0.299901
vt 0.363761 0.300207
vt 0.363462 0.300307
vt 0.280854 0.563953
vt 0.281384 0.563632
vt 0.281332 0.564308
vt 0.227321 0.617072
vt 0.227946 0.617028
vt 0.227527 0.617633
vt 0.299673 0.182557
vt 0.299947 0.182758
vt 0.299623 0.182916
vt 0.334171 0.773426
vt 0.333868 0.773303
vt 0.334160 0.773101
vt 0.267154 0.688854
vt 0.266653 0.688584
vt 0.267081 0.688293
vt 0.115806 0.606472
vt 0.115297 0.606409
vt 0.115688 0.606065
vt 0.147155 0.173547
vt 0.146529 0.173605
vt 0.146928 0.173332
vt 0.146897 0.573652
vt 0.147040 0.574041
vt 0.146434 0.574064
vt 0.287674 0.132957
vt 0.288058 0.132748
vt 0.287946 0.133157
vt 0.033477 0.759514
vt 0.033596 0.759007
vt 0.033981 0.759161
vt 0.293536 0.360707
vt 0.293568 0.360270
vt 0.293896 0.360516
vt 0.273742 0.872702
vt 0.274086 0.873002
vt 0.273655 0.873212
vt 0.149145 0.396956
vt 0.148736 0.396539
vt 0.149349 0.396542
vt 0.141832 0.395537
vt 0.142054 0.395992
vt 0.141477 0.396151
vt 0.142696 0.763850
vt 0.143079 0.763554
vt 0.143204 0.763913
vt 0.117318 0.174523
vt 0.117319 0.174090
vt 0.117796 0.174346
vt 0.231194 0.647822
vt 0.236501 0.647850
vt 0.234646 0.647545
vt 0.245230 0.471321
vt 0.244615 0.471138
vt 0.244997 0.470708
vt 0.213545 0.850216
vt 0.210611 0.851921
vt 0.212040 0.847765
vt 0.258656 0.156563
vt 0.258320 0.156905
vt 0.257858 0.156687
vt 0.201812 0.963686
vt 0.201496 0.964010
vt 0.201284 0.963650
vt 0.078804 0.456151
vt 0.078605 0.455771
vt 0.079150 0.455736
vt 0.053053 0.447508
vt 0.052682 0.447781
vt 0.052642 0.447481
vt 0.092164 0.460264
vt 0.092564 0.460379
vt 0.092224 0.460821
vt 0.199407 0.450496
vt 0.199670 0.450057
vt 0.199921 0.450504
vt 0.230007 0.950536
vt 0.233966 0.952765
vt 0.231094 0.949821
vt 0.209106 0.849471
vt 0.208063 0.849869
vt 0.209835 0.846034
vt 0.209528 0.853886
vt 0.212462 0.852180
vt 0.290380 0.148740
vt 0.292219 0.149191
vt 0.292150 0.151695
vt 0.316948 0.853994
vt 0.317953 0.853893
vt 0.317812 0.853304
vt 0.208826 0.805416
vt 0.210231 0.806042
vt 0.209453 0.806950
vt 0.311266 0.717295
vt 0.312328 0.716515
vt 0.311272 0.716819
vt 0.309045 0.715135
vt 0.308733 0.714733
vt 0.308218 0.715495
vt 0.338805 0.093304
vt 0.338107 0.092627
vt 0.338439 0.091340
vt 0.243768 0.907283
vt 0.247938 0.905555
vt 0.247696 0.908863
vt 0.251866 0.907136
vt 0.262623 0.998447
vt 0.264142 0.998610
vt 0.265308 0.997436
s 0
usemtl material_1001
f 7/1/1 6/2/1 26/3/1
f 3/4/2 29/5/2 17/6/2 19/7/2
f 8/8/3 16/9/3 22/10/3
f 12/11/4 23/12/4 22/13/4
f 22/14/5 11/15/5 23/16/5
f 20/17/6 8/18/6 23/19/6
f 3/20/7 7/21/7 19/22/7
f 6/23/8 1/24/8 26/25/8
f 6/26/9 1/27/9 5/28/9
f 8/29/10 13/30/10 2/31/10
f 25/32/11 15/33/11 14/34/11
f 18/35/12 17/36/12 28/37/12
f 11/38/13 12/39/13 26/40/13
f 23/41/14 12/42/14 11/43/14
f 8/44/15 22/45/15 11/46/15
f 8/47/16 23/48/16 11/49/16
f 3/50/17 11/51/17 29/52/17
f 8/53/18 20/54/18 13/55/18
f 7/56/19 3/57/19 11/58/19
f 3/59/20 20/60/20 11/61/20
f 20/62/21 23/63/21 11/64/21
f 3/65/22 9/66/22 20/67/22
f 2/68/23 13/69/23 9/70/23
f 20/71/24 9/72/24 13/73/24
f 19/74/25 9/75/25 3/76/25
f 7/77/26 6/78/26 19/79/26
f 19/80/27 6/81/27 4/82/27
f 6/83/28 7/84/28 1/85/28
f 12/86/29 1/87/29 26/88/29
f 1/89/30 7/90/30 26/91/30
f 11/92/31 7/93/31 26/94/31
f 10/95/32 26/96/32 1/97/32
f 26/98/33 27/99/33 10/100/33
f 26/101/34 12/102/34 27/103/34
f 12/104/35 10/105/35 27/106/35
f 10/107/36 5/108/36 1/109/36
f 14/110/37 18/111/37 6/112/37
f 28/113/38 26/114/38 27/115/38
f 27/116/39 10/117/39 25/118/39
f 14/119/40 10/120/40 6/121/40
f 5/122/41 10/123/41 6/124/41
f 6/125/42 18/111/42 28/126/42
f 14/127/43 18/128/43 17/129/43
f 5/130/44 10/131/44 14/132/44
f 14/133/45 24/134/45 5/135/45
f 24/136/46 6/137/46 5/138/46
f 14/139/47 6/140/47 24/141/47
f 18/142/48 4/143/48 6/144/48
f 4/145/49 18/146/49 17/147/49
f 17/148/50 21/149/50 2/150/50
f 17/151/51 15/152/51 21/153/51
f 17/154/52 15/155/52 2/156/52
f 17/157/53 19/158/53 4/159/53
f 17/160/54 9/161/54 19/162/54
f 17/163/55 2/164/55 9/165/55
f 16/166/56 13/167/56 2/168/56
f 21/169/57 2/170/57 15/171/57
f 21/172/58 16/173/58 2/174/58
f 16/175/59 21/176/59 15/177/59
f 18/178/60 15/179/60 17/180/60
f 14/181/61 15/182/61 18/183/61
f 26/184/62 17/185/62 29/186/62
f 6/187/63 28/188/63 17/189/63
f 17/190/64 28/191/64 29/192/64
f 8/193/65 13/194/65 16/195/65
f 15/196/66 12/197/66 22/198/66
f 10/199/67 12/200/67 25/201/67
f 15/202/68 25/203/68 12/204/68
f 25/205/69 14/206/69 10/207/69
f 22/208/70 16/209/70 15/210/70
f 29/211/71 15/212/71 17/213/71
f 28/214/72 15/215/72 29/216/72
f 15/217/73 28/191/73 17/218/73
f 28/219/74 14/220/74 6/221/74
f 26/222/75 6/223/75 17/224/75
f 26/225/76 28/226/76 6/227/76
f 14/228/77 28/229/77 25/230/77
f 28/231/78 27/232/78 25/233/78
f 22/234/79 23/235/79 8/236/79
f 6/237/80 17/238/80 18/128/80
f 6/239/81 4/240/81 17/238/81
f 11/241/82 26/242/82 29/243/82
l 4 5
