# Blender 4.4.3
# www.blender.org
mtllib 8.mtl
o texturedMesh
v 0.052776 0.200275 -0.082995
v -0.063213 -0.123634 0.143076
v 0.142090 -0.059810 0.065326
v -0.077027 0.123869 0.109478
v 0.122178 0.135687 0.102959
v 0.032607 -0.258773 0.004299
v -0.089344 0.138970 -0.158529
v 0.012211 -0.061027 -0.138854
v -0.158059 -0.060647 -0.056556
v 0.096980 -0.221659 0.172530
v -0.190727 0.148973 -0.044180
v 0.031891 0.023117 0.217346
v -0.095222 0.270523 -0.020121
v -0.123401 -0.259052 0.028202
v 0.146058 -0.143169 -0.069052
v -0.010531 0.366930 -0.002852
v -0.020912 0.052738 0.004507
v -0.188499 0.012266 0.069241
vn 0.0669 -0.5805 -0.8115
vn 0.9273 -0.0651 -0.3687
vn 0.2660 -0.0182 -0.9638
vn -0.0005 1.0000 -0.0056
vn -0.8992 0.0294 0.4365
vn 0.7699 -0.5318 0.3526
vn 0.6218 0.6736 -0.3995
vn 0.8791 -0.4082 -0.2463
vn -0.5333 -0.7599 0.3717
vn 0.1595 0.5139 0.8429
vn 0.4392 -0.6157 0.6542
vn 0.9421 0.1534 -0.2983
vn -0.0201 0.7205 0.6932
vn 0.8004 -0.0337 0.5986
vn 0.4225 0.1263 -0.8975
vn -0.7494 -0.0780 -0.6576
vn -0.5870 0.5742 -0.5707
vn -0.6916 0.4282 0.5817
vn -0.6105 0.7496 0.2558
vn 0.9059 0.3380 0.2553
vn -0.0671 0.8090 -0.5840
vn -0.5366 -0.5952 -0.5982
vn -0.6734 0.4655 0.5743
vn -0.7690 -0.6160 0.1710
vn -0.9777 -0.1433 -0.1535
vn 0.8059 0.1593 -0.5703
vn 0.3871 -0.7540 0.5307
vn -0.4237 0.0986 0.9004
vn -0.6741 0.5495 0.4936
vn -0.1657 -0.5844 -0.7944
vn -0.4671 -0.2128 0.8582
vn -0.7196 -0.6895 0.0826
vn -0.6725 0.0626 0.7375
vn 0.1134 -0.6715 0.7322
vn 0.3050 -0.7104 0.6342
vn -0.3294 -0.1067 0.9381
vn 0.7346 0.6641 -0.1395
vn -0.1375 -0.4093 -0.9020
vn -0.3582 -0.5715 -0.7384
vn -0.4162 -0.2959 -0.8598
vn 0.3758 0.0440 -0.9257
vn 0.4352 0.0147 0.9002
vn 0.9022 -0.0082 -0.4312
vn 0.1154 0.5964 0.7943
vn 0.8285 0.1861 -0.5281
vn -0.6172 -0.6795 0.3966
vn 0.6992 0.4125 0.5839
vn -0.8970 0.2211 -0.3827
vn -0.6596 0.5988 0.4542
vt 0.279368 0.226743
vt 0.279540 0.227070
vt 0.279017 0.226921
vt 0.286380 0.820862
vt 0.280930 0.816598
vt 0.284253 0.816670
vt 0.210236 0.810612
vt 0.210912 0.811547
vt 0.210278 0.811546
vt 0.341203 0.623790
vt 0.339979 0.625482
vt 0.339302 0.623326
vt 0.168954 0.842921
vt 0.168628 0.842997
vt 0.168797 0.842592
vt 0.301780 0.618906
vt 0.301362 0.619027
vt 0.301350 0.618572
vt 0.080343 0.406400
vt 0.079914 0.406410
vt 0.080198 0.405873
vt 0.058798 0.603567
vt 0.058414 0.603082
vt 0.058936 0.602928
vt 0.146113 0.143132
vt 0.146406 0.143612
vt 0.145940 0.143530
vt 0.125106 0.211380
vt 0.124615 0.211119
vt 0.125053 0.210951
vt 0.176537 0.339226
vt 0.176933 0.339584
vt 0.176618 0.339708
vt 0.338584 0.010336
vt 0.338903 0.010774
vt 0.338364 0.010661
vt 0.217411 0.465067
vt 0.216773 0.465742
vt 0.216997 0.465014
vt 0.425955 0.964602
vt 0.426007 0.965138
vt 0.425607 0.964985
vt 0.081777 0.922074
vt 0.081317 0.922131
vt 0.081734 0.921689
vt 0.171471 0.020393
vt 0.171721 0.020104
vt 0.171941 0.020686
vt 0.099196 0.909177
vt 0.098605 0.909704
vt 0.098558 0.909082
vt 0.230027 0.620037
vt 0.229637 0.620496
vt 0.229580 0.620073
vt 0.258821 0.705138
vt 0.259820 0.705702
vt 0.258544 0.703606
vt 0.359729 0.597712
vt 0.359566 0.598634
vt 0.360071 0.598150
vt 0.311232 0.055512
vt 0.309179 0.054519
vt 0.310100 0.056173
vt 0.359701 0.600113
vt 0.359045 0.600286
vt 0.359284 0.601039
vt 0.190745 0.725386
vt 0.191117 0.725562
vt 0.190766 0.725916
vt 0.126171 0.623966
vt 0.125942 0.623887
vt 0.126285 0.623526
vt 0.190972 0.724200
vt 0.190559 0.724477
vt 0.190483 0.724148
vt 0.188237 0.726230
vt 0.188600 0.726276
vt 0.188436 0.726560
vt 0.198517 0.714044
vt 0.198913 0.713814
vt 0.198967 0.714162
vt 0.226954 0.716298
vt 0.226969 0.716674
vt 0.226679 0.716530
vt 0.435882 0.957565
vt 0.435962 0.957871
vt 0.435489 0.957751
vt 0.225499 0.715609
vt 0.225050 0.715446
vt 0.225423 0.715264
vt 0.270536 0.822569
vt 0.268563 0.822283
vt 0.269139 0.822786
vt 0.367160 0.469733
vt 0.367268 0.470112
vt 0.366721 0.470078
vt 0.294094 0.129624
vt 0.293916 0.129993
vt 0.293714 0.129707
vt 0.194730 0.038121
vt 0.194944 0.038598
vt 0.194367 0.038644
vt 0.234046 0.639140
vt 0.230939 0.641161
vt 0.232399 0.639228
vt 0.360519 0.863021
vt 0.359662 0.859458
vt 0.358294 0.861314
vt 0.259760 0.840396
vt 0.259333 0.839859
vt 0.259834 0.839903
vt 0.163695 0.840432
vt 0.163881 0.840968
vt 0.163348 0.840765
vt 0.267347 0.103230
vt 0.267231 0.102783
vt 0.267526 0.102896
vt 0.112156 0.886758
vt 0.111918 0.887205
vt 0.111768 0.886741
vt 0.232471 0.640486
vt 0.233446 0.638413
vt 0.253514 0.630105
vt 0.254125 0.629911
vt 0.254706 0.630445
vt 0.261813 0.973046
vt 0.259334 0.970845
vt 0.260916 0.971337
vt 0.056008 0.107905
vt 0.055326 0.108504
vt 0.054860 0.107965
vt 0.336760 0.561574
vt 0.336716 0.561370
vt 0.336412 0.561629
vt 0.230970 0.641326
vt 0.232050 0.639499
vt 0.231353 0.640043
vt 0.253393 0.633017
vt 0.254616 0.632630
vt 0.254556 0.634086
vt 0.056596 0.651282
vt 0.057394 0.651694
vt 0.056965 0.652159
vt 0.366418 0.126763
vt 0.365272 0.126614
vt 0.365109 0.124739
s 0
usemtl material_1001
f 6/1/1 8/2/1 15/3/1
f 1/4/2 5/5/2 8/6/2
f 17/7/3 11/8/3 13/9/3
f 8/10/4 9/11/4 3/12/4
f 2/13/5 9/14/5 14/15/5
f 15/16/6 3/17/6 6/18/6
f 8/19/7 3/20/7 15/21/7
f 3/22/8 10/23/8 6/24/8
f 6/25/9 10/26/9 2/27/9
f 3/28/10 2/29/10 10/30/10
f 2/31/11 3/32/11 12/33/11
f 3/34/12 1/35/12 5/36/12
f 5/37/13 4/38/13 12/39/13
f 3/40/14 5/41/14 12/42/14
f 7/43/15 1/44/15 8/45/15
f 7/46/16 9/47/16 11/48/16
f 11/49/17 13/50/17 7/51/17
f 4/52/18 13/53/18 11/54/18
f 12/55/19 5/56/19 17/57/19
f 17/58/20 13/59/20 4/60/20
f 4/61/21 5/62/21 17/63/21
f 4/64/22 13/65/22 1/66/22
f 11/67/23 18/68/23 4/69/23
f 18/70/24 9/71/24 2/72/24
f 18/73/25 11/74/25 9/75/25
f 9/76/26 11/77/26 4/78/26
f 9/79/27 17/80/27 18/81/27
f 2/82/28 4/83/28 18/84/28
f 2/85/29 17/86/29 9/87/29
f 18/88/30 17/89/30 2/90/30
f 17/91/31 3/92/31 5/93/31
f 12/94/32 4/95/32 17/96/32
f 12/97/33 4/98/33 2/99/33
f 6/100/34 2/101/34 14/102/34
f 9/103/35 8/104/35 17/105/35
f 11/106/36 9/107/36 17/108/36
f 2/109/37 6/110/37 9/111/37
f 14/112/38 9/113/38 6/114/38
f 8/115/39 6/116/39 9/117/39
f 9/118/40 7/119/40 8/120/40
f 3/121/41 9/122/41 17/105/41
f 11/123/42 9/124/42 8/125/42
f 4/126/43 2/127/43 9/128/43
f 3/129/44 17/130/44 2/131/44
f 5/132/45 3/133/45 8/134/45
f 3/135/46 17/136/46 8/137/46
f 11/138/47 8/139/47 7/140/47
f 8/141/48 17/142/48 1/143/48
f 5/144/49 1/145/49 17/146/49
l 16 13
