# Blender 4.4.3
# www.blender.org
mtllib 9.mtl
o texturedMesh
v 0.045623 0.183520 -0.069809
v -0.049999 -0.123335 0.122225
v 0.136705 -0.067552 0.047100
v -0.109637 0.134686 0.073114
v 0.023125 -0.242708 -0.048731
v -0.054886 -0.025994 -0.151127
v -0.169865 0.115706 -0.097318
v -0.142770 -0.134956 -0.066308
v 0.145435 0.164790 0.133948
vn -0.6599 0.5251 -0.5374
vn -0.8954 -0.0420 0.4432
vn -0.6367 0.7228 0.2688
vn -0.2224 -0.4808 -0.8481
vn 0.7101 -0.0687 -0.7007
vn 0.7089 -0.0761 -0.7012
vn -0.4441 0.6342 -0.6328
vn 0.8954 0.1260 -0.4270
vn 0.2982 0.2445 0.9227
vn -0.1803 -0.3384 0.9235
vn -0.1544 0.9741 0.1652
vn 0.0061 0.3593 -0.9332
vn -0.3002 0.9539 -0.0002
vn -0.9270 -0.1488 0.3442
vn -0.5403 -0.7807 0.3140
vn 0.9693 0.2368 0.0670
vn -0.7964 -0.5740 -0.1902
vn 0.4916 0.5078 0.7075
vt 0.325085 0.129882
vt 0.328412 0.131699
vt 0.326897 0.129750
vt 0.166672 0.371933
vt 0.166335 0.372236
vt 0.166273 0.371741
vt 0.160958 0.070357
vt 0.161424 0.070452
vt 0.161015 0.070849
vt 0.156909 0.967218
vt 0.157186 0.967680
vt 0.156750 0.967710
vt 0.107631 0.765790
vt 0.107848 0.765756
vt 0.107986 0.766025
vt 0.164886 0.182612
vt 0.164579 0.182876
vt 0.164519 0.182381
vt 0.598880 0.981476
vt 0.598484 0.981503
vt 0.598303 0.982091
vt 0.090272 0.601865
vt 0.089914 0.602214
vt 0.089723 0.601702
vt 0.108555 0.062392
vt 0.108199 0.061121
vt 0.109816 0.062117
vt 0.169742 0.552756
vt 0.169806 0.552141
vt 0.170180 0.552732
vt 0.258345 0.855926
vt 0.258016 0.855532
vt 0.258507 0.855324
vt 0.243377 0.149195
vt 0.243003 0.149188
vt 0.243273 0.148851
vt 0.260350 0.658994
vt 0.260330 0.658550
vt 0.260572 0.658759
vt 0.144979 0.770435
vt 0.144696 0.770803
vt 0.144508 0.770180
vt 0.087863 0.257100
vt 0.088364 0.256480
vt 0.088371 0.257075
vt 0.315079 0.743713
vt 0.315919 0.749771
vt 0.319518 0.748993
vt 0.318704 0.643080
vt 0.318395 0.642249
vt 0.318901 0.641982
vt 0.316948 0.853994
vt 0.317812 0.853304
vt 0.316807 0.853405
s 0
usemtl material_1001
f 4/1/1 1/2/1 6/3/1
f 2/4/2 7/5/2 8/6/2
f 6/7/3 8/8/3 2/9/3
f 5/10/4 8/11/4 6/12/4
f 3/13/5 6/14/5 1/15/5
f 6/16/6 3/17/6 5/18/6
f 3/19/7 5/20/7 2/21/7
f 1/22/8 9/23/8 3/24/8
f 4/25/9 2/26/9 3/27/9
f 4/28/10 3/29/10 9/30/10
f 1/31/11 4/32/11 9/33/11
f 7/34/12 1/35/12 6/36/12
f 7/37/13 4/38/13 1/39/13
f 2/40/14 4/41/14 7/42/14
f 8/43/15 5/44/15 2/45/15
f 6/46/16 4/47/16 2/48/16
f 7/49/17 6/50/17 2/51/17
f 1/52/18 4/53/18 3/54/18
