# Blender 4.4.3
# www.blender.org
mtllib 0.06.mtl
o mesh_base_material_0
v -0.383440 -0.016789 0.250742
v -0.120247 -0.423631 0.014284
v -0.087099 -0.411848 0.229404
v 0.045908 0.512077 0.056071
v -0.013422 0.317790 0.017426
v 0.058331 0.248217 0.146221
v 0.253574 -0.351509 -0.220012
v -0.367916 -0.346231 -0.224561
v 0.064788 0.193117 -0.175616
v -0.091468 0.249811 0.181262
v 0.217541 0.129866 0.190233
v -0.378251 0.072976 0.146021
v -0.167697 0.247946 0.055050
v 0.241316 -0.185313 0.373548
v -0.060761 0.162178 0.306462
v 0.169951 -0.367226 0.299140
v 0.297210 -0.347640 0.214109
v 0.389486 -0.281733 0.191902
v 0.448224 -0.193690 0.135901
v 0.472240 -0.125319 0.030990
v 0.456727 -0.054717 -0.064928
v 0.406218 0.020621 -0.138212
v 0.326844 0.083651 -0.182882
v 0.241726 0.076592 -0.268561
v 0.183999 0.155513 -0.202897
v -0.057482 0.215174 -0.112991
v -0.061345 0.436730 0.087610
v 0.442041 -0.294452 -0.012459
v 0.445761 -0.207978 -0.136684
v 0.411652 -0.136320 -0.216651
v 0.347756 -0.066910 -0.285734
v 0.053494 0.123255 -0.336165
v 0.134968 0.226400 -0.026868
v 0.248941 0.185250 -0.063308
v 0.330859 0.124467 -0.008615
v 0.403354 0.050608 0.062843
v 0.423488 -0.019708 0.152566
v 0.387004 -0.086915 0.240201
v 0.330984 -0.172759 0.278465
v 0.136464 -0.424731 0.149927
v 0.306840 -0.409124 0.074099
v 0.377760 -0.378378 0.008143
v 0.228895 -0.034928 -0.346147
v 0.145706 0.048524 -0.378306
v -0.096296 0.142497 -0.273440
v -0.180434 0.214959 -0.081695
v 0.050596 0.394744 0.113681
v 0.121904 -0.290231 0.437263
v 0.021960 -0.360139 0.400704
v 0.036639 -0.424810 0.241179
v 0.392779 -0.321089 -0.123707
v -0.014525 0.059389 -0.417504
v -0.193829 0.150391 -0.200119
v -0.043309 0.372447 0.133588
v 0.351928 0.068541 0.167005
v 0.280524 -0.036884 0.273717
v 0.257070 0.178730 0.051900
v 0.185742 0.208138 0.056700
v 0.224038 0.028436 0.274589
v 0.206295 -0.003970 0.369230
v 0.290483 -0.413286 -0.051359
v 0.362015 -0.233305 -0.241996
v 0.293976 -0.194105 -0.321396
v 0.162321 -0.104971 -0.409761
v 0.062709 -0.034716 -0.457883
v -0.294602 0.190638 -0.096061
v 0.014381 0.362031 0.147985
v 0.153234 -0.069750 0.454526
v 0.083213 -0.162132 0.486162
v 0.028043 -0.429944 0.097998
v 0.138726 -0.433681 0.011575
v -0.096299 -0.015267 -0.449994
v -0.168062 0.057319 -0.323921
v -0.250797 0.079148 -0.270219
v -0.298223 0.173090 0.048141
v -0.240974 0.156744 0.188598
v -0.194950 0.136077 0.259504
v -0.004441 -0.236504 0.487996
v -0.088860 -0.311931 0.434240
v -0.085118 -0.381951 0.351515
v 0.307795 -0.387752 -0.114536
v 0.199996 -0.256081 -0.350313
v 0.069484 -0.189718 -0.444437
v -0.337658 0.102970 -0.213862
v 0.135885 0.104315 0.322149
v 0.093942 0.047326 0.415276
v 0.023234 -0.028056 0.468339
v -0.045171 -0.123128 0.498427
v 0.128174 -0.430996 -0.094050
v -0.021946 -0.136806 -0.477942
v -0.167551 -0.116072 -0.431564
v -0.239246 -0.045881 -0.354381
v -0.394752 0.109593 -0.083169
v -0.400308 0.088850 0.023644
v -0.257854 0.072770 0.285772
v 0.062587 0.149450 0.320728
v -0.141997 -0.176087 0.460858
v -0.193521 -0.274366 0.376098
v 0.001952 -0.430539 -0.037612
v 0.113441 -0.364785 -0.302926
v 0.041663 -0.302677 -0.384806
v -0.055068 -0.263166 -0.439498
v -0.348548 -0.021165 -0.304598
v -0.418066 0.025287 -0.210073
v -0.169714 0.045104 0.356444
v -0.019239 0.086739 0.410504
v -0.096016 0.010025 0.444717
v -0.213003 -0.345411 0.293011
v 0.084209 -0.422968 -0.187943
v -0.152485 -0.241564 -0.425934
v -0.236761 -0.209217 -0.378697
v -0.079489 0.112252 0.385401
v -0.187477 -0.061638 0.407977
v -0.252919 -0.154452 0.382221
v -0.022315 -0.420515 -0.137197
v -0.064335 -0.391234 -0.226532
v -0.162678 -0.348719 -0.299506
v -0.262918 -0.303771 -0.328328
v -0.376968 -0.209336 -0.317624
v -0.438963 -0.151685 -0.253490
v -0.470801 -0.097843 -0.153463
v -0.465738 -0.032797 -0.051200
v -0.455275 -0.020059 0.055518
v -0.299335 -0.084501 0.351042
v -0.336787 -0.224583 0.325029
v -0.297176 -0.332350 0.262713
v -0.236655 -0.396163 0.136655
v -0.227215 -0.426422 -0.113291
v -0.334251 -0.404998 -0.028081
v -0.363788 -0.340747 0.077256
v -0.406167 -0.264817 0.160194
v -0.399929 -0.198924 0.254295
v -0.280399 -0.364942 0.187675
v -0.260577 -0.415778 -0.198317
v -0.460270 -0.274573 -0.108557
v -0.478866 -0.188562 -0.019179
v -0.472686 -0.132119 0.085858
v -0.451484 -0.134244 0.173922
v -0.464833 -0.235962 0.052428
v -0.447033 -0.299935 -0.013416
v -0.414448 -0.357699 -0.086153
v -0.452792 -0.044624 0.152662
v -0.002032 -0.353695 -0.329090
v -0.095493 -0.308560 -0.389982
v -0.338705 -0.125928 -0.344510
vn 0.0327 0.6539 -0.7559
vn 0.0350 0.6527 -0.7568
vn 0.0288 0.6458 -0.7629
vn 0.1522 -0.8013 0.5786
vn 0.1550 -0.7972 0.5835
vn 0.1516 -0.8010 0.5792
vn 0.6168 0.6636 -0.4233
vn 0.4998 0.5870 -0.6369
vn 0.3612 0.8503 -0.3828
vn 0.9291 -0.0978 0.3565
vn 0.8998 -0.4361 -0.0141
vn 0.9960 0.0635 0.0633
vn 0.9084 -0.2398 -0.3424
vn 0.9513 0.2724 -0.1443
vn 0.8316 -0.0414 -0.5538
vn 0.8428 0.4493 -0.2964
vn 0.6545 0.2114 -0.7259
vn 0.0472 0.9115 -0.4086
vn 0.2930 0.8166 -0.4973
vn 0.1270 0.8214 -0.5560
vn 0.4025 0.8963 -0.1863
vn 0.1734 0.6975 -0.6952
vn -0.6044 0.7965 0.0157
vn 0.3086 0.9335 -0.1828
vn 0.1598 0.8707 -0.4651
vn 0.1364 0.9526 -0.2719
vn 0.4570 0.8720 -0.1757
vn 0.6702 0.7419 -0.0212
vn 0.8048 0.5875 0.0841
vn 0.8607 0.3583 0.3617
vn 0.6524 0.1879 0.7342
vn 0.6900 0.0076 0.7237
vn 0.7346 -0.4255 0.5284
vn 0.6893 -0.0998 0.7175
vn 0.4666 -0.7235 0.5088
vn 0.4189 -0.7739 0.4749
vn 0.1428 -0.9741 0.1752
vn 0.3752 -0.9039 0.2055
vn 0.6413 -0.7673 0.0041
vn 0.5946 0.2636 -0.7596
vn 0.5056 0.4880 -0.7115
vn -0.2153 0.8244 -0.5234
vn -0.1213 0.8696 -0.4785
vn -0.1959 0.9025 -0.3835
vn -0.5875 0.8091 0.0138
vn 0.4393 -0.4795 0.7597
vn 0.0841 -0.7898 0.6076
vn 0.0303 -0.9739 0.2251
vn 0.7225 -0.5871 -0.3650
vn -0.2200 0.8172 -0.5328
vn 0.8343 0.4035 0.3757
vn 0.4965 0.7141 0.4935
vn 0.5888 0.6555 0.4729
vn 0.6169 0.3754 0.6918
vn 0.4980 0.8454 0.1930
vn 0.4816 0.7346 0.4780
vn 0.3869 0.9071 0.1655
vn 0.6252 0.5769 0.5257
vn 0.7495 0.4215 0.5105
vn 0.3026 -0.9437 -0.1334
vn 0.6991 -0.3751 -0.6088
vn 0.5741 -0.2779 -0.7702
vn 0.5163 0.0034 -0.8564
vn 0.2584 0.2502 -0.9331
vn -0.0037 0.6564 -0.7544
vn -0.1643 0.4470 0.8793
vn 0.0869 0.3150 0.9451
vn 0.5028 0.2087 0.8388
vn 0.3069 -0.0562 0.9501
vn -0.0442 -0.9984 0.0354
vn 0.0561 -0.9983 0.0161
vn 0.3987 -0.7443 -0.5357
vn -0.3525 0.3887 -0.8513
vn -0.4354 0.5841 -0.6850
vn -0.2584 0.6627 -0.7029
vn -0.4265 0.8697 -0.2483
vn -0.5779 0.7920 0.1968
vn -0.5532 0.7457 0.3714
vn -0.3249 0.6700 0.6675
vn -0.4157 0.6866 0.5965
vn -0.0544 -0.3136 0.9480
vn -0.3141 -0.5467 0.7762
vn -0.2254 -0.8734 0.4317
vn -0.1540 -0.9682 0.1972
vn 0.5432 -0.7729 -0.3278
vn 0.0927 -0.9354 -0.3413
vn 0.0505 -0.9563 -0.2881
vn 0.0367 -0.9208 -0.3882
vn 0.4555 -0.4652 -0.7590
vn 0.3188 -0.2804 -0.9054
vn -0.3934 0.7464 -0.5367
vn -0.1787 0.8015 0.5707
vn 0.5611 0.6534 0.5082
vn 0.3358 0.5727 0.7478
vn 0.0912 0.3571 0.9296
vn -0.1651 0.0775 0.9832
vn 0.0987 -0.9852 -0.1403
vn 0.1777 -0.9150 -0.3623
vn -0.0229 -0.0879 -0.9959
vn -0.5324 0.0817 -0.8425
vn -0.4121 0.3526 -0.8402
vn -0.7680 0.6350 -0.0837
vn -0.7856 0.6014 0.1455
vn -0.6960 0.6466 0.3123
vn -0.5008 0.5651 0.6557
vn 0.2473 0.7926 0.5574
vn -0.4592 -0.0871 0.8840
vn -0.4947 -0.4839 0.7219
vn -0.0615 -0.9969 -0.0497
vn 0.1163 -0.7017 -0.7029
vn -0.0353 -0.5218 -0.8523
vn -0.4795 0.4337 -0.7629
vn -0.7860 0.3878 -0.4815
vn -0.7169 0.3552 0.5998
vn -0.5255 0.5187 0.6744
vn -0.3520 0.4045 0.8441
vn -0.4302 -0.7570 0.4919
vn -0.0780 -0.9969 0.0129
vn 0.0647 -0.9568 -0.2833
vn -0.3186 -0.3652 -0.8747
vn -0.4329 -0.1078 -0.8950
vn -0.3181 0.7249 0.6110
vn 0.0460 0.6388 0.7680
vn -0.5116 0.2856 0.8104
vn -0.5224 -0.0538 0.8510
vn -0.0581 -0.7666 0.6395
vn -0.0261 -0.7432 0.6686
vn -0.0726 -0.7431 0.6653
vn -0.1542 -0.9757 -0.1556
vn -0.3315 -0.5890 -0.7370
vn -0.5900 -0.6692 -0.4518
vn -0.6540 -0.2699 -0.7067
vn -0.9299 0.3552 0.0950
vn -0.5846 0.2091 0.7839
vn -0.6141 -0.2679 0.7424
vn -0.5350 -0.7065 0.4633
vn -0.3392 -0.7801 0.5257
vn -0.2828 -0.9396 0.1931
vn -0.7926 -0.2209 0.5683
vn -0.8044 -0.4682 0.3656
vn -0.4061 -0.9081 0.1023
vn -0.0893 -0.9895 -0.1138
vn -0.3999 -0.8677 0.2952
vn -0.5994 -0.7440 0.2951
vn -0.5290 -0.8257 0.1959
vn -0.6813 -0.6639 0.3083
vn 0.6162 0.7862 0.0468
vn 0.6125 0.7899 0.0297
vn 0.6148 0.7872 0.0477
vn -0.0885 -0.9395 -0.3310
vn -0.1152 -0.8335 -0.5404
vn -0.1750 -0.9499 -0.2591
vn -0.8740 -0.0273 -0.4851
vn -0.9214 -0.3416 -0.1852
vn -0.9618 0.1232 -0.2444
vn -0.9961 -0.0872 0.0124
vn -0.9542 0.2985 -0.0188
vn -0.9893 0.0082 0.1455
vn -0.9134 -0.0678 0.4013
vn -0.9057 -0.2691 0.3275
vn -0.9382 -0.3208 0.1297
vn -0.8393 -0.5183 0.1639
vn -0.6785 -0.7321 -0.0611
vn -0.9000 0.2764 0.3369
vn -0.8813 -0.2048 0.4259
vn -0.8816 -0.2032 0.4260
vn -0.8935 -0.1905 0.4068
vn -0.0253 -0.8527 -0.5218
vn 0.4939 -0.8547 -0.1597
vn -0.3885 0.0870 -0.9173
vn 0.6904 -0.1986 0.6957
vn 0.6809 -0.1858 0.7084
vn 0.6735 -0.2316 0.7020
vn 0.2275 -0.7941 -0.5636
vn -0.4249 0.4994 0.7550
vn -0.4115 0.4949 0.7653
vn -0.4250 0.5033 0.7524
vn 0.3354 -0.5253 -0.7820
vt 0.919813 0.767299
vt 0.906781 0.761005
vt 0.909162 0.769146
vt 0.807901 0.782531
vt 0.816223 0.783505
vt 0.816581 0.776444
vt 0.932204 0.811836
vt 0.921212 0.811385
vt 0.920488 0.822445
vt 0.133691 0.203053
vt 0.144287 0.188574
vt 0.133304 0.188190
vt 0.099050 0.157074
vt 0.109095 0.141837
vt 0.098188 0.141651
vt 0.063815 0.116329
vt 0.072967 0.102178
vt 0.062231 0.103419
vt 0.640574 0.561726
vt 0.650335 0.552116
vt 0.640280 0.549868
vt 0.897131 0.721896
vt 0.906566 0.715387
vt 0.899727 0.707649
vt 0.834703 0.391135
vt 0.829950 0.379268
vt 0.829780 0.391658
vt 0.805668 0.801192
vt 0.814126 0.802411
vt 0.814942 0.796441
vt 0.824443 0.791279
vt 0.833313 0.799151
vt 0.833601 0.792638
vt 0.919810 0.833267
vt 0.931786 0.823381
vt 0.951561 0.886393
vt 0.941115 0.882577
vt 0.936334 0.892455
vt 0.009223 0.169471
vt 0.010004 0.182070
vt 0.018949 0.180300
vt 0.028334 0.192466
vt 0.028334 0.206204
vt 0.038253 0.205625
vt 0.028104 0.219659
vt 0.038102 0.219398
vt 0.069367 0.247040
vt 0.069187 0.260744
vt 0.080103 0.261081
vt 0.069036 0.274111
vt 0.079272 0.499268
vt 0.071143 0.487258
vt 0.068165 0.497123
vt 0.064419 0.506356
vt 0.050068 0.513242
vt 0.053999 0.504600
vt 0.043861 0.503390
vt 0.112457 0.402359
vt 0.120654 0.394350
vt 0.110880 0.393787
vt 0.129550 0.386539
vt 0.127535 0.379131
vt 0.117281 0.378656
vt 0.497810 0.946132
vt 0.491446 0.936039
vt 0.488340 0.944388
vt 0.446355 0.981604
vt 0.435186 0.980453
vt 0.433419 0.990327
vt 0.188265 0.228480
vt 0.197141 0.215486
vt 0.187573 0.216026
vt 0.177416 0.216464
vt 0.167089 0.216855
vt 0.167637 0.230269
vt 0.120085 0.142331
vt 0.109885 0.157176
vt 0.083820 0.101354
vt 0.074538 0.115150
vt 0.660677 0.553733
vt 0.650692 0.564355
vt 0.650254 0.539575
vt 0.640433 0.525209
vt 0.640384 0.537555
vt 0.957610 0.744626
vt 0.961613 0.725655
vt 0.954168 0.729502
vt 0.946636 0.733386
vt 0.937264 0.724758
vt 0.938800 0.737111
vt 0.930344 0.740943
vt 0.846257 0.696949
vt 0.853062 0.687482
vt 0.844611 0.683504
vt 0.832317 0.702384
vt 0.824832 0.698932
vt 0.819105 0.708099
vt 0.754737 0.743350
vt 0.747898 0.743741
vt 0.745720 0.752720
vt 0.739093 0.753567
vt 0.545908 0.242287
vt 0.548930 0.253622
vt 0.550702 0.243250
vt 0.865352 0.805188
vt 0.875807 0.815769
vt 0.876824 0.806968
vt 0.877201 0.798267
vt 0.912617 0.862656
vt 0.923307 0.865425
vt 0.926613 0.855740
vt 0.933842 0.915985
vt 0.949790 0.911070
vt 0.940615 0.906857
vt 0.170386 0.370480
vt 0.173031 0.378634
vt 0.182240 0.376854
vt 0.588571 0.948565
vt 0.596021 0.953146
vt 0.602304 0.946178
vt 0.534530 0.918276
vt 0.538225 0.912555
vt 0.529132 0.907400
vt 0.455436 0.948126
vt 0.441475 0.957619
vt 0.451710 0.959343
vt 0.152904 0.145754
vt 0.162104 0.134433
vt 0.151720 0.132282
vt 0.652359 0.498621
vt 0.640484 0.512760
vt 0.650098 0.514301
vt 0.795670 0.699309
vt 0.800527 0.690571
vt 0.791483 0.688232
vt 0.787004 0.697384
vt 0.258598 0.281241
vt 0.258584 0.291257
vt 0.261946 0.291385
vt 0.242968 0.317431
vt 0.237883 0.315762
vt 0.236132 0.326235
vt 0.801891 0.832047
vt 0.796722 0.824045
vt 0.793556 0.830397
vt 0.908176 0.953277
vt 0.891843 0.954313
vt 0.898545 0.959689
vt 0.028105 0.269608
vt 0.019890 0.278544
vt 0.028969 0.280547
vt 0.064031 0.455694
vt 0.052735 0.446006
vt 0.052678 0.455593
vt 0.051860 0.465509
vt 0.041721 0.455744
vt 0.041387 0.465432
vt 0.072257 0.405927
vt 0.085796 0.413818
vt 0.083305 0.403643
vt 0.877119 0.919033
vt 0.868112 0.913828
vt 0.861863 0.920579
vt 0.874133 0.906615
vt 0.883530 0.911385
vt 0.889393 0.903643
vt 0.857342 0.870766
vt 0.860915 0.863673
vt 0.849958 0.858635
vt 0.852968 0.851613
vt 0.842148 0.846819
vt 0.061907 0.379184
vt 0.048772 0.373245
vt 0.052105 0.381892
vt 0.055359 0.390450
vt 0.142909 0.482583
vt 0.143876 0.474446
vt 0.134671 0.473785
vt 0.571168 0.922200
vt 0.561248 0.917179
vt 0.557142 0.923184
vt 0.383046 0.963093
vt 0.387096 0.953633
vt 0.377061 0.949531
vt 0.194966 0.166544
vt 0.184137 0.151691
vt 0.185184 0.164657
vt 0.748642 0.571685
vt 0.738657 0.574578
vt 0.741964 0.584755
vt 0.135926 0.095249
vt 0.123718 0.081015
vt 0.125696 0.092882
vt 0.711944 0.543812
vt 0.701654 0.544045
vt 0.702599 0.557012
vt 0.701370 0.531554
vt 0.691086 0.517830
vt 0.690930 0.531439
vt 0.655808 0.450715
vt 0.654291 0.438008
vt 0.643895 0.437984
vt 0.630735 0.426257
vt 0.641869 0.425494
vt 0.640120 0.413103
vt 0.616317 0.415650
vt 0.627904 0.414287
vt 0.626497 0.401548
vt 0.945183 0.676256
vt 0.935972 0.667866
vt 0.927620 0.674079
vt 0.890508 0.643723
vt 0.882016 0.651881
vt 0.891654 0.658755
vt 0.234400 0.633535
vt 0.237381 0.624043
vt 0.230197 0.620057
vt 0.238108 0.647052
vt 0.241144 0.636949
vt 0.808600 0.863708
vt 0.822167 0.861800
vt 0.811949 0.857551
vt 0.820373 0.884712
vt 0.829848 0.890265
vt 0.834531 0.884566
vt 0.133954 0.504720
vt 0.128871 0.497296
vt 0.125239 0.504332
vt 0.290108 0.897424
vt 0.281656 0.908209
vt 0.289815 0.908464
vt 0.256477 0.927668
vt 0.242166 0.935986
vt 0.254691 0.937699
vt 0.239962 0.945263
vt 0.506350 0.888088
vt 0.509525 0.882565
vt 0.500946 0.878276
vt 0.438893 0.911154
vt 0.434475 0.920292
vt 0.444302 0.922453
vt 0.410721 0.924486
vt 0.415512 0.914277
vt 0.406351 0.910563
vt 0.352581 0.947919
vt 0.347926 0.954884
vt 0.358001 0.961613
vt 0.776689 0.559733
vt 0.781131 0.546116
vt 0.772997 0.551020
vt 0.704006 0.486618
vt 0.695159 0.469660
vt 0.693587 0.485949
vt 0.255985 0.511294
vt 0.245869 0.508062
vt 0.240376 0.519054
vt 0.242734 0.533629
vt 0.249870 0.522889
vt 0.209459 0.535179
vt 0.200839 0.533968
vt 0.196909 0.544715
vt 0.811910 0.654482
vt 0.817639 0.647017
vt 0.806241 0.644552
vt 0.747661 0.671569
vt 0.738353 0.671434
vt 0.737310 0.683797
vt 0.703599 0.722584
vt 0.692841 0.714068
vt 0.697692 0.727328
vt 0.692805 0.731834
vt 0.687659 0.718669
vt 0.683322 0.722868
vt 0.541289 0.350767
vt 0.537157 0.360662
vt 0.545980 0.359763
vt 0.579530 0.343250
vt 0.569322 0.331389
vt 0.573332 0.343352
vt 0.135899 0.709655
vt 0.135990 0.720003
vt 0.142415 0.712331
vt 0.248723 0.652900
vt 0.240658 0.660166
vt 0.245690 0.662665
vt 0.232332 0.667464
vt 0.235108 0.657355
vt 0.229049 0.654125
vt 0.226301 0.664529
vt 0.222555 0.650926
vt 0.219362 0.661189
vt 0.798373 0.881284
vt 0.807043 0.885451
vt 0.811002 0.879844
vt 0.209256 0.958016
vt 0.194007 0.963816
vt 0.206611 0.966579
vt 0.191551 0.972197
vt 0.203654 0.974761
vt 0.152682 0.981313
vt 0.141739 0.971501
vt 0.141402 0.979285
vt 0.608200 0.903207
vt 0.611961 0.895748
vt 0.601502 0.893499
vt 0.597902 0.900328
vt 0.590747 0.890558
vt 0.587402 0.896911
vt 0.527500 0.870668
vt 0.515405 0.872110
vt 0.524131 0.876571
vt 0.452510 0.886820
vt 0.447094 0.896259
vt 0.456154 0.899823
vt 0.812795 0.544179
vt 0.810043 0.558474
vt 0.817460 0.550473
vt 0.819281 0.536195
vt 0.814778 0.530018
vt 0.800821 0.543388
vt 0.805396 0.551130
vt 0.257255 0.175761
vt 0.264234 0.184597
vt 0.266952 0.175486
vt 0.726299 0.472039
vt 0.715892 0.471516
vt 0.714425 0.487002
vt 0.691737 0.412327
vt 0.702686 0.396246
vt 0.690904 0.396359
vt 0.649001 0.366226
vt 0.648567 0.355759
vt 0.636438 0.353972
vt 0.763906 0.652118
vt 0.757719 0.640263
vt 0.753740 0.650073
vt 0.747240 0.638566
vt 0.142658 0.723006
vt 0.281823 0.435965
vt 0.288159 0.443455
vt 0.287422 0.435078
vt 0.123919 0.542807
vt 0.126654 0.535850
vt 0.119506 0.535378
vt 0.274986 0.844545
vt 0.262647 0.836407
vt 0.265079 0.845808
vt 0.244581 0.874932
vt 0.231372 0.873378
vt 0.231591 0.883544
vt 0.203903 0.899344
vt 0.189318 0.906476
vt 0.203285 0.909350
vt 0.188516 0.916379
vt 0.385776 0.887814
vt 0.388891 0.902127
vt 0.394072 0.892380
vt 0.372805 0.892153
vt 0.360362 0.896952
vt 0.367624 0.902421
vt 0.358240 0.880973
vt 0.353687 0.891247
vt 0.770545 0.499406
vt 0.764327 0.486271
vt 0.761983 0.500141
vt 0.732528 0.430651
vt 0.719731 0.444556
vt 0.730268 0.444909
vt 0.686584 0.375498
vt 0.673214 0.367436
vt 0.673555 0.375065
vt 0.661026 0.356895
vt 0.661196 0.367156
vt 0.243227 0.460293
vt 0.228868 0.459614
vt 0.228248 0.470522
vt 0.216121 0.458658
vt 0.638547 0.281577
vt 0.639507 0.270136
vt 0.630160 0.272861
vt 0.443949 0.343530
vt 0.432301 0.351682
vt 0.439566 0.356275
vt 0.470269 0.343602
vt 0.466209 0.357222
vt 0.477622 0.348659
vt 0.495400 0.368206
vt 0.487185 0.374629
vt 0.493339 0.381568
vt 0.520444 0.374597
vt 0.519478 0.386101
vt 0.525916 0.382883
vt 0.072854 0.738902
vt 0.066201 0.746243
vt 0.072073 0.750110
vt 0.092794 0.741263
vt 0.092589 0.751764
vt 0.100051 0.745563
vt 0.717127 0.893002
vt 0.720499 0.884215
vt 0.714176 0.881019
vt 0.721401 0.904919
vt 0.729565 0.907168
vt 0.732672 0.898195
vt 0.754814 0.910193
vt 0.752729 0.918582
vt 0.761096 0.917364
vt 0.763042 0.909515
vt 0.765354 0.901588
vt 0.269046 0.826270
vt 0.272069 0.835467
vt 0.280376 0.834273
vt 0.229828 0.853815
vt 0.230721 0.863472
vt 0.243881 0.864992
vt 0.158452 0.929931
vt 0.144634 0.926911
vt 0.143908 0.936275
vt 0.131178 0.923528
vt 0.643589 0.868733
vt 0.641649 0.858308
vt 0.634080 0.859808
vt 0.469281 0.840363
vt 0.461284 0.835039
vt 0.456494 0.843477
vt 0.443519 0.847080
vt 0.440686 0.833401
vt 0.435587 0.842330
vt 0.754687 0.374451
vt 0.744085 0.362982
vt 0.743609 0.371538
vt 0.732359 0.361315
vt 0.732445 0.369190
vt 0.718038 0.325872
vt 0.729512 0.326633
vt 0.728034 0.307147
vt 0.637802 0.245079
vt 0.626291 0.236411
vt 0.628123 0.248508
vt 0.614656 0.231017
vt 0.616480 0.240775
vt 0.392160 0.371209
vt 0.389507 0.384457
vt 0.399860 0.375549
vt 0.526081 0.393933
vt 0.059381 0.753748
vt 0.053063 0.762494
vt 0.058993 0.765943
vt 0.114696 0.765188
vt 0.122649 0.768724
vt 0.128050 0.760450
vt 0.130814 0.771243
vt 0.136005 0.763316
vt 0.178406 0.852638
vt 0.166290 0.850007
vt 0.165470 0.860241
vt 0.151290 0.867077
vt 0.136663 0.873264
vt 0.149887 0.877082
vt 0.673735 0.848381
vt 0.671824 0.862257
vt 0.677296 0.860057
vt 0.632084 0.850042
vt 0.622688 0.842738
vt 0.624523 0.851932
vt 0.614947 0.845201
vt 0.512938 0.822512
vt 0.516243 0.834046
vt 0.519560 0.828883
vt 0.470855 0.820373
vt 0.466406 0.827230
vt 0.473825 0.832700
vt 0.351740 0.852063
vt 0.347710 0.838022
vt 0.343501 0.846538
vt 0.739989 0.310932
vt 0.698515 0.272488
vt 0.712146 0.262279
vt 0.700404 0.262549
vt 0.358384 0.380057
vt 0.374800 0.375004
vt 0.368403 0.371606
vt 0.163732 0.776130
vt 0.167445 0.785725
vt 0.171436 0.777097
vt 0.176367 0.769283
vt 0.175439 0.787227
vt 0.179335 0.778740
vt 0.183552 0.770208
vt 0.207836 0.769518
vt 0.214015 0.784039
vt 0.215327 0.773495
vt 0.240167 0.789788
vt 0.242499 0.799077
vt 0.251367 0.798026
vt 0.231709 0.789744
vt 0.222578 0.798141
vt 0.232896 0.799875
vt 0.212284 0.804351
vt 0.212561 0.813929
vt 0.224534 0.816809
vt 0.178395 0.821389
vt 0.178238 0.831699
vt 0.189955 0.835233
vt 0.126706 0.859478
vt 0.138439 0.863304
vt 0.100193 0.900877
vt 0.092448 0.887061
vt 0.092036 0.896757
vt 0.628326 0.830431
vt 0.626809 0.820375
vt 0.619291 0.823811
vt 0.409855 0.815465
vt 0.412555 0.828485
vt 0.418070 0.819758
vt 0.778046 0.219704
vt 0.778536 0.210588
vt 0.768243 0.206623
vt 0.487271 0.438841
vt 0.500911 0.436112
vt 0.491489 0.430971
vt 0.056631 0.800284
vt 0.065846 0.805321
vt 0.070746 0.796604
vt 0.061769 0.791310
vt 0.138215 0.820717
vt 0.132207 0.809116
vt 0.129212 0.818511
vt 0.093035 0.877278
vt 0.101012 0.891142
vt 0.047182 0.903192
vt 0.037879 0.911909
vt 0.048397 0.913088
vt 0.659425 0.797893
vt 0.651940 0.790718
vt 0.651425 0.800951
vt 0.650671 0.811178
vt 0.547598 0.793142
vt 0.548444 0.779574
vt 0.541537 0.786066
vt 0.659859 0.724452
vt 0.653651 0.726936
vt 0.659183 0.738087
vt 0.061914 0.836353
vt 0.071683 0.850206
vt 0.074337 0.840988
vt 0.045068 0.872373
vt 0.039033 0.860473
vt 0.037769 0.870434
vt 0.605968 0.799394
vt 0.603111 0.789843
vt 0.594498 0.794509
vt 0.522752 0.718674
vt 0.514658 0.727107
vt 0.521109 0.732922
vt 0.555130 0.586322
vt 0.550535 0.575996
vt 0.544793 0.582417
vt 0.608482 0.775499
vt 0.603810 0.766012
vt 0.594765 0.771143
vt 0.599336 0.780304
vt 0.541929 0.737465
vt 0.550375 0.730128
vt 0.544161 0.723055
vt 0.535909 0.731086
vt 0.527158 0.738773
vt 0.585021 0.740543
vt 0.583164 0.754246
vt 0.591753 0.748688
vt 0.600319 0.742905
vt 0.598253 0.757040
vt 0.615445 0.746322
vt 0.606927 0.751666
vt 0.612732 0.760986
vt 0.081985 0.823427
vt 0.075671 0.810347
vt 0.070986 0.818737
vt 0.015278 0.843208
vt 0.022801 0.856409
vt 0.024635 0.845609
vt 0.581431 0.536027
vt 0.575573 0.527356
vt 0.572567 0.536323
vt 0.450664 0.744938
vt 0.442798 0.738809
vt 0.436236 0.746594
vt 0.434195 0.779458
vt 0.437681 0.790298
vt 0.441571 0.784938
vt 0.429849 0.754014
vt 0.437398 0.760340
vt 0.443869 0.752769
vt 0.428532 0.726196
vt 0.433811 0.717994
vt 0.425854 0.711690
vt 0.420580 0.682219
vt 0.427613 0.688927
vt 0.434353 0.680149
vt 0.427292 0.673547
vt 0.420602 0.667037
vt 0.434762 0.664976
vt 0.428420 0.658662
vt 0.316971 0.528868
vt 0.329159 0.524261
vt 0.317824 0.519839
vt 0.358661 0.515799
vt 0.367323 0.529406
vt 0.370952 0.520371
vt 0.391537 0.506459
vt 0.398883 0.519897
vt 0.403573 0.510160
vt 0.408201 0.500931
vt 0.415231 0.514164
vt 0.419979 0.504828
vt 0.460849 0.484676
vt 0.465886 0.497239
vt 0.471577 0.488122
vt 0.555754 0.534753
vt 0.549458 0.523930
vt 0.545319 0.532045
vt 0.526305 0.545850
vt 0.515667 0.543076
vt 0.511070 0.550603
vt 0.496163 0.556451
vt 0.500989 0.548967
vt 0.490383 0.545492
vt 0.592541 0.655142
vt 0.590174 0.641940
vt 0.585003 0.646765
vt 0.579050 0.651990
vt 0.549544 0.649569
vt 0.540950 0.642960
vt 0.533648 0.650513
vt 0.532225 0.636668
vt 0.466109 0.660886
vt 0.457501 0.669333
vt 0.465717 0.675616
vt 0.474264 0.666745
vt 0.394756 0.558835
vt 0.406073 0.562050
vt 0.410031 0.553881
vt 0.425512 0.548679
vt 0.432711 0.559766
vt 0.436941 0.552097
vt 0.441209 0.543663
vt 0.448261 0.554743
vt 0.452684 0.546522
vt 0.527509 0.496196
vt 0.521963 0.482994
vt 0.517705 0.491591
vt 0.540574 0.492787
vt 0.531742 0.488013
vt 0.511093 0.478519
vt 0.350207 0.542221
vt 0.340817 0.528981
vt 0.338876 0.537948
vt 0.460469 0.506559
vt 0.454755 0.493837
vt 0.449053 0.503050
vt 0.514919 0.469864
vt 0.535961 0.480750
vt 0.526306 0.475565
vt 0.495283 0.537334
vt 0.479409 0.542208
vt 0.463968 0.549006
vt 0.474760 0.550348
vt 0.538546 0.629346
vt 0.529509 0.622890
vt 0.523571 0.630470
vt 0.514838 0.624631
vt 0.508396 0.632578
vt 0.508901 0.646601
vt 0.516750 0.638295
vt 0.465783 0.428481
vt 0.461806 0.414359
vt 0.455040 0.422869
vt 0.400317 0.435594
vt 0.406565 0.424864
vt 0.396580 0.419625
vt 0.386986 0.814306
vt 0.395735 0.819349
vt 0.401198 0.810890
vt 0.357518 0.782263
vt 0.365900 0.788517
vt 0.371151 0.780157
vt 0.347839 0.736251
vt 0.338845 0.728262
vt 0.334007 0.736664
vt 0.346285 0.674207
vt 0.330530 0.669788
vt 0.335981 0.679620
vt 0.352048 0.658119
vt 0.341274 0.664207
vt 0.350188 0.648157
vt 0.338529 0.653863
vt 0.741882 0.234290
vt 0.755107 0.228492
vt 0.743566 0.224021
vt 0.720420 0.211649
vt 0.707308 0.201343
vt 0.707579 0.209081
vt 0.694336 0.200966
vt 0.694565 0.207824
vt 0.320467 0.430973
vt 0.336682 0.426823
vt 0.328692 0.421018
vt 0.345174 0.417164
vt 0.337764 0.411761
vt 0.404164 0.409532
vt 0.413658 0.414592
vt 0.421858 0.404703
vt 0.705307 0.225661
vt 0.693205 0.224840
vt 0.691955 0.238262
vt 0.703401 0.239199
vt 0.717305 0.227593
vt 0.719732 0.216971
vt 0.320817 0.675849
vt 0.319153 0.693209
vt 0.327046 0.702716
vt 0.334347 0.695277
vt 0.326785 0.685833
vt 0.321185 0.710911
vt 0.313427 0.701755
vt 0.309056 0.711603
vt 0.332847 0.761806
vt 0.324993 0.754750
vt 0.320129 0.764000
vt 0.334970 0.777055
vt 0.337417 0.792368
vt 0.343104 0.783728
vt 0.351588 0.790379
vt 0.339535 0.831976
vt 0.331385 0.825854
vt 0.328047 0.834791
vt 0.200170 0.381685
vt 0.213173 0.394170
vt 0.210387 0.382236
vt 0.432876 0.410778
vt 0.451806 0.408659
vt 0.441632 0.402443
vt 0.694344 0.324742
vt 0.693341 0.307645
vt 0.680821 0.307934
vt 0.764685 0.418901
vt 0.762951 0.431176
vt 0.772206 0.432217
vt 0.760935 0.444955
vt 0.786384 0.460520
vt 0.795151 0.462232
vt 0.797610 0.450781
vt 0.753152 0.430887
vt 0.750996 0.445020
vt 0.250288 0.610112
vt 0.240450 0.615076
vt 0.247112 0.618204
vt 0.196521 0.638277
vt 0.191942 0.635566
vt 0.187014 0.644404
vt 0.561046 0.266511
vt 0.558058 0.255239
vt 0.555811 0.265168
vt 0.868180 0.875598
vt 0.883111 0.872396
vt 0.872044 0.868359
vt 0.892574 0.916249
vt 0.898899 0.908475
s 1
usemtl base_material
f 24/1/1 9/2/2 25/3/3
f 5/4/4 26/5/5 9/6/6
f 23/7/7 24/8/8 25/9/9
f 19/10/10 28/11/11 20/12/12
f 20/13/12 29/14/13 21/15/14
f 21/16/14 30/17/15 22/18/16
f 22/19/16 31/20/17 23/21/7
f 9/22/18 25/23/19 32/24/20
f 4/25/21 5/26/22 27/27/23
f 5/28/22 33/29/24 26/30/25
f 26/31/25 33/32/24 9/33/26
f 34/34/27 23/35/7 25/9/9
f 22/36/16 23/37/7 35/38/28
f 22/39/16 36/40/29 21/41/14
f 21/42/14 36/43/29 20/44/12
f 20/44/12 36/45/29 37/46/30
f 20/47/12 37/48/30 19/49/10
f 19/49/10 37/48/30 38/50/31
f 19/51/10 38/52/31 39/53/32
f 19/51/10 39/53/32 18/54/33
f 18/55/33 39/56/32 14/57/34
f 18/58/33 14/59/34 17/60/35
f 14/61/34 16/62/36 17/63/35
f 16/64/36 40/65/37 17/66/35
f 17/67/35 41/68/38 18/69/33
f 18/70/33 41/71/38 42/72/39
f 18/70/33 42/72/39 28/73/11
f 28/73/11 19/74/10 18/75/33
f 28/76/11 29/14/13 20/77/12
f 29/78/13 30/17/15 21/79/14
f 30/80/15 31/20/17 22/81/16
f 31/82/17 24/83/8 23/84/7
f 24/85/8 43/86/40 44/87/41
f 44/88/41 32/89/20 24/90/8
f 32/89/20 25/91/19 24/90/8
f 9/92/18 32/93/20 45/94/42
f 9/95/18 45/96/42 26/97/43
f 26/98/43 46/99/44 5/100/22
f 46/99/44 13/101/45 5/100/22
f 5/102/22 13/103/45 27/104/23
f 33/105/24 34/106/27 25/107/9
f 33/105/24 25/107/9 9/108/26
f 34/109/27 35/110/28 23/111/7
f 36/112/29 22/113/16 35/114/28
f 16/115/36 14/116/34 48/117/46
f 16/118/36 48/119/46 49/120/47
f 16/121/36 50/122/48 40/123/37
f 40/124/37 41/125/38 17/126/35
f 28/127/11 51/128/49 29/129/13
f 43/130/40 24/131/8 31/132/17
f 26/133/43 45/134/42 53/135/50
f 26/133/43 53/135/50 46/136/44
f 4/137/21 47/138/51 5/139/22
f 5/140/22 47/141/51 6/142/52
f 33/143/24 5/144/22 6/145/52
f 36/146/29 55/147/53 37/148/30
f 37/149/30 55/150/53 38/151/31
f 38/152/31 56/153/54 39/154/32
f 39/155/32 56/156/54 14/157/34
f 56/158/54 38/159/31 55/160/53
f 55/161/53 57/162/55 11/163/56
f 57/164/55 55/165/53 35/166/28
f 57/167/55 34/168/27 58/169/57
f 58/169/57 34/170/27 33/171/24
f 55/172/53 11/173/56 59/174/58
f 55/172/53 59/174/58 56/175/54
f 60/176/59 14/177/34 56/178/54
f 49/179/47 50/180/48 16/181/36
f 42/182/39 41/183/38 61/184/60
f 42/185/39 51/186/49 28/187/11
f 51/188/49 30/189/15 29/190/13
f 51/191/49 62/192/61 30/193/15
f 62/194/61 31/195/17 30/196/15
f 62/194/61 63/197/62 31/195/17
f 63/197/62 43/198/40 31/199/17
f 43/200/40 64/201/63 44/202/41
f 44/203/41 64/204/63 65/205/64
f 44/206/41 65/207/64 52/208/65
f 44/209/41 52/210/65 32/211/20
f 52/212/65 45/213/42 32/214/20
f 54/215/66 47/216/51 27/217/23
f 54/215/66 67/218/67 47/219/51
f 6/220/52 58/221/57 33/222/24
f 58/223/57 11/224/56 57/225/55
f 60/226/59 56/227/54 59/228/58
f 60/229/59 68/230/68 14/231/34
f 68/232/68 69/233/69 14/234/34
f 14/234/34 69/233/69 48/235/46
f 40/236/37 50/237/48 70/238/70
f 71/239/71 41/240/38 40/241/37
f 41/242/38 71/243/71 61/244/60
f 61/245/60 51/246/49 42/247/39
f 51/248/49 7/249/72 62/250/61
f 63/251/62 64/252/63 43/253/40
f 52/254/65 72/255/73 73/256/74
f 73/256/74 45/257/42 52/258/65
f 45/259/42 73/260/74 53/261/50
f 53/262/50 73/263/74 74/264/75
f 53/265/50 66/266/76 46/267/44
f 46/268/44 66/269/76 13/270/45
f 13/271/45 66/272/76 75/273/77
f 13/274/45 75/275/77 76/276/78
f 76/277/78 10/278/79 13/279/45
f 76/280/78 77/281/80 10/282/79
f 47/283/51 67/284/67 6/285/52
f 6/286/52 67/287/67 54/288/66
f 6/289/52 54/290/66 10/291/79
f 6/292/52 11/293/56 58/294/57
f 69/295/69 78/296/81 48/297/46
f 78/296/81 49/298/47 48/299/46
f 49/300/47 78/301/81 79/302/82
f 49/303/47 79/304/82 80/305/83
f 49/306/47 80/305/83 3/307/84
f 49/306/47 3/307/84 50/308/48
f 3/309/84 70/310/70 50/311/48
f 70/312/70 71/313/71 40/314/37
f 81/315/85 51/316/49 61/317/60
f 81/315/86 61/318/87 7/319/88
f 81/315/85 7/320/72 51/321/49
f 62/322/61 7/323/72 63/324/62
f 82/325/89 64/326/63 63/327/62
f 64/328/63 83/329/90 65/330/64
f 65/331/64 72/332/73 52/333/65
f 53/334/50 74/335/75 66/336/76
f 66/336/76 74/335/75 84/337/91
f 15/338/92 10/282/79 77/281/80
f 11/339/56 85/340/93 59/341/58
f 85/342/93 60/343/59 59/344/58
f 60/345/59 86/346/94 68/347/68
f 68/348/68 87/349/95 69/350/69
f 87/351/95 88/352/96 69/353/69
f 69/353/69 88/352/96 78/354/81
f 89/355/97 61/356/60 71/357/71
f 89/358/97 81/359/98 61/360/60
f 81/359/98 89/361/97 7/362/72
f 7/363/72 82/364/89 63/365/62
f 83/366/90 64/367/63 82/368/89
f 83/369/90 90/370/99 65/371/64
f 90/370/99 72/372/73 65/373/64
f 72/374/73 91/375/100 73/376/74
f 73/376/74 91/375/100 92/377/101
f 73/378/74 92/379/101 74/380/75
f 66/381/76 84/382/91 93/383/102
f 66/384/76 93/385/102 75/386/77
f 75/387/77 93/388/102 94/389/103
f 75/390/77 94/391/103 76/392/78
f 76/393/78 12/394/104 95/395/105
f 76/396/78 95/397/105 77/398/80
f 15/399/92 6/400/52 10/401/79
f 15/402/92 96/403/106 6/404/52
f 96/405/106 85/406/93 11/407/56
f 96/405/106 11/408/56 6/409/52
f 85/410/93 86/411/94 60/412/59
f 86/413/94 87/414/95 68/415/68
f 78/416/81 88/417/96 79/418/82
f 79/418/82 88/417/96 97/419/107
f 79/420/82 98/421/108 80/422/83
f 70/423/70 99/424/109 71/425/71
f 71/426/71 99/427/109 89/428/97
f 101/429/110 102/430/111 83/431/90
f 102/430/111 90/432/99 83/433/90
f 90/434/99 102/435/111 91/436/100
f 92/437/101 103/438/112 74/439/75
f 103/438/112 84/440/91 74/441/75
f 84/442/91 104/443/113 93/444/102
f 12/445/104 76/392/78 94/391/103
f 12/446/104 1/447/114 95/448/105
f 95/449/105 105/450/115 77/451/80
f 77/451/80 105/452/115 15/453/92
f 87/454/95 107/455/116 88/456/96
f 107/457/116 97/458/107 88/459/96
f 98/460/108 79/461/82 97/462/107
f 98/463/108 108/464/117 80/465/83
f 80/465/83 108/464/117 3/466/84
f 2/467/118 70/468/70 3/469/84
f 2/470/118 99/471/109 70/472/70
f 89/473/97 109/474/119 7/475/72
f 110/476/120 91/436/100 102/435/111
f 91/477/100 111/478/121 92/479/101
f 103/480/112 104/481/113 84/482/91
f 105/483/115 107/484/116 112/485/122
f 105/483/115 112/485/122 15/486/92
f 112/485/122 107/484/116 106/487/123
f 112/485/122 106/488/123 15/489/92
f 15/490/92 106/491/123 96/492/106
f 96/493/106 86/494/94 85/495/93
f 96/496/106 106/497/123 86/498/94
f 106/499/123 87/500/95 86/501/94
f 106/502/123 107/503/116 87/504/95
f 113/505/124 97/458/107 107/506/116
f 97/507/107 114/508/125 98/509/108
f 98/510/126 108/511/127 3/512/128
f 115/513/129 89/514/97 99/515/109
f 118/516/130 8/517/131 119/518/132
f 123/519/133 12/520/104 94/521/103
f 1/522/114 124/523/134 105/524/115
f 1/522/114 105/524/115 95/525/105
f 107/526/116 105/527/115 113/528/124
f 113/529/124 114/508/125 97/530/107
f 114/531/125 125/532/135 98/533/108
f 125/534/135 126/535/136 108/536/137
f 125/534/135 108/536/137 98/537/108
f 3/538/84 127/539/138 2/540/118
f 132/541/139 131/542/140 126/543/136
f 124/544/134 114/545/125 113/546/124
f 114/547/125 124/548/134 125/549/135
f 108/550/137 126/551/136 3/552/84
f 129/553/141 128/554/142 2/555/118
f 125/556/135 132/557/139 126/558/136
f 126/559/136 133/560/143 127/561/138
f 127/562/138 3/552/84 126/551/136
f 127/563/138 130/564/144 129/565/141
f 127/563/138 129/566/141 2/567/118
f 130/568/144 127/569/138 133/570/145
f 130/568/144 133/570/145 131/571/146
f 131/571/147 133/570/148 127/572/149
f 131/573/140 133/574/143 126/575/136
f 113/576/124 105/577/115 124/578/134
f 1/579/114 125/580/135 124/581/134
f 125/582/135 1/583/114 132/584/139
f 2/585/118 128/586/142 116/587/150
f 115/588/129 99/589/109 2/590/118
f 116/591/150 115/592/129 2/593/118
f 116/594/150 128/595/142 117/596/151
f 117/597/151 128/598/142 134/599/152
f 117/597/151 134/600/152 118/601/130
f 118/601/130 134/602/152 8/603/131
f 8/604/131 120/605/153 119/606/132
f 120/607/153 135/608/154 121/609/155
f 121/610/155 135/611/154 136/612/156
f 121/613/155 136/614/156 122/615/157
f 122/616/157 137/617/158 123/618/133
f 132/619/139 1/620/114 138/621/159
f 132/622/139 138/623/159 131/624/140
f 131/625/140 138/626/159 139/627/160
f 131/628/146 139/629/161 140/630/162
f 131/628/146 140/630/162 130/631/144
f 130/632/144 140/633/162 129/634/141
f 129/634/141 140/633/162 141/635/163
f 8/636/131 134/637/152 128/638/142
f 8/636/131 128/638/142 129/639/141
f 135/640/154 140/641/162 136/642/156
f 136/643/156 140/644/162 139/645/161
f 136/646/156 139/647/161 137/648/158
f 138/649/159 142/650/164 137/651/158
f 138/649/159 1/652/114 142/653/164
f 137/651/158 142/650/164 123/654/133
f 135/655/154 120/656/153 8/657/131
f 137/658/158 122/659/157 136/660/156
f 142/650/164 12/661/104 123/654/133
f 142/650/164 1/662/114 12/663/104
f 137/664/158 139/627/160 138/626/159
f 137/665/165 139/666/166 131/667/167
f 140/668/162 135/669/154 141/670/163
f 141/670/163 135/671/154 8/672/131
f 8/672/131 129/673/141 141/674/163
f 123/675/133 94/676/103 122/677/157
f 121/678/155 122/679/157 104/680/113
f 109/681/119 89/682/97 115/683/129
f 116/684/150 109/685/119 115/686/129
f 116/687/150 117/688/151 143/689/168
f 117/690/151 110/691/120 144/692/169
f 117/690/151 118/693/130 110/694/120
f 118/693/130 111/695/121 110/696/120
f 111/697/121 118/698/130 119/699/132
f 119/700/132 120/701/153 145/702/170
f 120/701/171 145/703/172 103/704/173
f 120/705/153 121/706/155 103/707/112
f 121/706/155 104/708/113 103/709/112
f 104/710/113 122/711/157 93/712/102
f 145/713/170 103/714/112 92/715/101
f 145/713/170 92/715/101 111/716/121
f 145/713/170 111/717/121 119/718/132
f 102/719/111 144/692/169 110/691/120
f 102/720/111 143/721/168 117/722/151
f 102/720/111 117/722/151 144/723/169
f 143/724/168 102/725/111 101/726/110
f 143/727/168 101/728/110 100/729/174
f 143/730/168 100/731/174 116/732/150
f 100/731/174 109/733/119 116/732/150
f 109/734/119 100/735/174 7/736/72
f 111/737/121 91/738/100 110/739/120
f 122/740/157 94/741/103 93/742/102
f 90/743/99 91/744/100 72/745/73
f 83/746/175 101/747/176 100/748/177
f 100/748/174 101/747/178 82/749/89
f 82/750/89 7/751/72 100/752/174
f 101/747/178 83/753/90 82/754/89
f 4/755/21 27/756/23 47/757/51
f 54/758/66 27/759/23 10/760/79
f 10/761/79 27/762/23 13/763/45
f 57/764/55 35/765/28 34/766/27
f 55/165/53 36/767/29 35/768/28
