# Blender 4.4.3
# www.blender.org
mtllib 0.08.mtl
o mesh_base_material_0
v -0.378539 -0.026598 0.249627
v -0.115312 -0.423288 0.016824
v -0.079199 -0.406460 0.246465
v 0.036970 0.497505 0.057728
v -0.016182 0.307074 0.039390
v 0.069975 0.220049 0.166873
v 0.251331 -0.350774 -0.216994
v -0.364007 -0.339924 -0.219063
v 0.068199 0.185701 -0.186363
v -0.121476 0.244654 0.173434
v 0.232738 0.112408 0.199276
v -0.373003 0.082050 0.103382
v 0.238840 -0.184626 0.366414
v -0.066655 0.146649 0.320213
v 0.160741 -0.374478 0.290195
v 0.349890 -0.330143 0.186347
v 0.437545 -0.197763 0.146535
v 0.466127 -0.176835 -0.020013
v 0.429881 -0.009851 -0.078571
v 0.342807 0.059946 -0.183363
v 0.224119 0.082107 -0.267331
v -0.057272 0.436605 0.110080
v 0.224639 0.196267 -0.027809
v 0.397878 0.023174 0.138988
v 0.344202 -0.393274 0.009565
v 0.411489 -0.224371 -0.180854
v 0.329964 -0.119656 -0.302294
v 0.122493 0.038287 -0.388592
v -0.067149 0.102616 -0.354836
v -0.157596 0.172873 -0.167527
v 0.328599 0.126307 0.018473
v 0.328114 -0.046125 0.255756
v 0.124224 -0.430041 0.091325
v -0.228095 0.219974 -0.013633
v 0.189356 0.208527 0.044196
v 0.198199 0.020382 0.348612
v 0.050514 -0.282331 0.456806
v 0.343887 -0.382547 -0.086110
v 0.209281 -0.166140 -0.372841
v -0.259523 0.166368 0.124820
v 0.122767 -0.027014 0.445727
v -0.072377 -0.327396 0.423388
v 0.172933 -0.432020 -0.049017
v 0.045238 -0.115617 -0.459869
v -0.113584 -0.021988 -0.447279
v -0.215621 0.037321 -0.315462
v -0.326253 0.142431 -0.157128
v -0.002866 -0.111002 0.491675
v -0.132225 -0.204644 0.459632
v 0.043630 -0.434156 0.013466
v 0.101946 -0.308407 -0.360323
v -0.402466 0.098805 -0.057030
v -0.233284 0.072524 0.295741
v 0.092703 0.102547 0.364598
v -0.028105 0.035543 0.442712
v 0.051942 -0.428826 -0.116979
v -0.018354 -0.288529 -0.407116
v -0.145818 -0.194670 -0.441021
v -0.244298 -0.122836 -0.374134
v -0.359936 -0.018979 -0.294109
v -0.437487 0.009227 -0.176780
v -0.142388 -0.015622 0.419410
v -0.243760 -0.235080 0.365360
v 0.027236 -0.395806 -0.249915
v -0.211941 -0.010195 0.359951
v -0.093694 -0.397330 -0.197892
v -0.174754 -0.340450 -0.305636
v -0.321836 -0.215703 -0.345715
v -0.448209 -0.154991 -0.241049
v -0.477704 -0.113227 -0.104521
v -0.471897 -0.063418 0.002155
v -0.308657 -0.324280 0.251146
v -0.285397 -0.423375 -0.068674
v -0.369123 -0.350913 0.041126
v -0.415818 -0.254309 0.150011
v -0.371438 -0.199347 0.297639
v -0.296256 -0.113753 0.356660
v -0.227900 -0.401377 0.137160
v -0.473373 -0.150724 0.079844
v -0.469480 -0.247847 -0.062634
vn 0.6372 -0.6371 0.4338
vn 0.6693 -0.1757 0.7219
vn 0.3160 -0.8142 0.4870
vn -0.5944 0.2307 -0.7704
vn -0.7499 0.1428 -0.6459
vn -0.6715 0.1706 -0.7211
vn 0.4679 0.6756 -0.5697
vn 0.1569 0.8755 -0.4569
vn 0.4764 0.8732 -0.1032
vn 0.6644 0.6073 -0.4356
vn 0.9901 -0.1315 -0.0485
vn 0.8837 0.4256 -0.1947
vn 0.7898 0.5094 0.3416
vn 0.9090 -0.1580 0.3856
vn 0.5825 -0.8098 0.0700
vn 0.8533 -0.2219 -0.4718
vn 0.7045 0.0095 -0.7097
vn 0.3116 0.5129 -0.7999
vn -0.1225 0.7470 -0.6534
vn -0.2019 0.8600 -0.4687
vn 0.0209 0.9873 -0.1574
vn -0.7985 0.0750 -0.5972
vn 0.6811 0.7298 0.0590
vn 0.6553 0.3553 0.6666
vn 0.1212 -0.9797 0.1597
vn -0.4607 0.8841 -0.0780
vn 0.3429 0.8463 0.4076
vn 0.5255 0.7370 0.4250
vn 0.3011 0.9524 0.0469
vn 0.6617 0.3755 0.6490
vn 0.2230 -0.4597 0.8596
vn -0.1505 -0.9353 0.3203
vn 0.8036 -0.5157 -0.2972
vn 0.5078 -0.2053 -0.8367
vn -0.4163 0.8237 0.3849
vn -0.5835 0.7527 0.3049
vn 0.1281 0.8572 0.4988
vn 0.1173 0.8661 0.4860
vn 0.1314 0.8521 0.5066
vn -0.8155 0.2794 -0.5068
vn -0.7320 0.1655 -0.6609
vn -0.6808 0.0900 -0.7269
vn -0.3933 -0.1710 -0.9034
vn -0.2276 -0.6915 0.6856
vn 0.1409 -0.9808 -0.1348
vn -0.1767 -0.9826 -0.0566
vn -0.1786 -0.9737 -0.1417
vn -0.1047 -0.9802 -0.1679
vn 0.3918 -0.7443 -0.5409
vn 0.2132 -0.0005 -0.9770
vn -0.2294 0.3736 -0.8988
vn -0.4171 0.5915 -0.6901
vn -0.4621 0.7902 -0.4025
vn -0.1904 0.7421 0.6427
vn 0.7691 -0.1462 -0.6222
vn 0.7402 0.2817 0.6105
vn 0.6033 0.3294 0.7263
vn 0.1966 0.3526 0.9149
vn 0.0758 0.2968 0.9519
vn 0.4363 0.3001 0.8483
vn 0.0150 0.0634 0.9979
vn 0.2213 -0.9483 -0.2276
vn -0.1351 -0.9903 0.0317
vn -0.0852 -0.9867 0.1382
vn 0.0615 0.9906 -0.1224
vn 0.0565 0.9964 -0.0629
vn 0.0941 0.9886 -0.1176
vn 0.3479 -0.5860 -0.7318
vn -0.7407 0.6718 -0.0065
vn -0.7418 0.6048 0.2896
vn -0.4760 0.6173 0.6264
vn 0.3422 0.7248 0.5980
vn -0.4076 -0.1473 0.9012
vn -0.0211 -0.9995 -0.0229
vn 0.0155 -0.9831 -0.1826
vn -0.3020 -0.2829 -0.9104
vn -0.4980 0.1926 -0.8455
vn -0.5315 0.3440 -0.7741
vn -0.8361 0.4215 -0.3511
vn -0.7691 0.3645 0.5251
vn -0.1221 0.5271 0.8410
vn -0.4853 0.3630 0.7955
vn -0.5297 -0.3300 0.7813
vn 0.0508 -0.9160 -0.3981
vn -0.3834 0.6100 0.6934
vn -0.0986 -0.9577 -0.2703
vn -0.5367 -0.2509 -0.8056
vn -0.5727 -0.7043 -0.4195
vn -0.8701 -0.0778 -0.4867
vn -0.9614 0.2473 0.1205
vn -0.5898 0.1898 0.7849
vn 0.5174 -0.3819 -0.7658
vn 0.6838 -0.2446 -0.6875
vn 0.5770 -0.4046 -0.7094
vn -0.5141 -0.7456 0.4239
vn -0.6037 -0.2732 0.7489
vn -0.6470 -0.5286 0.5495
vn -0.4037 0.2265 0.8864
vn -0.8525 -0.3534 0.3851
vn -0.8589 -0.3438 0.3796
vn -0.8683 -0.3437 0.3576
vn -0.4328 -0.9013 -0.0194
vn -0.3191 -0.9477 -0.0089
vn -0.5301 -0.7837 0.3238
vn -0.4735 -0.8540 0.2155
vn 0.7033 0.6498 -0.2884
vn 0.6960 0.6577 -0.2880
vn 0.6991 0.6611 -0.2726
vn -0.2208 -0.7953 -0.5646
vn -0.9608 0.0332 0.2752
vn -0.9605 0.0377 0.2757
vn -0.9638 0.0359 0.2640
vn -0.9155 -0.4021 -0.0103
vn -0.8853 -0.3599 0.2944
vn -0.9687 -0.0133 0.2478
vn -0.9936 0.0628 -0.0940
vn -0.9091 -0.0259 0.4157
vn 0.0154 -0.5910 -0.8065
vt 0.034411 0.535592
vt 0.025549 0.532445
vt 0.019811 0.538543
vt 0.556844 0.202531
vt 0.556706 0.212788
vt 0.561270 0.213515
vt 0.899438 0.809761
vt 0.888276 0.808535
vt 0.887223 0.818058
vt 0.919810 0.833267
vt 0.908540 0.831705
vt 0.906820 0.841554
vt 0.048374 0.219225
vt 0.038102 0.219398
vt 0.037996 0.232833
vt 0.058698 0.233062
vt 0.058598 0.246749
vt 0.069367 0.247040
vt 0.188265 0.228480
vt 0.197141 0.215486
vt 0.187573 0.216026
vt 0.108238 0.127693
vt 0.118131 0.115371
vt 0.107165 0.114479
vt 0.071282 0.089546
vt 0.070211 0.077159
vt 0.059592 0.078342
vt 0.671722 0.567918
vt 0.682484 0.568831
vt 0.681427 0.556553
vt 0.640433 0.525209
vt 0.650098 0.514301
vt 0.640484 0.512760
vt 0.937264 0.724758
vt 0.932386 0.713664
vt 0.923118 0.718642
vt 0.893455 0.686555
vt 0.901834 0.679420
vt 0.892885 0.672937
vt 0.784866 0.732759
vt 0.789501 0.744892
vt 0.791567 0.733461
vt 0.559752 0.223743
vt 0.564451 0.224984
vt 0.565892 0.213990
vt 0.821654 0.810078
vt 0.829127 0.818721
vt 0.831087 0.812162
vt 0.919639 0.874748
vt 0.904613 0.879800
vt 0.915274 0.883688
vt 0.930865 0.902006
vt 0.914960 0.905638
vt 0.924539 0.910824
vt 0.933842 0.915985
vt 0.069823 0.285759
vt 0.059131 0.284985
vt 0.060360 0.295301
vt 0.073451 0.477014
vt 0.063327 0.465859
vt 0.062268 0.476151
vt 0.060382 0.486238
vt 0.068165 0.497123
vt 0.071143 0.487258
vt 0.469155 0.939483
vt 0.465426 0.949779
vt 0.475245 0.951282
vt 0.441475 0.957619
vt 0.445414 0.946263
vt 0.435387 0.944202
vt 0.186495 0.190601
vt 0.176278 0.189927
vt 0.176832 0.203283
vt 0.652359 0.498621
vt 0.654569 0.482365
vt 0.645222 0.481630
vt 0.822735 0.686846
vt 0.809121 0.693235
vt 0.817183 0.695943
vt 0.736102 0.734413
vt 0.740990 0.744351
vt 0.742587 0.733722
vt 0.814436 0.828441
vt 0.821412 0.838307
vt 0.824187 0.831814
vt 0.080183 0.393770
vt 0.084193 0.381546
vt 0.075993 0.384397
vt 0.869594 0.894482
vt 0.884699 0.891461
vt 0.874387 0.887146
vt 0.825536 0.855461
vt 0.832501 0.866672
vt 0.835937 0.860278
vt 0.828678 0.872927
vt 0.838932 0.878491
vt 0.842955 0.872109
vt 0.118725 0.497069
vt 0.128871 0.497296
vt 0.131471 0.489470
vt 0.232959 0.986392
vt 0.222510 0.985109
vt 0.218468 0.992286
vt 0.532770 0.901686
vt 0.523927 0.896700
vt 0.520153 0.902629
vt 0.184137 0.151691
vt 0.192360 0.141540
vt 0.182552 0.139026
vt 0.172408 0.136647
vt 0.163470 0.147575
vt 0.173881 0.149588
vt 0.673572 0.484068
vt 0.664013 0.483145
vt 0.662042 0.499559
vt 0.506306 0.296549
vt 0.512339 0.300900
vt 0.519299 0.295133
vt 0.541144 0.331577
vt 0.531033 0.333609
vt 0.536526 0.341847
vt 0.192778 0.659626
vt 0.195866 0.673631
vt 0.200650 0.664050
vt 0.234400 0.633535
vt 0.241144 0.636949
vt 0.244104 0.627220
vt 0.246891 0.640027
vt 0.025669 0.394201
vt 0.027499 0.403095
vt 0.036179 0.402679
vt 0.609305 0.920712
vt 0.599666 0.917427
vt 0.595109 0.924271
vt 0.589726 0.913700
vt 0.579670 0.909654
vt 0.575457 0.915974
vt 0.410721 0.924486
vt 0.401307 0.920914
vt 0.396371 0.931829
vt 0.338418 0.947210
vt 0.335544 0.932375
vt 0.330666 0.937563
vt 0.801998 0.565720
vt 0.789245 0.563333
vt 0.793170 0.571842
vt 0.751975 0.548866
vt 0.750658 0.538559
vt 0.741695 0.540742
vt 0.666027 0.425757
vt 0.678067 0.426485
vt 0.680074 0.412023
vt 0.625948 0.376587
vt 0.637084 0.365268
vt 0.625981 0.365309
vt 0.625516 0.353432
vt 0.636438 0.353972
vt 0.634988 0.340502
vt 0.224438 0.526803
vt 0.214249 0.524448
vt 0.209459 0.535179
vt 0.747661 0.671569
vt 0.740472 0.659722
vt 0.738353 0.671434
vt 0.576380 0.354528
vt 0.579532 0.364466
vt 0.587505 0.364006
vt 0.222193 0.303365
vt 0.218402 0.292306
vt 0.217026 0.302354
vt 0.243647 0.650141
vt 0.251823 0.642830
vt 0.250086 0.630089
vt 0.280933 0.875278
vt 0.289897 0.886215
vt 0.289015 0.874868
vt 0.230846 0.914190
vt 0.216548 0.921956
vt 0.230108 0.924191
vt 0.243548 0.926142
vt 0.383704 0.912439
vt 0.378230 0.923413
vt 0.387269 0.927665
vt 0.369885 0.918513
vt 0.375664 0.907539
vt 0.367624 0.902421
vt 0.751576 0.514615
vt 0.742423 0.516046
vt 0.741801 0.528988
vt 0.237754 0.494016
vt 0.221935 0.502747
vt 0.233844 0.504899
vt 0.778890 0.645981
vt 0.772660 0.634136
vt 0.768141 0.642905
vt 0.490286 0.330149
vt 0.480886 0.336149
vt 0.487679 0.341739
vt 0.169966 0.950404
vt 0.157542 0.938943
vt 0.156576 0.948124
vt 0.503210 0.856369
vt 0.499750 0.844100
vt 0.495962 0.850144
vt 0.491985 0.856790
vt 0.488690 0.844331
vt 0.756439 0.472199
vt 0.765938 0.472135
vt 0.768146 0.458845
vt 0.740703 0.444991
vt 0.753152 0.430887
vt 0.742698 0.430626
vt 0.477622 0.348659
vt 0.484378 0.354520
vt 0.493587 0.348315
vt 0.495400 0.368206
vt 0.508433 0.370482
vt 0.503384 0.362836
vt 0.072854 0.738902
vt 0.078801 0.743181
vt 0.086110 0.737292
vt 0.100051 0.745563
vt 0.114396 0.742528
vt 0.107646 0.739141
vt 0.691605 0.889832
vt 0.700077 0.883497
vt 0.696005 0.880413
vt 0.134240 0.552017
vt 0.136941 0.561309
vt 0.142371 0.555244
vt 0.748069 0.972936
vt 0.734896 0.966634
vt 0.738172 0.973920
vt 0.143908 0.936275
vt 0.430435 0.851295
vt 0.424912 0.860423
vt 0.433022 0.864894
vt 0.422563 0.846689
vt 0.416971 0.855836
vt 0.239126 0.426710
vt 0.227583 0.438015
vt 0.242438 0.437276
vt 0.228934 0.448708
vt 0.243621 0.448799
vt 0.775710 0.604115
vt 0.771490 0.612588
vt 0.781862 0.616421
vt 0.384469 0.365722
vt 0.374800 0.375004
vt 0.381717 0.379349
vt 0.410188 0.367579
vt 0.399860 0.375549
vt 0.407153 0.381097
vt 0.065269 0.757421
vt 0.078532 0.754149
vt 0.072073 0.750110
vt 0.733100 0.926678
vt 0.742181 0.927556
vt 0.744013 0.918632
vt 0.751218 0.926871
vt 0.752729 0.918582
vt 0.225984 0.825982
vt 0.227360 0.835207
vt 0.240079 0.836340
vt 0.214367 0.832748
vt 0.215419 0.842098
vt 0.228692 0.844328
vt 0.165470 0.860241
vt 0.151290 0.867077
vt 0.164525 0.870368
vt 0.149887 0.877082
vt 0.163508 0.880540
vt 0.660223 0.841538
vt 0.656296 0.854846
vt 0.663154 0.852758
vt 0.639380 0.848151
vt 0.637193 0.837941
vt 0.630010 0.840362
vt 0.433188 0.828567
vt 0.431222 0.815554
vt 0.425957 0.824061
vt 0.379074 0.845597
vt 0.365003 0.849218
vt 0.373328 0.854667
vt 0.312301 0.798070
vt 0.324030 0.794788
vt 0.316630 0.788457
vt 0.657900 0.227484
vt 0.647847 0.242188
vt 0.658479 0.240001
vt 0.112984 0.785407
vt 0.122500 0.788617
vt 0.126122 0.779530
vt 0.212284 0.804351
vt 0.212841 0.794329
vt 0.203485 0.790232
vt 0.399392 0.776278
vt 0.385293 0.778142
vt 0.394125 0.784060
vt 0.302494 0.489821
vt 0.309237 0.505254
vt 0.311440 0.495359
vt 0.471764 0.442915
vt 0.465783 0.428481
vt 0.459704 0.437441
vt 0.080321 0.801865
vt 0.075671 0.810347
vt 0.086195 0.815014
vt 0.115168 0.806071
vt 0.118685 0.797410
vt 0.108832 0.794143
vt 0.838532 0.555852
vt 0.830770 0.545523
vt 0.830153 0.555525
vt 0.163932 0.794698
vt 0.172334 0.796752
vt 0.175439 0.787227
vt 0.093035 0.877278
vt 0.101012 0.891142
vt 0.102030 0.881411
vt 0.634642 0.807002
vt 0.634454 0.796900
vt 0.625488 0.800600
vt 0.555766 0.569605
vt 0.550535 0.575996
vt 0.560880 0.579639
vt 0.031961 0.858906
vt 0.029851 0.869080
vt 0.037769 0.870434
vt 0.041117 0.850516
vt 0.045492 0.862349
vt 0.047324 0.852540
vt 0.050061 0.842766
vt 0.055683 0.855283
vt 0.058062 0.845635
vt 0.086482 0.845268
vt 0.084339 0.854451
vt 0.094636 0.858108
vt 0.017161 0.899694
vt 0.008861 0.898009
vt 0.009113 0.907975
vt 0.563086 0.780137
vt 0.565790 0.766082
vt 0.557025 0.772646
vt 0.538025 0.716657
vt 0.535909 0.731086
vt 0.544161 0.723055
vt 0.580555 0.767944
vt 0.574587 0.759926
vt 0.571734 0.773851
vt 0.583164 0.754246
vt 0.576760 0.746221
vt 0.568312 0.752263
vt 0.559630 0.758544
vt 0.446620 0.716364
vt 0.438002 0.710352
vt 0.433811 0.717994
vt 0.441333 0.724467
vt 0.541250 0.540342
vt 0.526305 0.545850
vt 0.536926 0.548460
vt 0.517287 0.652439
vt 0.517395 0.667079
vt 0.525771 0.658473
vt 0.534552 0.615996
vt 0.529509 0.622890
vt 0.538546 0.629346
vt 0.425512 0.548679
vt 0.432711 0.559766
vt 0.436941 0.552097
vt 0.517705 0.491591
vt 0.506950 0.487672
vt 0.502866 0.497109
vt 0.438822 0.521044
vt 0.431909 0.508660
vt 0.427074 0.518204
vt 0.364144 0.538275
vt 0.367323 0.529406
vt 0.355346 0.524773
vt 0.352661 0.533470
vt 0.419979 0.504828
vt 0.491630 0.494008
vt 0.496699 0.484671
vt 0.486513 0.481854
vt 0.524150 0.526385
vt 0.510306 0.532405
vt 0.520029 0.534972
vt 0.515667 0.543076
vt 0.417364 0.565089
vt 0.423618 0.574476
vt 0.428382 0.567456
vt 0.434353 0.680149
vt 0.435488 0.695491
vt 0.442162 0.686724
vt 0.418417 0.768010
vt 0.413457 0.774757
vt 0.421888 0.780269
vt 0.437008 0.426125
vt 0.432876 0.410778
vt 0.425303 0.420074
vt 0.418416 0.430468
vt 0.430360 0.435952
vt 0.365739 0.445380
vt 0.359443 0.455687
vt 0.370658 0.461721
vt 0.720141 0.186721
vt 0.707106 0.193822
vt 0.720160 0.195336
vt 0.776090 0.247761
vt 0.785349 0.253380
vt 0.786313 0.243493
vt 0.344485 0.720236
vt 0.330036 0.719840
vt 0.338845 0.728262
vt 0.353479 0.728270
vt 0.359822 0.720707
vt 0.771501 0.276817
vt 0.761817 0.271063
vt 0.760562 0.280278
vt 0.336682 0.426823
vt 0.338310 0.443310
vt 0.345672 0.433099
vt 0.705307 0.225661
vt 0.719732 0.216971
vt 0.707063 0.215271
vt 0.749152 0.275309
vt 0.750901 0.265855
vt 0.320817 0.675849
vt 0.335981 0.679620
vt 0.330530 0.669788
vt 0.344450 0.823096
vt 0.358487 0.820287
vt 0.349207 0.814204
vt 0.327126 0.770357
vt 0.320129 0.764000
vt 0.315336 0.773291
vt 0.694344 0.324742
vt 0.695700 0.342512
vt 0.707594 0.343894
vt 0.709105 0.359821
vt 0.719289 0.344936
vt 0.745262 0.390600
vt 0.756161 0.396299
vt 0.755339 0.384560
vt 0.885706 0.924078
vt 0.901471 0.921684
vt 0.892574 0.916249
s 1
usemtl base_material
f 16/1/1 13/2/2 15/3/3
f 4/4/4 5/5/5 22/6/6
f 21/7/7 9/8/8 23/9/9
f 20/10/10 21/11/7 23/12/9
f 18/13/11 19/14/12 24/15/13
f 18/16/11 24/17/13 17/18/14
f 16/19/1 25/20/15 17/21/14
f 18/22/11 26/23/16 19/24/12
f 19/25/12 26/26/16 20/27/10
f 20/28/10 26/29/16 27/30/17
f 20/31/10 27/32/17 21/33/7
f 21/34/7 28/35/18 9/36/8
f 9/37/8 28/38/18 29/39/19
f 30/40/20 5/41/21 9/42/8
f 5/43/5 10/44/22 22/45/6
f 5/46/21 23/47/9 9/48/8
f 20/49/10 23/50/9 31/51/23
f 20/52/10 31/53/23 24/54/13
f 20/52/10 24/54/13 19/55/12
f 17/56/14 24/57/13 32/58/24
f 17/59/14 32/60/24 13/61/2
f 13/62/2 16/63/1 17/64/14
f 33/65/25 16/66/1 15/67/3
f 16/68/1 33/69/25 25/70/15
f 25/71/15 18/72/11 17/73/14
f 27/74/17 28/75/18 21/76/7
f 29/77/19 30/78/20 9/79/8
f 34/80/26 5/81/21 30/82/20
f 5/83/21 6/84/27 23/85/9
f 32/86/24 24/87/13 11/88/28
f 11/89/28 31/90/23 23/91/9
f 6/92/27 35/93/29 23/94/9
f 35/93/29 6/95/27 11/96/28
f 35/93/29 11/96/28 23/97/9
f 32/98/24 36/99/30 13/100/2
f 13/101/2 37/102/31 15/103/3
f 3/104/32 33/105/25 15/106/3
f 25/107/15 38/108/33 26/109/16
f 26/110/16 18/111/11 25/112/15
f 39/113/34 28/114/18 27/115/17
f 34/116/26 10/117/35 5/118/21
f 10/119/35 34/120/26 40/121/36
f 10/122/37 6/123/38 5/124/39
f 5/125/40 10/126/41 4/127/42
f 4/127/42 10/126/41 22/128/43
f 11/129/28 36/130/30 32/131/24
f 37/132/31 42/133/44 15/134/3
f 42/135/44 3/136/32 15/137/3
f 33/138/25 43/139/45 25/140/15
f 25/141/46 7/142/47 38/143/48
f 38/144/33 7/145/49 26/146/16
f 26/147/16 7/148/49 27/149/17
f 28/150/18 39/151/34 44/152/50
f 28/153/18 44/154/50 29/155/19
f 29/156/19 44/157/50 45/158/51
f 29/159/19 46/160/52 30/161/20
f 30/162/20 47/163/53 34/164/26
f 10/165/35 40/166/36 14/167/54
f 5/168/55 4/169/56 6/170/57
f 6/171/57 22/128/58 10/126/59
f 6/172/57 4/173/56 22/128/58
f 41/174/60 13/175/2 36/176/30
f 41/177/60 48/178/61 37/179/31
f 41/177/60 37/179/31 13/180/2
f 43/181/45 38/182/62 25/183/15
f 38/184/62 43/185/45 7/186/49
f 7/187/49 39/188/34 27/189/17
f 45/190/51 46/191/52 29/192/19
f 30/193/20 46/194/52 47/195/53
f 34/196/26 47/197/53 40/198/36
f 37/199/31 48/200/61 42/201/44
f 3/202/32 2/203/63 50/204/64
f 3/202/32 50/204/64 33/205/25
f 33/205/65 50/204/66 2/206/67
f 39/207/34 7/208/49 51/209/68
f 39/210/34 51/211/68 44/212/50
f 47/213/53 52/214/69 40/215/36
f 52/216/69 12/217/70 40/218/36
f 12/219/70 53/220/71 40/221/36
f 53/222/71 14/223/54 40/224/36
f 14/225/54 6/226/27 10/227/35
f 11/228/28 54/229/72 36/230/30
f 36/231/30 54/232/72 41/233/60
f 49/234/73 42/201/44 48/200/61
f 50/235/74 43/236/45 33/237/25
f 50/235/74 56/238/75 43/239/45
f 58/240/76 59/241/77 45/242/51
f 59/241/77 46/243/52 45/244/51
f 60/245/78 47/246/53 46/247/52
f 47/248/53 60/249/78 61/250/79
f 47/251/53 61/252/79 52/253/69
f 1/254/80 53/255/71 12/256/70
f 14/257/54 54/258/72 6/259/27
f 54/258/72 11/260/28 6/261/27
f 54/262/72 55/263/81 41/264/60
f 55/265/81 48/266/61 41/267/60
f 55/268/81 62/269/82 48/270/61
f 62/269/82 49/271/73 48/272/61
f 63/273/83 42/274/44 49/275/73
f 42/276/44 63/277/83 3/278/32
f 50/279/74 2/280/63 56/281/75
f 56/282/75 7/283/49 43/284/45
f 7/285/49 64/286/84 51/287/68
f 60/288/78 46/289/52 59/290/77
f 53/291/71 65/292/85 14/293/54
f 55/294/81 54/295/72 14/296/54
f 66/297/86 64/298/84 56/299/75
f 68/300/87 8/301/88 69/302/89
f 12/303/70 52/304/69 71/305/90
f 53/306/71 1/307/80 65/308/91
f 62/309/92 65/310/93 53/311/94
f 62/312/82 14/313/54 65/314/85
f 62/315/82 55/316/81 14/317/54
f 63/318/83 49/319/73 62/320/82
f 63/321/83 72/322/95 3/323/32
f 76/324/96 75/325/97 72/326/95
f 1/327/98 76/328/96 63/329/83
f 1/330/99 63/331/100 77/332/101
f 1/333/80 63/334/83 65/335/91
f 65/336/91 63/337/83 62/338/82
f 63/339/83 76/340/96 72/341/95
f 3/342/32 78/343/102 2/344/63
f 73/345/103 2/346/63 74/347/104
f 72/348/95 75/349/105 78/343/102
f 72/348/95 78/343/102 3/350/32
f 75/349/106 72/351/107 74/352/108
f 75/349/105 74/353/104 2/354/63
f 75/349/105 2/354/63 78/343/102
f 73/355/103 67/356/109 66/357/86
f 73/355/103 66/357/86 2/358/63
f 1/359/110 75/360/111 76/361/112
f 8/362/88 73/363/103 74/364/104
f 80/365/113 8/366/88 74/367/104
f 80/368/113 75/369/114 79/370/115
f 1/371/80 12/372/70 79/373/115
f 79/374/115 71/375/90 80/376/113
f 80/377/113 70/378/116 69/379/89
f 80/377/113 69/379/89 8/380/88
f 80/376/113 71/375/90 70/381/116
f 79/382/115 12/383/70 71/384/90
f 1/385/80 79/386/115 76/387/117
f 79/386/115 75/388/114 76/387/117
f 80/389/113 74/390/104 75/391/114
f 8/392/88 67/393/109 73/394/103
f 66/395/86 56/396/75 2/397/63
f 71/398/90 52/399/69 61/400/79
f 71/398/90 61/401/79 70/402/116
f 61/403/79 69/404/89 70/405/116
f 69/406/89 60/407/78 68/408/87
f 68/409/87 67/410/109 8/411/88
f 67/412/109 57/413/118 64/414/84
f 67/412/109 64/415/84 66/416/86
f 67/417/109 68/418/87 58/419/76
f 60/420/78 69/421/89 61/422/79
f 59/423/77 68/424/87 60/425/78
f 58/426/76 68/418/87 59/427/77
f 57/428/118 67/429/109 58/430/76
f 7/431/49 56/432/75 64/433/84
f 64/434/84 57/435/118 51/436/68
f 45/437/51 44/438/50 58/439/76
f 44/440/50 57/441/118 58/439/76
f 44/442/50 51/443/68 57/444/118
f 11/445/28 24/446/13 31/447/23
