# Blender 4.4.3
# www.blender.org
mtllib 0.09.mtl
o mesh_base_material_0
v -0.374706 -0.027449 0.246584
v -0.114503 -0.422574 0.018317
v -0.075010 -0.402768 0.256578
v 0.033031 0.488848 0.059200
v -0.017951 0.296342 0.042075
v 0.097193 0.197026 0.169884
v 0.249493 -0.351492 -0.212442
v -0.358450 -0.336549 -0.218471
v 0.074136 0.178930 -0.196854
v -0.136691 0.199137 0.198303
v 0.242992 0.097450 0.208284
v 0.234890 -0.189265 0.362781
v 0.159891 -0.379221 0.280774
v 0.368613 -0.314137 0.180176
v 0.448231 -0.174456 0.110280
v 0.454653 -0.089078 -0.050182
v 0.383798 0.027952 -0.149055
v 0.262250 0.081221 -0.237409
v 0.339350 -0.390947 0.007022
v 0.336482 -0.141761 -0.287512
v 0.129963 0.027831 -0.388290
v -0.073240 0.091703 -0.360703
v -0.185471 0.191812 -0.124103
v 0.254677 0.181968 -0.024181
v 0.391764 0.058592 0.090071
v 0.381143 -0.026369 0.217386
v 0.133039 -0.431385 0.058120
v 0.420205 -0.264586 -0.147207
v 0.229745 -0.004847 0.322331
v 0.003866 -0.282749 0.459613
v -0.289547 0.177863 0.043181
v 0.171097 -0.203642 -0.387214
v 0.033238 -0.126311 -0.463207
v -0.237546 0.049658 -0.300807
v -0.354820 0.127826 -0.145265
v 0.122596 0.032776 0.407501
v 0.005435 -0.089487 0.489407
v 0.103869 -0.432476 -0.076444
v -0.131327 -0.090732 -0.454673
v -0.287939 0.113502 0.189200
v -0.154020 -0.238865 0.426813
v -0.427329 0.053808 -0.003945
v -0.092961 0.109338 0.351278
v 0.027816 -0.427774 -0.120609
v 0.037766 -0.339260 -0.337963
v -0.095574 -0.267801 -0.425109
v -0.293099 -0.121636 -0.354230
v -0.425357 -0.008535 -0.204978
v 0.028222 0.109105 0.375840
v -0.103893 -0.018361 0.450517
v -0.221467 -0.099201 0.391857
v -0.322844 -0.263570 0.309582
v -0.069867 -0.396723 -0.213257
v -0.181993 -0.323630 -0.322338
v -0.409177 -0.163241 -0.288780
v -0.479036 -0.146681 -0.119155
v -0.473100 -0.104586 0.029914
v -0.330333 -0.406353 -0.024529
v -0.391649 -0.316951 0.068858
v -0.407631 -0.246177 0.173749
v -0.471496 -0.245061 -0.037753
v -0.471856 -0.126361 0.129244
vn 0.3159 0.8836 0.3457
vn 0.0805 0.9963 0.0315
vn -0.3219 0.8821 0.3440
vn 0.6207 -0.1555 0.7685
vn 0.3120 -0.8223 0.4759
vn 0.6857 -0.5584 0.4669
vn 0.5495 -0.8355 -0.0024
vn 0.9716 -0.1363 0.1934
vn 0.3485 0.4786 -0.8059
vn 0.1698 0.8983 -0.4053
vn 0.5293 0.6533 -0.5413
vn -0.1329 0.7023 -0.6994
vn -0.2697 0.8975 -0.3490
vn 0.4170 0.9075 -0.0497
vn 0.7918 0.4750 -0.3839
vn 0.7766 0.5924 0.2143
vn 0.9858 0.1215 -0.1159
vn 0.7654 0.2941 0.5725
vn 0.1403 -0.9881 0.0635
vn 0.8970 -0.3418 -0.2804
vn 0.6849 -0.0390 -0.7276
vn 0.4831 0.7406 0.4670
vn 0.6286 0.3914 0.6721
vn 0.4231 -0.7601 -0.4933
vn -0.4242 0.8998 0.1017
vn 0.0561 -0.5152 0.8552
vn -0.1811 -0.9255 0.3328
vn 0.4486 -0.3109 -0.8379
vn -0.4646 0.5373 -0.7039
vn 0.4705 0.4861 0.7364
vn 0.0879 0.1090 0.9901
vn 0.1714 -0.9726 -0.1571
vn 0.1913 -0.0161 -0.9814
vn -0.2722 0.2629 -0.9256
vn -0.5166 0.7706 -0.3731
vn -0.5829 0.6580 0.4768
vn -0.4072 -0.3769 0.8319
vn -0.1680 -0.9856 0.0189
vn -0.8651 0.4929 0.0937
vn -0.2936 0.7150 0.6345
vn -0.0469 -0.9989 0.0074
vn 0.0523 0.9985 0.0162
vn 0.0595 0.9982 0.0093
vn 0.0491 0.9987 0.0148
vn 0.1528 -0.7837 -0.6020
vn -0.1419 -0.5521 -0.8216
vn -0.5701 0.0701 -0.8186
vn 0.1038 0.7575 0.6446
vn -0.3663 0.3793 0.8497
vn -0.7972 0.3673 -0.4791
vn -0.7626 0.3292 0.5568
vn -0.5607 0.1815 0.8079
vn -0.6392 -0.4839 0.5977
vn -0.1603 -0.9419 -0.2951
vn 0.1174 -0.8879 -0.4449
vn -0.9772 -0.0152 -0.2117
vn -0.9816 0.1366 0.1335
vn -0.4215 -0.9025 0.0888
vn -0.5113 -0.7306 -0.4524
vn -0.6217 -0.7355 0.2695
vn -0.7796 -0.4645 0.4200
vn -0.3081 -0.7415 -0.5960
vn -0.8286 0.0133 -0.5597
vn -0.9095 -0.4156 0.0009
vn -0.9674 0.0099 0.2532
vn -0.3189 -0.4343 -0.8424
vn -0.3052 -0.4337 -0.8478
vn -0.3329 -0.4527 -0.8272
vn -0.3775 -0.3840 -0.8426
vt 0.187563 0.695069
vt 0.182310 0.677388
vt 0.176964 0.685733
vt 0.034411 0.535592
vt 0.028100 0.541924
vt 0.036913 0.546763
vt 0.188265 0.228480
vt 0.197141 0.215486
vt 0.187573 0.216026
vt 0.937264 0.724758
vt 0.930344 0.740943
vt 0.938800 0.737111
vt 0.893455 0.686555
vt 0.901834 0.679420
vt 0.892885 0.672937
vt 0.784866 0.732759
vt 0.787297 0.720613
vt 0.780395 0.720345
vt 0.885698 0.827155
vt 0.898540 0.819950
vt 0.887223 0.818058
vt 0.919639 0.874748
vt 0.908957 0.871475
vt 0.904613 0.879800
vt 0.934961 0.929679
vt 0.933978 0.942823
vt 0.943010 0.934098
vt 0.027909 0.232786
vt 0.018293 0.244968
vt 0.027840 0.245568
vt 0.037830 0.245995
vt 0.048240 0.232922
vt 0.037996 0.232833
vt 0.073451 0.477014
vt 0.082424 0.489024
vt 0.084873 0.478367
vt 0.469155 0.939483
vt 0.459446 0.937097
vt 0.455436 0.948126
vt 0.449734 0.934892
vt 0.445414 0.946263
vt 0.164177 0.161523
vt 0.153439 0.160215
vt 0.154556 0.174480
vt 0.152904 0.145754
vt 0.163470 0.147575
vt 0.162104 0.134433
vt 0.117045 0.101655
vt 0.104024 0.089971
vt 0.105788 0.101078
vt 0.093118 0.089135
vt 0.094834 0.101101
vt 0.670196 0.530123
vt 0.659980 0.528997
vt 0.660344 0.541180
vt 0.645222 0.481630
vt 0.654569 0.482365
vt 0.656306 0.465653
vt 0.809121 0.693235
vt 0.814362 0.684162
vt 0.805555 0.681775
vt 0.826709 0.825369
vt 0.836544 0.828844
vt 0.838899 0.821768
vt 0.846980 0.832859
vt 0.904892 0.900433
vt 0.889393 0.903643
vt 0.898899 0.908475
vt 0.914960 0.905638
vt 0.920861 0.897115
vt 0.064031 0.455694
vt 0.074914 0.466459
vt 0.076082 0.456036
vt 0.857342 0.870766
vt 0.842955 0.872109
vt 0.853451 0.877676
vt 0.046504 0.401440
vt 0.048513 0.410305
vt 0.060032 0.408400
vt 0.135926 0.095249
vt 0.143517 0.086787
vt 0.133915 0.083379
vt 0.506306 0.296549
vt 0.498797 0.301821
vt 0.504685 0.306190
vt 0.704397 0.751782
vt 0.701941 0.739766
vt 0.696979 0.744397
vt 0.214980 0.975856
vt 0.211621 0.983696
vt 0.222510 0.985109
vt 0.609305 0.920712
vt 0.604066 0.910445
vt 0.599666 0.917427
vt 0.506350 0.888088
vt 0.502938 0.893869
vt 0.511750 0.897849
vt 0.189844 0.130038
vt 0.180458 0.127185
vt 0.182552 0.139026
vt 0.704006 0.486618
vt 0.705537 0.470689
vt 0.695159 0.469660
vt 0.209459 0.535179
vt 0.200839 0.533968
vt 0.196909 0.544715
vt 0.168951 0.509014
vt 0.177496 0.509400
vt 0.181547 0.500239
vt 0.244908 0.905710
vt 0.231262 0.904007
vt 0.230846 0.914190
vt 0.230108 0.924191
vt 0.243548 0.926142
vt 0.383704 0.912439
vt 0.380674 0.897395
vt 0.375664 0.907539
vt 0.369885 0.918513
vt 0.378230 0.923413
vt 0.743105 0.501257
vt 0.734943 0.487042
vt 0.733316 0.501839
vt 0.691737 0.412327
vt 0.678067 0.426485
vt 0.689691 0.427660
vt 0.648701 0.374319
vt 0.637207 0.375418
vt 0.637136 0.387268
vt 0.646788 0.341024
vt 0.645003 0.325396
vt 0.633375 0.326406
vt 0.267332 0.473960
vt 0.256132 0.472927
vt 0.253846 0.484973
vt 0.743506 0.648929
vt 0.730813 0.659809
vt 0.740472 0.659722
vt 0.712584 0.663202
vt 0.711706 0.675524
vt 0.720364 0.673246
vt 0.102877 0.724558
vt 0.106364 0.713756
vt 0.097977 0.719799
vt 0.773967 0.972835
vt 0.768893 0.965986
vt 0.759049 0.970066
vt 0.643781 0.889855
vt 0.644702 0.879290
vt 0.636001 0.879604
vt 0.491985 0.856790
vt 0.487987 0.863334
vt 0.495882 0.868238
vt 0.490247 0.361137
vt 0.480550 0.368295
vt 0.487185 0.374629
vt 0.495400 0.368206
vt 0.493339 0.381568
vt 0.700671 0.895583
vt 0.703412 0.908183
vt 0.706641 0.898792
vt 0.158452 0.929931
vt 0.159408 0.920402
vt 0.145497 0.917199
vt 0.456494 0.843477
vt 0.443519 0.847080
vt 0.451644 0.851801
vt 0.440686 0.833401
vt 0.435587 0.842330
vt 0.430435 0.851295
vt 0.438409 0.855879
vt 0.791949 0.425934
vt 0.781527 0.434278
vt 0.790268 0.436777
vt 0.754687 0.374451
vt 0.754924 0.364242
vt 0.744085 0.362982
vt 0.742864 0.348074
vt 0.731286 0.346414
vt 0.666311 0.273611
vt 0.676338 0.272130
vt 0.678156 0.261945
vt 0.141755 0.756871
vt 0.140938 0.746125
vt 0.134126 0.752797
vt 0.708366 0.920734
vt 0.718536 0.914018
vt 0.710820 0.911475
vt 0.733100 0.926678
vt 0.741218 0.935768
vt 0.742181 0.927556
vt 0.214367 0.832748
vt 0.201699 0.829140
vt 0.202406 0.838860
vt 0.189563 0.825219
vt 0.189955 0.835233
vt 0.149887 0.877082
vt 0.148621 0.887184
vt 0.162456 0.890578
vt 0.728055 0.292124
vt 0.744137 0.289290
vt 0.730631 0.283529
vt 0.635721 0.217679
vt 0.624183 0.212496
vt 0.625139 0.220694
vt 0.612888 0.215309
vt 0.614900 0.224276
vt 0.414902 0.386253
vt 0.404635 0.394914
vt 0.412506 0.400128
vt 0.089972 0.784960
vt 0.103955 0.781283
vt 0.095164 0.776475
vt 0.124238 0.869258
vt 0.112091 0.875454
vt 0.122386 0.879291
vt 0.643172 0.824697
vt 0.642740 0.814096
vt 0.634789 0.817130
vt 0.399392 0.776278
vt 0.408555 0.781872
vt 0.413457 0.774757
vt 0.435221 0.451063
vt 0.429175 0.461053
vt 0.441160 0.465910
vt 0.447210 0.456257
vt 0.453265 0.446701
vt 0.514143 0.435580
vt 0.527993 0.435967
vt 0.518157 0.429511
vt 0.080321 0.801865
vt 0.090511 0.807003
vt 0.094710 0.798459
vt 0.172334 0.796752
vt 0.169833 0.807095
vt 0.179274 0.811013
vt 0.047182 0.903192
vt 0.059315 0.914940
vt 0.058313 0.905352
vt 0.467909 0.705644
vt 0.475463 0.696780
vt 0.466591 0.690665
vt 0.045068 0.872373
vt 0.039033 0.860473
vt 0.037769 0.870434
vt 0.552890 0.715606
vt 0.550375 0.730128
vt 0.558350 0.723029
vt 0.626684 0.766221
vt 0.617584 0.770778
vt 0.621344 0.780802
vt 0.574587 0.759926
vt 0.576760 0.746221
vt 0.568312 0.752263
vt 0.598253 0.757040
vt 0.583164 0.754246
vt 0.589306 0.762443
vt 0.556895 0.553303
vt 0.543014 0.559214
vt 0.552165 0.561107
vt 0.450324 0.693214
vt 0.443573 0.701955
vt 0.452126 0.708314
vt 0.438002 0.710352
vt 0.446620 0.716364
vt 0.343375 0.519792
vt 0.358661 0.515799
vt 0.346426 0.510691
vt 0.533648 0.650513
vt 0.540950 0.642960
vt 0.532225 0.636668
vt 0.379975 0.563822
vt 0.394756 0.558835
vt 0.383417 0.555736
vt 0.457055 0.537376
vt 0.452684 0.546522
vt 0.463968 0.549006
vt 0.489004 0.525022
vt 0.500026 0.528642
vt 0.504736 0.519685
vt 0.509362 0.510263
vt 0.498507 0.506600
vt 0.510306 0.532405
vt 0.514604 0.523238
vt 0.406293 0.533163
vt 0.394670 0.529628
vt 0.390682 0.538649
vt 0.378958 0.534367
vt 0.375416 0.543017
vt 0.448261 0.554743
vt 0.515201 0.451740
vt 0.501928 0.454348
vt 0.510481 0.457611
vt 0.117161 0.825684
vt 0.111345 0.814292
vt 0.107462 0.822750
vt 0.348752 0.449571
vt 0.342416 0.459775
vt 0.353273 0.465959
vt 0.766347 0.233136
vt 0.755107 0.228492
vt 0.753883 0.238531
vt 0.765407 0.242854
vt 0.776090 0.247761
vt 0.367658 0.826010
vt 0.373366 0.817277
vt 0.364001 0.811529
vt 0.354845 0.805435
vt 0.349207 0.814204
vt 0.378357 0.808855
vt 0.344485 0.720236
vt 0.359822 0.720707
vt 0.351115 0.712657
vt 0.342678 0.704326
vt 0.752344 0.249244
vt 0.764118 0.252999
vt 0.320467 0.430973
vt 0.328692 0.421018
vt 0.321824 0.415798
vt 0.749152 0.275309
vt 0.759243 0.289263
vt 0.760562 0.280278
vt 0.731231 0.943043
vt 0.731708 0.935176
vt 0.754480 0.406378
vt 0.764685 0.418901
vt 0.764061 0.408985
vt 0.001372 0.266449
vt 0.009456 0.267227
vt 0.008953 0.256084
vt 0.052722 0.436674
vt 0.052735 0.446006
vt 0.064299 0.445737
s 1
usemtl base_material
f 6/1/1 5/2/2 10/3/3
f 12/4/4 13/5/5 14/6/6
f 14/7/6 19/8/7 15/9/8
f 21/10/9 9/11/10 18/12/11
f 9/13/10 21/14/9 22/15/12
f 5/16/2 9/17/10 23/18/13
f 24/19/14 18/20/11 9/21/10
f 17/22/15 18/23/11 24/24/14
f 17/25/15 25/26/16 16/27/17
f 16/28/17 25/29/16 26/30/18
f 26/31/18 15/32/8 16/33/17
f 12/34/4 14/35/6 15/36/8
f 13/37/5 27/38/19 14/39/6
f 14/39/6 27/40/19 19/41/7
f 19/42/7 16/43/17 15/44/8
f 16/45/17 19/46/7 28/47/20
f 28/48/20 20/49/21 16/50/17
f 20/49/21 17/51/15 16/52/17
f 20/53/21 18/54/11 17/55/15
f 18/56/11 20/57/21 21/58/9
f 9/59/10 22/60/12 23/61/13
f 5/62/2 6/63/1 9/64/10
f 9/64/10 6/63/1 24/65/14
f 24/66/14 11/67/22 25/68/16
f 24/66/14 25/69/16 17/70/15
f 12/71/4 15/72/8 26/73/18
f 24/74/14 6/75/1 11/76/22
f 11/77/22 29/78/23 26/79/18
f 28/80/20 7/81/24 20/82/21
f 5/83/2 23/84/13 10/85/3
f 10/86/3 23/87/13 31/88/25
f 30/89/26 13/90/5 12/91/4
f 30/92/26 3/93/27 13/94/5
f 3/95/27 27/96/19 13/97/5
f 7/98/24 28/99/20 19/100/7
f 20/101/21 32/102/28 21/103/9
f 22/104/12 34/105/29 23/106/13
f 29/107/23 36/108/30 12/109/4
f 12/110/4 36/111/30 37/112/31
f 37/112/31 30/113/26 12/114/4
f 27/115/19 38/116/32 7/117/24
f 27/115/19 7/118/24 19/119/7
f 7/120/24 32/121/28 20/122/21
f 33/123/33 21/124/9 32/125/28
f 33/126/33 22/127/12 21/128/9
f 33/129/33 39/130/34 22/131/12
f 39/132/34 34/133/29 22/134/12
f 34/135/29 35/136/35 23/137/13
f 35/138/35 31/139/25 23/140/13
f 40/141/36 10/142/3 31/143/25
f 29/144/23 11/145/22 36/146/30
f 30/147/26 41/148/37 3/149/27
f 2/150/38 27/151/19 3/152/27
f 31/153/25 35/154/35 42/155/39
f 31/156/25 42/155/39 40/157/36
f 10/158/3 43/159/40 6/160/1
f 30/161/26 37/162/31 41/163/37
f 2/164/38 44/165/41 27/166/19
f 44/165/42 2/167/43 38/168/44
f 44/165/41 38/169/32 27/170/19
f 45/171/45 32/172/28 7/173/24
f 45/174/45 46/175/46 33/176/33
f 33/176/33 46/177/46 39/178/34
f 34/179/29 39/180/34 47/181/47
f 43/182/40 10/183/3 40/184/36
f 49/185/48 6/186/1 43/187/40
f 49/188/48 11/189/22 6/190/1
f 36/191/30 49/192/48 37/193/31
f 37/193/31 49/194/48 50/195/49
f 50/196/49 41/197/37 37/198/31
f 39/199/34 46/200/46 47/201/47
f 47/202/47 48/203/50 34/204/29
f 48/203/50 35/205/35 34/206/29
f 35/207/35 48/208/50 42/209/39
f 1/210/51 43/211/40 40/212/36
f 50/213/49 51/214/52 41/215/37
f 41/216/37 52/217/53 3/218/27
f 53/219/54 44/220/55 2/221/38
f 48/222/50 56/223/56 57/224/57
f 48/222/50 57/225/57 42/226/39
f 42/227/39 1/228/51 40/229/36
f 1/230/51 51/231/52 43/232/40
f 43/233/40 50/234/49 49/235/48
f 52/236/53 41/237/37 51/238/52
f 2/239/38 58/240/58 8/241/59
f 51/242/52 1/243/51 52/244/53
f 58/245/58 2/246/38 59/247/60
f 52/248/53 60/249/61 3/250/27
f 3/251/27 59/252/60 2/253/38
f 60/254/61 59/255/60 3/256/27
f 1/257/51 60/258/61 52/259/53
f 8/260/59 54/261/62 2/262/38
f 54/261/62 53/263/54 2/264/38
f 8/265/59 56/266/56 55/267/63
f 58/268/58 59/269/60 8/270/59
f 8/271/59 59/272/60 61/273/64
f 57/274/57 61/275/64 60/276/61
f 57/277/57 60/278/61 62/279/65
f 62/279/65 1/280/51 57/281/57
f 62/279/65 60/282/61 1/283/51
f 57/284/57 56/285/56 61/286/64
f 61/286/64 56/287/56 8/288/59
f 60/276/61 61/275/64 59/289/60
f 1/290/51 42/291/39 57/292/57
f 50/293/49 43/294/40 51/295/52
f 48/296/50 55/297/63 56/298/56
f 8/299/66 55/300/67 47/301/68
f 8/299/59 55/302/69 54/303/62
f 7/304/24 38/305/32 53/306/54
f 53/306/54 45/307/45 7/308/24
f 53/306/54 38/305/32 44/309/55
f 45/310/45 53/311/54 54/312/62
f 45/310/45 54/312/62 46/313/46
f 47/314/47 54/315/62 55/302/69
f 55/316/63 48/317/50 47/318/47
f 47/319/47 46/320/46 54/321/62
f 36/322/30 11/189/22 49/323/48
f 33/324/33 32/325/28 45/326/45
f 11/327/22 26/328/18 25/329/16
f 29/330/23 12/331/4 26/332/18
l 4 5
