# Blender 4.4.3
# www.blender.org
mtllib 0.1.mtl
o mesh_base_material_0
v -0.370467 -0.029258 0.243271
v -0.112720 -0.422088 0.021801
v -0.073079 -0.397121 0.269966
v 0.029366 0.480153 0.060958
v -0.016997 0.280374 0.036232
v 0.248596 -0.349813 -0.208938
v -0.356251 -0.329909 -0.218868
v 0.078630 0.171033 -0.208872
v -0.110428 0.190209 0.213863
v 0.218136 0.119597 0.193379
v 0.231234 -0.192926 0.358995
v 0.165179 -0.381721 0.269953
v 0.381067 -0.308059 0.155041
v 0.452616 -0.141971 0.082916
v 0.430844 -0.033291 -0.076515
v 0.330089 0.056954 -0.189376
v 0.184923 0.014016 -0.356080
v 0.247662 0.188376 -0.029836
v 0.396075 0.032917 0.138382
v 0.184488 -0.428371 0.034443
v 0.405303 -0.342167 -0.051103
v 0.407653 -0.202487 -0.205875
v 0.293097 -0.156850 -0.327899
v -0.029893 0.043330 -0.411655
v -0.204155 0.135135 -0.211970
v 0.363684 -0.035938 0.238728
v -0.290082 0.191426 -0.008135
v -0.003517 -0.232466 0.474269
v 0.109767 -0.192058 -0.421130
v 0.127666 0.048190 0.395224
v -0.146295 -0.096899 -0.428230
v -0.368851 0.080128 -0.179671
v -0.337138 0.112362 0.114034
v -0.040411 -0.004639 0.455833
v -0.183760 -0.238054 0.409061
v -0.336977 -0.061706 -0.322841
v -0.137682 0.066678 0.363996
v 0.010099 0.152847 0.347244
v 0.047434 -0.425399 -0.133823
v 0.002864 -0.332722 -0.347205
v -0.118403 -0.254620 -0.429321
v -0.463351 -0.034048 -0.030338
v -0.187858 -0.086408 0.417694
v -0.120144 -0.373218 -0.248937
v -0.222562 -0.250628 -0.371444
v -0.428444 -0.132502 -0.259093
v -0.476482 -0.157726 -0.083044
v -0.333114 -0.247767 0.318088
v -0.382219 -0.340623 0.043269
v -0.410207 -0.256472 0.145287
v -0.270521 -0.336524 0.293137
v -0.473671 -0.193861 -0.006161
v -0.474549 -0.113202 0.079037
vn 0.6970 -0.5908 0.4064
vn 0.6027 -0.1295 0.7874
vn 0.3090 -0.8086 0.5007
vn 0.4375 0.4617 -0.7716
vn 0.1499 0.8657 -0.4777
vn 0.6900 0.5542 -0.4655
vn 0.3649 0.9192 -0.1482
vn 0.9721 0.0251 0.2331
vn 0.9248 0.3168 -0.2107
vn 0.7829 0.5596 0.2718
vn 0.1989 -0.9790 0.0453
vn 0.7409 -0.6588 -0.1306
vn 0.8676 -0.1431 -0.4763
vn 0.6226 -0.1141 -0.7742
vn -0.0608 0.5382 -0.8406
vn -0.2826 0.7769 -0.5626
vn 0.0414 0.9942 0.0991
vn 0.9235 0.3144 0.2199
vn 0.9270 0.3076 0.2147
vn 0.9239 0.3138 0.2189
vn 0.6833 0.7288 0.0449
vn 0.4615 0.7469 0.4788
vn 0.7124 0.2202 0.6664
vn 0.3875 -0.7831 -0.4864
vn -0.5171 0.8549 -0.0419
vn -0.2250 0.8616 0.4550
vn 0.0568 -0.3353 0.9404
vn -0.1486 -0.9045 0.3996
vn 0.2436 -0.2622 -0.9338
vn 0.5151 0.4312 0.7407
vn -0.1789 -0.9839 0.0042
vn -0.2528 0.1483 -0.9561
vn -0.6857 0.5998 -0.4124
vn -0.6813 0.6543 0.3282
vn -0.0897 0.3258 0.9412
vn -0.3695 -0.4016 0.8380
vn -0.5803 0.2603 -0.7716
vn -0.4555 0.5933 0.6637
vn 0.0693 0.8931 0.4445
vn 0.0417 -0.9727 -0.2282
vn 0.0777 -0.7332 -0.6756
vn 0.0707 -0.3313 -0.9409
vn -0.7649 0.3225 0.5577
vn -0.9164 0.3972 -0.0499
vn -0.4611 0.1698 0.8710
vn -0.1665 -0.9032 -0.3956
vn -0.5775 -0.7176 -0.3893
vn -0.4173 -0.5280 -0.7397
vn -0.7099 -0.2804 0.6461
vn -0.8004 -0.4677 0.3749
vn -0.3075 -0.7858 0.5367
vn -0.6101 -0.7811 0.1329
vn -0.8598 -0.5052 -0.0747
vn -0.1326 0.8954 0.4252
vn -0.1314 0.8929 0.4306
vn -0.1270 0.8928 0.4321
vn -0.9538 0.0980 0.2841
vn -0.9918 -0.0708 0.1062
vn -0.9937 0.0791 0.0800
vn -0.8709 -0.4381 -0.2226
vn -0.8015 0.2066 -0.5612
vn 0.9522 -0.2003 0.2306
vn 0.9588 -0.1799 0.2199
vn 0.9522 -0.1996 0.2312
vn -0.8634 0.3660 -0.3473
vt 0.045444 0.551393
vt 0.043616 0.539827
vt 0.036913 0.546763
vt 0.946953 0.761837
vt 0.941770 0.774921
vt 0.950761 0.773891
vt 0.895365 0.839067
vt 0.908540 0.831705
vt 0.897235 0.829645
vt 0.027909 0.232786
vt 0.018339 0.232696
vt 0.018293 0.244968
vt 0.086415 0.467583
vt 0.073451 0.477014
vt 0.084873 0.478367
vt 0.455436 0.948126
vt 0.449734 0.934892
vt 0.445414 0.946263
vt 0.196414 0.203430
vt 0.205696 0.191943
vt 0.195966 0.191295
vt 0.186495 0.190601
vt 0.152904 0.145754
vt 0.142012 0.144379
vt 0.142788 0.159024
vt 0.141028 0.130530
vt 0.150541 0.119363
vt 0.140058 0.117182
vt 0.091763 0.076738
vt 0.080954 0.076649
vt 0.082169 0.089002
vt 0.692040 0.556965
vt 0.702599 0.557012
vt 0.701654 0.544045
vt 0.680871 0.543511
vt 0.690930 0.531439
vt 0.680525 0.530888
vt 0.919190 0.680192
vt 0.910182 0.672605
vt 0.901834 0.679420
vt 0.783251 0.708275
vt 0.775387 0.708110
vt 0.773046 0.720481
vt 0.900021 0.887913
vt 0.889539 0.883845
vt 0.884699 0.891461
vt 0.908497 0.913820
vt 0.901471 0.921684
vt 0.910053 0.927251
vt 0.917646 0.919261
vt 0.924539 0.910824
vt 0.914960 0.905638
vt 0.028105 0.269608
vt 0.038613 0.282483
vt 0.037806 0.271071
vt 0.076813 0.445718
vt 0.076082 0.456036
vt 0.087743 0.456888
vt 0.842148 0.846819
vt 0.831597 0.842345
vt 0.828697 0.848971
vt 0.844651 0.839965
vt 0.846980 0.832859
vt 0.836544 0.828844
vt 0.037644 0.411564
vt 0.039613 0.419909
vt 0.050655 0.418806
vt 0.160811 0.121778
vt 0.158767 0.110541
vt 0.148972 0.107590
vt 0.221440 0.551128
vt 0.207148 0.557866
vt 0.214818 0.560659
vt 0.724155 0.725274
vt 0.730131 0.735220
vt 0.730177 0.723461
vt 0.704397 0.751782
vt 0.709644 0.747035
vt 0.707293 0.735230
vt 0.214980 0.975856
vt 0.203654 0.974761
vt 0.200516 0.982407
vt 0.618481 0.923608
vt 0.623232 0.915682
vt 0.613886 0.913283
vt 0.494374 0.889546
vt 0.497543 0.884018
vt 0.488722 0.880246
vt 0.367257 0.944791
vt 0.352581 0.947919
vt 0.362457 0.953805
vt 0.731998 0.529791
vt 0.721866 0.530295
vt 0.722022 0.543012
vt 0.695159 0.469660
vt 0.705537 0.470689
vt 0.707057 0.456596
vt 0.676059 0.439062
vt 0.678067 0.426485
vt 0.666027 0.425757
vt 0.755984 0.875666
vt 0.764150 0.876407
vt 0.764682 0.869177
vt 0.143628 0.515128
vt 0.141636 0.505824
vt 0.137075 0.512825
vt 0.492418 0.874099
vt 0.487987 0.863334
vt 0.484032 0.869748
vt 0.237754 0.494016
vt 0.226836 0.481294
vt 0.224854 0.492048
vt 0.421686 0.331533
vt 0.417663 0.342981
vt 0.429051 0.335228
vt 0.529027 0.362102
vt 0.534185 0.370660
vt 0.542242 0.369461
vt 0.244581 0.874932
vt 0.245024 0.885092
vt 0.258084 0.886032
vt 0.231591 0.883544
vt 0.231372 0.873378
vt 0.217655 0.871349
vt 0.652163 0.889802
vt 0.652785 0.878611
vt 0.644702 0.879290
vt 0.749096 0.458949
vt 0.736679 0.472405
vt 0.746834 0.472471
vt 0.686584 0.375498
vt 0.685758 0.367767
vt 0.673214 0.367436
vt 0.630160 0.272861
vt 0.639507 0.270136
vt 0.638748 0.257545
vt 0.620357 0.264289
vt 0.629401 0.260750
vt 0.628123 0.248508
vt 0.495400 0.368206
vt 0.487185 0.374629
vt 0.493339 0.381568
vt 0.106989 0.749480
vt 0.107025 0.760615
vt 0.113728 0.752974
vt 0.721401 0.904919
vt 0.718536 0.914018
vt 0.726794 0.916007
vt 0.430435 0.851295
vt 0.427926 0.837563
vt 0.422563 0.846689
vt 0.403323 0.860378
vt 0.395329 0.855646
vt 0.389405 0.864730
vt 0.791949 0.425934
vt 0.792659 0.415940
vt 0.783576 0.413579
vt 0.744085 0.362982
vt 0.742864 0.348074
vt 0.731286 0.346414
vt 0.093188 0.763901
vt 0.099813 0.756440
vt 0.862114 0.497476
vt 0.854415 0.488714
vt 0.859008 0.499160
vt 0.724219 0.925256
vt 0.722468 0.934071
vt 0.731708 0.935176
vt 0.146461 0.907247
vt 0.132793 0.903645
vt 0.131885 0.913685
vt 0.468719 0.405980
vt 0.484483 0.403507
vt 0.476450 0.397204
vt 0.179335 0.778740
vt 0.183773 0.791268
vt 0.187317 0.782063
vt 0.222925 0.777365
vt 0.222933 0.787973
vt 0.231709 0.789744
vt 0.124238 0.869258
vt 0.122386 0.879291
vt 0.135111 0.883359
vt 0.396339 0.762843
vt 0.410006 0.761802
vt 0.401822 0.755447
vt 0.388661 0.662996
vt 0.376988 0.662507
vt 0.381887 0.670725
vt 0.500911 0.436112
vt 0.496980 0.442887
vt 0.506516 0.447066
vt 0.138215 0.820717
vt 0.135260 0.830449
vt 0.144681 0.833300
vt 0.069452 0.889060
vt 0.068967 0.879147
vt 0.055117 0.875276
vt 0.077905 0.832056
vt 0.086482 0.845268
vt 0.089670 0.836428
vt 0.054864 0.865105
vt 0.651277 0.779993
vt 0.639935 0.772666
vt 0.642402 0.783342
vt 0.643182 0.793664
vt 0.651940 0.790718
vt 0.630696 0.776593
vt 0.574587 0.759926
vt 0.583164 0.754246
vt 0.576760 0.746221
vt 0.585021 0.740543
vt 0.591753 0.748688
vt 0.543014 0.559214
vt 0.537671 0.566342
vt 0.547219 0.568633
vt 0.508853 0.676044
vt 0.508729 0.691349
vt 0.517247 0.682261
vt 0.443573 0.701955
vt 0.435488 0.695491
vt 0.430086 0.703954
vt 0.394756 0.558835
vt 0.398445 0.550707
vt 0.386944 0.547490
vt 0.410031 0.553881
vt 0.402252 0.542089
vt 0.502866 0.497109
vt 0.491630 0.494008
vt 0.486797 0.503245
vt 0.476011 0.500315
vt 0.471039 0.509677
vt 0.493815 0.515904
vt 0.498507 0.506600
vt 0.465886 0.497239
vt 0.460469 0.506559
vt 0.477322 0.521632
vt 0.481979 0.512464
vt 0.390682 0.538649
vt 0.378958 0.534367
vt 0.382841 0.525460
vt 0.370952 0.520371
vt 0.382997 0.440725
vt 0.372516 0.434994
vt 0.365739 0.445380
vt 0.373238 0.757451
vt 0.376371 0.771874
vt 0.381877 0.763871
vt 0.360369 0.796851
vt 0.351588 0.790379
vt 0.345881 0.798952
vt 0.343284 0.689031
vt 0.335981 0.679620
vt 0.326785 0.685833
vt 0.346285 0.674207
vt 0.361746 0.676817
vt 0.355948 0.667688
vt 0.731867 0.220206
vt 0.744310 0.216631
vt 0.732700 0.213760
vt 0.279328 0.401719
vt 0.272745 0.411579
vt 0.279328 0.412581
vt 0.353458 0.422934
vt 0.361356 0.412647
vt 0.353485 0.407307
vt 0.370239 0.418546
vt 0.379649 0.424571
vt 0.387471 0.414306
vt 0.369795 0.402641
vt 0.726126 0.252643
vt 0.712146 0.262279
vt 0.724958 0.261493
vt 0.196909 0.371006
vt 0.210387 0.382236
vt 0.207568 0.371126
vt 0.720783 0.368046
vt 0.732934 0.375840
vt 0.732445 0.369190
vt 0.083305 0.403643
vt 0.094723 0.412879
vt 0.091821 0.402098
s 1
usemtl base_material
f 13/1/1 11/2/2 12/3/3
f 17/4/4 8/5/5 16/6/6
f 18/7/7 16/8/6 8/9/5
f 14/10/8 15/11/9 19/12/10
f 14/13/8 11/14/2 13/15/1
f 12/16/3 20/17/11 13/18/1
f 13/19/1 20/20/11 21/21/12
f 13/19/1 21/21/12 14/22/8
f 21/23/12 15/24/9 14/25/8
f 15/26/9 21/27/12 22/28/13
f 22/29/13 16/30/6 15/31/9
f 16/32/6 22/33/13 23/34/14
f 16/35/6 23/36/14 17/37/4
f 17/38/4 24/39/15 8/40/5
f 8/41/5 25/42/16 5/43/17
f 16/44/18 18/45/19 10/46/20
f 18/47/21 10/48/22 19/49/10
f 18/47/21 19/50/10 15/51/9
f 18/47/21 15/51/9 16/52/6
f 19/53/10 26/54/23 14/55/8
f 26/56/23 11/57/2 14/58/8
f 18/59/7 5/60/17 10/61/22
f 18/62/7 8/63/5 5/64/17
f 10/65/22 11/66/2 26/67/23
f 21/68/12 6/69/24 22/70/13
f 24/71/15 25/72/16 8/73/5
f 27/74/25 5/75/17 25/76/16
f 9/77/26 5/78/17 27/79/25
f 11/80/2 28/81/27 12/82/3
f 12/83/3 28/84/27 3/85/28
f 12/86/3 3/87/28 20/88/11
f 20/89/11 6/90/24 21/91/12
f 6/92/24 23/93/14 22/94/13
f 17/95/4 23/96/14 29/97/29
f 17/98/4 29/99/29 24/100/15
f 9/101/26 10/102/22 5/103/17
f 30/104/30 11/105/2 10/106/22
f 3/107/28 2/108/31 20/109/11
f 24/110/15 31/111/32 25/112/16
f 25/113/16 32/114/33 27/115/25
f 27/116/25 33/117/34 9/118/26
f 30/119/30 28/120/27 11/121/2
f 28/122/27 30/123/30 34/124/35
f 28/125/27 35/126/36 3/127/28
f 29/128/29 23/129/14 6/130/24
f 29/131/29 31/132/32 24/133/15
f 25/134/16 31/135/32 36/136/37
f 25/137/16 36/138/37 32/139/33
f 27/140/25 32/141/33 33/142/34
f 33/143/34 37/144/38 9/145/26
f 9/146/26 38/147/39 10/148/22
f 20/149/11 2/150/31 39/151/40
f 20/152/11 39/153/40 6/154/24
f 6/155/24 40/156/41 29/157/29
f 40/158/41 41/159/42 31/160/32
f 1/161/43 37/144/38 33/162/34
f 38/163/39 9/164/26 37/165/38
f 38/166/39 30/167/30 10/168/22
f 28/169/27 34/170/35 35/171/36
f 42/172/44 33/173/34 32/174/33
f 37/175/38 34/176/35 38/177/39
f 38/178/39 34/179/35 30/180/30
f 43/181/45 35/182/36 34/183/35
f 39/184/40 2/185/31 44/186/46
f 7/187/47 45/188/48 44/189/46
f 33/190/34 42/191/44 1/192/43
f 37/193/38 43/194/45 34/195/35
f 35/196/36 43/197/45 48/198/49
f 1/199/43 43/200/45 37/201/38
f 1/202/43 48/198/49 43/197/45
f 48/203/49 50/204/50 51/205/51
f 48/203/49 51/205/51 3/206/28
f 48/203/49 3/206/28 35/207/36
f 51/205/51 50/204/50 3/208/28
f 2/209/31 3/210/28 49/211/52
f 49/212/52 3/210/28 50/213/50
f 1/214/43 50/215/50 48/216/49
f 7/217/47 2/218/31 49/219/52
f 2/220/31 7/221/47 44/222/46
f 49/223/52 52/224/53 7/225/47
f 49/223/52 50/226/50 52/224/53
f 50/226/54 47/227/55 52/224/56
f 1/228/43 42/229/44 53/230/57
f 53/230/57 42/231/44 52/232/58
f 53/230/57 50/233/50 1/234/43
f 52/232/58 42/235/44 47/236/59
f 52/232/58 50/237/50 53/238/57
f 47/239/60 7/225/47 52/224/53
f 7/240/47 47/241/60 46/242/61
f 42/243/62 47/244/63 46/245/64
f 40/246/41 39/247/40 44/248/46
f 39/249/40 40/250/41 6/251/24
f 44/252/46 41/253/42 40/254/41
f 41/255/42 44/256/46 45/257/48
f 45/258/48 7/259/47 46/260/61
f 45/261/48 46/262/61 36/263/37
f 46/264/61 47/265/65 36/266/37
f 47/267/65 42/268/44 32/269/33
f 36/266/37 47/265/65 32/270/33
f 36/271/37 31/272/32 45/273/48
f 45/274/48 31/275/32 41/276/42
f 31/277/32 29/278/29 40/279/41
f 10/280/22 26/281/23 19/282/10
l 5 4
