# Blender 4.4.3
# www.blender.org
mtllib 0.11.mtl
o mesh_base_material_0
v -0.366513 -0.033334 0.240245
v -0.112145 -0.420783 0.024829
v -0.069515 -0.390759 0.283019
v 0.025820 0.468735 0.061972
v -0.014855 0.266593 0.032362
v 0.246788 -0.347400 -0.206221
v -0.356180 -0.321291 -0.221375
v 0.078971 0.159936 -0.224563
v -0.081003 0.176312 0.245179
v 0.233857 0.106111 0.196903
v 0.230290 -0.203136 0.354250
v 0.167550 -0.384921 0.259018
v 0.396526 -0.291415 0.140173
v 0.451877 -0.121467 0.044382
v 0.406465 -0.034620 -0.147125
v 0.284566 0.076180 -0.205839
v 0.133473 -0.014514 -0.399113
v 0.374847 0.059816 0.094634
v 0.214985 -0.423019 0.025625
v 0.421195 -0.327011 -0.062626
v 0.281664 -0.163023 -0.333314
v -0.130023 0.055909 -0.358433
v -0.258734 0.175950 -0.127259
v 0.364958 -0.041768 0.244141
v -0.038857 -0.222974 0.476009
v -0.336483 0.144944 0.027226
v 0.088093 0.048005 0.410749
v 0.047719 -0.219908 -0.429159
v -0.141377 -0.139809 -0.445521
v -0.317344 -0.046313 -0.318373
v -0.421270 0.036443 -0.164443
v -0.087606 0.000901 0.440381
v -0.238189 -0.224892 0.378427
v 0.021903 -0.415204 -0.175162
v -0.161086 0.043447 0.360769
v -0.060588 -0.348145 -0.319302
v -0.469805 -0.060097 -0.014891
v -0.167486 -0.325943 -0.317626
v -0.450808 -0.139008 -0.210779
v -0.398571 -0.311470 0.071647
v -0.405968 -0.247950 0.182974
v -0.479350 -0.195597 -0.027573
v -0.175819 -0.254202 -0.404253
vn 0.2977 -0.8042 0.5144
vn 0.8020 -0.5680 0.1850
vn 0.5857 -0.1680 0.7930
vn 0.2366 0.8528 -0.4656
vn 0.6180 0.7036 -0.3508
vn 0.2963 0.3669 -0.8818
vn 0.9730 0.1760 -0.1495
vn 0.8626 0.3242 -0.3884
vn 0.3558 0.8840 -0.3032
vn 0.3006 -0.9535 0.0239
vn 0.9002 -0.0889 0.4264
vn 0.7872 -0.1278 -0.6033
vn 0.6826 -0.1704 -0.7107
vn 0.0763 0.9933 0.0870
vn -0.3577 0.8724 -0.3331
vn 0.8603 -0.2599 0.4386
vn 0.4716 -0.2380 -0.8491
vn -0.6253 -0.0253 -0.7800
vn -0.5936 -0.0324 -0.8041
vn -0.5944 -0.0269 -0.8037
vn 0.4812 0.8087 0.3384
vn 0.7356 0.3093 0.6027
vn 0.5234 -0.7357 0.4299
vn 0.4486 -0.7302 -0.5153
vn -0.5825 -0.3043 0.7537
vn -0.5871 -0.2974 0.7529
vn -0.5855 -0.3095 0.7493
vn -0.2193 0.5958 -0.7726
vn -0.1543 0.8513 0.5014
vn -0.0165 -0.3096 0.9507
vn -0.1724 -0.8819 0.4387
vn -0.5827 0.7965 0.1614
vn 0.4121 0.5201 0.7481
vn -0.1983 -0.9801 0.0108
vn 0.1502 -0.3451 -0.9265
vn -0.7673 0.3663 0.5263
vn -0.1487 -0.0057 -0.9889
vn -0.6323 0.2687 -0.7266
vn -0.7590 0.5351 -0.3709
vn -0.2591 0.4069 0.8760
vn -0.5543 -0.2950 0.7783
vn -0.0233 -0.9574 -0.2878
vn -0.5090 0.5485 0.6634
vn -0.0061 -0.8365 -0.5479
vn -0.9599 0.2560 0.1146
vn -0.7992 -0.3810 0.4648
vn -0.6373 -0.7554 0.1524
vn -0.5650 -0.7254 -0.3931
vn -0.2423 -0.8603 -0.4485
vn -0.9395 0.0045 -0.3425
vn -0.9666 -0.2540 0.0342
vn -0.5156 -0.2185 -0.8285
vn -0.5078 -0.2203 -0.8328
vn -0.5190 -0.2318 -0.8228
vn -0.2244 -0.4937 -0.8402
vn -0.6138 -0.1817 -0.7683
vt 0.045444 0.551393
vt 0.052691 0.544201
vt 0.043616 0.539827
vt 0.236039 0.219982
vt 0.234663 0.210233
vt 0.222880 0.208483
vt 0.010046 0.207587
vt 0.001556 0.208276
vt 0.001064 0.220378
vt 0.441475 0.957619
vt 0.445414 0.946263
vt 0.435387 0.944202
vt 0.196414 0.203430
vt 0.195966 0.191295
vt 0.186495 0.190601
vt 0.152904 0.145754
vt 0.162104 0.134433
vt 0.151720 0.132282
vt 0.680871 0.543511
vt 0.680525 0.530888
vt 0.670196 0.530123
vt 0.680662 0.517187
vt 0.773046 0.720481
vt 0.775387 0.708110
vt 0.767378 0.708253
vt 0.869847 0.841232
vt 0.867078 0.849145
vt 0.878683 0.853165
vt 0.864118 0.856439
vt 0.908497 0.913820
vt 0.917646 0.919261
vt 0.924539 0.910824
vt 0.914960 0.905638
vt 0.000612 0.232257
vt 0.009259 0.232479
vt 0.009584 0.220209
vt 0.096556 0.423875
vt 0.085796 0.413818
vt 0.087514 0.424390
vt 0.088591 0.435177
vt 0.076707 0.435415
vt 0.076813 0.445718
vt 0.087743 0.456888
vt 0.088593 0.446088
vt 0.062003 0.417360
vt 0.063527 0.426512
vt 0.075704 0.425297
vt 0.842148 0.846819
vt 0.855594 0.844720
vt 0.844651 0.839965
vt 0.194966 0.166544
vt 0.185184 0.164657
vt 0.186077 0.177627
vt 0.193890 0.153969
vt 0.184137 0.151691
vt 0.172408 0.136647
vt 0.163470 0.147575
vt 0.160811 0.121778
vt 0.723206 0.555486
vt 0.731990 0.542080
vt 0.722022 0.543012
vt 0.890508 0.643723
vt 0.891654 0.658755
vt 0.899869 0.651279
vt 0.796148 0.679262
vt 0.786262 0.677027
vt 0.781980 0.686367
vt 0.704397 0.751782
vt 0.701941 0.739766
vt 0.696979 0.744397
vt 0.200516 0.982407
vt 0.191551 0.972197
vt 0.188921 0.979967
vt 0.480365 0.894981
vt 0.485251 0.886196
vt 0.475908 0.883339
vt 0.688175 0.735827
vt 0.683213 0.739517
vt 0.686051 0.752346
vt 0.798373 0.881284
vt 0.790049 0.877488
vt 0.787572 0.883372
vt 0.155259 0.512778
vt 0.150582 0.519710
vt 0.159449 0.524080
vt 0.645546 0.910437
vt 0.636765 0.909065
vt 0.632292 0.917938
vt 0.479959 0.876613
vt 0.471276 0.872969
vt 0.466741 0.880767
vt 0.708926 0.443661
vt 0.719731 0.444556
vt 0.722461 0.430644
vt 0.555414 0.378238
vt 0.566514 0.388870
vt 0.562590 0.378467
vt 0.244581 0.874932
vt 0.231591 0.883544
vt 0.245024 0.885092
vt 0.749096 0.458949
vt 0.740703 0.444991
vt 0.738812 0.458870
vt 0.673214 0.367436
vt 0.661196 0.367156
vt 0.660930 0.374768
vt 0.672967 0.357241
vt 0.671721 0.341911
vt 0.659506 0.341643
vt 0.620357 0.264289
vt 0.618529 0.252344
vt 0.609553 0.256732
vt 0.424975 0.347247
vt 0.413533 0.354843
vt 0.421008 0.360127
vt 0.204120 0.868840
vt 0.217903 0.881487
vt 0.217655 0.871349
vt 0.665556 0.864258
vt 0.663154 0.852758
vt 0.656296 0.854846
vt 0.416971 0.855836
vt 0.422563 0.846689
vt 0.414808 0.842021
vt 0.403323 0.860378
vt 0.401122 0.846597
vt 0.395329 0.855646
vt 0.666311 0.273611
vt 0.658139 0.264705
vt 0.657012 0.276268
vt 0.370596 0.357989
vt 0.388300 0.354105
vt 0.381448 0.350225
vt 0.100872 0.768328
vt 0.109052 0.773027
vt 0.114696 0.765188
vt 0.309402 0.767065
vt 0.320129 0.764000
vt 0.313282 0.757545
vt 0.764516 0.352759
vt 0.775718 0.343664
vt 0.764588 0.338844
vt 0.468719 0.405980
vt 0.461806 0.414359
vt 0.471955 0.419922
vt 0.845772 0.534637
vt 0.846314 0.545375
vt 0.853485 0.544836
vt 0.207836 0.769518
vt 0.205789 0.779902
vt 0.214015 0.784039
vt 0.712908 0.941096
vt 0.721818 0.942425
vt 0.722468 0.934071
vt 0.109733 0.895324
vt 0.108665 0.905269
vt 0.119005 0.909761
vt 0.393791 0.748981
vt 0.400250 0.741751
vt 0.391819 0.734933
vt 0.500911 0.436112
vt 0.495980 0.423890
vt 0.491489 0.430971
vt 0.110562 0.843807
vt 0.100274 0.840078
vt 0.097043 0.848880
vt 0.089670 0.836428
vt 0.644509 0.757868
vt 0.639935 0.772666
vt 0.649110 0.768933
vt 0.585021 0.740543
vt 0.583164 0.754246
vt 0.591753 0.748688
vt 0.615445 0.746322
vt 0.621590 0.756008
vt 0.630151 0.751489
vt 0.570295 0.580013
vt 0.565969 0.572151
vt 0.560880 0.579639
vt 0.525859 0.673259
vt 0.525322 0.688587
vt 0.534062 0.679762
vt 0.425854 0.711690
vt 0.417821 0.705241
vt 0.412456 0.712944
vt 0.408201 0.500931
vt 0.415231 0.514164
vt 0.419979 0.504828
vt 0.410031 0.553881
vt 0.402252 0.542089
vt 0.398445 0.550707
vt 0.425512 0.548679
vt 0.441209 0.543663
vt 0.429679 0.539921
vt 0.489004 0.525022
vt 0.493815 0.515904
vt 0.481979 0.512464
vt 0.455169 0.515730
vt 0.450265 0.524807
vt 0.461509 0.528029
vt 0.406293 0.533163
vt 0.394670 0.529628
vt 0.390682 0.538649
vt 0.413633 0.727181
vt 0.405869 0.720523
vt 0.398672 0.727661
vt 0.382997 0.440725
vt 0.376668 0.451250
vt 0.388376 0.456914
vt 0.732956 0.197891
vt 0.720160 0.195336
vt 0.720332 0.203089
vt 0.783616 0.263554
vt 0.773357 0.267247
vt 0.781575 0.273645
vt 0.763190 0.261487
vt 0.764118 0.252999
vt 0.752344 0.249244
vt 0.739051 0.254423
vt 0.751633 0.257589
vt 0.320467 0.430973
vt 0.329231 0.437046
vt 0.336682 0.426823
vt 0.196909 0.371006
vt 0.200170 0.381685
vt 0.210387 0.382236
vt 0.327311 0.659343
vt 0.330530 0.669788
vt 0.341274 0.664207
vt 0.777339 0.322517
vt 0.766434 0.315714
vt 0.765233 0.326077
vt 0.334970 0.777055
vt 0.348821 0.775414
vt 0.340861 0.768743
vt 0.852968 0.851613
s 1
usemtl base_material
f 12/1/1 13/2/2 11/3/3
f 8/4/4 16/5/5 17/6/6
f 14/7/7 15/8/8 18/9/9
f 13/10/2 12/11/1 19/12/10
f 13/13/2 19/14/10 14/15/11
f 14/16/7 20/17/12 15/18/8
f 15/19/8 21/20/13 16/21/5
f 16/21/5 21/20/13 17/22/6
f 5/23/14 8/24/4 23/25/15
f 8/26/4 18/27/16 16/28/5
f 16/28/5 18/27/16 10/29/17
f 10/30/17 18/31/9 15/32/8
f 10/30/17 15/32/8 16/33/5
f 10/34/18 18/35/19 14/36/20
f 14/37/11 10/38/21 24/39/22
f 14/40/11 24/41/22 11/42/3
f 11/42/3 13/43/2 14/44/11
f 10/45/21 11/46/3 24/47/22
f 10/48/21 8/49/4 5/50/14
f 19/51/10 20/52/23 14/53/11
f 19/51/10 6/54/24 20/55/23
f 6/56/25 20/17/26 14/57/27
f 6/58/24 15/18/8 20/17/12
f 15/59/8 6/60/24 21/61/13
f 22/62/28 8/63/4 17/64/6
f 8/65/4 22/66/28 23/67/15
f 5/68/14 23/69/15 9/70/29
f 11/71/3 25/72/30 12/73/1
f 12/74/1 3/75/31 19/76/10
f 23/77/15 26/78/32 9/79/29
f 10/80/21 5/81/14 9/82/29
f 11/83/3 10/84/21 27/85/33
f 25/86/30 3/87/31 12/88/1
f 3/89/31 2/90/34 19/91/10
f 17/92/6 21/93/13 28/94/35
f 26/95/32 1/96/36 9/97/29
f 27/98/33 25/99/30 11/100/3
f 6/101/24 28/102/35 21/103/13
f 28/104/35 22/105/28 17/106/6
f 28/107/35 29/108/37 22/109/28
f 22/110/28 30/111/38 23/112/15
f 23/113/15 31/114/39 26/115/32
f 32/116/40 25/117/30 27/118/33
f 25/119/30 33/120/41 3/121/31
f 19/122/10 2/123/34 34/124/42
f 19/125/10 34/126/42 6/127/24
f 29/128/37 30/129/38 22/130/28
f 30/131/38 31/132/39 23/133/15
f 1/134/36 35/135/43 9/136/29
f 6/137/24 36/138/44 28/139/35
f 28/140/35 36/141/44 29/142/37
f 26/143/32 31/144/39 37/145/45
f 9/146/29 35/147/43 32/148/40
f 9/149/29 32/150/40 27/151/33
f 27/152/33 10/153/21 9/154/29
f 32/155/40 33/156/41 25/157/30
f 34/158/42 2/159/34 36/160/44
f 1/161/36 26/162/32 37/163/45
f 32/164/40 35/165/43 33/166/41
f 1/167/36 33/166/41 35/165/43
f 41/168/46 3/169/31 33/170/41
f 40/171/47 2/172/34 3/173/31
f 40/174/47 3/175/31 41/176/46
f 33/177/41 1/178/36 41/179/46
f 7/180/48 2/181/34 40/182/47
f 2/183/34 7/184/48 38/185/49
f 39/186/50 42/187/51 37/188/45
f 40/189/47 42/190/51 7/191/48
f 40/192/47 41/193/46 42/194/51
f 41/195/46 1/196/36 37/197/45
f 37/198/45 42/199/51 41/200/46
f 42/201/51 39/202/50 7/203/48
f 2/204/34 38/205/49 36/206/44
f 31/207/39 39/208/50 37/209/45
f 7/210/52 39/211/53 30/212/54
f 7/213/48 43/214/55 38/215/49
f 43/216/55 7/217/48 39/218/56
f 39/218/56 30/219/38 43/220/55
f 30/221/38 39/222/50 31/223/39
f 43/224/55 30/225/38 29/226/37
f 43/227/55 36/228/44 38/229/49
f 36/230/44 43/231/55 29/232/37
f 6/233/24 34/234/42 36/235/44
f 10/236/21 18/27/16 8/49/4
l 5 4
