# Blender 4.4.3
# www.blender.org
mtllib 0.12.mtl
o mesh_base_material_0
v -0.302843 -0.042586 0.216798
v -0.084132 -0.403854 0.001288
v 0.019591 0.360002 0.051249
v 0.288252 -0.256870 -0.205546
v 0.053369 0.112842 -0.220125
v 0.223886 0.027911 0.267331
v 0.147712 -0.279669 0.364230
v 0.465684 -0.111290 -0.002306
v -0.144968 -0.159772 -0.422301
v -0.387370 -0.017897 -0.233727
v -0.147745 -0.306807 0.395918
v -0.390486 -0.255364 -0.265153
vn 0.3791 -0.4413 0.8133
vn 0.6121 -0.4990 -0.6134
vn 0.6940 -0.6434 0.3233
vn 0.0960 -0.8459 0.5247
vn 0.0911 -0.8465 0.5246
vn 0.0987 -0.8494 0.5185
vn 0.5873 0.7066 -0.3947
vn 0.2495 0.7549 -0.6065
vn 0.4710 0.5400 0.6975
vn -0.1731 -0.9847 -0.0221
vn 0.0297 0.9969 0.0723
vn -0.7837 0.2485 0.5693
vn -0.0379 -0.1351 -0.9901
vn -0.7565 0.5819 -0.2984
vn -0.4161 -0.3806 0.8259
vn -0.7641 -0.5262 -0.3732
vt 0.123798 0.232271
vt 0.134187 0.217535
vt 0.123217 0.217753
vt 0.078328 0.173043
vt 0.067806 0.173838
vt 0.068489 0.189297
vt 0.021922 0.113252
vt 0.012474 0.116509
vt 0.013414 0.128393
vt 0.029868 0.097538
vt 0.020126 0.100622
vt 0.091111 0.233185
vt 0.101901 0.233021
vt 0.101459 0.218340
vt 0.472081 0.960704
vt 0.465426 0.949779
vt 0.461906 0.960237
vt 0.704397 0.751782
vt 0.701941 0.739766
vt 0.696979 0.744397
vt 0.174918 0.715697
vt 0.173273 0.726876
vt 0.180471 0.722220
vt 0.691737 0.412327
vt 0.690904 0.396359
vt 0.678728 0.397029
vt 0.483482 0.324626
vt 0.473556 0.331410
vt 0.480886 0.336149
vt 0.767909 0.893333
vt 0.765354 0.901588
vt 0.773186 0.901761
vt 0.665556 0.864258
vt 0.663154 0.852758
vt 0.656296 0.854846
vt 0.658492 0.866066
vt 0.649001 0.856711
vt 0.648201 0.254616
vt 0.637802 0.245079
vt 0.638748 0.257545
vt 0.653809 0.843802
vt 0.178395 0.821389
vt 0.179274 0.811013
vt 0.169833 0.807095
vt 0.410031 0.553881
vt 0.413907 0.545669
vt 0.402252 0.542089
vt 0.406293 0.533163
vt 0.398883 0.519897
vt 0.394670 0.529628
vt 0.783616 0.263554
vt 0.793491 0.259072
vt 0.785349 0.253380
vt 0.343284 0.689031
vt 0.335981 0.679620
vt 0.326785 0.685833
vt 0.715047 0.240650
vt 0.729454 0.230748
vt 0.717305 0.227593
s 1
usemtl base_material
f 7/1/1 4/2/2 8/3/3
f 4/4/4 8/5/5 6/6/6
f 8/7/7 5/8/8 6/9/9
f 8/7/7 4/10/2 5/11/8
f 6/12/9 7/13/1 8/14/3
f 7/15/1 2/16/10 4/17/2
f 3/18/11 5/19/8 1/20/12
f 3/21/11 1/22/12 6/23/9
f 4/24/2 9/25/13 5/26/8
f 5/27/8 10/28/14 1/29/12
f 3/30/11 6/31/9 5/32/8
f 7/33/1 1/34/12 11/35/15
f 7/36/1 11/35/15 2/37/10
f 9/38/13 10/39/14 5/40/8
f 1/41/12 2/37/10 11/35/15
f 7/42/1 6/43/9 1/44/12
f 2/45/10 1/46/12 12/47/16
f 1/48/12 10/49/14 12/50/16
f 9/51/13 2/52/10 12/53/16
f 2/54/10 9/55/13 4/56/2
f 9/57/13 12/58/16 10/59/14
