# Blender 4.4.3
# www.blender.org
mtllib 0.10.mtl
o mesh_base_material_0
v -0.266409 -0.038042 0.198886
v -0.029299 -0.385289 -0.031209
v 0.046237 0.334469 0.039852
v 0.265028 -0.105316 0.275143
v 0.338517 -0.110599 -0.206509
v -0.055510 0.006062 -0.367958
v -0.357780 -0.062781 -0.294413
v -0.117940 -0.232546 -0.447883
vn 0.0287 0.9934 0.1110
vn 0.8562 -0.1553 -0.4927
vn 0.1447 0.5329 -0.8337
vn -0.0152 -0.9962 0.0860
vn 0.6341 -0.1514 0.7583
vn -0.7790 0.0553 0.6246
vn -0.9249 0.2482 -0.2881
vn 0.1945 -0.3617 -0.9118
vt 0.906781 0.761005
vt 0.916398 0.758566
vt 0.913524 0.748321
vt 0.367257 0.944791
vt 0.352581 0.947919
vt 0.362457 0.953805
vt 0.738353 0.671434
vt 0.728746 0.684572
vt 0.737310 0.683797
vt 0.733549 0.648673
vt 0.727497 0.638547
vt 0.723941 0.649300
vt 0.130074 0.968749
vt 0.141402 0.979285
vt 0.141739 0.971501
vt 0.701031 0.917344
vt 0.705924 0.930325
vt 0.708366 0.920734
vt 0.774688 0.368119
vt 0.764516 0.352759
vt 0.764825 0.365763
vt 0.235139 0.382573
vt 0.226373 0.393975
vt 0.240082 0.392724
vt 0.367021 0.496993
vt 0.354670 0.491627
vt 0.350192 0.501297
vt 0.196909 0.371006
vt 0.210387 0.382236
vt 0.207568 0.371126
vt 0.772206 0.432217
vt 0.779604 0.446738
vt 0.781527 0.434278
vt 0.883530 0.911385
vt 0.892574 0.916249
vt 0.898899 0.908475
s 1
usemtl base_material
f 3/1/1 5/2/2 6/3/3
f 2/4/4 5/5/2 4/6/5
f 6/7/3 1/8/6 3/9/1
f 6/10/3 7/11/7 1/12/6
f 1/13/6 2/14/4 4/15/5
f 1/16/6 4/17/5 3/18/1
f 2/19/4 8/20/8 6/21/3
f 8/22/8 7/23/7 6/24/3
f 1/25/6 7/26/7 2/27/4
f 2/28/4 7/29/7 8/30/8
f 6/31/3 5/32/2 2/33/4
f 3/34/1 4/35/5 5/36/2
