# Blender 4.4.3
# www.blender.org
mtllib 0.13.mtl
o mesh_base_material_0
v -0.169361 -0.027561 0.137034
v 0.122155 0.297535 -0.010640
v 0.166802 -0.250783 -0.112831
v 0.206403 -0.156953 0.406107
v -0.335947 -0.180885 -0.331141
vn 0.3913 -0.3151 0.8646
vn -0.9867 -0.0134 0.1623
vn 0.3805 -0.5442 -0.7477
vn 0.2414 0.9229 -0.3001
vn 0.2886 0.8749 -0.3890
vn 0.2983 0.8759 -0.3792
vn 0.2997 0.8658 -0.4007
vt 0.589309 0.959665
vt 0.588571 0.948565
vt 0.582656 0.954818
vt 0.121730 0.511665
vt 0.129714 0.511833
vt 0.133954 0.504720
vt 0.125239 0.504332
vt 0.115596 0.504259
vt 0.829130 0.633157
vt 0.834438 0.626430
vt 0.821972 0.623148
vt 0.630160 0.272861
vt 0.638748 0.257545
vt 0.629401 0.260750
s 1
usemtl base_material
f 4/1/1 1/2/2 3/3/3
f 2/4/4 1/5/2 4/6/1
f 2/4/4 4/7/1 3/8/3
f 2/9/4 3/10/3 1/11/2
f 3/12/5 5/13/6 1/14/7
