# Blender 4.4.3
# www.blender.org
mtllib 0.023.mtl
o Result.001
v 0.002143 -0.015804 0.004116
v 0.006243 0.019560 -0.000116
v 0.011420 -0.003856 -0.000960
v 0.027538 -0.019886 -0.002335
v 0.050294 -0.023199 0.000873
v 0.040449 0.000675 -0.000018
v 0.064854 -0.001545 0.000030
v 0.078050 -0.004283 -0.001138
v 0.074764 0.011903 -0.001035
v -0.027557 -0.018044 0.008382
v -0.052365 -0.004012 0.000656
v -0.027802 -0.003888 -0.002414
v -0.021062 -0.021518 -0.012754
v -0.031977 0.012059 -0.003218
v -0.011599 0.012716 -0.002132
vn 0.0108 -0.1287 0.9916
vn 0.0005 -0.0749 0.9972
vn -0.0831 -0.1420 0.9864
vn -0.1360 -0.1191 -0.9835
vn -0.1327 0.2120 -0.9682
vn 0.1083 -0.0608 -0.9923
vn 0.1637 -0.0032 0.9865
vn 0.0825 0.0515 0.9953
vn 0.0694 -0.0166 0.9975
vn 0.6266 -0.1083 0.7718
vn -0.7954 -0.4711 0.3813
vn 0.5641 -0.6055 0.5613
vn -0.0296 0.5830 0.8119
vn -0.3090 -0.9456 -0.1014
vn -0.2173 -0.7812 0.5852
vn 0.3150 0.3105 -0.8969
vn 0.2236 0.3594 -0.9060
vn 0.0984 0.2952 -0.9504
vn -0.0697 -0.5181 0.8525
vn -0.0238 -0.5342 0.8450
vn -0.0072 -0.5012 0.8653
vn -0.0558 0.3415 -0.9382
vn -0.3323 0.3936 -0.8572
vn 0.0733 0.2630 -0.9620
vn 0.1864 0.2175 -0.9581
vn 0.0586 0.0071 -0.9983
vn 0.0829 -0.0351 -0.9959
vn 0.0175 -0.0378 -0.9991
vn 0.0930 0.0010 -0.9957
vn 0.1296 0.0431 -0.9906
vn 0.1272 0.0677 -0.9896
vn 0.0958 0.0605 0.9936
vn 0.1660 0.3277 0.9301
vn 0.1419 0.3994 0.9058
vn 0.2211 0.0636 -0.9732
vn 0.0707 0.6072 0.7914
vn -0.0563 -0.0005 0.9984
vn -0.0803 0.0485 0.9956
vn 0.0657 0.0042 0.9978
vt 0.280393 0.152515
vt 0.279343 0.142940
vt 0.284559 0.144023
vt 0.509461 0.407542
vt 0.506436 0.403302
vt 0.510541 0.402941
vt 0.660980 0.372593
vt 0.659411 0.367191
vt 0.663080 0.368986
vt 0.240627 0.382188
vt 0.235239 0.383012
vt 0.236424 0.376578
vt 0.251559 0.387932
vt 0.256901 0.381096
vt 0.255761 0.389379
vt 0.697274 0.293725
vt 0.693848 0.290982
vt 0.697236 0.287506
vt 0.845178 0.231673
vt 0.846046 0.227875
vt 0.853858 0.231069
vt 0.097069 0.510233
vt 0.098818 0.516831
vt 0.092454 0.515326
vt 0.065833 0.520664
vt 0.061935 0.526217
vt 0.061855 0.517836
vt 0.063556 0.506075
vt 0.069291 0.510944
vt 0.064183 0.513293
vt 0.196092 0.421023
vt 0.190167 0.416330
vt 0.195404 0.410775
vt 0.194332 0.919252
vt 0.189652 0.914813
vt 0.199071 0.913052
vt 0.568554 0.058739
vt 0.562450 0.062383
vt 0.561879 0.058061
vt 0.479272 0.326645
vt 0.482906 0.326223
vt 0.482528 0.331335
vt 0.691149 0.277002
vt 0.695836 0.281968
vt 0.689622 0.282151
vt 0.704080 0.649056
vt 0.704233 0.642011
vt 0.710898 0.644484
vt 0.327613 0.220383
vt 0.322243 0.215576
vt 0.326976 0.210817
vt 0.416029 0.127513
vt 0.413984 0.136402
vt 0.409894 0.128773
s 1
usemtl Material.005
f 3/1/1 4/2/2 6/3/3
f 7/4/4 5/5/5 6/6/6
f 7/7/7 8/8/8 9/9/9
f 3/10/10 10/11/11 1/12/12
f 10/13/11 3/14/10 12/15/13
f 12/16/14 13/17/15 1/18/12
f 13/19/16 3/20/17 4/21/18
f 3/22/19 12/23/20 13/24/21
f 13/25/22 12/26/23 15/27/24
f 3/28/25 13/29/22 15/30/24
f 12/31/26 14/32/27 15/33/28
f 3/34/29 15/35/30 2/36/31
f 14/37/32 11/38/33 12/39/34
f 4/40/35 6/41/6 5/42/5
f 3/43/10 1/44/12 13/45/15
f 1/46/12 10/47/11 12/48/14
f 11/49/33 10/50/36 12/51/34
f 15/52/37 12/53/38 3/54/39
