# Blender 4.4.3
# www.blender.org
mtllib 0.011.mtl
o Result.001
v 0.002144 -0.015981 0.001552
v 0.006867 0.015851 -0.000107
v 0.019793 -0.001331 -0.000509
v 0.041514 -0.019702 0.000256
v 0.058781 -0.017189 0.000882
v 0.054840 0.001690 0.000027
v 0.075007 -0.000450 -0.000750
v -0.032542 -0.013995 0.002018
v -0.053151 -0.001720 -0.000358
v -0.023460 0.008557 -0.002377
v -0.024091 -0.022158 -0.014786
vn -0.1264 -0.0819 -0.9886
vn -0.0227 -0.0752 -0.9969
vn 0.1425 0.0037 -0.9898
vn -0.0859 0.2659 -0.9602
vn 0.1429 -0.1458 -0.9790
vn -0.0653 0.0243 -0.9976
vn -0.0662 -0.0771 -0.9948
vn -0.9105 -0.4038 0.0895
vn 0.9806 0.1938 -0.0312
vn -0.5708 0.8078 -0.1472
vn 0.4583 -0.8816 0.1132
vn -0.1849 0.0378 0.9820
vn 0.0079 0.0616 0.9981
vn -0.0171 -0.0341 0.9993
vn 0.3117 0.2708 -0.9108
vn -0.0148 -0.2261 -0.9740
vn 0.4287 0.4519 -0.7823
vn 0.4476 0.8872 -0.1120
vt 0.542768 0.054265
vt 0.543658 0.046216
vt 0.545520 0.049297
vt 0.932547 0.458166
vt 0.929534 0.459167
vt 0.928007 0.457163
vt 0.116828 0.098494
vt 0.115753 0.092151
vt 0.121380 0.097607
vt 0.369895 0.146538
vt 0.370195 0.138840
vt 0.374308 0.144172
vt 0.609241 0.597043
vt 0.606024 0.590720
vt 0.611896 0.591373
vt 0.298451 0.103527
vt 0.291412 0.101985
vt 0.296980 0.099858
vt 0.333015 0.151833
vt 0.332715 0.156704
vt 0.325416 0.150203
vt 0.073568 0.602117
vt 0.076084 0.598933
vt 0.080037 0.601445
vt 0.783871 0.008031
vt 0.779842 0.007154
vt 0.784544 0.001743
vt 0.100437 0.522075
vt 0.098818 0.516831
vt 0.105377 0.516237
s 1
usemtl Material.005
f 4/1/1 1/2/2 3/3/3
f 4/4/4 6/5/5 5/6/6
f 6/7/5 7/8/7 5/9/6
f 8/10/8 3/11/9 10/12/10
f 8/13/8 10/14/10 1/15/11
f 3/16/12 4/17/13 6/18/14
f 3/19/9 8/20/8 1/21/11
f 9/22/15 10/23/16 8/24/17
f 11/25/18 9/26/15 8/27/17
f 10/28/10 3/29/9 1/30/11
l 3 2
