# Blender 4.4.3
# www.blender.org
mtllib 0.012.mtl
o Result.001
v 0.001340 -0.013662 0.001015
v 0.008860 0.014322 -0.001024
v 0.048965 -0.012118 0.000478
v 0.071340 0.000697 -0.000575
v 0.086041 -0.014782 -0.001725
v -0.046758 -0.003713 -0.000791
vn -0.0289 -0.0690 -0.9972
vn 0.0410 -0.0677 -0.9969
vn -0.0102 -0.0827 -0.9965
vn -0.0290 0.0039 0.9996
vn -0.0401 0.0414 0.9983
vn -0.0072 0.0160 0.9998
vt 0.835232 0.303602
vt 0.844083 0.302002
vt 0.835714 0.307725
vt 0.411658 0.157073
vt 0.417063 0.158016
vt 0.413832 0.166585
s 1
usemtl Material.005
f 3/1/1 1/2/2 2/3/3
f 1/4/4 2/5/5 6/6/6
l 3 4
l 4 5
