# Blender 4.4.3
# www.blender.org
mtllib 0.006.mtl
o Result.001
v 0.002419 -0.022705 0.013463
v 0.007095 -0.019245 0.010873
v 0.001769 -0.016689 0.008063
v 0.009145 0.031091 0.000022
v 0.009817 -0.015543 0.007375
v 0.006231 -0.013592 0.003373
v 0.008968 -0.008457 0.004160
v 0.006645 -0.000248 0.007324
v 0.005953 -0.014572 -0.002990
v 0.014388 -0.014916 -0.000057
v 0.015831 -0.004886 0.004592
v 0.013123 0.004401 0.006963
v 0.019285 -0.019493 -0.001419
v 0.020604 -0.014145 0.000125
v 0.025257 -0.024304 -0.001814
v 0.020019 -0.000302 0.005898
v 0.020333 -0.008704 0.001612
v 0.032789 -0.026946 -0.001300
v 0.010215 0.009361 0.005374
v 0.007601 -0.017681 -0.007286
v 0.026876 -0.017607 -0.000494
v 0.024354 -0.004844 0.004389
v 0.003778 -0.024399 -0.011048
v 0.019712 0.007064 0.005397
v 0.031580 -0.021287 -0.000467
v 0.026087 -0.011556 0.000055
v 0.008603 -0.008711 -0.004827
v 0.026537 0.002178 0.005738
v 0.009472 -0.021240 -0.010116
v 0.037449 -0.022734 -0.000233
v 0.016223 -0.008883 -0.003628
v 0.032638 -0.015480 0.000141
v 0.030660 -0.006656 0.003604
v 0.043166 -0.029510 -0.000659
v 0.049168 -0.032316 -0.000406
v 0.033554 -0.000776 0.005039
v 0.025290 0.008149 0.003549
v 0.044019 -0.022715 0.000470
v 0.016750 0.011708 0.000039
v 0.049767 -0.026827 0.000369
v 0.039373 -0.016103 0.000667
v 0.021249 -0.007019 -0.003773
v 0.011944 -0.003579 -0.006104
v 0.034396 -0.010009 0.000079
v 0.055517 -0.031226 0.000461
v 0.032120 0.006558 0.003882
v 0.038670 -0.006705 0.001330
v 0.046386 -0.017770 0.001321
v 0.060049 -0.032718 0.000264
v 0.052201 -0.022595 0.001742
v 0.028360 -0.006465 -0.003616
v 0.041864 -0.011050 0.000861
v 0.019372 -0.002288 -0.006051
v 0.039846 0.000714 0.004593
v 0.057481 -0.025533 0.001816
v 0.022246 0.011097 -0.002021
v 0.012136 0.015335 -0.000697
v 0.010102 0.002150 -0.007660
v 0.044870 -0.005558 0.001708
v 0.051754 -0.014325 0.001655
v 0.062153 -0.028479 0.001311
v 0.026296 -0.002468 -0.005408
v 0.038222 0.007286 0.002441
v 0.047386 -0.010159 0.001647
v 0.030979 0.009124 -0.001516
v 0.034405 -0.004026 -0.004010
v 0.018864 0.003999 -0.007136
v 0.045531 0.003528 0.003465
v 0.013994 0.009285 -0.005856
v 0.003123 0.033341 0.000219
v 0.019721 0.019373 -0.000416
v 0.052507 -0.007608 0.001358
v 0.014672 0.023154 -0.000431
v 0.041726 -0.003437 -0.003078
v 0.050163 -0.003515 0.001154
v 0.025237 0.003866 -0.006318
v 0.031737 0.001947 -0.005511
v 0.022233 0.007950 -0.005604
v 0.027501 0.007500 -0.004722
v 0.015459 0.027041 -0.000246
v 0.050097 0.004650 0.002328
v 0.043871 0.007647 -0.001026
v 0.037150 0.007502 -0.002956
v 0.056897 -0.004254 0.000519
v 0.037926 0.002341 -0.004664
v 0.032564 0.005391 -0.004984
v 0.047148 -0.001123 -0.003104
v 0.056573 0.002282 -0.000069
v 0.062572 -0.006048 0.000549
v 0.044934 0.003829 -0.003628
v 0.052962 0.006622 -0.001349
v 0.050747 0.001033 -0.002841
v 0.068349 -0.008648 0.000184
v 0.063611 0.000019 0.000310
v 0.047405 0.005861 -0.002888
v 0.061822 0.006479 -0.000736
v 0.074426 -0.010950 -0.000149
v 0.070336 -0.001999 0.000071
v 0.069296 0.003194 -0.000592
v 0.081261 -0.012873 -0.000951
v 0.076115 -0.005127 -0.001080
v 0.073296 0.002820 -0.000812
v 0.067341 0.009947 -0.001082
v 0.084904 -0.013688 -0.001543
v 0.081315 -0.008961 -0.001400
v 0.075052 0.007214 -0.001046
v 0.074378 0.013428 -0.001059
v 0.079892 0.009109 -0.000993
v 0.081334 0.013843 -0.001058
v 0.084400 0.015623 -0.001243
v -0.021659 -0.025586 0.018358
v -0.026087 -0.022662 0.015719
v -0.030692 -0.019160 0.013043
v -0.025050 -0.023656 0.010168
v -0.034541 -0.015898 0.009680
v -0.028271 -0.020411 0.006861
v -0.052681 -0.007774 0.006060
v -0.037700 -0.012551 0.006846
v -0.061811 -0.003269 0.003722
v -0.056817 -0.009962 0.000342
v -0.046101 -0.012333 0.004378
v -0.025414 -0.021288 0.004118
v -0.045593 -0.003454 0.007861
v -0.053658 -0.000812 0.005616
v -0.031496 -0.015838 0.003572
v -0.039516 -0.005508 0.008139
v -0.050673 -0.012654 -0.001256
v -0.066262 -0.002502 -0.000566
v -0.061042 -0.007347 -0.002777
v -0.049120 0.002704 0.007086
v -0.039494 -0.015792 0.000659
v -0.058473 0.003505 0.003898
v -0.003885 -0.018975 0.010093
v -0.032117 -0.007602 0.007526
v -0.040642 0.000481 0.008265
v -0.044066 0.005877 0.006967
v -0.026664 -0.012034 0.005466
v -0.033085 0.000108 0.008472
v -0.027366 -0.017611 0.000725
v -0.044554 -0.013616 -0.004178
v -0.052003 0.007274 0.003153
v -0.062777 0.002194 -0.002781
v -0.025317 -0.004748 0.008175
v -0.054128 -0.009150 -0.005649
v -0.033282 -0.015831 -0.003288
v -0.020754 -0.013018 0.005086
v -0.036509 0.007346 0.007709
v -0.005431 -0.015392 0.005851
v -0.063028 -0.002635 -0.005358
v -0.018950 -0.005908 0.008015
v -0.029102 0.004447 0.008977
v -0.056574 0.006154 -0.001939
v -0.021058 0.000601 0.009257
v -0.057198 -0.004221 -0.006111
v -0.015467 -0.014778 0.003649
v -0.012807 -0.003784 0.008321
v -0.044708 0.010125 0.003245
v -0.020730 -0.016035 -0.002175
v -0.023688 0.007153 0.009063
v -0.032086 0.010490 0.006626
v -0.028209 -0.018040 -0.005483
v -0.009328 -0.014575 0.002898
v -0.048463 -0.008320 -0.007372
v -0.016455 0.005354 0.009383
v -0.007527 -0.007912 0.006716
v -0.038328 -0.012901 -0.006904
v -0.058521 0.001330 -0.006082
v -0.038268 0.012250 0.002995
v -0.001848 -0.013923 0.003701
v -0.010114 0.002234 0.009147
v -0.024159 -0.021718 -0.007804
v -0.004745 -0.002359 0.008154
v -0.049659 0.008612 -0.002739
v -0.050911 -0.004317 -0.007216
v -0.002305 -0.007885 0.006113
v -0.052512 0.000735 -0.006746
v -0.019827 0.011221 0.007155
v -0.026869 0.012459 0.005504
v -0.032949 -0.011692 -0.006995
v -0.012215 -0.015289 -0.003614
v -0.011382 0.008973 0.008294
v -0.053781 0.004685 -0.005873
v -0.005028 0.005131 0.008886
v -0.022896 -0.011428 -0.005785
v -0.005495 -0.015475 -0.003054
v -0.032020 -0.017023 -0.011187
v -0.041762 -0.006121 -0.007543
v 0.000109 -0.002427 0.007643
v 0.000645 0.003996 0.008514
v -0.041532 0.011570 -0.002448
v -0.032329 0.013972 0.001013
v -0.022498 -0.023046 -0.012692
v -0.045032 -0.000428 -0.007935
v -0.027371 -0.020134 -0.013950
v -0.048196 0.004062 -0.007214
v -0.035001 -0.004112 -0.007537
v -0.045038 0.007370 -0.005821
v -0.016786 -0.010336 -0.006223
v -0.026502 -0.006519 -0.007124
v -0.000958 -0.014889 -0.004219
v -0.006308 0.011808 0.006075
v -0.022776 0.014826 0.001633
v 0.003734 0.006370 0.007815
v 0.000214 0.010159 0.006553
v -0.040485 0.001878 -0.007789
v -0.014003 0.014493 0.003491
v -0.005742 -0.015930 -0.005997
v -0.041496 0.005771 -0.007252
v -0.039012 0.009572 -0.005661
v -0.030134 -0.000725 -0.007739
v -0.010909 -0.009332 -0.006234
v -0.034402 0.011815 -0.004355
v -0.020150 -0.024598 -0.017010
v -0.028047 0.014031 -0.001914
v -0.018916 -0.004767 -0.007444
v -0.000997 -0.020152 -0.008628
v -0.025607 -0.022091 -0.016534
v -0.033861 0.004957 -0.007876
v -0.000915 -0.023943 -0.010484
v -0.023533 0.000093 -0.007984
v -0.035265 0.008093 -0.007177
v 0.004281 0.011862 0.004150
v -0.002521 -0.009146 -0.005771
v -0.011988 -0.003825 -0.007430
v -0.001890 0.015116 0.001640
v -0.008164 0.016692 0.000580
v -0.018354 0.014299 -0.002198
v -0.027485 0.005728 -0.007972
v -0.005832 -0.004250 -0.007093
v -0.028703 0.010655 -0.006099
v -0.017284 0.001524 -0.008090
v 0.002657 -0.005589 -0.006334
v -0.021249 0.011324 -0.005843
v -0.020872 0.006923 -0.007873
v -0.026887 0.008732 -0.007409
v -0.000808 -0.002097 -0.007387
v -0.009227 0.001400 -0.007913
v -0.011849 0.012989 -0.004232
v 0.004185 0.015188 -0.000238
v -0.013897 0.006365 -0.007731
v -0.004001 0.018270 -0.000417
v -0.015676 0.009923 -0.006793
v 0.003942 -0.001097 -0.007477
v -0.002846 0.004209 -0.007860
v -0.009095 0.008597 -0.006869
v -0.004574 0.011731 -0.004988
v -0.003017 0.025240 0.000243
v -0.003226 0.008064 -0.007146
v 0.003772 0.021845 0.000210
v 0.001815 0.011004 -0.005419
v 0.003697 0.005852 -0.007786
v 0.006956 0.010499 -0.005637
v 0.007871 0.020830 0.000094
v 0.002877 0.008647 -0.007003
v 0.001012 0.028173 0.000187
v 0.008020 0.025536 0.000092
v 0.008468 0.007280 -0.007452
vn 0.0092 -0.6474 -0.7621
vn -0.0772 -0.7101 -0.6999
vn 0.0291 -0.8032 -0.5950
vn 0.0941 -0.9183 -0.3847
vn 0.3704 -0.9273 0.0542
vn 0.1006 -0.3882 0.9161
vn 0.1853 -0.3591 0.9147
vn 0.1083 -0.3885 0.9151
vn 0.0115 -0.3210 0.9470
vn 0.1057 -0.2301 0.9674
vn 0.0947 -0.1849 0.9782
vn -0.1207 -0.1600 0.9797
vn 0.0197 -0.2716 0.9622
vn 0.1813 0.0986 0.9785
vn 0.0435 0.4363 0.8988
vn -0.0646 -0.0345 0.9973
vn -0.1352 0.0091 0.9908
vn 0.0475 0.2834 -0.9578
vn 0.0570 0.2861 -0.9565
vn 0.1375 0.2956 -0.9454
vn 0.1744 -0.3994 -0.9000
vn 0.0177 -0.8388 -0.5442
vn -0.0167 -0.2665 0.9637
vn 0.1893 -0.3288 0.9252
vn 0.2049 -0.1104 0.9725
vn 0.0433 0.0334 0.9985
vn -0.0053 -0.3193 0.9476
vn 0.1474 0.1807 -0.9724
vn 0.1306 0.1524 -0.9797
vn 0.0888 0.1839 -0.9789
vn 0.0226 -0.1955 0.9805
vn -0.0591 -0.1435 0.9879
vn -0.1380 0.0148 0.9903
vn -0.6418 0.6499 -0.4071
vn 0.4272 0.4611 -0.7778
vn 0.0447 0.1607 -0.9860
vn -0.0666 -0.1455 0.9871
vn -0.2375 -0.1164 0.9644
vn -0.0732 -0.0644 0.9952
vn -0.1226 -0.0787 0.9893
vn 0.2733 -0.4975 -0.8233
vn 0.2852 -0.7264 -0.6253
vn 0.4312 -0.2169 -0.8758
vn -0.0311 0.0935 -0.9951
vn -0.1097 -0.0206 -0.9937
vn -0.0792 0.1187 -0.9898
vn 0.1222 -0.4139 0.9021
vn -0.0999 -0.4990 0.8608
vn 0.1318 -0.2918 0.9473
vn 0.1156 0.0953 -0.9887
vn -0.0281 0.0134 -0.9995
vn 0.0259 0.1292 -0.9913
vn -0.0034 -0.6704 -0.7420
vn -0.0916 -0.0510 0.9945
vn -0.1684 -0.1986 0.9655
vn 0.8645 0.4752 0.1642
vn 0.0952 0.0768 -0.9925
vn -0.1746 -0.0403 0.9838
vn -0.0746 -0.2057 0.9758
vn -0.2219 -0.1247 0.9671
vn -0.0759 -0.0567 0.9955
vn -0.1418 -0.1590 0.9770
vn -0.1046 -0.1109 0.9883
vn 0.1202 0.1322 -0.9839
vn -0.0791 -0.1453 0.9862
vn -0.0625 0.0709 0.9955
vn -0.0491 0.0560 0.9972
vn 0.2188 -0.4926 -0.8423
vn -0.1375 -0.5403 -0.8302
vn 0.1353 -0.5240 -0.8409
vn 0.1480 -0.2796 -0.9486
vn 0.1023 -0.3450 -0.9330
vn 0.0259 0.0702 0.9972
vn -0.0626 -0.3853 0.9206
vn 0.1180 -0.0277 -0.9926
vn 0.1403 0.2378 -0.9611
vn 0.0605 0.1691 -0.9837
vn -0.0430 -0.0312 -0.9986
vn 0.0814 0.1893 -0.9785
vn 0.1039 -0.0257 -0.9943
vn 0.0085 -0.1597 0.9871
vn -0.1018 -0.2384 0.9658
vn -0.0752 -0.2181 0.9730
vn 0.0761 -0.2013 0.9766
vn -0.2224 0.0719 0.9723
vn 0.4309 -0.0408 0.9015
vn -0.9851 -0.0622 0.1606
vn 0.1122 -0.3090 -0.9444
vn 0.1440 -0.4856 0.8623
vn 0.2526 -0.8989 0.3581
vn 0.1260 -0.1194 0.9848
vn -0.0428 -0.2235 0.9738
vn -0.0050 -0.0028 1.0000
vn 0.2659 0.6803 0.6830
vn 0.0914 0.6805 0.7270
vn 0.1295 0.9859 -0.1062
vn 0.0929 -0.0053 -0.9957
vn 0.1339 -0.0406 -0.9902
vn 0.0809 0.8195 0.5674
vn 0.0979 0.3344 0.9373
vn 0.1380 -0.4452 -0.8847
vn 0.1053 0.9812 -0.1618
vn 0.1892 0.5119 -0.8380
vn 0.1594 0.6790 -0.7166
vn -0.0064 0.1469 -0.9891
vn 0.5237 -0.2096 -0.8257
vn -0.0353 -0.9786 -0.2028
vn 0.0383 0.0150 -0.9992
vn 0.1170 -0.6700 -0.7331
vn 0.2544 -0.7727 -0.5816
vn 0.0549 0.5380 -0.8412
vn 0.0343 -0.0120 -0.9993
vn -0.0087 -0.0458 -0.9989
vn -0.0164 -0.0004 -0.9999
vn 0.1463 0.5993 -0.7870
vn 0.1575 0.1575 -0.9749
vn 0.1905 0.9803 -0.0526
vn 0.1675 0.4890 0.8561
vn 0.2440 -0.8538 0.4599
vn 0.0718 -0.0038 -0.9974
vn 0.1285 0.2280 0.9651
vn 0.0094 0.0669 0.9977
vn 0.1344 0.0581 0.9892
vn 0.2676 -0.0604 0.9616
vn 0.0730 0.4234 -0.9030
vn 0.1895 0.8422 -0.5048
vn 0.1023 0.0775 -0.9917
vn 0.0588 0.2545 -0.9653
vn 0.2320 -0.4070 -0.8834
vn 0.1668 -0.3568 -0.9192
vn 0.4153 -0.0105 -0.9096
vn 0.3376 -0.1175 -0.9339
vn -0.3832 0.7233 0.5744
vn -0.3908 0.6663 0.6351
vn -0.3704 0.6994 0.6113
vn 0.1885 0.0504 -0.9808
vn 0.7909 0.6093 -0.0568
vn -0.0083 -0.0718 -0.9974
vn -0.5199 0.8533 -0.0397
vn -0.0019 -0.1280 0.9918
vn 0.1686 0.1905 0.9671
vn 0.1754 0.0283 0.9841
vn 0.0424 0.1611 0.9860
vn -0.0215 0.2299 0.9730
vn -0.0467 0.1232 0.9913
vn 0.2730 -0.1086 0.9559
vn 0.0299 0.0395 0.9988
vn -0.0739 -0.1173 -0.9903
vn 0.0932 -0.1186 -0.9886
vn -0.2530 -0.1444 -0.9566
vn -0.2494 0.0581 -0.9667
vn -0.2335 0.0553 -0.9708
vn -0.3588 -0.0646 -0.9312
vn -0.2030 0.0136 0.9791
vn 0.0058 0.9976 0.0696
vn -0.1042 0.0323 0.9940
vn -0.0293 0.0101 -0.9995
vn 0.0372 0.0118 -0.9992
vn 0.0080 -0.0378 -0.9993
vn 0.0074 -0.1512 -0.9885
vn -0.5922 0.8057 -0.0058
vn -0.8973 -0.4394 0.0420
vn 0.0462 0.0261 0.9986
vn 0.3898 -0.5698 -0.7234
vn 0.9736 -0.1385 -0.1814
vn -0.2018 -0.1284 -0.9710
vn -0.0039 0.0540 -0.9985
vn 0.5769 0.8065 -0.1291
vn 0.5966 0.7978 0.0873
vn 0.6454 0.7612 0.0638
vn -0.4062 -0.3663 0.8372
vn -0.7168 -0.3334 0.6124
vn -0.4083 -0.8413 0.3543
vn -0.6470 -0.6679 -0.3679
vn -0.6388 -0.6912 -0.3380
vn -0.6023 -0.7156 -0.3538
vn -0.2873 -0.7284 0.6220
vn -0.6074 -0.0841 0.7899
vn 0.7115 0.6708 -0.2091
vn 0.5775 0.7685 0.2757
vn -0.2344 -0.9708 0.0512
vn -0.0429 -0.1604 0.9861
vn -0.2447 -0.2919 0.9246
vn 0.1222 0.1784 -0.9763
vn 0.1001 0.2246 -0.9693
vn 0.1458 0.1972 -0.9695
vn -0.1691 -0.6163 0.7692
vn -0.1888 -0.9687 0.1609
vn -0.6429 0.3604 0.6759
vn -0.1457 0.0550 0.9878
vn -0.1242 0.0693 0.9898
vn 0.2704 -0.5908 -0.7601
vn 0.6710 -0.2813 -0.6861
vn 0.4716 -0.5007 -0.7259
vn 0.1921 -0.5652 -0.8023
vn 0.0602 -0.5975 -0.7996
vn 0.1066 0.3200 -0.9414
vn 0.0212 0.5803 -0.8142
vn 0.5939 0.6738 0.4396
vn -0.2408 -0.7554 -0.6094
vn -0.0140 0.9998 0.0121
vn 0.0310 0.9995 0.0085
vn 0.0019 0.9999 -0.0159
vn 0.0098 -0.5998 0.8001
vn -0.0093 -0.2643 0.9644
vn 0.0599 -0.4801 0.8752
vn -0.1099 0.0638 0.9919
vn -0.0346 -0.0645 0.9973
vn -0.0246 -0.3011 0.9533
vn -0.1205 0.3333 0.9351
vn -0.3820 -0.8564 -0.3474
vn -0.5592 -0.8151 -0.1515
vn -0.1010 -0.4071 -0.9078
vn -0.0919 0.6697 0.7370
vn 0.0488 0.7821 0.6212
vn 0.0151 0.7966 0.6043
vn -0.0522 -0.8708 -0.4889
vn -0.5146 0.8355 -0.1927
vn -0.6015 0.7706 -0.2108
vn -0.3580 -0.2059 -0.9107
vn 0.0238 -0.2692 0.9628
vn 0.0596 -0.7788 0.6245
vn -0.0664 -0.9082 0.4132
vn 0.2001 -0.9599 -0.1965
vn 0.4383 -0.8985 -0.0229
vn -0.5201 0.8513 0.0688
vn -0.9387 -0.3448 0.0009
vn -0.0802 -0.3764 -0.9230
vn -0.1765 0.6340 0.7529
vn -0.2002 0.8904 0.4087
vn -0.2745 0.2106 -0.9382
vn -0.1101 0.8061 0.5814
vn -0.2476 -0.1869 -0.9507
vn -0.0097 -0.3605 0.9327
vn 0.0240 -0.0840 0.9962
vn 0.0383 -0.2120 0.9765
vn -0.0576 -0.6008 -0.7973
vn -0.0144 0.8987 0.4384
vn -0.1439 -0.9104 -0.3880
vn 0.0928 -0.3586 0.9289
vn 0.1208 -0.3496 0.9291
vn -0.0674 0.3053 0.9499
vn -0.1092 0.7461 0.6568
vn -0.3297 -0.1140 -0.9372
vn 0.1114 -0.6750 -0.7294
vn 0.5179 0.5679 0.6397
vn 0.5455 0.6081 0.5767
vn 0.5959 0.5670 0.5687
vn 0.0112 0.4185 0.9081
vn -0.0020 0.5954 0.8034
vn 0.0637 0.1574 0.9855
vn 0.1856 -0.9754 0.1191
vn 0.0346 -0.9801 0.1956
vn 0.0744 -0.8284 0.5552
vn 0.0682 0.1484 0.9866
vn 0.1810 -0.3235 -0.9288
vn 0.0686 -0.8260 -0.5594
vn -0.3415 0.8677 -0.3613
vn -0.4303 0.6490 -0.6274
vn 0.0923 -0.2781 0.9561
vn 0.0566 0.0607 0.9966
vn -0.0449 -0.0449 -0.9980
vn -0.0126 -0.0539 -0.9985
vn -0.0049 -0.6915 0.7223
vn 0.5170 0.7587 -0.3964
vn 0.6598 0.6672 -0.3456
vn 0.5630 0.8050 -0.1872
vn 0.0254 -0.1232 -0.9921
vn 0.1092 -0.0424 0.9931
vn -0.1981 0.7295 -0.6547
vn 0.3215 0.6510 -0.6877
vn 0.0912 -0.1972 0.9761
vn -0.1534 0.9727 0.1741
vn -0.1108 0.2704 -0.9563
vn -0.5964 -0.8002 0.0635
vn -0.0256 -0.3258 -0.9451
vn -0.0441 0.9815 0.1863
vn -0.1872 0.9667 0.1744
vn -0.0936 0.9596 0.2653
vn -0.0149 -0.0684 -0.9975
vn 0.0868 0.5874 0.8046
vn -0.0117 -0.0313 -0.9994
vn -0.0684 0.9799 0.1874
vn -0.0434 0.0415 -0.9982
vn 0.0054 -0.8318 -0.5551
vn 0.0251 -0.9913 0.1292
vn -0.2121 0.9334 -0.2895
vn -0.1570 0.8050 -0.5722
vn -0.1279 0.9296 -0.3455
vn -0.0439 -0.0579 -0.9974
vn -0.9087 -0.4173 0.0084
vn -0.4200 0.9072 0.0244
vn 0.9116 0.4100 -0.0301
vn -0.0501 0.0986 -0.9939
vn -0.0460 0.2483 -0.9676
vn 0.5350 0.8150 -0.2225
vn 0.5566 0.8283 -0.0650
vn 0.3969 0.9109 -0.1124
vn 0.0558 0.5790 -0.8134
vn -0.1003 0.6107 -0.7855
vn 0.0889 0.4571 -0.8849
vn -0.0241 -0.7440 0.6677
vn 0.1098 -0.6092 0.7854
vn 0.0293 -0.8263 0.5624
vn -0.0674 0.4117 -0.9088
vn 0.0227 -0.1896 -0.9816
vn -0.0463 -0.2416 -0.9693
vn 0.1548 -0.4857 0.8603
vn 0.0806 -0.4844 0.8711
vn 0.1866 -0.4750 0.8600
vn 0.1216 0.6501 0.7501
vn 0.1287 0.3221 0.9379
vn 0.1026 0.5774 0.8100
vn 0.0368 -0.4256 0.9042
vn 0.1111 -0.4927 0.8631
vn 0.0373 -0.4733 0.8801
vn 0.2352 -0.1939 -0.9524
vn 0.0706 -0.2162 -0.9738
vn -0.0865 0.0499 -0.9950
vn -0.1538 0.9405 0.3029
vn 0.0576 0.7370 0.6734
vn 0.0138 -0.2223 -0.9749
vn -0.1419 0.5728 -0.8073
vn -0.0761 0.9251 -0.3720
vn 0.0190 0.4975 -0.8672
vn -0.0160 0.4716 -0.8817
vn -0.0320 0.4935 -0.8692
vn 0.0366 -0.0481 -0.9982
vn 0.0066 -0.1573 -0.9875
vn -0.0333 0.6609 -0.7498
vn 0.0061 -0.0403 -0.9992
vn 0.0564 -0.1957 -0.9790
vn 0.0666 -0.2114 -0.9751
vn 0.0602 0.9798 -0.1908
vn 0.2014 0.6743 0.7104
vn 0.0453 0.7880 0.6140
vn 0.0212 -0.1961 -0.9803
vn 0.0015 0.0268 -0.9996
vn -0.0498 0.5495 -0.8340
vn 0.0331 0.7095 -0.7040
vn 0.2507 0.6898 0.6792
vn 0.0633 0.3294 -0.9421
vn 0.0867 -0.0932 0.9919
vn -0.0264 -0.1032 0.9943
vn -0.0135 -0.0831 0.9964
vn -0.0002 -0.0640 0.9979
vn 0.0999 -0.0091 0.9950
vn -0.0285 0.0191 -0.9994
vn 0.0461 0.1352 -0.9897
vn 0.0352 0.0570 -0.9978
vn 0.0568 0.3928 -0.9179
vn 0.0714 0.5784 -0.8126
vn 0.0065 0.3180 -0.9481
vn 0.0802 -0.0724 0.9941
vn 0.0723 -0.0113 0.9973
vn 0.1164 -0.0412 0.9923
vn -0.0095 -0.0334 0.9994
vn 0.0289 0.0263 0.9992
vn 0.3961 0.8806 0.2602
vn 0.5788 0.7483 0.3242
vn 0.5257 0.8183 0.2325
vn 0.3170 -0.6161 0.7211
vn 0.1315 -0.4964 0.8581
vn -0.0164 -0.6332 0.7738
vn 0.1493 0.7237 -0.6738
vn -0.0094 -0.8077 -0.5896
vn 0.4265 0.9043 -0.0180
vn -0.0545 -0.0062 -0.9985
vn -0.0979 -0.0050 -0.9952
vn -0.0768 0.0250 -0.9967
vn -0.0363 -0.0368 -0.9987
vn 0.0063 -0.0235 -0.9997
vn -0.2692 0.6546 -0.7065
vn -0.0891 0.1050 -0.9905
vn 0.0034 0.0316 0.9995
vn 0.0367 0.1763 -0.9837
vn 0.0140 -0.1194 -0.9927
vn 0.1118 -0.3022 0.9466
vn 0.1006 -0.0016 0.9949
vn -0.3000 0.8152 0.4955
vn -0.0171 0.4484 0.8936
vn 0.3801 -0.0439 -0.9239
vn -0.0282 0.0268 -0.9992
vn 0.0627 0.1461 -0.9873
vn -0.0819 0.1249 0.9888
vn -0.4158 -0.2269 -0.8807
vn 0.0801 0.2674 -0.9603
vn 0.2952 -0.3977 -0.8687
vn -0.2001 0.6519 -0.7314
vn -0.2641 0.8376 0.4782
vn -0.0479 -0.0783 0.9958
vn -0.1364 -0.0893 0.9866
vn 0.0356 -0.2554 -0.9662
vn 0.0239 -0.1858 -0.9823
vn 0.1128 -0.2437 -0.9633
vn -0.0115 0.1699 -0.9854
vn -0.0078 0.4915 -0.8708
vn 0.6476 0.7584 0.0735
vn 0.6223 0.7330 -0.2746
vn -0.3124 -0.9421 0.1221
vn -0.1117 0.8479 0.5183
vn 0.0925 0.5604 0.8230
vn 0.0531 0.4036 -0.9134
vn 0.0037 0.0068 1.0000
vn -0.0386 0.0223 0.9990
vn -0.0083 -0.0259 0.9996
vn -0.2010 -0.8180 0.5389
vn -0.0406 -0.2134 -0.9761
vn -0.0795 0.3848 -0.9196
vn -0.0453 0.2370 -0.9705
vn -0.3330 -0.6179 -0.7122
vn -0.3276 -0.4692 -0.8201
vn 0.0249 -0.2264 -0.9737
vn 0.0206 0.2485 0.9684
vn 0.0106 0.1927 0.9812
vn -0.0163 0.1524 0.9882
vn 0.0744 0.4512 -0.8893
vn 0.0332 0.1994 -0.9794
vn 0.3939 0.2613 0.8812
vn -0.0374 -0.0285 -0.9989
vn 0.0038 -0.0149 -0.9999
vn -0.6379 -0.7537 -0.1581
vn 0.0998 0.0868 0.9912
vn 0.4344 -0.2378 0.8688
vn 0.1320 -0.2852 0.9493
vn -0.1759 0.5896 -0.7883
vn 0.8853 0.2256 0.4065
vn 0.9248 0.1383 0.3543
vn 0.9256 0.0395 0.3765
vn -0.9896 -0.0561 -0.1327
vn -0.0466 0.0020 -0.9989
vn -0.1764 -0.0652 0.9822
vn 0.2425 -0.5984 0.7637
vn 0.2745 -0.3603 0.8915
vn 0.0164 -0.1883 0.9820
vn -0.0185 0.0012 -0.9998
vn -0.1434 -0.1124 0.9833
vn 0.0717 0.0899 0.9934
vn 0.0324 0.0801 0.9963
vn 0.0734 0.0759 0.9944
vn -0.1794 -0.1060 0.9780
vn -0.0708 -0.1602 0.9845
vn -0.0829 -0.1216 0.9891
vn 0.0252 -0.0961 -0.9951
vn 0.0592 -0.0992 -0.9933
vn 0.0670 -0.9856 0.1554
vn -0.0291 -0.2428 -0.9697
vn 0.4185 0.8156 -0.3997
vn 0.1300 0.1405 0.9815
vn 0.1367 0.0760 0.9877
vn 0.0620 0.1484 0.9870
vn 0.3699 0.0682 -0.9266
vn -0.3482 -0.9355 0.0606
vn -0.1855 -0.8684 0.4599
vt 0.450905 0.666747
vt 0.445358 0.670076
vt 0.449348 0.664548
vt 0.424407 0.673628
vt 0.421472 0.668964
vt 0.425567 0.666357
vt 0.250797 0.233221
vt 0.256503 0.232415
vt 0.254953 0.236805
vt 0.247001 0.213615
vt 0.243457 0.219212
vt 0.241957 0.214998
vt 0.267027 0.210903
vt 0.262801 0.208559
vt 0.267355 0.206252
vt 0.320375 0.979610
vt 0.316970 0.978071
vt 0.320375 0.973831
vt 0.583768 0.965429
vt 0.583768 0.971549
vt 0.581890 0.968755
vt 0.266246 0.457331
vt 0.264751 0.453441
vt 0.268269 0.453133
vt 0.854685 0.717539
vt 0.847793 0.717429
vt 0.851354 0.714024
vt 0.035988 0.855899
vt 0.034471 0.861898
vt 0.030416 0.856520
vt 0.669952 0.860393
vt 0.671679 0.857556
vt 0.674848 0.863344
vt 0.608325 0.376913
vt 0.605573 0.378767
vt 0.603629 0.375585
vt 0.533744 0.071126
vt 0.538582 0.071647
vt 0.537675 0.078032
vt 0.609767 0.380231
vt 0.612930 0.377671
vt 0.613913 0.382048
vt 0.255232 0.474633
vt 0.258991 0.480766
vt 0.255117 0.487423
vt 0.585472 0.197450
vt 0.585372 0.201379
vt 0.582924 0.203736
vt 0.700752 0.163569
vt 0.707159 0.165142
vt 0.704484 0.168728
vt 0.961650 0.094284
vt 0.958330 0.091567
vt 0.963255 0.091731
vt 0.123374 0.368424
vt 0.117023 0.362040
vt 0.122380 0.360344
vt 0.140156 0.335065
vt 0.133291 0.335732
vt 0.137629 0.333047
vt 0.249201 0.146442
vt 0.244573 0.149925
vt 0.242301 0.146845
vt 0.420665 0.312380
vt 0.427673 0.308659
vt 0.425920 0.313426
vt 0.974084 0.648853
vt 0.977847 0.644278
vt 0.979365 0.648853
vt 0.195422 0.547774
vt 0.195262 0.537929
vt 0.198732 0.537395
vt 0.416877 0.385067
vt 0.420832 0.385873
vt 0.418504 0.388320
vt 0.705705 0.225328
vt 0.705060 0.220854
vt 0.708525 0.224050
vt 0.193091 0.536968
vt 0.192618 0.548304
vt 0.190441 0.544128
vt 0.412351 0.407841
vt 0.417936 0.410573
vt 0.413240 0.416841
vt 0.354543 0.907703
vt 0.353777 0.912201
vt 0.347659 0.907703
vt 0.979516 0.560373
vt 0.974084 0.560373
vt 0.975814 0.558359
vt 0.087960 0.986635
vt 0.083864 0.986635
vt 0.085416 0.981852
vt 0.606961 0.528438
vt 0.606934 0.532312
vt 0.603536 0.530236
vt 0.595807 0.913313
vt 0.597167 0.919184
vt 0.594429 0.917200
vt 0.440454 0.434764
vt 0.438017 0.438176
vt 0.437410 0.434412
vt 0.470395 0.358013
vt 0.465362 0.356520
vt 0.469873 0.351717
vt 0.118055 0.824346
vt 0.124388 0.819655
vt 0.126900 0.825285
vt 0.114421 0.802520
vt 0.116497 0.802101
vt 0.116269 0.810988
vt 0.782716 0.424731
vt 0.785858 0.432898
vt 0.779587 0.431779
vt 0.799508 0.098417
vt 0.796633 0.096356
vt 0.800618 0.090576
vt 0.284773 0.092800
vt 0.282945 0.086372
vt 0.288037 0.091023
vt 0.114805 0.787412
vt 0.122361 0.781629
vt 0.121816 0.789879
vt 0.277394 0.804433
vt 0.277044 0.812065
vt 0.274131 0.808686
vt 0.852566 0.501634
vt 0.846660 0.499830
vt 0.851845 0.497824
vt 0.056066 0.362978
vt 0.063714 0.365524
vt 0.055764 0.369104
vt 0.911245 0.890355
vt 0.911915 0.885106
vt 0.918643 0.885106
vt 0.070752 0.348028
vt 0.062213 0.341398
vt 0.064801 0.339428
vt 0.382145 0.449538
vt 0.377446 0.441459
vt 0.382871 0.444995
vt 0.512654 0.879316
vt 0.512274 0.876632
vt 0.514394 0.874969
vt 0.829183 0.300002
vt 0.831195 0.295486
vt 0.834195 0.299702
vt 0.435731 0.641989
vt 0.440713 0.645924
vt 0.436089 0.643941
vt 0.456760 0.619793
vt 0.450402 0.619436
vt 0.455267 0.611804
vt 0.921825 0.020231
vt 0.925479 0.017353
vt 0.930183 0.020231
vt 0.376457 0.814809
vt 0.380378 0.817876
vt 0.378279 0.821115
vt 0.018434 0.039436
vt 0.016704 0.032089
vt 0.023674 0.033065
vt 0.371938 0.782413
vt 0.377216 0.781459
vt 0.369742 0.786424
vt 0.376711 0.796946
vt 0.380534 0.793050
vt 0.380061 0.797117
vt 0.195201 0.173819
vt 0.198822 0.165740
vt 0.201425 0.171288
vt 0.732299 0.159763
vt 0.725110 0.156812
vt 0.728207 0.154467
vt 0.735744 0.683817
vt 0.731430 0.685319
vt 0.732675 0.679854
vt 0.041845 0.305907
vt 0.039078 0.300869
vt 0.044444 0.298688
vt 0.281346 0.027534
vt 0.283506 0.022076
vt 0.283335 0.027597
vt 0.417878 0.869791
vt 0.421895 0.875480
vt 0.415573 0.876050
vt 0.193129 0.140178
vt 0.193258 0.143052
vt 0.186980 0.141641
vt 0.458949 0.068583
vt 0.460030 0.064668
vt 0.465020 0.070791
vt 0.042700 0.265139
vt 0.046863 0.268723
vt 0.043321 0.269529
vt 0.187845 0.087500
vt 0.191495 0.089772
vt 0.190334 0.092341
vt 0.752423 0.602748
vt 0.748462 0.600027
vt 0.748753 0.596099
vt 0.743129 0.592594
vt 0.745450 0.597336
vt 0.082925 0.182952
vt 0.079251 0.186953
vt 0.079615 0.178744
vt 0.065759 0.193372
vt 0.070665 0.194045
vt 0.065631 0.197420
vt 0.093820 0.142669
vt 0.086874 0.143769
vt 0.089119 0.141076
vt 0.663946 0.158604
vt 0.669162 0.158774
vt 0.666354 0.161373
vt 0.379178 0.353555
vt 0.378080 0.349463
vt 0.383308 0.350038
vt 0.666631 0.191523
vt 0.669944 0.193135
vt 0.669568 0.197620
vt 0.810254 0.441261
vt 0.807892 0.444122
vt 0.802862 0.443899
vt 0.673280 0.810257
vt 0.675278 0.815625
vt 0.671385 0.818447
vt 0.418912 0.900579
vt 0.420180 0.904893
vt 0.417988 0.902634
vt 0.419339 0.948837
vt 0.419478 0.954016
vt 0.416908 0.950002
vt 0.023742 0.073693
vt 0.021481 0.079211
vt 0.018773 0.073092
vt 0.044132 0.109891
vt 0.040603 0.099170
vt 0.044200 0.103950
vt 0.646406 0.353001
vt 0.649221 0.349589
vt 0.652131 0.357363
vt 0.138673 0.023670
vt 0.141073 0.020608
vt 0.143808 0.024276
vt 0.056478 0.074352
vt 0.056254 0.079109
vt 0.052798 0.075158
vt 0.675029 0.514284
vt 0.670779 0.516457
vt 0.671045 0.508188
vt 0.851253 0.437227
vt 0.846922 0.433477
vt 0.852036 0.432547
vt 0.559566 0.638722
vt 0.555153 0.634711
vt 0.557122 0.634237
vt 0.729395 0.341429
vt 0.729998 0.335122
vt 0.730853 0.337818
vt 0.926493 0.098062
vt 0.923302 0.095434
vt 0.927819 0.093915
vt 0.807592 0.753210
vt 0.802913 0.749061
vt 0.808288 0.748284
vt 0.734044 0.341456
vt 0.339157 0.278105
vt 0.338984 0.284220
vt 0.334978 0.279417
vt 0.335184 0.272666
vt 0.058596 0.809999
vt 0.061011 0.805336
vt 0.064306 0.811793
vt 0.859084 0.068220
vt 0.857605 0.065603
vt 0.860799 0.064034
vt 0.379572 0.282286
vt 0.373170 0.277916
vt 0.377791 0.272054
vt 0.919161 0.963004
vt 0.918522 0.959313
vt 0.920462 0.958357
vt 0.827115 0.266936
vt 0.829050 0.264711
vt 0.835747 0.268060
vt 0.190395 0.255433
vt 0.195187 0.255981
vt 0.191699 0.259240
vt 0.214831 0.814212
vt 0.209209 0.820294
vt 0.207468 0.815805
vt 0.052357 0.874623
vt 0.049844 0.869790
vt 0.055649 0.872411
vt 0.887969 0.323733
vt 0.895191 0.324377
vt 0.891020 0.328219
vt 0.361050 0.563798
vt 0.367178 0.559825
vt 0.371468 0.563292
vt 0.488111 0.671640
vt 0.496399 0.670130
vt 0.493468 0.675110
vt 0.356885 0.209027
vt 0.363486 0.205497
vt 0.361679 0.213414
vt 0.506734 0.662367
vt 0.501176 0.660347
vt 0.501836 0.656338
vt 0.387005 0.219334
vt 0.376574 0.216429
vt 0.384970 0.213335
vt 0.178925 0.921975
vt 0.180971 0.927165
vt 0.178067 0.926667
vt 0.392721 0.860676
vt 0.388710 0.857651
vt 0.393641 0.857593
vt 0.881523 0.031380
vt 0.879994 0.027614
vt 0.885750 0.027026
vt 0.352382 0.582700
vt 0.356059 0.585030
vt 0.352650 0.588094
vt 0.566636 0.142296
vt 0.568670 0.148226
vt 0.563862 0.147392
vt 0.395167 0.851030
vt 0.393503 0.846540
vt 0.395841 0.845875
vt 0.249806 0.380441
vt 0.248559 0.389880
vt 0.245163 0.383747
vt 0.331201 0.604143
vt 0.327692 0.608554
vt 0.327794 0.603066
vt 0.490465 0.599607
vt 0.483550 0.603441
vt 0.483420 0.597691
vt 0.744356 0.815561
vt 0.745823 0.812489
vt 0.749296 0.814966
vt 0.433846 0.263017
vt 0.434718 0.269819
vt 0.431048 0.265877
vt 0.691766 0.953856
vt 0.691766 0.950182
vt 0.695159 0.952165
vt 0.850162 0.512410
vt 0.851730 0.510711
vt 0.857197 0.511730
vt 0.084966 0.904942
vt 0.082895 0.899510
vt 0.087183 0.895609
vt 0.274022 0.358544
vt 0.274093 0.351651
vt 0.277794 0.355642
vt 0.277274 0.349422
vt 0.160778 0.828298
vt 0.158329 0.820403
vt 0.163377 0.822024
vt 0.876178 0.045068
vt 0.873400 0.048626
vt 0.869985 0.048416
vt 0.704948 0.638098
vt 0.711358 0.638243
vt 0.710898 0.644484
vt 0.232988 0.331597
vt 0.239211 0.332101
vt 0.233719 0.337379
vt 0.422167 0.208928
vt 0.426598 0.207974
vt 0.427653 0.213241
vt 0.459849 0.895778
vt 0.464538 0.892570
vt 0.464538 0.900955
vt 0.254473 0.330344
vt 0.253689 0.335242
vt 0.249642 0.332043
vt 0.188754 0.616357
vt 0.189476 0.620700
vt 0.186086 0.615544
vt 0.793080 0.858343
vt 0.787352 0.858291
vt 0.794357 0.852575
vt 0.334232 0.481509
vt 0.335380 0.486076
vt 0.329399 0.482749
vt 0.752775 0.377943
vt 0.747685 0.377374
vt 0.746143 0.373725
vt 0.343539 0.088814
vt 0.351466 0.089871
vt 0.345664 0.093296
vt 0.623856 0.650181
vt 0.629346 0.655295
vt 0.621327 0.655936
vt 0.753618 0.040474
vt 0.756073 0.036626
vt 0.757968 0.042489
vt 0.246268 0.310210
vt 0.252050 0.302327
vt 0.252289 0.307362
vt 0.327815 0.070102
vt 0.333181 0.066111
vt 0.334411 0.072666
vt 0.063475 0.694148
vt 0.064512 0.701064
vt 0.058884 0.700244
vt 0.236522 0.293386
vt 0.241839 0.295055
vt 0.240398 0.299175
vt 0.247507 0.299429
vt 0.607897 0.201281
vt 0.609806 0.196671
vt 0.613925 0.202429
vt 0.092848 0.652942
vt 0.087103 0.655646
vt 0.090380 0.650256
vt 0.940144 0.029576
vt 0.935047 0.025471
vt 0.943925 0.025471
vt 0.609171 0.206277
vt 0.607249 0.207068
vt 0.871760 0.625584
vt 0.866616 0.627856
vt 0.867995 0.623528
vt 0.263660 0.294575
vt 0.264907 0.287899
vt 0.270345 0.291504
vt 0.288539 0.534550
vt 0.290313 0.539197
vt 0.283258 0.534239
vt 0.033897 0.709980
vt 0.034199 0.714892
vt 0.029623 0.710297
vt 0.956337 0.986337
vt 0.956337 0.981852
vt 0.959995 0.983061
vt 0.789080 0.509612
vt 0.796640 0.510741
vt 0.785348 0.516795
vt 0.276634 0.966772
vt 0.272513 0.971454
vt 0.272513 0.965429
vt 0.708625 0.312283
vt 0.705006 0.319477
vt 0.705209 0.314618
vt 0.054996 0.661987
vt 0.058127 0.664859
vt 0.053737 0.669105
vt 0.336218 0.420960
vt 0.328844 0.423021
vt 0.330742 0.418495
vt 0.050576 0.666140
vt 0.047717 0.663424
vt 0.297988 0.524215
vt 0.294559 0.515953
vt 0.300860 0.519301
vt 0.471028 0.586450
vt 0.474381 0.584566
vt 0.479586 0.590981
vt 0.355394 0.683427
vt 0.352469 0.678895
vt 0.353854 0.676059
vt 0.481758 0.157514
vt 0.483003 0.154014
vt 0.486595 0.157639
vt 0.887969 0.765467
vt 0.892589 0.758664
vt 0.893485 0.764522
vt 0.049660 0.634602
vt 0.043573 0.634819
vt 0.046812 0.631568
vt 0.201655 0.249604
vt 0.207459 0.242822
vt 0.203191 0.251388
vt 0.481130 0.551974
vt 0.489683 0.552311
vt 0.488493 0.558187
vt 0.017984 0.649837
vt 0.020315 0.657787
vt 0.016867 0.655206
vt 0.589278 0.234589
vt 0.593169 0.237075
vt 0.589114 0.241324
vt 0.962859 0.924571
vt 0.956430 0.924571
vt 0.959848 0.920531
vt 0.791190 0.352948
vt 0.794496 0.355635
vt 0.785684 0.355533
vt 0.480691 0.129162
vt 0.478498 0.119989
vt 0.486870 0.130951
vt 0.013371 0.653114
vt 0.006419 0.649123
vt 0.013221 0.649499
vt 0.094189 0.538274
vt 0.088303 0.534937
vt 0.091415 0.533114
vt 0.007515 0.652325
vt 0.006768 0.655035
vt 0.424296 0.042756
vt 0.417296 0.042386
vt 0.422264 0.040099
vt 0.619161 0.730564
vt 0.618675 0.722080
vt 0.620781 0.725772
vt 0.879339 0.191354
vt 0.876362 0.188602
vt 0.882333 0.187337
vt 0.036517 0.604834
vt 0.030268 0.604908
vt 0.032226 0.600364
vt 0.786801 0.626488
vt 0.788678 0.616187
vt 0.791963 0.625459
vt 0.874848 0.184836
vt 0.879533 0.184272
vt 0.095670 0.497636
vt 0.090735 0.495680
vt 0.093225 0.493331
vt 0.551012 0.319574
vt 0.546955 0.319567
vt 0.551550 0.314991
vt 0.488857 0.085863
vt 0.484213 0.092704
vt 0.482821 0.087154
vt 0.715678 0.415465
vt 0.718527 0.421896
vt 0.712789 0.426230
vt 0.054992 0.540320
vt 0.060958 0.540036
vt 0.059877 0.544009
vt 0.502631 0.092296
vt 0.501221 0.099778
vt 0.495093 0.093394
vt 0.055190 0.518194
vt 0.049890 0.522247
vt 0.049529 0.517203
vt 0.691710 0.981852
vt 0.696178 0.986374
vt 0.691710 0.986389
vt 0.693626 0.023199
vt 0.689443 0.020626
vt 0.693522 0.017816
vt 0.449897 0.223901
vt 0.457933 0.219837
vt 0.454160 0.229992
vt 0.457697 0.226115
vt 0.897199 0.273593
vt 0.895000 0.269725
vt 0.899799 0.268458
vt 0.051863 0.472059
vt 0.048939 0.476926
vt 0.048127 0.471694
vt 0.735433 0.875683
vt 0.732272 0.871581
vt 0.737216 0.869790
vt 0.747549 0.940247
vt 0.743014 0.943306
vt 0.743014 0.935145
vt 0.454555 0.211641
vt 0.457610 0.208617
vt 0.457316 0.215461
vt 0.027069 0.495387
vt 0.029112 0.490585
vt 0.032922 0.495494
vt 0.673465 0.047399
vt 0.669413 0.046181
vt 0.676231 0.040454
vt 0.058195 0.440079
vt 0.056403 0.446273
vt 0.051180 0.443934
vt 0.577220 0.971402
vt 0.572297 0.971402
vt 0.574831 0.965429
vt 0.675726 0.076816
vt 0.672816 0.081218
vt 0.672379 0.075474
vt 0.449366 0.535284
vt 0.442535 0.535461
vt 0.448082 0.531271
vt 0.189140 0.314006
vt 0.190696 0.308239
vt 0.195458 0.308371
vt 0.671734 0.089799
vt 0.666857 0.086736
vt 0.648912 0.064899
vt 0.647493 0.070712
vt 0.643559 0.068444
vt 0.621540 0.055514
vt 0.622798 0.063286
vt 0.617424 0.057931
vt 0.335093 0.023097
vt 0.333988 0.019062
vt 0.339893 0.020103
vt 0.504387 0.864344
vt 0.497501 0.861931
vt 0.500360 0.858040
vt 0.095830 0.863083
vt 0.093949 0.860187
vt 0.097998 0.856231
vt 0.804109 0.045231
vt 0.800592 0.042833
vt 0.808181 0.037204
vt 0.845729 0.560992
vt 0.840897 0.560514
vt 0.843922 0.554819
vt 0.299815 0.223117
vt 0.295682 0.224538
vt 0.294733 0.218796
vt 0.100835 0.822973
vt 0.103352 0.822747
vt 0.101332 0.831390
vt 0.192175 0.343272
vt 0.193986 0.336321
vt 0.197571 0.338566
vt 0.604701 0.214272
vt 0.470066 0.580800
vt 0.467202 0.584427
vt 0.462731 0.576858
vt 0.030631 0.569634
vt 0.032985 0.565140
vt 0.036529 0.571800
vt 0.497566 0.777415
vt 0.504486 0.782568
vt 0.500062 0.783418
vt 0.507443 0.392589
vt 0.511666 0.396090
vt 0.505386 0.397409
vt 0.330491 0.662585
vt 0.327837 0.669500
vt 0.325372 0.665860
vt 0.898257 0.144780
vt 0.897229 0.139456
vt 0.904011 0.143709
vt 0.638546 0.594823
vt 0.639624 0.586626
vt 0.644221 0.590240
vt 0.062885 0.584766
vt 0.063764 0.581720
vt 0.068317 0.586646
vt 0.331284 0.213034
vt 0.337277 0.211276
vt 0.335666 0.216845
vt 0.632197 0.087114
vt 0.630807 0.094878
vt 0.625527 0.093614
vt 0.672874 0.721123
vt 0.674694 0.729295
vt 0.669969 0.725450
vt 0.402717 0.559213
vt 0.403470 0.566069
vt 0.398684 0.562101
vt 0.680435 0.138276
vt 0.681581 0.131104
vt 0.684257 0.130114
vt 0.711923 0.208588
vt 0.713634 0.202980
vt 0.717865 0.205392
vt 0.269546 0.319442
vt 0.263571 0.319326
vt 0.266917 0.313411
vt 0.893119 0.138119
vt 0.894653 0.144876
vt 0.890450 0.140869
vt 0.506595 0.342264
vt 0.501100 0.341413
vt 0.503675 0.338405
vt 0.935047 0.206381
vt 0.937948 0.201269
vt 0.943735 0.206381
vt 0.493415 0.163489
vt 0.489635 0.164600
vt 0.489657 0.155913
vt 0.763126 0.061172
vt 0.756501 0.064243
vt 0.759984 0.057265
vt 0.852878 0.353952
vt 0.847106 0.350032
vt 0.853842 0.350492
vt 0.397464 0.515522
vt 0.400037 0.511137
vt 0.401885 0.515361
vt 0.560270 0.100009
vt 0.564629 0.096678
vt 0.566948 0.101288
vt 0.356014 0.182473
vt 0.358965 0.185729
vt 0.355280 0.190213
vt 0.602002 0.179542
vt 0.601992 0.172115
vt 0.608818 0.175688
vt 0.932396 0.329106
vt 0.930145 0.332592
vt 0.923965 0.332537
vt 0.274052 0.797658
vt 0.053095 0.151195
vt 0.054423 0.157193
vt 0.048131 0.155476
vt 0.435183 0.800163
vt 0.431547 0.796583
vt 0.436785 0.793652
vt 0.193029 0.277396
vt 0.198413 0.280991
vt 0.194157 0.283164
vt 0.675144 0.477903
vt 0.679077 0.481438
vt 0.670985 0.480159
vt 0.198217 0.208204
vt 0.197847 0.204278
vt 0.203310 0.202306
vt 0.871983 0.799508
vt 0.877485 0.805886
vt 0.872277 0.804902
vt 0.021814 0.682026
vt 0.024087 0.683887
vt 0.021388 0.687375
vt 0.852180 0.764226
vt 0.850972 0.767976
vt 0.842036 0.766137
vt 0.084905 0.643841
vt 0.083093 0.650021
vt 0.079455 0.644022
vt 0.660100 0.672514
vt 0.662745 0.674407
vt 0.662065 0.680563
vt 0.443351 0.147654
vt 0.437793 0.152289
vt 0.436624 0.148038
vt 0.418603 0.174187
vt 0.412207 0.180074
vt 0.415091 0.170240
vt 0.230353 0.940385
vt 0.226105 0.942587
vt 0.226105 0.934320
vt 0.232702 0.462919
vt 0.239527 0.459536
vt 0.237974 0.464155
vt 0.358340 0.090860
vt 0.364669 0.095183
vt 0.363014 0.098309
vt 0.189993 0.061778
vt 0.190496 0.056126
vt 0.192537 0.058317
vt 0.533497 0.410635
vt 0.539777 0.406727
vt 0.537315 0.413306
vt 0.263374 0.171233
vt 0.259018 0.165057
vt 0.263668 0.162668
vt 0.190832 0.282550
vt 0.188349 0.278209
vt 0.375406 0.413416
vt 0.375694 0.417617
vt 0.371613 0.414761
vt 0.937924 0.953725
vt 0.934469 0.949023
vt 0.937924 0.945953
vt 0.816500 0.223647
vt 0.816547 0.226495
vt 0.813032 0.226647
vt 0.657354 0.321069
vt 0.658848 0.310545
vt 0.664098 0.316864
vt 0.247860 0.219595
vt 0.035738 0.819431
vt 0.036493 0.825823
vt 0.033561 0.819715
vt 0.331955 0.285821
vt 0.328170 0.284978
vt 0.127607 0.037902
vt 0.130954 0.034486
vt 0.133567 0.037247
vt 0.903992 0.110536
vt 0.898784 0.110280
vt 0.902140 0.107398
vt 0.198310 0.445923
vt 0.194826 0.435873
vt 0.201450 0.439125
vt 0.428241 0.927598
vt 0.427393 0.931824
vt 0.424774 0.926779
vt 0.908410 0.835412
vt 0.906639 0.830648
vt 0.913861 0.830648
vt 0.095010 0.569584
vt 0.088767 0.566066
vt 0.098456 0.565043
vt 0.069179 0.616336
vt 0.065516 0.612529
vt 0.069846 0.611327
vt 0.234720 0.626524
vt 0.230640 0.629667
vt 0.229538 0.625069
vt 0.049060 0.712369
vt 0.049511 0.708453
vt 0.051960 0.709678
vt 0.263648 0.797888
vt 0.268623 0.794235
vt 0.266175 0.799312
vt 0.654446 0.948199
vt 0.661583 0.945953
vt 0.661583 0.953681
vt 0.078961 0.292550
vt 0.078357 0.300025
vt 0.073712 0.295141
vt 0.661427 0.168812
vt 0.662914 0.164355
vt 0.665141 0.165454
vt 0.195306 0.373942
vt 0.194814 0.369950
vt 0.200914 0.369486
vt 0.026682 0.370402
vt 0.034350 0.377085
vt 0.026692 0.375661
vt 0.317785 0.672224
vt 0.320338 0.667895
vt 0.324450 0.671796
vt 0.565376 0.231924
vt 0.565007 0.227018
vt 0.569879 0.230980
vt 0.653084 0.988822
vt 0.655253 0.990121
vt 0.653084 0.993108
vt 0.010432 0.616597
vt 0.004270 0.617364
vt 0.007630 0.614950
vt 0.079083 0.613605
vt 0.080693 0.608874
vt 0.083413 0.611201
vt 0.743418 0.851063
vt 0.739287 0.857715
vt 0.740611 0.850900
vt 0.463972 0.562443
vt 0.458857 0.560928
vt 0.467278 0.558460
vt 0.580622 0.639658
vt 0.589967 0.639792
vt 0.584596 0.647991
vt 0.185617 0.135540
vt 0.186196 0.132352
vt 0.189629 0.136960
vt 0.502145 0.127781
vt 0.495336 0.132819
vt 0.496800 0.126066
vt 0.387406 0.316943
vt 0.382988 0.314192
vt 0.388921 0.311140
vt 0.177743 0.316747
vt 0.179193 0.309323
vt 0.183212 0.315051
vt 0.811522 0.859618
vt 0.807957 0.857251
vt 0.808179 0.855021
vt 0.336709 0.031791
vt 0.337647 0.038657
vt 0.331582 0.033420
vt 0.332935 0.077345
vt 0.054547 0.192182
vt 0.058760 0.192689
vt 0.055470 0.197664
vt 0.475950 0.577978
vt 0.480925 0.581301
vt 0.479210 0.586020
vt 0.670457 0.496391
vt 0.668530 0.502784
vt 0.662886 0.496359
vt 0.650096 0.363177
vt 0.367842 0.914043
vt 0.365951 0.912405
vt 0.367645 0.907704
vt 0.013918 0.680338
vt 0.017683 0.680318
vt 0.018330 0.686442
vt 0.046897 0.441559
vt 0.044175 0.434966
vt 0.048696 0.437479
vt 0.912253 0.223019
vt 0.917873 0.223019
vt 0.919275 0.228321
vt 0.752807 0.628932
vt 0.755722 0.628999
vt 0.754213 0.633871
vt 0.121529 0.351992
vt 0.115915 0.345907
vt 0.121496 0.345087
vt 0.461594 0.084127
vt 0.457485 0.081630
vt 0.461724 0.077261
vt 0.352795 0.305393
vt 0.349384 0.306480
vt 0.348288 0.302430
vt 0.019184 0.453931
vt 0.018720 0.451643
vt 0.024283 0.453432
vt 0.226713 0.334591
vt 0.193950 0.305594
vt 0.202724 0.306927
vt 0.746773 0.189627
vt 0.751427 0.194185
vt 0.744874 0.195215
vt 0.679872 0.879769
vt 0.677634 0.881927
vt 0.675188 0.874764
vt 0.367058 0.382265
vt 0.364096 0.386588
vt 0.362421 0.382888
vt 0.596001 0.336910
vt 0.600638 0.334235
vt 0.603063 0.339122
vt 0.074042 0.224640
vt 0.080177 0.225068
vt 0.074693 0.230512
vt 0.230241 0.468893
vt 0.237175 0.467715
vt 0.232111 0.472395
vt 0.478798 0.561764
vt 0.482945 0.556611
vt 0.483579 0.564166
vt 0.798326 0.789615
vt 0.787807 0.788160
vt 0.799156 0.787302
vt 0.232204 0.391320
vt 0.228845 0.398236
vt 0.222152 0.395076
vt 0.658391 0.663085
vt 0.662531 0.665547
vt 0.331398 0.598080
vt 0.327727 0.600291
vt 0.328805 0.595176
vt 0.354989 0.121053
vt 0.347516 0.128260
vt 0.350450 0.119651
vt 0.567974 0.110026
vt 0.577745 0.107450
vt 0.572977 0.112106
vt 0.496385 0.806398
vt 0.501564 0.804922
vt 0.500419 0.810900
vt 0.442179 0.128932
vt 0.440160 0.133640
vt 0.432857 0.130974
vt 0.200600 0.446189
vt 0.643869 0.597574
vt 0.573697 0.068972
vt 0.578856 0.065996
vt 0.576998 0.072313
vt 0.029297 0.408378
vt 0.025675 0.407609
vt 0.028452 0.405144
vt 0.229788 0.554870
vt 0.231922 0.558821
vt 0.225110 0.556193
vt 0.569326 0.049126
vt 0.567872 0.054477
vt 0.561695 0.052336
vt 0.419505 0.218527
vt 0.412998 0.220404
vt 0.416370 0.214494
vt 0.281557 0.492377
vt 0.288491 0.494997
vt 0.285572 0.500359
vt 0.293194 0.794306
vt 0.289937 0.793990
vt 0.290160 0.788979
vt 0.342342 0.934319
vt 0.342342 0.940267
vt 0.338892 0.935180
vt 0.546203 0.364958
vt 0.542891 0.369086
vt 0.541863 0.362400
vt 0.574963 0.371220
vt 0.571426 0.364928
vt 0.578103 0.366440
vt 0.921825 0.789862
vt 0.932240 0.789862
vt 0.930652 0.791919
vt 0.066724 0.967420
vt 0.069297 0.965429
vt 0.069297 0.971676
vt 0.047946 0.242533
vt 0.050910 0.247411
vt 0.044575 0.249537
vt 0.368601 0.937122
vt 0.369163 0.934319
vt 0.372448 0.938745
vt 0.026855 0.540398
vt 0.021888 0.539520
vt 0.025081 0.535828
vt 0.981788 0.364814
vt 0.981788 0.360319
vt 0.986849 0.361452
vt 0.128273 0.378960
vt 0.134007 0.376755
vt 0.132675 0.383594
vt 0.387268 0.486624
vt 0.382288 0.485685
vt 0.380219 0.479249
vt 0.272732 0.131528
vt 0.270927 0.136184
vt 0.267927 0.131085
vt 0.912241 0.806918
vt 0.906840 0.806461
vt 0.910210 0.804804
vt 0.395541 0.510013
vt 0.390367 0.509700
vt 0.508210 0.054792
vt 0.502024 0.052118
vt 0.506462 0.049023
vt 0.030536 0.904321
vt 0.028360 0.900949
vt 0.031192 0.900520
vt 0.358535 0.255409
vt 0.351544 0.254998
vt 0.354787 0.251046
vt 0.946871 0.831603
vt 0.953390 0.831603
vt 0.949552 0.835820
vt 0.190720 0.441361
vt 0.195345 0.442882
vt 0.246767 0.654314
vt 0.252009 0.654072
vt 0.251158 0.658984
vt 0.537665 0.970914
vt 0.535945 0.966944
vt 0.540304 0.971438
vt 0.276750 0.862299
vt 0.279797 0.858106
vt 0.280833 0.861699
vt 0.707802 0.650920
vt 0.704080 0.649056
vt 0.621908 0.503596
vt 0.617630 0.497956
vt 0.622229 0.497444
vt 0.302869 0.756018
vt 0.302226 0.759541
vt 0.297148 0.756987
vt 0.072451 0.266389
vt 0.072154 0.262122
vt 0.076323 0.265053
vt 0.182213 0.286935
vt 0.184109 0.283404
vt 0.186691 0.285432
vt 0.124498 0.381208
vt 0.129345 0.384250
vt 0.367995 0.615243
vt 0.370558 0.610382
vt 0.374061 0.614969
vt 0.353992 0.245252
vt 0.358897 0.240546
vt 0.360749 0.242926
vt 0.284313 0.461943
vt 0.286883 0.468882
vt 0.281267 0.467286
vt 0.451622 0.379098
vt 0.452565 0.382722
vt 0.448270 0.381177
vt 0.573696 0.319221
vt 0.574066 0.326222
vt 0.570028 0.320237
vt 0.200559 0.475255
vt 0.204234 0.471315
vt 0.206250 0.477241
vt 0.372182 0.620111
vt 0.457071 0.577378
vt 0.455401 0.581362
vt 0.447616 0.571561
vt 0.327101 0.249754
vt 0.333681 0.245209
vt 0.332939 0.250790
vt 0.838701 0.651590
vt 0.839352 0.654556
vt 0.836019 0.657087
vt 0.485325 0.956324
vt 0.485962 0.960942
vt 0.485325 0.963211
vt 0.616199 0.064392
vt 0.378534 0.993239
vt 0.377034 0.991614
vt 0.378534 0.988822
vt 0.195101 0.574727
vt 0.191368 0.568626
vt 0.195222 0.565066
vt 0.896691 0.264304
vt 0.840559 0.175609
vt 0.842110 0.179902
vt 0.837160 0.177763
vt 0.084975 0.527357
vt 0.087110 0.529247
vt 0.083894 0.532301
vt 0.331937 0.022077
vt 0.191522 0.050388
vt 0.195961 0.053198
vt 0.114590 0.518468
vt 0.118268 0.515578
vt 0.123149 0.517757
vt 0.536228 0.402574
vt 0.529184 0.397355
vt 0.534791 0.397214
vt 0.840216 0.551876
vt 0.268305 0.247170
vt 0.269710 0.240771
vt 0.274353 0.243651
vt 0.068373 0.579432
vt 0.232851 0.620871
vt 0.235871 0.620261
vt 0.020701 0.487895
vt 0.015698 0.484236
vt 0.020183 0.485421
vt 0.838005 0.025710
vt 0.842770 0.025701
vt 0.845753 0.030555
vt 0.085163 0.678147
vt 0.087842 0.676308
vt 0.090285 0.682987
vt 0.331495 0.412962
vt 0.458473 0.535748
vt 0.461829 0.530468
vt 0.470361 0.535241
vt 0.915390 0.155146
vt 0.912095 0.148352
vt 0.916914 0.149530
vt 0.052536 0.082763
vt 0.049583 0.077291
vt 0.064206 0.300627
vt 0.069841 0.296959
vt 0.072807 0.303524
vt 0.435648 0.858472
vt 0.438280 0.865110
vt 0.434003 0.861499
vt 0.530739 0.368564
vt 0.534021 0.365203
vt 0.535772 0.369116
vt 0.065083 0.233209
vt 0.065349 0.225832
vt 0.070284 0.228168
vt 0.192877 0.401380
vt 0.195898 0.405848
vt 0.190311 0.407147
vt 0.389263 0.249710
vt 0.386124 0.250961
vt 0.388186 0.243745
vt 0.089590 0.463248
vt 0.083920 0.465083
vt 0.084350 0.460577
vt 0.491325 0.032782
vt 0.489551 0.038568
vt 0.486118 0.031269
vt 0.282347 0.685973
vt 0.280403 0.693849
vt 0.274250 0.691252
vt 0.738108 0.025146
vt 0.735016 0.032205
vt 0.733841 0.023101
vt 0.081686 0.147150
vt 0.086664 0.152618
vt 0.224039 0.869790
vt 0.229504 0.872267
vt 0.225486 0.875674
vt 0.340821 0.218729
vt 0.340032 0.215062
vt 0.345331 0.214621
vt 0.891574 0.009106
vt 0.897792 0.007036
vt 0.898573 0.008935
vt 0.105132 0.487191
vt 0.111263 0.485522
vt 0.105254 0.490660
vt 0.283599 0.160409
vt 0.280065 0.167280
vt 0.277890 0.159449
vt 0.761321 0.978154
vt 0.761321 0.973831
vt 0.764326 0.974382
vt 0.753206 0.401401
vt 0.751984 0.405177
vt 0.749286 0.399970
vt 0.730979 0.890926
vt 0.733385 0.895940
vt 0.729450 0.895773
vt 0.494684 0.089196
vt 0.088104 0.498699
vt 0.205545 0.146550
vt 0.199904 0.148087
vt 0.200447 0.142131
vt 0.201682 0.396965
vt 0.199676 0.401301
vt 0.195856 0.396693
vt 0.584750 0.421859
vt 0.585698 0.417827
vt 0.589320 0.418550
vt 0.188587 0.053090
vt 0.187012 0.060062
vt 0.331272 0.479089
vt 0.327503 0.477163
vt 0.295626 0.747106
vt 0.290843 0.750220
vt 0.290046 0.745834
vt 0.627491 0.884929
vt 0.628331 0.879172
vt 0.630366 0.882185
vt 0.096477 0.573245
vt 0.089353 0.574937
vt 0.048239 0.276645
vt 0.048485 0.273077
vt 0.052347 0.276574
vt 0.424800 0.108575
vt 0.421926 0.112703
vt 0.417537 0.105592
vt 0.682890 0.228669
vt 0.682403 0.223742
vt 0.685018 0.220338
vt 0.748254 0.407073
vt 0.747633 0.403209
vt 0.059080 0.330056
vt 0.063799 0.332526
vt 0.059897 0.337191
vt 0.036631 0.595835
vt 0.037491 0.599821
vt 0.605093 0.307964
vt 0.606770 0.300538
vt 0.610556 0.303738
vt 0.034385 0.343858
vt 0.030253 0.342995
vt 0.034597 0.336390
vt 0.370195 0.151719
vt 0.364115 0.155500
vt 0.363268 0.150481
vt 0.422355 0.049438
vt 0.418015 0.045234
vt 0.112402 0.439670
vt 0.110530 0.444270
vt 0.106208 0.440865
vt 0.669437 0.232432
vt 0.667052 0.228982
vt 0.673146 0.227029
vt 0.187380 0.372579
vt 0.179539 0.373605
vt 0.184478 0.366865
vt 0.060087 0.505749
vt 0.064021 0.498964
vt 0.063556 0.506075
vt 0.380509 0.178348
vt 0.374799 0.182614
vt 0.373363 0.176432
vt 0.026901 0.567911
vt 0.028708 0.501093
vt 0.086662 0.569781
vt 0.546400 0.335210
vt 0.552760 0.337607
vt 0.548118 0.340504
vt 0.203500 0.309122
vt 0.330038 0.408053
vt 0.335358 0.402227
vt 0.336429 0.409691
vt 0.065063 0.180940
vt 0.061698 0.178348
vt 0.065492 0.178202
vt 0.570205 0.019859
vt 0.573139 0.024448
vt 0.568235 0.025763
vt 0.735896 0.721725
vt 0.731970 0.716574
vt 0.734111 0.713766
vt 0.290427 0.556295
vt 0.285540 0.555079
vt 0.290856 0.550588
vt 0.245816 0.364478
vt 0.243867 0.368740
vt 0.241108 0.363722
vt 0.490002 0.704762
vt 0.491190 0.708179
vt 0.482812 0.707442
vt 0.035093 0.526151
vt 0.038051 0.519198
vt 0.038134 0.526335
vt 0.394645 0.882644
vt 0.390324 0.878263
vt 0.390324 0.872649
vt 0.239154 0.372261
vt 0.242462 0.375010
vt 0.236424 0.376578
vt 0.055237 0.489443
vt 0.060845 0.486655
vt 0.061051 0.490092
vt 0.342882 0.174170
vt 0.337083 0.180115
vt 0.336981 0.175204
vt 0.079803 0.255524
vt 0.083253 0.258737
vt 0.076466 0.259051
vt 0.357235 0.143208
vt 0.354760 0.149964
vt 0.351156 0.143436
vt 0.614178 0.669255
vt 0.608335 0.667087
vt 0.610946 0.664064
vt 0.365735 0.550348
vt 0.363903 0.544226
vt 0.366985 0.544594
vt 0.325416 0.150203
vt 0.326193 0.146461
vt 0.331298 0.146918
vt 0.872180 0.700348
vt 0.876212 0.703251
vt 0.871134 0.706893
vt 0.877607 0.168841
vt 0.884775 0.167045
vt 0.883916 0.168660
vt 0.059049 0.385256
vt 0.062459 0.379158
vt 0.064419 0.384291
vt 0.430871 0.203374
vt 0.426319 0.204010
vt 0.431598 0.200903
vt 0.896436 0.167211
vt 0.902041 0.162014
vt 0.901227 0.167720
vt 0.242859 0.135836
vt 0.246438 0.137290
vt 0.242438 0.140428
vt 0.042518 0.429155
vt 0.045708 0.422808
vt 0.049625 0.426549
vt 0.087974 0.424173
vt 0.091034 0.422437
vt 0.084701 0.428291
vt 0.035598 0.631898
vt 0.041087 0.631583
vt 0.039264 0.635644
vt 0.120749 0.520386
vt 0.115855 0.524670
vt 0.928459 0.376288
vt 0.926812 0.373811
vt 0.932615 0.374124
vt 0.863575 0.400286
vt 0.870116 0.397534
vt 0.868653 0.404429
vt 0.807695 0.200618
vt 0.805938 0.203287
vt 0.807167 0.199370
vt 0.059144 0.552337
vt 0.051443 0.553316
vt 0.056533 0.550112
vt 0.797958 0.103309
vt 0.802035 0.102809
vt 0.213788 0.481363
vt 0.218587 0.484740
vt 0.214332 0.488736
vt 0.761295 0.878355
vt 0.762228 0.882500
vt 0.758178 0.884514
vt 0.844488 0.616507
vt 0.848336 0.612965
vt 0.851538 0.615345
vt 0.802855 0.728491
vt 0.797052 0.730148
vt 0.803162 0.724788
vt 0.389257 0.254625
vt 0.393964 0.251921
s 1
usemtl Material.005
f 2/1/1 3/2/2 5/3/3
f 3/4/2 6/5/4 5/6/3
f 10/7/5 11/8/6 7/9/7
f 17/10/8 10/11/5 14/12/9
f 11/13/6 17/14/8 16/15/10
f 13/16/11 21/17/12 14/18/13
f 12/19/14 16/20/10 24/21/15
f 25/22/16 21/23/12 15/24/17
f 13/25/18 10/26/19 14/27/20
f 27/28/21 10/29/5 9/30/22
f 26/31/23 17/32/24 14/33/25
f 28/34/26 16/35/10 22/36/27
f 15/37/28 25/38/29 18/39/30
f 16/40/10 28/41/26 24/42/15
f 25/43/31 18/44/32 30/45/33
f 18/46/34 30/47/35 34/48/36
f 26/49/37 21/50/38 32/51/39
f 32/52/40 25/53/31 30/54/33
f 31/55/41 17/56/42 14/57/43
f 14/58/44 26/59/45 21/60/46
f 33/61/47 26/62/48 32/63/49
f 21/64/50 32/65/51 25/66/52
f 42/67/53 17/68/42 31/69/41
f 35/70/54 40/71/55 34/72/56
f 30/73/35 38/74/57 34/75/36
f 38/76/58 41/77/59 30/78/60
f 38/79/61 35/80/62 40/81/63
f 34/82/56 38/83/64 35/84/54
f 44/85/65 32/86/66 41/87/67
f 44/88/68 26/89/69 51/90/70
f 42/91/53 43/92/71 53/93/72
f 52/94/73 44/95/65 41/96/67
f 44/97/65 52/98/73 47/99/74
f 50/100/75 45/101/76 40/102/77
f 48/103/78 41/104/79 52/105/80
f 45/106/81 55/107/82 50/108/83
f 49/109/84 55/110/82 45/111/81
f 60/112/85 48/113/86 50/114/87
f 42/115/53 62/116/88 51/117/70
f 47/118/89 59/119/90 54/120/91
f 49/121/84 61/122/92 55/123/82
f 48/124/86 60/125/85 64/126/93
f 37/127/94 46/128/95 65/129/96
f 67/130/97 53/131/72 58/132/98
f 63/133/99 65/134/96 46/135/95
f 53/136/72 67/137/97 62/138/88
f 54/139/91 68/140/100 63/141/99
f 51/142/70 62/143/88 66/144/101
f 56/145/102 69/146/103 57/147/104
f 57/148/105 71/149/106 56/150/107
f 71/151/106 57/152/105 73/153/108
f 66/154/101 74/155/109 47/156/110
f 56/157/102 78/158/111 69/159/103
f 107/160/112 109/161/113 108/162/114
f 65/163/96 79/164/115 56/165/102
f 56/166/102 79/167/115 78/168/111
f 78/169/111 79/170/115 76/171/116
f 82/172/117 68/173/100 81/174/118
f 59/175/90 74/176/109 75/177/119
f 76/178/116 79/179/115 77/180/120
f 72/181/121 84/182/122 75/183/123
f 81/184/118 75/185/119 84/186/124
f 86/187/125 79/188/115 65/189/96
f 63/190/99 82/191/117 83/192/126
f 83/193/126 85/194/127 86/195/125
f 82/196/117 90/197/128 83/198/126
f 75/199/119 87/200/129 84/201/130
f 88/202/131 84/201/130 92/203/132
f 92/204/133 87/205/134 88/206/135
f 92/207/136 87/208/129 90/209/128
f 84/210/137 94/211/138 89/212/139
f 94/213/140 89/214/141 93/215/142
f 88/216/143 94/217/144 96/218/145
f 98/219/146 93/220/142 97/221/147
f 94/222/148 96/223/149 99/224/150
f 101/225/151 97/226/152 98/227/153
f 98/228/146 101/229/154 102/230/155
f 99/231/156 98/232/146 102/233/155
f 106/234/157 103/235/158 107/236/159
f 96/237/149 103/238/160 99/239/150
f 102/240/161 106/241/162 103/242/163
f 105/243/164 104/244/165 100/245/166
f 102/246/161 99/247/167 106/248/162
f 112/249/168 114/250/169 113/251/170
f 117/252/171 119/253/172 120/254/173
f 116/255/174 115/256/175 125/257/176
f 121/258/177 117/259/171 120/260/173
f 124/261/178 119/262/172 117/263/171
f 122/264/179 116/265/180 114/266/169
f 121/258/177 120/260/173 127/267/181
f 123/268/182 121/269/177 126/270/183
f 126/270/184 118/271/185 123/268/186
f 118/272/187 121/273/177 131/274/188
f 119/275/172 124/276/178 132/277/189
f 130/278/190 123/279/182 135/280/191
f 119/281/192 128/282/193 132/283/194
f 133/284/195 3/285/2 1/286/196
f 69/287/103 257/288/197 252/289/198
f 116/290/180 122/291/179 139/292/199
f 127/293/181 120/294/173 144/295/200
f 3/296/2 2/297/1 1/298/196
f 145/299/201 131/300/202 125/301/203
f 146/302/204 143/303/205 137/304/206
f 143/305/205 151/306/207 138/307/208
f 143/308/205 146/309/204 150/310/209
f 147/311/210 138/312/208 151/313/207
f 127/314/181 144/315/200 140/316/211
f 144/317/200 129/318/212 154/319/213
f 133/320/214 3/321/215 148/322/216
f 145/323/217 131/324/188 140/325/211
f 152/326/218 142/327/219 132/328/189
f 154/329/213 129/330/212 149/331/220
f 156/332/221 150/333/209 155/334/222
f 146/335/204 139/336/223 158/337/224
f 4/338/225 73/339/226 80/340/227
f 140/341/211 144/342/200 163/343/228
f 160/344/229 168/345/230 147/346/210
f 149/347/220 167/348/231 154/349/213
f 3/350/215 169/351/232 148/352/216
f 144/353/200 154/354/213 174/355/233
f 156/356/221 165/357/234 170/358/235
f 172/359/236 170/358/235 165/357/234
f 166/360/237 140/361/211 163/362/228
f 148/363/216 169/364/232 162/365/238
f 155/366/222 158/367/224 180/368/239
f 169/369/240 175/370/241 165/371/234
f 159/372/242 178/373/243 160/374/229
f 154/375/213 167/376/231 176/377/244
f 172/378/236 165/379/234 175/380/241
f 166/381/237 179/382/245 145/383/217
f 145/384/246 161/385/247 179/386/248
f 181/387/249 177/388/250 164/389/251
f 185/390/252 169/391/253 162/392/254
f 172/393/236 183/394/255 170/395/235
f 184/396/256 158/397/224 161/398/257
f 152/399/218 173/400/258 182/401/259
f 169/402/240 188/403/260 175/404/241
f 188/405/260 189/406/261 183/407/255
f 187/408/262 174/409/233 193/410/263
f 6/411/264 7/412/7 169/413/240
f 7/412/7 188/414/260 169/413/240
f 186/415/265 161/416/266 171/417/267
f 166/418/237 187/419/262 179/420/268
f 184/421/256 180/422/239 158/423/224
f 171/424/267 194/425/269 186/415/265
f 186/426/265 166/427/270 179/428/271
f 188/429/260 7/430/7 8/431/272
f 178/432/243 191/433/273 160/434/229
f 193/435/263 176/436/244 195/437/274
f 176/438/244 182/439/259 195/440/274
f 194/441/269 192/442/275 186/443/265
f 180/444/239 184/445/256 198/446/276
f 185/447/277 9/448/278 200/449/279
f 196/450/280 187/451/262 193/452/263
f 201/453/281 183/454/255 189/455/261
f 193/456/263 205/457/282 196/450/280
f 191/458/273 178/459/243 202/460/283
f 73/461/226 256/462/284 80/463/227
f 207/464/285 200/465/286 185/466/252
f 190/467/287 191/468/273 212/469/288
f 191/470/273 202/471/283 214/472/289
f 196/473/280 205/474/282 210/475/290
f 69/476/103 58/477/98 257/478/197
f 255/479/291 70/480/292 4/481/293
f 218/482/294 205/483/282 208/484/295
f 194/485/296 192/486/297 213/487/298
f 216/488/299 207/489/300 200/490/301
f 216/491/302 20/492/303 200/493/304
f 191/494/273 214/495/289 212/496/288
f 208/497/295 221/498/305 218/499/294
f 198/500/276 215/501/306 211/502/307
f 209/503/308 208/504/309 221/498/310
f 222/505/311 203/506/312 19/507/313
f 23/508/314 216/509/315 219/510/316
f 200/511/317 223/512/318 9/513/22
f 210/514/290 218/515/294 228/516/319
f 226/517/320 201/518/281 225/519/321
f 27/520/21 9/521/22 223/512/318
f 211/522/307 229/523/322 223/524/318
f 221/525/305 212/526/288 230/527/323
f 227/528/324 214/529/289 202/530/283
f 216/531/325 20/532/326 23/533/327
f 231/534/328 224/535/329 215/536/306
f 233/537/330 230/538/323 214/539/289
f 224/540/329 231/541/328 237/542/331
f 236/543/332 232/544/333 229/545/322
f 225/546/321 241/547/334 226/548/320
f 19/549/313 57/550/335 222/551/311
f 222/551/311 57/550/335 239/552/336
f 232/553/333 243/554/337 43/555/71
f 236/556/332 237/557/331 244/558/338
f 246/559/339 238/560/340 241/561/334
f 241/562/334 238/563/340 226/564/320
f 19/565/313 39/566/341 57/567/335
f 245/568/342 244/569/338 237/570/331
f 239/571/343 249/572/344 241/573/345
f 243/574/337 236/575/332 244/576/338
f 253/577/346 239/578/343 57/579/347
f 239/580/343 253/581/346 249/582/344
f 249/583/348 241/584/349 247/585/350
f 248/586/351 250/587/352 254/588/353
f 253/581/346 57/589/347 73/590/354
f 249/591/355 253/592/356 256/593/357
f 255/594/291 256/595/358 70/596/292
f 203/597/312 12/598/14 19/599/313
f 125/600/359 118/601/360 115/602/361
f 23/603/362 29/604/363 20/605/364
f 250/606/352 239/607/365 252/608/198
f 246/609/339 241/610/334 250/611/352
f 12/612/14 11/613/6 16/614/10
f 6/615/4 3/616/2 169/617/366
f 245/618/342 246/619/339 248/620/351
f 192/621/367 194/425/269 171/424/267
f 256/622/368 73/623/369 253/624/370
f 228/625/319 231/626/328 220/627/371
f 68/628/100 54/629/91 59/630/90
f 64/631/372 72/632/373 60/633/374
f 239/634/365 57/635/104 252/636/198
f 89/637/139 88/638/375 84/639/137
f 40/640/77 38/641/376 48/642/78
f 210/643/290 220/644/371 199/645/377
f 137/646/206 143/647/205 134/648/378
f 256/649/379 73/650/226 4/651/225
f 147/652/210 157/653/380 136/654/381
f 32/655/382 41/656/383 30/657/384
f 56/658/102 57/659/335 39/660/341
f 46/661/95 54/662/91 63/663/99
f 172/664/236 175/665/241 188/666/260
f 88/667/375 89/668/139 94/669/385
f 59/670/386 52/671/387 47/672/388
f 189/673/261 188/674/260 8/675/272
f 209/676/389 190/677/287 212/678/288
f 167/679/231 152/680/218 182/681/259
f 21/682/12 13/683/11 15/684/17
f 28/685/26 46/686/95 37/687/94
f 141/688/390 157/689/380 173/690/258
f 153/691/391 151/692/207 143/693/205
f 186/694/265 179/695/271 161/696/266
f 39/697/341 24/698/15 37/699/94
f 64/126/93 52/700/392 48/124/86
f 96/701/393 88/702/394 91/703/395
f 11/704/6 12/705/14 8/706/272
f 257/707/197 251/708/396 254/709/397
f 115/710/398 113/711/170 116/712/180
f 69/713/103 78/714/111 67/715/97
f 163/716/228 174/717/233 187/718/262
f 208/719/295 205/720/282 195/721/274
f 82/722/117 81/723/118 91/724/399
f 179/725/268 187/726/262 196/727/280
f 161/728/257 139/729/223 145/730/400
f 206/731/401 177/732/250 181/733/249
f 177/734/250 159/735/242 164/736/251
f 17/737/8 26/738/48 22/739/27
f 225/740/321 201/741/281 204/742/402
f 183/743/255 181/744/249 170/745/235
f 82/746/117 95/747/403 90/748/128
f 173/749/258 195/750/274 182/751/259
f 22/752/27 26/753/48 33/754/47
f 254/755/397 252/756/198 257/707/197
f 81/757/118 68/758/100 75/759/119
f 167/760/231 182/761/259 176/762/244
f 141/763/390 132/764/189 130/765/190
f 106/766/404 108/767/405 107/768/406
f 11/769/6 10/11/5 17/10/8
f 9/770/407 200/771/304 20/772/303
f 126/270/183 121/773/177 118/774/187
f 101/775/408 105/776/164 100/777/166
f 130/778/190 136/779/381 141/780/390
f 235/781/409 233/782/330 234/783/410
f 16/784/10 17/785/8 22/786/27
f 241/787/411 239/788/412 225/789/413
f 198/790/414 215/791/415 184/792/416
f 196/793/280 210/794/290 199/795/377
f 44/796/68 51/797/70 66/798/101
f 176/799/244 193/800/263 174/801/233
f 9/802/22 10/803/5 6/804/264
f 179/805/268 199/806/377 184/807/256
f 66/808/101 62/809/88 77/810/120
f 98/811/146 94/812/140 93/813/142
f 242/814/417 245/815/342 240/816/418
f 67/817/97 58/818/98 69/819/103
f 69/820/103 252/821/198 57/822/104
f 81/823/118 88/824/419 91/825/399
f 174/826/233 163/827/228 144/828/200
f 218/829/294 230/830/323 228/831/319
f 196/832/280 199/833/377 179/834/268
f 180/835/239 185/836/252 162/837/254
f 256/838/420 249/839/348 255/840/421
f 125/841/176 139/842/422 116/843/174
f 65/844/96 83/845/126 86/846/125
f 230/847/323 212/848/288 214/849/289
f 124/850/178 123/851/182 130/852/190
f 246/853/339 250/854/352 248/855/351
f 12/856/14 24/857/15 19/858/313
f 203/859/312 189/860/261 8/861/272
f 183/407/255 172/862/236 188/405/260
f 91/863/399 92/864/136 90/865/128
f 256/866/284 4/867/225 80/868/227
f 113/869/170 114/870/169 116/871/180
f 103/242/163 99/872/423 102/240/161
f 44/873/424 47/874/89 36/875/425
f 197/876/426 208/877/295 195/878/274
f 244/879/338 251/880/396 243/881/337
f 238/882/340 246/883/339 245/884/342
f 87/885/129 75/886/119 74/887/109
f 17/888/42 42/889/53 26/890/69
f 65/891/96 63/892/99 83/893/126
f 123/894/182 117/895/171 121/896/177
f 248/897/351 251/898/396 244/899/338
f 169/369/240 165/371/234 162/900/254
f 254/588/427 250/901/428 251/902/429
f 132/903/189 142/904/219 128/905/430
f 197/906/426 173/907/258 190/908/287
f 88/909/419 81/910/118 84/911/124
f 33/912/47 36/913/425 28/914/26
f 87/915/129 74/916/109 85/917/127
f 225/918/321 204/919/402 222/920/311
f 256/921/431 255/922/291 4/923/293
f 38/924/432 34/925/56 40/926/55
f 150/927/209 146/928/204 155/929/222
f 161/728/257 158/930/224 139/931/223
f 146/932/204 158/933/224 155/934/222
f 164/935/251 156/936/221 170/937/235
f 141/938/390 173/939/258 152/940/218
f 68/941/100 59/942/90 75/943/119
f 201/944/281 206/945/401 181/946/249
f 228/947/319 235/781/409 234/783/410
f 48/642/78 50/948/75 40/640/77
f 157/949/380 190/950/287 173/951/258
f 251/952/396 257/953/197 58/954/98
f 19/955/313 24/956/15 39/957/341
f 168/958/230 190/959/287 157/960/380
f 160/961/229 151/962/207 159/963/242
f 177/964/250 202/965/283 178/966/243
f 167/967/231 142/968/219 152/969/218
f 128/970/430 129/971/212 119/972/172
f 208/973/295 197/974/426 209/975/389
f 141/976/390 136/977/381 157/978/380
f 146/979/204 137/980/206 139/981/223
f 28/982/26 37/983/94 24/984/15
f 90/985/128 85/986/127 83/987/126
f 125/988/433 134/989/378 118/990/434
f 231/991/328 234/992/410 240/993/418
f 195/994/274 205/995/282 193/996/263
f 31/997/41 14/998/43 10/999/5
f 46/1000/95 36/1001/425 54/1002/91
f 36/1003/425 33/1004/47 44/1005/424
f 120/1006/173 119/1007/172 129/1008/212
f 46/1009/95 28/685/26 36/1010/425
f 233/1011/330 227/1012/324 238/1013/340
f 149/1014/220 128/1015/430 142/1016/219
f 135/1017/191 126/1018/435 134/1019/378
f 7/1020/7 6/1021/264 10/1022/5
f 230/1023/323 233/782/330 235/1024/409
f 44/1025/68 32/1026/436 26/1027/69
f 185/1028/252 180/1029/239 207/1030/285
f 130/1031/190 135/1032/191 136/1033/381
f 162/1034/254 155/1035/222 180/368/239
f 52/1036/392 64/1037/93 59/1038/437
f 43/1039/71 42/1040/53 31/1041/41
f 77/1042/120 85/1043/127 66/1044/101
f 250/1045/352 252/1046/198 254/1047/397
f 27/1048/21 31/997/41 10/1049/5
f 140/1050/211 131/1051/188 121/1052/177
f 134/1053/378 138/1054/208 135/1055/191
f 206/1056/401 202/1057/283 177/1058/250
f 41/1059/79 48/1060/78 38/1061/376
f 168/1062/230 157/1063/380 147/1064/210
f 221/1065/305 230/1066/323 218/1067/294
f 140/1050/211 121/1052/177 127/1068/181
f 253/1069/438 73/1070/439 249/1071/440
f 118/1072/434 134/1073/378 126/1074/435
f 167/1075/231 149/1076/220 142/1077/219
f 230/1078/323 235/1079/409 228/1080/319
f 4/1081/293 70/596/292 256/595/358
f 123/1082/182 126/1083/435 135/1084/191
f 45/1085/441 40/1086/442 35/1087/443
f 43/555/71 243/554/337 58/1088/98
f 124/1089/178 117/1090/171 123/1091/182
f 224/1092/329 211/1093/307 215/1094/306
f 203/597/312 8/1095/272 12/598/14
f 91/1096/399 90/1097/128 95/747/403
f 211/1098/307 207/1099/285 180/1100/239
f 195/1101/274 173/1102/258 197/1103/426
f 239/1104/365 250/611/352 241/610/334
f 7/1105/7 11/1106/6 8/1107/272
f 220/644/371 215/1108/306 199/645/377
f 66/1109/101 47/1110/110 44/796/68
f 245/1111/342 248/1112/351 244/1113/338
f 128/1114/430 149/1115/220 129/1116/212
f 187/1117/262 166/1118/237 163/1119/228
f 204/1120/402 201/453/281 189/455/261
f 249/1121/348 247/1122/350 255/1123/421
f 39/1124/341 37/1125/94 56/1126/102
f 99/1127/167 103/1128/444 106/248/162
f 76/1129/116 77/1130/120 62/1131/88
f 63/1132/99 68/1133/100 82/1134/117
f 190/1135/287 209/1136/389 197/1137/426
f 85/1138/127 90/1139/128 87/1140/129
f 242/1141/417 234/1142/410 233/1143/330
f 147/1144/210 135/1145/191 138/1146/208
f 223/1147/318 229/1148/322 232/1149/333
f 238/1150/340 227/1151/324 226/1152/320
f 137/1153/206 125/1154/433 139/1155/223
f 227/1156/324 202/1157/283 206/1158/401
f 88/1159/445 94/211/138 84/1160/137
f 65/1161/96 56/1162/102 37/1163/94
f 134/1164/378 143/1165/205 138/1166/208
f 98/1167/146 99/1168/156 94/1169/140
f 223/1170/318 207/1171/285 211/1172/307
f 28/1173/26 22/1174/27 33/1175/47
f 124/1176/178 130/1177/190 132/1178/189
f 185/1179/252 200/1180/446 169/1181/253
f 226/1182/320 227/1183/324 206/1184/401
f 233/1185/330 214/539/289 227/528/324
f 224/1186/329 229/523/322 211/522/307
f 77/1187/120 79/1188/115 86/1189/125
f 240/1190/418 234/1191/410 242/1192/417
f 132/1193/189 141/1194/390 152/1195/218
f 91/1196/399 95/747/403 82/1197/117
f 181/1198/249 164/389/251 170/1199/235
f 43/1200/71 31/1201/41 27/1202/21
f 207/1203/285 223/1204/318 200/1205/317
f 198/790/447 184/1206/256 199/1207/377
f 86/1208/125 85/1209/127 77/1210/120
f 201/1211/281 181/1212/249 183/1213/255
f 213/1214/298 217/1215/448 194/1216/296
f 200/1180/446 9/1217/22 169/1218/253
f 76/1219/116 62/1220/88 67/1221/97
f 228/516/319 220/1222/371 210/1223/290
f 36/1224/425 47/1225/89 54/1226/91
f 67/1227/97 78/1228/111 76/1229/116
f 159/1230/242 153/1231/391 164/1232/251
f 204/1233/402 203/1234/312 222/505/311
f 27/1235/21 223/1236/318 232/1237/333
f 100/1238/449 101/1239/450 97/1240/451
f 242/1241/417 238/1242/340 245/1243/342
f 237/1244/331 229/1245/322 224/1246/329
f 159/1247/242 151/1248/207 153/1249/391
f 234/1250/410 231/626/328 228/625/319
f 245/568/342 237/570/331 240/1251/418
f 199/1252/377 215/791/306 198/790/447
f 212/1253/288 221/1254/305 209/1255/389
f 251/902/396 248/1256/351 254/588/353
f 189/1257/261 203/1258/312 204/1259/402
f 92/1260/136 91/1261/399 88/1262/452
f 191/1263/273 190/1264/287 168/1265/230
f 47/1266/110 74/1267/109 59/1268/90
f 168/1269/230 160/1270/229 191/1271/273
f 165/1272/234 156/1273/221 162/1274/254
f 137/1275/206 134/1276/378 125/1277/433
f 240/1278/418 237/1279/331 231/1280/328
f 169/1281/253 9/1282/22 6/1283/264
f 162/1284/254 156/1285/221 155/1286/222
f 237/1287/331 236/1288/332 229/1289/322
f 153/1290/391 143/1291/205 150/1292/209
f 74/1293/109 66/1294/101 85/1295/127
f 164/1296/251 153/1297/391 156/1298/221
f 161/1299/257 179/1300/268 184/1301/256
f 145/1302/400 139/1303/223 125/1304/453
f 150/1305/209 156/1306/221 153/1307/391
f 238/1308/340 242/1309/417 233/1310/330
f 145/1311/217 140/1312/211 166/1313/237
f 58/1314/98 53/1315/72 43/1316/71
f 178/1317/243 159/1318/242 177/1319/250
f 160/1320/229 147/1321/210 151/1322/207
f 87/200/129 92/203/132 84/201/130
f 44/1323/424 33/1324/47 32/1325/49
f 251/1326/396 58/1327/98 243/1328/337
f 43/1329/71 27/1330/21 232/1331/333
f 218/1332/294 210/1333/290 205/1334/282
f 211/1098/307 180/1335/239 198/1336/276
f 236/1337/332 243/1338/337 232/1339/333
f 206/1340/401 201/1341/281 226/1342/320
f 174/1343/233 154/1344/213 176/1345/244
f 215/1346/306 220/1347/371 231/1348/328
f 53/1349/72 62/116/88 42/1350/53
f 225/1351/321 222/1352/311 239/1353/336
f 129/1354/212 144/1355/200 120/1356/173
f 51/1357/70 26/1358/69 42/1359/53
f 131/1360/188 125/1361/454 118/1362/187
f 135/1363/191 147/1144/210 136/1364/381
l 111 112
l 109 110
