# Blender 4.4.3
# www.blender.org
mtllib 0.009.mtl
o Result.001
v 0.002274 -0.021197 0.012299
v 0.007516 -0.016510 0.008231
v 0.008550 0.030439 0.000033
v 0.002613 -0.014296 0.004034
v 0.009451 -0.004180 0.005629
v 0.014397 -0.014930 -0.001661
v 0.012169 0.005025 0.006771
v 0.021995 -0.020511 -0.001577
v 0.030568 -0.024961 -0.001161
v 0.021469 -0.005413 0.003042
v 0.003648 -0.016211 -0.006191
v 0.026182 -0.012719 -0.000415
v 0.002755 -0.024301 -0.010928
v 0.022312 0.006678 0.004710
v 0.038215 -0.024442 -0.000437
v 0.034476 -0.015565 0.000293
v 0.030467 -0.005074 0.001847
v 0.049339 -0.031025 -0.000163
v 0.011754 0.012822 0.000367
v 0.012490 -0.003715 -0.006022
v 0.031344 0.006381 0.003528
v 0.046994 -0.021518 0.001061
v 0.041868 -0.013711 0.000822
v 0.037503 -0.006358 -0.000075
v 0.058409 -0.029640 0.000899
v 0.040962 0.001428 0.003940
v 0.023957 -0.001979 -0.005690
v 0.053011 -0.019459 0.002181
v 0.023620 0.010262 -0.003035
v 0.049592 -0.011470 0.001735
v 0.011768 0.005456 -0.007314
v 0.046436 -0.005014 0.000321
v 0.012415 0.019894 -0.000389
v 0.048452 0.002571 0.000679
v 0.011702 0.009634 -0.005681
v 0.036901 0.007573 -0.002244
v 0.033039 0.000039 -0.005101
v 0.025234 0.004595 -0.006293
v 0.056676 -0.004320 0.000341
v 0.029573 0.006338 -0.005090
v 0.042226 0.003923 -0.003840
v 0.057994 0.004047 -0.000386
v 0.065300 -0.005538 0.000327
v 0.045684 0.007452 -0.001816
v 0.074050 -0.008716 -0.000420
v 0.068417 0.001746 -0.000074
v 0.082393 -0.012402 -0.001228
v 0.065558 0.010048 -0.001067
v 0.074354 0.000678 -0.001025
v 0.073663 0.010787 -0.000965
v 0.080370 0.010766 -0.000998
v 0.081248 0.015395 -0.001164
v 0.084967 0.015759 -0.001292
v -0.022920 -0.024798 0.017258
v -0.028394 -0.021022 0.012900
v -0.034266 -0.015363 0.007759
v -0.053007 -0.006852 0.005202
v -0.026030 -0.021595 0.005659
v -0.062880 -0.002714 0.002451
v -0.041282 -0.011554 0.005284
v -0.047033 0.002198 0.007210
v -0.056525 -0.008407 -0.004323
v -0.031085 -0.010975 0.005649
v -0.028704 -0.016782 -0.000162
v -0.064218 -0.001061 -0.004105
v -0.054872 0.006064 0.002406
v -0.046902 -0.011658 -0.005148
v -0.035425 0.003594 0.008323
v -0.006536 -0.015482 0.005845
v -0.021112 -0.008311 0.007063
v -0.036411 -0.013897 -0.005997
v -0.026016 0.002554 0.009159
v -0.041940 0.009935 0.004397
v -0.015600 -0.015220 0.000513
v -0.030660 0.010037 0.006928
v -0.012485 -0.004093 0.008164
v -0.056883 0.002795 -0.005581
v -0.018163 0.006110 0.009255
v -0.054454 -0.002381 -0.006728
v -0.025434 -0.020305 -0.008056
v -0.005108 -0.010444 0.003921
v -0.005951 0.002739 0.008874
v -0.049381 -0.005773 -0.007641
v -0.047846 0.008078 -0.004179
v -0.038232 -0.009004 -0.007890
v -0.022123 0.012875 0.005102
v -0.030131 -0.012390 -0.008381
v 0.000558 0.001536 0.008378
v -0.047776 0.001835 -0.007486
v -0.035450 0.012921 -0.001316
v -0.010728 0.011872 0.006296
v -0.007047 -0.014859 -0.005032
v -0.000289 0.009474 0.006833
v -0.027592 -0.020111 -0.014001
v -0.019999 -0.024667 -0.016149
v -0.017575 -0.008510 -0.006683
v -0.038936 0.002040 -0.007668
v -0.028190 -0.000997 -0.007730
v -0.038234 0.008173 -0.006672
v -0.015071 0.014979 -0.000628
v -0.027261 0.012570 -0.004060
v -0.002816 -0.020422 -0.008838
v -0.004866 0.016112 0.000278
v -0.019646 -0.000474 -0.007930
v -0.030942 0.007544 -0.007507
v -0.006355 -0.005373 -0.006832
v 0.003091 0.014986 -0.000405
v 0.000764 -0.003545 -0.006988
v -0.021058 0.008467 -0.007268
v -0.011273 0.004120 -0.007836
v -0.015976 0.011287 -0.005887
v -0.002854 0.004942 -0.007717
v -0.007844 0.011117 -0.005545
v -0.001567 0.024056 0.000242
v 0.001748 0.010408 -0.005830
v 0.004811 0.023409 0.000300
v 0.003783 0.006852 -0.007625
v 0.000649 0.030866 0.000155
vn 0.1020 -0.6642 0.7406
vn 0.1422 -0.3339 0.9318
vn 0.0075 -0.7335 0.6796
vn 0.1489 -0.2383 0.9597
vn 0.1785 0.1783 0.9676
vn -0.9350 0.3048 -0.1812
vn -0.0733 0.9114 0.4049
vn -0.2093 -0.4170 0.8845
vn 0.0789 0.2124 -0.9740
vn 0.0540 0.1921 -0.9799
vn -0.0653 0.2409 -0.9683
vn 0.0760 0.3008 -0.9506
vn 0.0279 0.4124 -0.9106
vn 0.2215 -0.2442 0.9441
vn 0.0894 0.5073 0.8571
vn 0.2463 0.3827 0.8904
vn 0.5268 -0.2123 -0.8230
vn 0.1634 -0.2932 -0.9420
vn -0.2931 -0.9517 0.0913
vn 0.2740 0.0120 0.9617
vn 0.2318 -0.0411 0.9719
vn 0.2668 -0.0750 0.9608
vn 0.0824 -0.3443 0.9352
vn 0.0616 -0.0196 -0.9979
vn 0.1121 0.0481 -0.9925
vn 0.1063 -0.0868 -0.9905
vn 0.3036 0.5274 -0.7935
vn 0.0065 0.0836 -0.9965
vn 0.0184 0.0056 -0.9998
vn 0.1815 -0.6956 -0.6951
vn 0.1041 -0.3589 -0.9275
vn 0.1106 -0.1063 -0.9882
vn 0.1289 0.7163 0.6858
vn 0.1389 0.9549 -0.2623
vn 0.1067 0.0293 -0.9939
vn 0.0904 0.0993 -0.9909
vn -0.1532 -0.3874 -0.9091
vn -0.1436 -0.2779 -0.9498
vn -0.1125 -0.3685 -0.9228
vn -0.2870 -0.0471 -0.9568
vn -0.2736 -0.0887 -0.9578
vn -0.3132 -0.0698 -0.9471
vn 0.9986 0.0480 0.0240
vn -0.9777 0.1402 -0.1562
vn 0.0081 0.8618 0.5072
vn 0.0354 0.2208 -0.9747
vn 0.0323 0.4883 -0.8721
vn 0.1207 -0.0695 0.9903
vn 0.0741 0.1907 0.9789
vn -0.2048 -0.2684 0.9413
vn 0.1899 0.9277 -0.3214
vn 0.1422 0.4478 -0.8828
vn 0.3510 -0.3741 -0.8584
vn 0.2653 -0.1632 -0.9503
vn 0.2662 0.0255 -0.9636
vn 0.1606 0.0873 0.9832
vn -0.0459 0.1628 0.9856
vn -0.1084 0.4469 0.8880
vn -0.0377 0.0411 0.9984
vn 0.1176 0.1106 0.9869
vn -0.0099 -0.9218 0.3876
vn 0.1473 0.0016 0.9891
vn -0.0454 0.2979 0.9535
vn 0.1328 -0.0429 0.9902
vn -0.0814 -0.1881 -0.9788
vn -0.1152 -0.1758 -0.9777
vn -0.1330 -0.1571 -0.9786
vn 0.6496 0.7481 0.1355
vn 0.6031 0.7969 -0.0352
vn 0.5310 0.8422 0.0931
vn -0.0271 0.0267 0.9993
vn 0.0058 0.0395 0.9992
vn 0.0130 0.0745 0.9971
vn -0.6514 -0.6901 -0.3153
vn -0.6015 -0.7239 -0.3379
vn -0.6218 -0.7220 -0.3034
vn 0.0255 -0.4931 -0.8696
vn -0.0282 -0.4830 -0.8751
vn 0.0921 -0.4735 -0.8760
vn -0.1126 0.0953 0.9891
vn -0.0056 -0.4201 0.9075
vn -0.1430 0.0362 0.9891
vn 0.0029 0.5094 0.8605
vn -0.0642 0.8141 0.5772
vn -0.0893 0.6938 0.7147
vn -0.1044 -0.0070 0.9945
vn -0.3005 0.7598 0.5766
vn -0.2825 -0.9321 -0.2267
vn -0.1557 -0.6911 0.7058
vn -0.2234 -0.9071 -0.3568
vn -0.3743 0.7399 0.5589
vn -0.4370 0.7697 0.4654
vn -0.8825 0.3163 -0.3482
vn -0.6381 0.4218 -0.6442
vn -0.1853 0.5937 0.7831
vn 0.5664 -0.7509 0.3397
vn 0.3027 -0.1232 0.9451
vn 0.0846 -0.3034 0.9491
vn 0.0265 -0.2303 -0.9728
vn -0.3309 -0.4017 -0.8539
vn -0.3970 -0.8740 -0.2804
vn 0.0148 0.7403 0.6721
vn 0.2804 0.4826 0.8297
vn 0.0807 0.3609 0.9291
vn 0.4902 0.8159 0.3066
vn 0.5563 0.6817 0.4752
vn 0.4858 0.8416 -0.2361
vn -0.0118 0.2476 0.9688
vn -0.1207 0.8326 0.5406
vn 0.1414 0.2906 0.9463
vn -0.0770 -0.1776 -0.9811
vn 0.2427 0.2024 0.9487
vn -0.2967 0.7327 -0.6125
vn -0.1673 0.4089 -0.8971
vn 0.5647 0.2830 -0.7752
vn 0.5156 0.2753 -0.8114
vn 0.5293 0.3059 -0.7914
vn 0.1453 -0.9722 0.1834
vn 0.3764 -0.1292 -0.9174
vn 0.1383 -0.2913 -0.9466
vn 0.0348 -0.9911 0.1285
vn -0.0479 -0.8659 -0.4978
vn 0.0389 0.0507 -0.9980
vn -0.0487 0.0916 -0.9946
vn 0.5936 0.7466 0.3003
vn 0.9487 0.1339 -0.2863
vn 0.4517 0.8549 -0.2552
vn 0.0113 -0.0166 -0.9998
vn -0.1517 0.4621 -0.8737
vn -0.1853 0.9625 -0.1981
vn 0.0540 -0.5173 0.8541
vn -0.0547 -0.5595 0.8270
vn 0.0375 -0.5765 0.8162
vn -0.0008 -0.6932 0.7208
vn 0.0328 0.6783 0.7341
vn 0.0457 0.9976 -0.0517
vn -0.0563 0.9863 -0.1548
vn 0.0272 0.0644 0.9976
vn -0.0091 0.0304 0.9995
vn -0.0054 -0.0118 0.9999
vn -0.0446 0.3279 -0.9437
vn -0.0245 -0.1491 -0.9885
vn -0.1045 0.8484 -0.5189
vn -0.0382 -0.0543 -0.9978
vn 0.1577 0.5340 0.8307
vn 0.1188 0.7566 0.6430
vn 0.0834 -0.1396 -0.9867
vn 0.0235 -0.1143 -0.9932
vn 0.0281 0.3499 -0.9364
vn -0.0511 0.7395 -0.6713
vn -0.0374 0.5691 -0.8214
vn 0.0558 0.5547 -0.8302
vn -0.1001 -0.0565 0.9934
vn 0.1071 -0.0264 0.9939
vn 0.0933 -0.0367 0.9950
vn -0.0478 0.1164 -0.9921
vn 0.0508 0.1536 -0.9868
vn 0.9951 -0.0246 0.0958
vn 0.9953 -0.0823 0.0507
vn 0.9933 -0.1079 0.0404
vn 0.0089 -0.0752 0.9971
vn -0.0138 -0.1615 0.9868
vn -0.0130 -0.2733 0.9618
vn -0.0500 -0.2601 0.9643
vn -0.0525 -0.2649 0.9628
vn 0.0900 0.5085 -0.8564
vn 0.0987 0.5901 -0.8013
vn 0.0743 0.5240 -0.8485
vn 0.0412 0.5528 -0.8323
vn 0.1014 0.6012 -0.7926
vn 0.0389 0.4875 -0.8722
vn 0.0536 0.0446 0.9976
vn -0.0614 -0.0039 0.9981
vn -0.1094 -0.0587 0.9923
vn -0.0454 -0.1475 0.9880
vn 0.1235 -0.2538 0.9593
vn -0.0652 0.6030 0.7951
vn 0.2243 0.5447 0.8081
vn -0.1031 0.6768 0.7289
vn 0.2736 0.3278 0.9043
vn -0.0807 0.2862 0.9548
vn -0.0551 -0.3796 0.9235
vn -0.2374 0.0559 0.9698
vn 0.1535 0.7880 -0.5962
vn 0.0426 -0.0866 -0.9953
vn -0.2111 0.0302 -0.9770
vn -0.0318 -0.1096 -0.9935
vn 0.6506 0.7586 -0.0348
vn 0.3470 0.3613 0.8655
vn 0.1099 -0.8827 0.4570
vn 0.0641 -0.8181 0.5715
vn 0.0133 -0.9948 0.1006
vn 0.2343 -0.2899 0.9279
vn 0.0940 0.0390 0.9948
vn 0.1199 -0.1248 0.9849
vn 0.6580 0.7526 -0.0267
vn 0.1201 0.0428 0.9918
vn 0.1564 0.0435 0.9867
vn -0.8395 0.5417 -0.0427
vn -0.1327 -0.0773 -0.9881
vn -0.2054 -0.1260 -0.9705
vn 0.0717 0.2404 -0.9680
vn -0.8656 -0.4918 -0.0943
vn -0.5793 -0.7486 -0.3224
vn -0.3913 -0.8458 -0.3626
vn -0.3787 -0.5062 0.7748
vn 0.5515 -0.1679 -0.8171
vn 0.0542 -0.4752 0.8782
vn 0.0725 0.3681 -0.9269
vn 0.1086 0.1683 -0.9797
vn 0.0784 -0.0413 0.9961
vn 0.0234 0.0121 0.9997
vn -0.2366 -0.1092 0.9655
vn -0.9857 0.1469 -0.0827
vn 0.1974 0.2097 -0.9576
vn 0.1668 0.1614 -0.9727
vn 0.1364 0.2291 -0.9638
vn 0.0097 -0.1687 -0.9856
vn 0.0083 -0.0920 -0.9957
vn 0.0208 -0.1979 -0.9800
vn 0.1828 0.4179 -0.8899
vn 0.2146 0.3617 -0.9073
vn 0.1631 0.3560 -0.9201
vn 0.8664 0.4588 -0.1970
vn 0.2534 0.8376 -0.4839
vn 0.9390 -0.2346 0.2516
vn 0.8775 0.0388 0.4781
vn 0.7959 -0.2804 0.5366
vn 0.3382 -0.7814 0.5244
vn 0.2157 -0.8345 0.5070
vn 0.3502 -0.7930 0.4985
vn -0.0198 0.0633 -0.9978
vn 0.0581 -0.8724 -0.4854
vn -0.2347 -0.8973 0.3739
vn -0.0155 -0.6417 -0.7668
vn 0.1733 -0.8336 -0.5245
vn -0.7470 -0.2219 0.6267
vn -0.1068 0.0052 0.9943
vn -0.8003 0.5996 -0.0028
vn -0.2047 -0.1245 0.9709
vn 0.4813 0.8666 0.1317
vn -0.1647 -0.1516 0.9746
vn -0.7947 -0.1546 0.5869
vn 0.1373 0.0549 -0.9890
vn 0.1202 0.0784 -0.9897
vn -0.0085 -0.6699 0.7424
vn 0.1534 -0.3194 0.9351
vn 0.2177 0.3145 -0.9240
vn 0.2704 0.3849 -0.8825
vn 0.1984 0.3807 -0.9032
vt 0.225120 0.235252
vt 0.228288 0.236820
vt 0.225423 0.239442
vt 0.271732 0.217197
vt 0.277817 0.221033
vt 0.272211 0.224079
vt 0.863575 0.525717
vt 0.864821 0.522208
vt 0.869211 0.524784
vt 0.410527 0.294442
vt 0.413777 0.295337
vt 0.409702 0.298644
vt 0.121529 0.351992
vt 0.121337 0.355543
vt 0.114851 0.354925
vt 0.388348 0.516525
vt 0.391884 0.518632
vt 0.387683 0.520708
vt 0.292429 0.756369
vt 0.297971 0.751610
vt 0.297148 0.756987
vt 0.245167 0.132350
vt 0.250798 0.125812
vt 0.250214 0.129257
vt 0.598217 0.312811
vt 0.605093 0.307964
vt 0.602757 0.313979
vt 0.448883 0.362827
vt 0.445835 0.358625
vt 0.450093 0.358979
vt 0.051729 0.036734
vt 0.054835 0.043729
vt 0.046625 0.041124
vt 0.809072 0.111546
vt 0.812001 0.107074
vt 0.813197 0.113693
vt 0.805300 0.106756
vt 0.461081 0.316411
vt 0.467623 0.317611
vt 0.466587 0.320290
vt 0.464040 0.165329
vt 0.459199 0.160195
vt 0.465591 0.159905
vt 0.840288 0.270751
vt 0.839629 0.275271
vt 0.832326 0.273930
vt 0.056066 0.362978
vt 0.063714 0.365524
vt 0.055764 0.369104
vt 0.901555 0.907704
vt 0.901555 0.915518
vt 0.898717 0.912460
vt 0.436111 0.621130
vt 0.439865 0.620634
vt 0.440293 0.631972
vt 0.900726 0.385930
vt 0.897143 0.386594
vt 0.903394 0.383985
vt 0.979368 0.588131
vt 0.974084 0.588131
vt 0.976051 0.583301
vt 0.275527 0.033255
vt 0.279808 0.033226
vt 0.279092 0.037404
vt 0.192168 0.150130
vt 0.192216 0.152587
vt 0.187729 0.151455
vt 0.078919 0.238300
vt 0.075491 0.244359
vt 0.072885 0.239657
vt 0.993032 0.516995
vt 0.989181 0.516051
vt 0.993032 0.514461
vt 0.812015 0.399556
vt 0.818362 0.399627
vt 0.811161 0.403066
vt 0.766894 0.783857
vt 0.762962 0.782392
vt 0.765461 0.778550
vt 0.779587 0.377079
vt 0.789166 0.375033
vt 0.783753 0.378311
vt 0.802882 0.027911
vt 0.801571 0.026750
vt 0.803448 0.024890
vt 0.637373 0.883672
vt 0.644478 0.878984
vt 0.644478 0.885325
vt 0.235622 0.820842
vt 0.239576 0.829613
vt 0.233853 0.830090
vt 0.627335 0.050130
vt 0.634117 0.042478
vt 0.635000 0.047527
vt 0.577755 0.646933
vt 0.570629 0.642966
vt 0.580622 0.639658
vt 0.784352 0.736698
vt 0.785173 0.728985
vt 0.787627 0.732299
vt 0.366127 0.258195
vt 0.358535 0.255409
vt 0.366505 0.251873
vt 0.261950 0.770624
vt 0.253417 0.768341
vt 0.257893 0.765436
vt 0.345982 0.208671
vt 0.351370 0.206921
vt 0.353516 0.209412
vt 0.926716 0.787507
vt 0.921825 0.787861
vt 0.924697 0.782637
vt 0.356500 0.590329
vt 0.360370 0.595783
vt 0.354294 0.595947
vt 0.549213 0.782142
vt 0.552143 0.783933
vt 0.549329 0.790045
vt 0.681019 0.763327
vt 0.675038 0.762001
vt 0.677482 0.756950
vt 0.575373 0.166711
vt 0.572666 0.162519
vt 0.579846 0.162863
vt 0.416159 0.246829
vt 0.417520 0.251899
vt 0.412528 0.251253
vt 0.233237 0.344092
vt 0.238971 0.343130
vt 0.236764 0.348976
vt 0.745542 0.781469
vt 0.747245 0.781254
vt 0.743991 0.783961
vt 0.530717 0.965429
vt 0.530717 0.971500
vt 0.527523 0.969358
vt 0.622312 0.183700
vt 0.620016 0.177529
vt 0.623007 0.177074
vt 0.424379 0.195746
vt 0.419475 0.191574
vt 0.425480 0.191426
vt 0.234134 0.326893
vt 0.235726 0.321257
vt 0.238015 0.328644
vt 0.174190 0.810030
vt 0.178325 0.809151
vt 0.179418 0.815251
vt 0.608496 0.169715
vt 0.608818 0.175688
vt 0.601992 0.172115
vt 0.617884 0.876491
vt 0.616079 0.878678
vt 0.614918 0.869790
vt 0.612905 0.634709
vt 0.622797 0.633396
vt 0.615782 0.636577
vt 0.622452 0.625991
vt 0.617065 0.629137
vt 0.612485 0.625533
vt 0.712114 0.312564
vt 0.708625 0.312283
vt 0.711181 0.305534
vt 0.075555 0.628227
vt 0.077289 0.633249
vt 0.070732 0.629097
vt 0.614894 0.243158
vt 0.612383 0.246998
vt 0.609088 0.242067
vt 0.068360 0.621319
vt 0.071082 0.625410
vt 0.553020 0.379489
vt 0.548710 0.382430
vt 0.548457 0.374201
vt 0.528965 0.359841
vt 0.532502 0.359306
vt 0.534021 0.365203
vt 0.363294 0.696553
vt 0.362058 0.700292
vt 0.362202 0.691087
vt 0.226705 0.857496
vt 0.228720 0.853287
vt 0.229199 0.860884
vt 0.605731 0.712413
vt 0.611780 0.716798
vt 0.604447 0.716127
vt 0.874323 0.397483
vt 0.877517 0.401454
vt 0.868653 0.404429
vt 0.627850 0.042441
vt 0.623128 0.041771
vt 0.027749 0.625415
vt 0.021050 0.625409
vt 0.026290 0.618748
vt 0.092552 0.508676
vt 0.097069 0.510233
vt 0.092454 0.515326
vt 0.543345 0.320135
vt 0.536932 0.313600
vt 0.541143 0.315125
vt 0.029423 0.593989
vt 0.030136 0.598612
vt 0.025117 0.595580
vt 0.074926 0.522729
vt 0.079675 0.525323
vt 0.076886 0.528337
vt 0.239414 0.489260
vt 0.236970 0.494645
vt 0.232099 0.492287
vt 0.104101 0.455993
vt 0.098909 0.459983
vt 0.099369 0.452903
vt 0.557479 0.286097
vt 0.560148 0.294295
vt 0.554311 0.292872
vt 0.497523 0.080567
vt 0.504472 0.077791
vt 0.504969 0.082928
vt 0.091892 0.443388
vt 0.089928 0.436392
vt 0.095130 0.439403
vt 0.170305 0.912483
vt 0.173215 0.915280
vt 0.168019 0.919451
vt 0.926812 0.373811
vt 0.928459 0.376288
vt 0.921825 0.376288
vt 0.676231 0.040454
vt 0.681280 0.034232
vt 0.681255 0.040247
vt 0.203495 0.349878
vt 0.203049 0.354401
vt 0.197459 0.351703
vt 0.066507 0.907703
vt 0.071595 0.910754
vt 0.068264 0.912030
vt 0.673621 0.062907
vt 0.668003 0.070405
vt 0.667313 0.062797
vt 0.441191 0.556928
vt 0.447983 0.566265
vt 0.439077 0.561941
vt 0.020346 0.432123
vt 0.016870 0.427321
vt 0.021876 0.425975
vt 0.188349 0.278209
vt 0.188482 0.273323
vt 0.193029 0.277396
vt 0.121492 0.878756
vt 0.123093 0.869790
vt 0.123498 0.877020
vt 0.694979 0.869790
vt 0.694450 0.878864
vt 0.693611 0.873803
vt 0.217966 0.857380
vt 0.219717 0.866320
vt 0.211755 0.862730
vt 0.254399 0.945953
vt 0.254399 0.954229
vt 0.253949 0.951083
vt 0.804109 0.045231
vt 0.800592 0.042833
vt 0.808181 0.037204
vt 0.192052 0.155705
vt 0.195412 0.155151
vt 0.036500 0.134051
vt 0.030959 0.127867
vt 0.034345 0.127744
vt 0.796560 0.398711
vt 0.791696 0.395026
vt 0.801134 0.395474
vt 0.656220 0.653058
vt 0.659342 0.648547
vt 0.658859 0.656196
vt 0.369254 0.377675
vt 0.373250 0.378494
vt 0.367058 0.382265
vt 0.744600 0.846938
vt 0.749557 0.843785
vt 0.750208 0.850663
vt 0.458557 0.096652
vt 0.460558 0.103530
vt 0.454415 0.102228
vt 0.051441 0.323832
vt 0.045349 0.317761
vt 0.049266 0.317379
vt 0.521426 0.785839
vt 0.525306 0.789952
vt 0.520321 0.791543
vt 0.552591 0.387255
vt 0.555784 0.381868
vt 0.935047 0.206381
vt 0.937948 0.201269
vt 0.943735 0.206381
vt 0.887969 0.731488
vt 0.893584 0.731488
vt 0.893965 0.736508
vt 0.610556 0.303738
vt 0.609957 0.308929
vt 0.659676 0.354491
vt 0.657259 0.361546
vt 0.654579 0.354317
vt 0.288579 0.177118
vt 0.289502 0.171528
vt 0.295326 0.174249
vt 0.043635 0.089608
vt 0.045517 0.083261
vt 0.047642 0.088701
vt 0.012201 0.632266
vt 0.013629 0.638998
vt 0.010822 0.636786
vt 0.125908 0.352544
vt 0.125227 0.349594
vt 0.131304 0.350326
vt 0.700817 0.794625
vt 0.696811 0.788277
vt 0.703681 0.786407
vt 0.684749 0.859768
vt 0.688160 0.857974
vt 0.684133 0.863514
vt 0.981788 0.010855
vt 0.984521 0.008476
vt 0.987079 0.010855
vt 0.618466 0.676950
vt 0.624810 0.682275
vt 0.616543 0.679670
vt 0.366565 0.283316
vt 0.363272 0.293980
vt 0.359415 0.285461
vt 0.626977 0.875574
vt 0.628518 0.869790
vt 0.634043 0.871410
vt 0.189993 0.061778
vt 0.193183 0.066183
vt 0.187960 0.065262
vt 0.568862 0.093050
vt 0.572627 0.099523
vt 0.566948 0.101288
vt 0.261854 0.314400
vt 0.256999 0.310261
vt 0.262601 0.307065
vt 0.251110 0.393283
vt 0.248559 0.389880
vt 0.251559 0.387932
vt 0.274663 0.312264
vt 0.266917 0.313411
vt 0.272723 0.306446
vt 0.189510 0.325543
vt 0.194442 0.318591
vt 0.195458 0.322665
vt 0.749242 0.035171
vt 0.755405 0.026589
vt 0.755788 0.031386
vt 0.194131 0.274981
vt 0.191606 0.270097
vt 0.397892 0.590106
vt 0.400753 0.585775
vt 0.400848 0.595575
vt 0.074693 0.230512
vt 0.078582 0.231977
vt 0.074170 0.234300
vt 0.870232 0.694884
vt 0.863575 0.694757
vt 0.866184 0.689772
vt 0.895831 0.794674
vt 0.900479 0.793168
vt 0.898003 0.797023
vt 0.280459 0.315180
vt 0.269546 0.319442
vt 0.625943 0.035897
vt 0.630235 0.038831
vt 0.894680 0.065185
vt 0.897280 0.068979
vt 0.887969 0.068100
vt 0.902765 0.687759
vt 0.897394 0.691725
vt 0.893734 0.685633
vt 0.436930 0.853063
vt 0.433293 0.851178
vt 0.438280 0.848446
vt 0.242248 0.653547
vt 0.243405 0.648357
vt 0.245166 0.651129
vt 0.239105 0.445321
vt 0.230227 0.443915
vt 0.239287 0.437686
vt 0.469293 0.783928
vt 0.466225 0.786386
vt 0.465356 0.781275
vt 0.194171 0.212532
vt 0.191121 0.212944
vt 0.190434 0.210054
vt 0.593786 0.200300
vt 0.599374 0.195754
vt 0.593918 0.204843
vt 0.327804 0.656018
vt 0.330491 0.662585
vt 0.324742 0.659801
vt 0.572264 0.913684
vt 0.573694 0.907704
vt 0.575244 0.913160
vt 0.201593 0.393326
vt 0.198005 0.390241
vt 0.200734 0.389155
vt 0.388856 0.175403
vt 0.385737 0.179506
vt 0.383729 0.172009
vt 0.229723 0.487466
vt 0.223931 0.482722
vt 0.230421 0.481456
vt 0.291159 0.460426
vt 0.293612 0.464047
vt 0.286883 0.468882
vt 0.211637 0.793560
vt 0.215953 0.791161
vt 0.220056 0.798128
vt 0.612493 0.945953
vt 0.612493 0.953771
vt 0.607011 0.952046
vt 0.498462 0.793706
vt 0.500846 0.797903
vt 0.497559 0.796974
vt 0.021544 0.442820
vt 0.022495 0.435279
vt 0.024228 0.443013
vt 0.047228 0.688821
vt 0.057857 0.685066
vt 0.052986 0.692945
vt 0.344257 0.041512
vt 0.343513 0.048613
vt 0.339793 0.042588
vt 0.353628 0.057656
vt 0.348857 0.062172
vt 0.347027 0.058529
vt 0.061054 0.480639
vt 0.053213 0.482612
vt 0.055196 0.476930
vt 0.229674 0.352794
vt 0.236322 0.359056
vt 0.229562 0.360089
vt 0.867730 0.244417
vt 0.867352 0.239559
vt 0.873866 0.242846
vt 0.354185 0.155274
vt 0.357867 0.158119
vt 0.352596 0.160969
vt 0.616124 0.685903
vt 0.365005 0.578926
vt 0.368582 0.574276
vt 0.367307 0.582369
vt 0.280428 0.733623
vt 0.287211 0.738885
vt 0.279815 0.741225
vt 0.758252 0.318019
vt 0.760536 0.312615
vt 0.767583 0.319430
vt 0.164795 0.821490
vt 0.169890 0.824941
vt 0.166393 0.826853
vt 0.372380 0.638926
vt 0.378798 0.635873
vt 0.375525 0.642282
vt 0.735228 0.063563
vt 0.739055 0.061800
vt 0.738033 0.069211
vt 0.538758 0.323883
vt 0.544587 0.324638
vt 0.542933 0.329154
vt 0.809402 0.101788
vt 0.805905 0.103567
vt 0.804713 0.098202
vt 0.045861 0.344909
vt 0.037059 0.343923
vt 0.043675 0.339684
vt 0.836683 0.064582
vt 0.840436 0.069371
vt 0.839765 0.072967
vt 0.870347 0.292438
vt 0.868319 0.289217
vt 0.873912 0.287695
vt 0.339259 0.158608
vt 0.341460 0.162144
vt 0.335561 0.163706
vt 0.969537 0.378387
vt 0.965390 0.375432
vt 0.971870 0.375432
vt 0.344906 0.118117
vt 0.346583 0.111315
vt 0.350450 0.119651
vt 0.286516 0.348409
vt 0.280811 0.351201
vt 0.278057 0.345799
vt 0.624685 0.507355
vt 0.622888 0.509965
vt 0.621908 0.503596
vt 0.263590 0.217825
vt 0.256548 0.221320
vt 0.252846 0.215981
vt 0.731460 0.621489
vt 0.729674 0.609703
vt 0.734340 0.615490
vt 0.723621 0.851961
vt 0.723805 0.841731
vt 0.726234 0.853396
vt 0.915400 0.701132
vt 0.907273 0.701455
vt 0.911759 0.698101
vt 0.045916 0.342220
vt 0.049705 0.345239
vt 0.202552 0.155067
vt 0.199904 0.148087
vt 0.205545 0.146550
vt 0.396882 0.219063
vt 0.396427 0.212167
vt 0.400937 0.217440
vt 0.573851 0.053698
vt 0.578695 0.049703
vt 0.579652 0.054495
vt 0.230286 0.539746
vt 0.232709 0.543104
vt 0.230661 0.544726
vt 0.608478 0.629290
vt 0.819706 0.024251
vt 0.819431 0.026568
vt 0.815083 0.026745
vt 0.620497 0.609661
vt 0.622342 0.614579
vt 0.618318 0.617329
vt 0.297676 0.564741
vt 0.292168 0.568410
vt 0.290100 0.562914
vt 0.853127 0.291882
vt 0.847270 0.297015
vt 0.846459 0.293173
vt 0.608269 0.843741
vt 0.605211 0.848338
vt 0.604556 0.841110
vt 0.414850 0.312709
vt 0.416204 0.306895
vt 0.418029 0.312275
vt 0.348001 0.262833
vt 0.347954 0.256994
vt 0.353258 0.260101
vt 0.421978 0.323966
vt 0.418298 0.326205
vt 0.415668 0.319295
vt 0.339968 0.382043
vt 0.336926 0.385873
vt 0.334164 0.381539
vt 0.660818 0.360419
vt 0.663771 0.361158
vt 0.659411 0.367191
vt 0.035535 0.435409
vt 0.031072 0.435154
vt 0.031143 0.431343
vt 0.034449 0.535454
vt 0.035251 0.541672
vt 0.031534 0.540964
vt 0.200447 0.142131
vt 0.375854 0.567460
vt 0.372174 0.574135
vt 0.367016 0.571488
vt 0.510049 0.077646
vt 0.748156 0.951643
vt 0.744510 0.952178
vt 0.745483 0.945953
vt 0.084844 0.576990
vt 0.083462 0.585971
vt 0.079718 0.582106
vt 0.051863 0.472059
vt 0.059192 0.469633
vt 0.058454 0.476216
vt 0.498686 0.022289
vt 0.504364 0.023145
vt 0.499993 0.026993
vt 0.331378 0.592896
vt 0.336901 0.592170
vt 0.335522 0.597943
vt 0.267215 0.165517
vt 0.263374 0.171233
vt 0.263668 0.162668
vt 0.070077 0.570286
vt 0.077592 0.572881
vt 0.073234 0.575629
vt 0.379744 0.642877
vt 0.040386 0.081371
vt 0.812563 0.927092
vt 0.815127 0.930918
vt 0.811977 0.931608
vt 0.180797 0.073666
vt 0.183537 0.074199
vt 0.183875 0.079797
vt 0.709878 0.300348
vt 0.707490 0.306882
vt 0.293254 0.533313
vt 0.294221 0.526048
vt 0.297675 0.535984
vt 0.841175 0.665273
vt 0.844065 0.669613
vt 0.838194 0.669285
vt 0.347722 0.203099
vt 0.049323 0.674333
vt 0.052389 0.679111
vt 0.044957 0.679744
vt 0.052935 0.525950
vt 0.058608 0.522124
vt 0.056574 0.527148
vt 0.331272 0.479089
vt 0.328449 0.471971
vt 0.337120 0.475674
vt 0.020602 0.582269
vt 0.027703 0.586477
vt 0.026014 0.588273
vt 0.748443 0.183919
vt 0.753815 0.179892
vt 0.756777 0.183023
vt 0.839013 0.034081
vt 0.840963 0.033332
vt 0.845564 0.035884
vt 0.419135 0.146573
vt 0.415896 0.143953
vt 0.421425 0.141783
vt 0.263446 0.904774
vt 0.256894 0.905030
vt 0.257395 0.901079
vt 0.059512 0.253672
vt 0.054688 0.255157
vt 0.056027 0.250052
vt 0.196303 0.376024
vt 0.200294 0.379976
vt 0.194028 0.379909
vt 0.334036 0.435632
vt 0.329588 0.435469
vt 0.330854 0.426268
vt 0.608431 0.877612
vt 0.602901 0.877841
vt 0.602766 0.873080
vt 0.612251 0.395948
vt 0.620520 0.398880
vt 0.617849 0.400470
vt 0.513026 0.872736
vt 0.515365 0.869790
vt 0.518468 0.872879
vt 0.057659 0.432679
vt 0.058195 0.440079
vt 0.054447 0.438085
s 1
usemtl Material.005
f 6/1/1 5/2/2 4/3/3
f 10/4/4 7/5/5 5/6/2
f 8/7/6 6/8/7 11/9/8
f 8/10/9 12/11/10 9/12/11
f 12/13/10 6/14/12 10/15/13
f 17/16/14 21/17/15 14/18/16
f 6/19/17 20/20/18 10/21/19
f 16/22/20 24/23/21 17/24/22
f 17/25/14 24/26/23 21/27/15
f 22/28/24 16/29/25 23/30/26
f 51/31/27 49/32/28 50/33/29
f 20/34/18 12/35/30 10/36/19
f 12/35/30 20/34/18 27/37/31
f 16/38/25 24/39/32 23/40/26
f 19/41/33 14/42/16 29/43/34
f 22/44/24 23/45/26 28/46/35
f 27/47/31 20/48/18 31/49/36
f 30/50/37 24/51/38 32/52/39
f 19/53/40 33/54/41 29/55/42
f 35/56/43 19/57/44 31/58/45
f 38/59/46 35/60/47 29/61/34
f 39/62/48 34/63/49 32/64/50
f 36/65/51 40/66/52 29/67/34
f 32/68/53 37/69/54 41/70/55
f 43/71/56 42/72/57 39/73/48
f 34/74/49 42/75/57 44/76/58
f 43/77/56 46/78/59 42/79/57
f 52/80/60 50/81/61 51/82/62
f 45/83/63 49/84/64 46/85/59
f 49/86/65 47/87/66 45/88/67
f 56/89/68 55/90/69 58/91/70
f 3/92/71 114/93/72 116/94/73
f 58/95/74 56/96/75 64/97/76
f 63/98/77 56/99/78 60/100/79
f 61/101/80 63/102/81 68/103/82
f 69/104/83 1/105/84 4/106/85
f 63/107/81 72/108/86 68/109/82
f 68/110/82 73/111/87 61/112/80
f 71/113/88 60/114/89 67/115/90
f 1/116/84 2/117/91 4/118/85
f 66/119/92 61/120/80 73/121/87
f 65/122/93 66/123/92 77/124/94
f 75/125/95 73/126/87 68/127/82
f 69/128/96 81/129/97 76/130/98
f 79/131/99 83/132/100 62/133/101
f 67/134/102 83/135/103 62/136/104
f 80/137/105 71/138/106 64/139/107
f 75/140/95 78/141/108 86/142/109
f 69/143/83 4/144/85 81/145/110
f 67/146/90 83/147/100 85/148/111
f 71/149/106 80/150/105 87/151/112
f 84/152/113 89/153/114 77/154/94
f 87/155/115 74/156/116 80/157/117
f 74/158/118 80/159/119 96/160/120
f 11/161/121 4/162/3 92/163/122
f 87/164/123 85/165/111 97/166/124
f 80/167/125 95/168/126 94/169/127
f 98/170/128 87/171/123 97/166/124
f 97/172/124 84/173/113 99/174/129
f 90/175/130 99/176/129 84/177/113
f 102/178/131 11/179/132 92/180/133
f 11/181/121 6/182/1 4/183/3
f 102/184/131 13/185/134 11/186/132
f 91/187/135 103/188/136 100/189/137
f 116/190/138 3/92/139 118/191/140
f 97/192/124 105/193/141 98/194/128
f 106/195/142 92/196/122 96/197/120
f 105/198/141 90/199/130 101/200/143
f 104/201/144 98/202/128 105/203/141
f 106/204/142 96/205/120 104/206/144
f 93/207/145 19/208/33 107/209/146
f 11/210/147 106/211/142 108/212/148
f 109/213/149 105/214/141 101/215/143
f 100/216/137 111/217/150 101/218/143
f 108/219/148 20/220/18 11/221/147
f 100/222/137 113/223/151 111/224/152
f 20/225/18 108/226/148 31/227/36
f 114/228/153 103/229/154 107/230/155
f 112/231/156 110/232/157 113/233/151
f 19/234/158 35/235/159 33/236/160
f 107/237/155 33/238/161 116/239/162
f 114/240/163 33/241/164 116/242/165
f 117/243/166 115/244/167 31/245/168
f 115/246/169 35/247/170 117/248/171
f 33/249/172 3/250/173 116/251/174
f 23/252/175 28/253/176 30/254/177
f 71/255/178 87/256/179 85/257/180
f 15/258/181 18/259/182 22/260/183
f 115/261/169 107/262/184 35/263/170
f 29/264/34 40/66/52 38/265/46
f 42/266/185 48/267/186 46/268/187
f 44/269/188 36/270/51 34/271/189
f 80/272/190 74/273/118 64/274/191
f 39/275/48 42/276/57 34/277/49
f 81/278/192 74/279/118 92/280/122
f 36/281/51 29/282/34 21/283/15
f 27/284/31 38/285/46 37/286/54
f 32/287/193 26/288/194 24/289/23
f 84/290/113 97/172/124 89/291/114
f 7/292/5 88/293/195 5/294/2
f 86/295/109 101/296/143 90/297/130
f 26/298/194 21/299/15 24/26/23
f 50/300/196 46/301/197 49/302/198
f 10/303/4 17/304/14 14/305/16
f 48/306/199 49/307/200 46/308/201
f 105/309/141 97/310/124 99/311/129
f 6/312/12 12/313/10 8/314/9
f 107/315/155 116/316/162 114/317/153
f 28/318/35 25/319/202 22/320/24
f 77/321/94 89/322/114 79/323/99
f 80/324/203 64/325/204 87/326/205
f 61/327/80 57/328/206 60/329/89
f 92/330/122 106/331/142 11/332/147
f 44/333/188 34/334/207 41/335/55
f 73/336/87 84/337/113 66/338/92
f 81/339/97 4/340/3 5/341/2
f 70/342/208 74/343/118 76/344/98
f 88/345/195 81/346/97 5/347/2
f 113/348/151 115/349/169 112/350/156
f 66/351/92 84/352/113 77/353/94
f 117/354/171 35/247/170 31/355/209
f 15/356/210 16/357/25 22/358/24
f 34/359/207 32/360/53 41/361/55
f 113/362/151 103/363/136 115/364/169
f 107/365/184 115/366/169 103/367/136
f 82/368/211 81/369/97 88/345/195
f 118/370/140 114/371/212 116/190/138
f 18/372/182 25/373/213 22/374/183
f 31/375/45 19/376/44 33/377/214
f 34/378/189 36/379/51 26/380/194
f 12/381/215 17/382/216 16/383/217
f 93/384/145 103/385/136 91/386/135
f 33/387/218 19/388/219 107/389/220
f 31/390/221 35/391/222 29/392/223
f 87/393/224 80/394/125 94/395/127
f 107/396/184 19/397/225 35/398/170
f 70/399/208 63/400/81 64/401/191
f 109/402/149 111/403/152 110/404/157
f 75/405/95 72/406/86 78/407/108
f 107/408/146 103/409/136 93/410/145
f 91/411/135 100/412/137 86/413/109
f 64/414/226 63/415/227 56/416/228
f 100/417/229 109/418/230 111/419/231
f 26/420/194 32/421/193 34/422/189
f 115/423/169 117/424/232 112/425/156
f 89/426/114 85/427/111 83/428/100
f 93/429/145 88/430/195 7/431/5
f 93/432/145 82/433/211 88/434/195
f 106/435/142 110/436/157 112/437/156
f 69/438/96 76/439/98 74/440/118
f 81/441/192 69/442/96 74/443/118
f 76/444/98 78/445/108 72/446/86
f 71/447/233 87/326/205 64/325/204
f 71/448/88 64/449/234 60/450/89
f 11/451/147 20/452/18 6/453/17
f 37/454/54 32/455/53 24/456/235
f 67/457/90 85/458/111 71/459/88
f 67/460/90 60/461/89 62/462/101
f 86/463/109 100/464/137 101/465/143
f 90/466/130 105/467/141 99/468/129
f 12/469/30 27/470/31 17/471/236
f 31/472/36 35/473/47 38/474/46
f 61/475/80 59/476/237 57/477/206
f 27/478/31 24/479/235 17/480/236
f 76/481/98 72/482/86 70/483/208
f 21/484/15 26/485/194 36/486/51
f 76/487/98 82/488/211 78/489/108
f 82/490/211 76/491/98 81/492/97
f 24/493/238 23/494/175 30/495/177
f 10/496/4 5/497/2 6/498/1
f 15/499/239 12/500/240 9/501/241
f 16/502/242 12/503/240 15/504/239
f 29/505/34 14/506/16 21/507/15
f 38/508/46 27/509/31 31/472/36
f 38/510/46 40/511/52 37/512/54
f 68/513/82 72/514/86 75/515/95
f 73/516/87 90/517/130 84/518/113
f 19/519/33 7/520/5 14/521/16
f 96/522/120 80/159/119 87/155/123
f 46/523/59 43/524/56 45/525/63
f 92/526/122 74/527/118 96/528/120
f 90/529/130 73/530/87 75/531/95
f 31/532/45 33/533/214 35/534/243
f 66/535/92 59/536/237 61/537/80
f 9/538/241 12/539/244 16/540/245
f 60/541/89 63/542/81 61/543/80
f 16/544/245 15/545/239 9/546/241
f 19/547/33 93/548/145 7/549/5
f 50/550/196 48/551/199 46/552/197
f 112/553/156 117/554/232 31/555/36
f 110/556/157 104/557/144 109/558/149
f 37/512/54 40/511/52 36/559/51
f 63/560/246 60/561/89 64/562/234
f 101/218/143 111/217/150 109/563/149
f 83/564/100 79/565/99 89/566/114
f 96/567/120 87/568/123 98/569/128
f 112/570/156 108/571/148 106/572/142
f 103/573/136 113/574/151 100/575/137
f 74/576/118 70/577/208 64/578/191
f 17/579/14 10/580/4 12/581/247
f 104/582/144 96/583/120 98/584/128
f 57/585/206 62/462/101 60/461/89
f 50/586/196 49/307/200 48/306/199
f 65/587/93 77/588/94 79/589/99
f 44/590/188 41/591/55 36/592/51
f 81/593/192 92/163/122 4/594/3
f 75/595/95 86/596/109 90/597/130
f 62/598/101 57/599/206 59/600/237
f 72/108/86 63/107/81 70/601/208
f 97/602/124 85/603/111 89/604/114
f 110/605/157 106/606/142 104/607/144
f 78/608/108 82/609/211 91/610/135
f 109/611/149 104/612/144 105/613/141
f 59/614/237 66/615/92 65/616/93
f 59/617/237 65/618/93 62/619/101
f 86/620/109 78/621/108 91/622/135
f 29/623/248 35/624/249 33/625/250
f 37/626/54 36/627/51 41/628/55
f 113/629/151 110/630/157 111/631/152
f 91/632/135 82/633/211 93/634/145
f 62/635/101 65/636/93 79/637/99
f 10/638/4 14/639/16 7/640/5
f 27/641/31 37/642/54 24/643/235
f 31/644/36 108/645/148 112/646/156
l 52 53
l 54 55
