# Blender 4.4.3
# www.blender.org
mtllib 0.011.mtl
o Result.001
v 0.002251 -0.020206 0.011450
v 0.007606 -0.014720 0.005113
v 0.008275 0.029260 0.000019
v 0.004918 -0.012873 -0.000034
v 0.009942 0.003769 0.006968
v 0.018669 -0.016324 -0.001619
v 0.028452 -0.023199 -0.001157
v 0.022010 -0.004596 0.001156
v 0.037385 -0.025292 -0.000625
v 0.003177 -0.021994 -0.009791
v 0.031834 -0.013152 -0.000135
v 0.020732 0.009119 0.002463
v 0.032739 -0.000546 0.002738
v 0.050419 -0.030058 0.000030
v 0.042179 -0.016714 0.000831
v 0.010465 -0.001441 -0.006911
v 0.058502 -0.028914 0.001045
v 0.051170 -0.018609 0.001796
v 0.041978 -0.005621 0.000295
v 0.010630 0.014348 -0.001652
v 0.039028 0.006838 -0.000657
v 0.025441 0.001631 -0.006125
v 0.051780 -0.007363 0.001039
v 0.027034 0.008326 -0.003848
v 0.009758 0.006280 -0.007412
v 0.052122 0.001885 -0.000163
v 0.020012 0.022959 -0.000621
v 0.063183 -0.003233 0.000373
v 0.061206 0.006568 -0.000705
v 0.072689 -0.006186 -0.000279
v 0.071305 0.002943 -0.000558
v 0.082039 -0.011917 -0.001237
v 0.077712 0.004329 -0.001331
v 0.072888 0.012061 -0.001041
v 0.080586 0.011729 -0.001017
v 0.084273 0.015859 -0.001238
v -0.023711 -0.024314 0.016497
v -0.029803 -0.019693 0.010543
v -0.035428 -0.013224 0.005955
v -0.053748 -0.006409 0.004686
v -0.063157 -0.002354 -0.000067
v -0.025281 -0.017433 0.002686
v -0.043203 -0.013464 -0.003856
v -0.041597 0.000903 0.008074
v -0.051354 0.006210 0.003850
v -0.023660 -0.006211 0.007658
v -0.007193 -0.014983 0.004980
v -0.053766 -0.006552 -0.006512
v -0.031608 -0.015614 -0.005447
v -0.032493 0.008220 0.007588
v -0.015939 -0.013214 0.000929
v -0.014646 0.001925 0.009078
v -0.055345 0.003266 -0.005621
v -0.041249 0.011499 0.000409
v -0.005132 -0.001179 0.008356
v -0.021125 0.012327 0.005701
v -0.024554 -0.021333 -0.011140
v -0.043481 -0.004594 -0.007580
v -0.006481 0.009266 0.007359
v -0.005805 -0.014490 -0.005187
v -0.045527 0.004151 -0.007141
v -0.032151 -0.015619 -0.011463
v -0.029947 0.013339 -0.002051
v -0.023097 -0.005728 -0.007195
v -0.035597 0.003387 -0.007691
v -0.038736 0.009361 -0.005936
v -0.000712 0.014475 0.001769
v -0.021061 -0.024181 -0.016779
v -0.011518 0.015278 -0.001067
v 0.001085 -0.013055 -0.005805
v -0.011521 -0.002191 -0.007580
v -0.025015 0.007745 -0.007376
v -0.018587 0.009979 -0.006569
v -0.002173 -0.000670 -0.007525
v -0.002417 0.018482 -0.001321
v -0.010388 0.006651 -0.007500
v -0.000938 0.007428 -0.007291
v -0.000285 0.027623 0.000176
v 0.003326 0.011321 -0.005097
vn 0.0448 -0.9616 -0.2707
vn -0.2205 -0.9590 -0.1781
vn 0.2308 -0.9316 -0.2808
vn 0.2592 0.0638 0.9637
vn 0.0932 -0.3096 0.9463
vn 0.1605 -0.2388 0.9577
vn 0.2511 0.6991 -0.6694
vn 0.3224 0.7138 -0.6217
vn 0.2148 0.9589 -0.1853
vn -0.0293 -0.0151 0.9995
vn -0.1105 -0.0513 0.9926
vn -0.1426 0.0275 0.9894
vn 0.4670 -0.4400 -0.7670
vn -0.1067 -0.5744 -0.8116
vn -0.0109 0.2488 -0.9685
vn -0.1050 0.0105 -0.9944
vn -0.0076 0.0072 -0.9999
vn 0.5487 -0.8292 -0.1064
vn -0.0351 0.0957 -0.9948
vn 0.0812 0.1613 -0.9836
vn 0.1926 0.0016 -0.9813
vn 0.0969 -0.2112 0.9726
vn 0.2662 -0.3588 0.8946
vn 0.1649 -0.2024 0.9653
vn 0.1571 0.1397 -0.9777
vn 0.2143 -0.2679 -0.9393
vn 0.2643 -0.3048 -0.9150
vn 0.1541 0.0525 0.9867
vn 0.3218 0.1770 0.9301
vn 0.8430 0.5378 -0.0077
vn -0.0511 -0.0471 0.9976
vn -0.0448 0.0276 0.9986
vn -0.2143 0.0321 0.9762
vn 0.0749 0.0924 0.9929
vn 0.0525 -0.0225 -0.9984
vn 0.1821 -0.0725 0.9806
vn -0.0113 0.0665 0.9977
vn 0.2336 -0.3237 -0.9169
vn 0.1699 0.2352 -0.9570
vn 0.2383 0.7247 -0.6466
vn -0.0134 -0.0153 0.9998
vn -0.0150 -0.0921 -0.9956
vn -0.0003 -0.0316 -0.9995
vn 0.0448 -0.0871 -0.9952
vn 0.1384 -0.0342 0.9898
vn -0.0406 -0.0730 0.9965
vn 0.1566 0.1665 0.9735
vn -0.2391 -0.1987 0.9504
vn -0.3946 0.8316 0.3907
vn -0.8713 -0.4720 0.1343
vn -0.9914 0.0693 0.1108
vn 0.1458 -0.0313 0.9888
vn 0.2377 -0.9713 0.0066
vn -0.2913 0.1769 -0.9401
vn -0.3196 -0.6398 0.6990
vn -0.3249 -0.5477 0.7710
vn -0.2211 -0.1016 0.9699
vn 0.4794 0.7518 0.4527
vn 0.4527 0.7487 0.4843
vn 0.4737 0.7371 0.4819
vn -0.5292 0.6529 0.5420
vn -0.2281 -0.6964 -0.6804
vn -0.3869 -0.7677 -0.5107
vn -0.1777 -0.9838 0.0221
vn 0.1979 -0.9494 0.2439
vn 0.1117 -0.2902 0.9504
vn -0.1472 0.4826 0.8634
vn 0.1124 0.8916 0.4387
vn 0.1157 0.8176 0.5641
vn 0.0621 0.9079 0.4146
vn 0.1025 -0.9310 0.3502
vn 0.0490 -0.1940 0.9798
vn 0.0248 -0.0921 0.9954
vn -0.0014 -0.7212 0.6927
vn -0.1092 0.7231 0.6820
vn -0.3937 0.3795 -0.8373
vn -0.2236 0.2966 -0.9285
vn -0.3417 -0.0012 -0.9398
vn 0.0670 0.4584 0.8862
vn -0.3037 0.9481 0.0945
vn -0.1000 0.9816 -0.1629
vn 0.0973 -0.7674 -0.6337
vn 0.1392 -0.9887 0.0559
vn -0.7394 0.6661 0.0980
vn -0.7641 0.6409 0.0733
vn -0.7719 0.6333 0.0567
vn -0.2679 0.6129 -0.7433
vn -0.0130 -0.7916 -0.6109
vn 0.0833 -0.0441 -0.9955
vn -0.0561 0.1381 -0.9888
vn 0.0215 0.5737 0.8188
vn 0.7634 0.6153 0.1965
vn 0.4839 0.5517 -0.6793
vn 0.0898 0.9847 -0.1495
vn -0.0092 -0.2107 0.9775
vn 0.1492 -0.3283 0.9327
vn 0.2625 -0.1742 0.9491
vn 0.1570 0.9859 -0.0578
vn -0.0068 0.3083 -0.9513
vn -0.7801 -0.4069 0.4753
vn -0.7450 -0.4462 0.4959
vn -0.7514 -0.3776 0.5412
vn 0.0128 -0.0974 -0.9952
vn 0.2163 -0.3437 -0.9138
vn -0.0119 -0.0675 -0.9976
vn -0.0255 0.2443 -0.9694
vn 0.1730 -0.8518 0.4945
vn 0.2095 -0.8329 0.5122
vn 0.1956 -0.8452 0.4974
vn 0.0952 0.4365 -0.8946
vn 0.1052 0.9933 -0.0478
vn -0.0091 0.1778 -0.9840
vn -0.0039 -0.0873 0.9962
vn -0.0439 -0.0106 0.9990
vn 0.0626 0.0943 0.9936
vn 0.0434 0.5298 -0.8470
vn 0.0480 -0.1861 0.9814
vn 0.0618 -0.1621 0.9848
vn 0.0321 -0.1766 0.9838
vn -0.3108 -0.9121 0.2673
vn -0.3578 -0.8729 0.3318
vn -0.2603 -0.9101 0.3224
vn -0.2829 -0.0211 0.9589
vn 0.3261 0.6148 0.7181
vn 0.1741 0.3730 -0.9113
vn -0.2601 0.3005 -0.9176
vn -0.0656 0.1403 -0.9879
vn 0.2024 -0.3717 0.9060
vn -0.1390 0.9797 -0.1445
vn 0.0097 -0.1711 -0.9852
vn -0.0592 -0.0835 -0.9947
vn 0.0552 -0.0798 -0.9953
vn 0.6634 0.6245 0.4123
vn 0.1354 -0.9346 -0.3289
vn 0.3943 -0.6981 -0.5977
vn -0.4848 -0.6626 -0.5709
vn 0.4089 0.0140 -0.9125
vn -0.9537 -0.2769 -0.1173
vn -0.0015 0.6707 -0.7418
vn 0.1873 0.0376 -0.9816
vn 0.0512 -0.1053 -0.9931
vn -0.0593 -0.1877 0.9804
vn 0.2812 0.4740 -0.8344
vn -0.4541 0.2777 -0.8466
vn -0.1781 -0.2403 0.9542
vn 0.0685 -0.1707 0.9829
vn 0.1092 -0.5687 -0.8152
vn -0.1524 -0.6972 0.7005
vn -0.3827 -0.2909 0.8769
vn 0.1278 -0.9265 -0.3539
vn -0.2543 -0.7971 0.5477
vt 0.926026 0.083716
vt 0.927708 0.086606
vt 0.921825 0.083286
vt 0.263590 0.217825
vt 0.263608 0.212341
vt 0.267027 0.210903
vt 0.758293 0.709309
vt 0.756713 0.704303
vt 0.762200 0.708583
vt 0.723621 0.851961
vt 0.722109 0.859023
vt 0.719802 0.852382
vt 0.287536 0.742702
vt 0.289821 0.739799
vt 0.290046 0.745834
vt 0.049537 0.059005
vt 0.045897 0.053102
vt 0.050333 0.050508
vt 0.428921 0.395198
vt 0.426677 0.385204
vt 0.429916 0.389753
vt 0.258132 0.116298
vt 0.262249 0.119438
vt 0.257552 0.122556
vt 0.399744 0.626153
vt 0.399289 0.634402
vt 0.394635 0.632394
vt 0.799508 0.098417
vt 0.796633 0.096356
vt 0.800618 0.090576
vt 0.387114 0.473945
vt 0.387355 0.467966
vt 0.393480 0.469983
vt 0.604668 0.487489
vt 0.612868 0.496362
vt 0.606292 0.498447
vt 0.609903 0.480262
vt 0.612338 0.487440
vt 0.048070 0.047468
vt 0.054392 0.048828
vt 0.501564 0.804922
vt 0.503671 0.809630
vt 0.500419 0.810900
vt 0.047336 0.360251
vt 0.041439 0.357753
vt 0.044471 0.356148
vt 0.200411 0.195505
vt 0.204575 0.191155
vt 0.201383 0.198348
vt 0.830361 0.748156
vt 0.833043 0.745865
vt 0.834838 0.748190
vt 0.070848 0.223589
vt 0.070284 0.228168
vt 0.065349 0.225832
vt 0.563481 0.943519
vt 0.563481 0.934320
vt 0.566214 0.940742
vt 0.839372 0.048943
vt 0.846411 0.049152
vt 0.848728 0.051810
vt 0.829542 0.697686
vt 0.827115 0.694906
vt 0.832518 0.694361
vt 0.647694 0.222949
vt 0.643257 0.220132
vt 0.643424 0.217762
vt 0.645510 0.225594
vt 0.963125 0.535082
vt 0.955926 0.535082
vt 0.957489 0.533459
vt 0.309767 0.965428
vt 0.309767 0.971515
vt 0.307600 0.967595
vt 0.224413 0.812683
vt 0.220508 0.813722
vt 0.222279 0.804448
vt 0.402171 0.302837
vt 0.404091 0.307157
vt 0.398095 0.307856
vt 0.185810 0.795212
vt 0.189554 0.795683
vt 0.189730 0.800295
vt 0.363242 0.555489
vt 0.367178 0.559825
vt 0.362803 0.561479
vt 0.368903 0.220433
vt 0.373230 0.212430
vt 0.376574 0.216429
vt 0.795670 0.805650
vt 0.798181 0.808139
vt 0.790086 0.810526
vt 0.250438 0.356172
vt 0.254027 0.350924
vt 0.256167 0.356359
vt 0.250179 0.351840
vt 0.892675 0.914649
vt 0.896629 0.912091
vt 0.896717 0.918704
vt 0.926691 0.577411
vt 0.927449 0.574200
vt 0.932401 0.575011
vt 0.342083 0.064154
vt 0.338721 0.068824
vt 0.332955 0.059290
vt 0.292602 0.544112
vt 0.286323 0.546127
vt 0.290313 0.539197
vt 0.288539 0.534550
vt 0.283258 0.534239
vt 0.716899 0.300766
vt 0.711181 0.305534
vt 0.709878 0.300348
vt 0.091233 0.602792
vt 0.093974 0.608282
vt 0.088550 0.600954
vt 0.525699 0.376184
vt 0.531655 0.376323
vt 0.531385 0.379591
vt 0.608478 0.629290
vt 0.604941 0.627088
vt 0.612485 0.625533
vt 0.042018 0.663628
vt 0.038203 0.664732
vt 0.037556 0.660866
vt 0.412399 0.062504
vt 0.414845 0.056292
vt 0.417676 0.063319
vt 0.553858 0.371049
vt 0.551307 0.363417
vt 0.555436 0.364176
vt 0.976962 0.120965
vt 0.979619 0.123912
vt 0.974084 0.123912
vt 0.349011 0.704543
vt 0.351842 0.710059
vt 0.348788 0.708410
vt 0.666799 0.940076
vt 0.658393 0.943179
vt 0.662158 0.935621
vt 0.897459 0.038898
vt 0.889753 0.038497
vt 0.892755 0.034640
vt 0.756889 0.698623
vt 0.752683 0.701509
vt 0.038736 0.593934
vt 0.037760 0.586849
vt 0.042289 0.590673
vt 0.093149 0.476096
vt 0.087372 0.469278
vt 0.093213 0.470797
vt 0.034449 0.535454
vt 0.031534 0.540964
vt 0.030628 0.536636
vt 0.881952 0.480483
vt 0.878426 0.484264
vt 0.875650 0.480857
vt 0.016758 0.538766
vt 0.017927 0.534384
vt 0.021888 0.539520
vt 0.700424 0.803449
vt 0.696382 0.807602
vt 0.694709 0.803398
vt 0.029644 0.484159
vt 0.029346 0.478525
vt 0.033608 0.480056
vt 0.123748 0.888593
vt 0.120785 0.886966
vt 0.123748 0.881713
vt 0.801411 0.058849
vt 0.800432 0.054334
vt 0.805531 0.058265
vt 0.454956 0.556745
vt 0.452929 0.550639
vt 0.459863 0.552749
vt 0.800507 0.777556
vt 0.806411 0.777523
vt 0.804920 0.782203
vt 0.796861 0.057799
vt 0.720529 0.959448
vt 0.719124 0.963084
vt 0.719124 0.956324
vt 0.172767 0.802868
vt 0.168403 0.805391
vt 0.171792 0.795067
vt 0.674977 0.734186
vt 0.670777 0.728299
vt 0.674694 0.729295
vt 0.918994 0.433178
vt 0.917051 0.439339
vt 0.914315 0.431779
vt 0.744600 0.846938
vt 0.749557 0.843785
vt 0.750208 0.850663
vt 0.606095 0.352226
vt 0.607493 0.356750
vt 0.601978 0.356292
vt 0.985211 0.513178
vt 0.981788 0.511747
vt 0.986926 0.511747
vt 0.229020 0.522291
vt 0.229047 0.516070
vt 0.234343 0.518441
vt 0.280459 0.315180
vt 0.274663 0.319743
vt 0.269546 0.319442
vt 0.288081 0.447845
vt 0.281659 0.448172
vt 0.288230 0.443739
vt 0.320894 0.790584
vt 0.313846 0.788015
vt 0.321092 0.787541
vt 0.054423 0.157193
vt 0.061016 0.153642
vt 0.058417 0.159063
vt 0.779842 0.007154
vt 0.779587 0.002066
vt 0.784544 0.001743
vt 0.313308 0.865950
vt 0.311135 0.859470
vt 0.313791 0.859185
vt 0.911034 0.480019
vt 0.915725 0.480068
vt 0.912129 0.483809
vt 0.097788 0.876916
vt 0.096747 0.880850
vt 0.096397 0.875102
vt 0.638161 0.612109
vt 0.634349 0.614632
vt 0.634024 0.608637
vt 0.806342 0.306731
vt 0.811519 0.307679
vt 0.810312 0.311306
vt 0.412893 0.979539
vt 0.408572 0.979539
vt 0.411976 0.973831
vt 0.613106 0.646471
vt 0.618098 0.642463
vt 0.619468 0.650894
vt 0.758262 0.843054
vt 0.763924 0.844148
vt 0.761424 0.851331
vt 0.494684 0.089196
vt 0.500439 0.084313
vt 0.506444 0.092033
vt 0.335561 0.163706
vt 0.332715 0.156704
vt 0.339259 0.158608
vt 0.257531 0.613445
vt 0.254304 0.617605
vt 0.254799 0.609591
vt 0.184299 0.359720
vt 0.184682 0.362473
vt 0.178453 0.359863
vt 0.499444 0.165234
vt 0.501410 0.169768
vt 0.493902 0.171722
vt 0.049018 0.562679
vt 0.043046 0.566854
vt 0.045826 0.562291
vt 0.794553 0.047757
vt 0.576548 0.151594
vt 0.573199 0.154177
vt 0.573538 0.148584
vt 0.095536 0.449480
vt 0.099666 0.447085
vt 0.099369 0.452903
vt 0.403205 0.571429
vt 0.397048 0.569593
vt 0.403470 0.566069
vt 0.364320 0.101383
vt 0.353846 0.100570
vt 0.355168 0.096448
vt 0.663136 0.732501
vt 0.655893 0.726800
vt 0.663682 0.726346
vt 0.068363 0.632633
vt 0.061459 0.633797
vt 0.062859 0.628269
vt 0.277890 0.159449
vt 0.273845 0.155203
vt 0.280393 0.152515
vt 0.061304 0.642711
vt 0.069094 0.640090
vt 0.067825 0.642915
vt 0.755981 0.711785
vt 0.752497 0.709018
vt 0.599653 0.655600
vt 0.603056 0.653029
vt 0.604389 0.659015
vt 0.192175 0.343272
vt 0.188633 0.339369
vt 0.193986 0.336321
vt 0.235543 0.167542
vt 0.234861 0.172469
vt 0.231825 0.167619
vt 0.906639 0.665038
vt 0.908643 0.660189
vt 0.912173 0.662067
vt 0.811210 0.993028
vt 0.808823 0.990304
vt 0.811210 0.988822
vt 0.868653 0.404429
vt 0.877517 0.401454
vt 0.876748 0.408034
vt 0.256548 0.221320
vt 0.252846 0.215981
vt 0.059711 0.274512
vt 0.061578 0.276905
vt 0.056664 0.277137
vt 0.040581 0.496143
vt 0.042139 0.500477
vt 0.037070 0.502217
vt 0.756436 0.009046
vt 0.760604 0.011084
vt 0.752963 0.014981
vt 0.357788 0.172640
vt 0.358403 0.168218
vt 0.364252 0.169432
vt 0.065308 0.270867
vt 0.069710 0.276628
vt 0.066312 0.276197
vt 0.693447 0.344659
vt 0.696539 0.350244
vt 0.691485 0.350937
vt 0.630445 0.896313
vt 0.626210 0.898290
vt 0.626210 0.895573
vt 0.328449 0.471971
vt 0.333044 0.468163
vt 0.337120 0.475674
vt 0.085020 0.473098
vt 0.788443 0.108558
vt 0.791869 0.107705
vt 0.787919 0.112345
vt 0.191136 0.199467
vt 0.193808 0.199080
vt 0.195929 0.201391
vt 0.353052 0.274924
vt 0.349600 0.277957
vt 0.348574 0.274246
vt 0.454666 0.125558
vt 0.453873 0.119598
vt 0.457100 0.120042
vt 0.891051 0.721834
vt 0.894512 0.716587
vt 0.897373 0.724159
vt 0.083898 0.454002
vt 0.088136 0.450942
vt 0.087865 0.455388
vt 0.249642 0.332043
vt 0.253720 0.325333
vt 0.254473 0.330344
vt 0.546955 0.319567
vt 0.551012 0.319574
vt 0.548899 0.322980
vt 0.044175 0.434966
vt 0.047501 0.432069
vt 0.048696 0.437479
vt 0.040347 0.437133
vt 0.044368 0.442405
vt 0.037038 0.441190
vt 0.856716 0.500712
vt 0.852566 0.501634
vt 0.851845 0.497824
vt 0.091415 0.533114
vt 0.089374 0.529531
vt 0.094661 0.530050
vt 0.946061 0.077836
vt 0.953789 0.077836
vt 0.950808 0.081355
vt 0.835582 0.057940
vt 0.842477 0.060546
vt 0.837762 0.061372
vt 0.757533 0.015369
vt 0.017028 0.965429
vt 0.019463 0.965962
vt 0.019212 0.969131
vt 0.184093 0.376156
vt 0.190806 0.376548
vt 0.186989 0.379140
vt 0.283158 0.927061
vt 0.281076 0.931650
vt 0.280644 0.925908
vt 0.737790 0.036329
vt 0.737443 0.043150
vt 0.733258 0.037263
vt 0.132737 0.946017
vt 0.132421 0.949992
vt 0.126881 0.945953
vt 0.366049 0.538615
vt 0.369693 0.545512
vt 0.366985 0.544594
vt 0.339685 0.222704
vt 0.333405 0.222387
vt 0.335666 0.216845
vt 0.293067 0.735125
vt 0.287211 0.738885
vt 0.611979 0.614137
vt 0.606144 0.616388
vt 0.609605 0.610898
vt 0.852586 0.318467
vt 0.846832 0.322442
vt 0.846646 0.314507
vt 0.919372 0.984588
vt 0.916210 0.986373
vt 0.916210 0.981852
s 1
usemtl Material.005
f 4/1/1 6/2/2 2/3/3
f 5/4/4 6/5/5 8/6/6
f 6/7/7 70/8/8 4/9/9
f 7/10/10 9/11/11 11/12/12
f 4/13/13 8/14/14 6/15/15
f 31/16/16 34/17/17 33/18/18
f 14/19/19 9/20/20 15/21/21
f 19/22/22 13/23/23 11/24/24
f 15/25/21 18/26/25 14/27/19
f 8/28/14 22/29/26 11/30/27
f 13/31/28 19/32/29 21/33/30
f 18/34/31 19/35/32 15/36/33
f 18/34/31 23/37/34 19/38/32
f 33/18/18 35/39/35 31/40/36
f 19/41/32 23/42/34 26/43/37
f 16/44/38 25/45/39 22/46/26
f 24/47/40 22/48/26 25/49/39
f 28/50/41 26/51/37 23/52/34
f 26/53/42 19/54/43 21/55/44
f 28/56/45 30/57/46 31/58/47
f 31/59/47 29/60/48 28/61/45
f 31/62/47 34/63/49 29/64/48
f 30/65/50 33/66/51 31/67/52
f 32/68/53 33/66/51 30/65/50
f 32/69/53 31/70/54 33/71/51
f 40/72/55 43/73/56 44/74/57
f 38/75/58 42/76/59 39/77/60
f 44/78/57 45/79/61 40/80/55
f 40/81/55 48/82/62 43/83/63
f 49/84/64 39/85/65 43/86/63
f 44/87/57 46/88/66 50/89/67
f 4/90/68 47/91/69 1/92/70
f 51/93/71 55/94/72 52/95/73
f 47/96/74 55/94/72 51/93/71
f 52/97/73 56/98/75 50/99/67
f 53/100/76 61/101/77 58/102/78
f 59/103/79 55/104/72 5/105/4
f 54/106/80 50/107/67 63/108/81
f 56/109/75 63/108/81 50/110/67
f 60/111/82 4/112/83 47/113/74
f 62/114/84 49/115/85 64/116/86
f 54/117/80 66/118/87 61/119/77
f 57/120/88 64/121/89 51/122/71
f 58/123/78 61/124/77 65/125/90
f 59/126/79 5/127/4 67/128/91
f 61/129/77 66/130/87 65/131/90
f 57/132/92 68/133/93 62/134/94
f 60/135/95 10/136/96 70/137/97
f 67/138/91 5/139/4 20/140/98
f 65/141/90 66/142/87 72/143/99
f 4/144/100 70/8/101 10/145/102
f 65/146/90 72/147/99 64/148/89
f 60/149/82 74/150/103 70/151/104
f 71/152/105 72/153/99 76/154/106
f 72/155/107 73/156/108 69/157/109
f 73/158/110 76/159/106 72/160/99
f 75/161/111 67/162/91 20/163/98
f 76/164/106 77/165/112 74/166/103
f 78/167/113 20/168/114 3/169/115
f 77/170/112 79/171/116 25/172/39
f 78/173/117 75/174/118 3/175/119
f 40/176/120 43/177/121 39/178/122
f 75/179/111 79/171/116 77/170/112
f 78/180/113 75/181/123 20/182/114
f 58/183/78 43/184/63 48/185/62
f 45/186/61 50/187/67 54/188/80
f 20/189/98 12/190/124 24/191/40
f 47/192/74 51/193/71 60/194/82
f 13/195/28 12/196/124 8/197/6
f 42/198/125 39/199/126 46/200/127
f 12/201/124 20/202/98 5/203/4
f 5/204/4 55/205/72 4/206/128
f 69/207/129 56/208/75 59/209/79
f 8/210/6 12/211/124 5/212/4
f 29/213/130 28/214/131 26/215/132
f 62/216/94 49/217/133 57/218/92
f 70/219/134 4/220/83 60/221/82
f 1/222/135 4/223/1 2/224/3
f 58/225/78 62/226/136 49/227/64
f 35/39/35 33/18/18 34/17/17
f 18/228/25 17/229/137 14/230/19
f 41/231/138 48/232/62 40/233/55
f 20/234/98 25/235/39 79/236/116
f 57/237/88 51/238/71 49/239/64
f 63/240/81 73/241/139 72/242/99
f 63/243/81 69/244/129 73/245/139
f 46/246/66 51/247/71 52/248/73
f 15/249/21 11/250/140 19/251/141
f 75/252/111 76/253/106 69/254/129
f 63/255/81 66/256/87 54/257/80
f 64/258/89 72/259/99 71/260/105
f 75/179/111 20/261/98 79/171/116
f 53/262/76 41/263/138 45/264/61
f 16/265/38 4/266/13 70/267/104
f 15/268/21 9/269/20 11/270/140
f 59/271/79 52/272/73 55/273/72
f 45/274/61 44/275/57 50/276/67
f 62/277/136 65/278/90 64/279/89
f 8/280/6 11/281/142 13/282/28
f 65/283/90 62/284/136 58/285/78
f 6/286/7 10/287/143 70/8/8
f 64/288/89 57/289/88 49/290/144
f 76/291/106 75/292/111 77/293/112
f 8/294/145 6/295/146 11/296/12
f 30/297/50 31/298/54 32/299/53
f 49/300/64 43/301/63 58/302/78
f 69/303/129 59/304/79 67/305/91
f 5/4/4 4/306/128 6/307/5
f 21/308/30 22/309/26 24/310/40
f 74/311/103 71/312/105 76/313/106
f 54/314/80 61/315/77 45/316/61
f 46/317/66 52/318/73 50/319/67
f 21/320/30 19/321/147 22/322/26
f 51/323/71 42/324/148 49/325/64
f 75/326/111 69/327/129 67/328/91
f 52/329/73 59/330/79 56/331/75
f 60/149/82 71/332/105 74/150/103
f 22/333/26 8/334/14 16/335/38
f 20/336/98 24/337/40 25/338/39
f 44/339/57 43/340/56 39/341/149
f 12/342/124 21/343/30 24/344/40
f 46/345/66 42/346/148 51/347/71
f 74/348/103 16/349/38 70/350/104
f 47/351/74 4/352/128 55/353/72
f 63/354/81 72/355/99 66/356/87
f 25/357/39 16/358/38 74/359/103
f 25/360/39 74/361/103 77/362/112
f 12/363/124 13/364/28 21/365/30
f 64/366/89 71/367/105 60/368/82
f 19/369/147 13/370/150 22/371/26
f 45/372/61 41/373/138 40/374/55
f 45/316/61 61/315/77 53/375/76
f 48/376/62 53/377/76 58/378/78
f 69/379/129 76/380/106 73/381/110
f 48/382/62 41/383/138 53/384/76
f 69/385/129 63/386/81 56/387/75
f 6/388/146 7/389/10 11/390/12
f 46/391/151 39/392/65 49/393/64
f 44/394/57 39/395/149 46/396/66
f 16/397/38 8/14/14 4/398/13
f 51/399/71 64/400/89 60/401/82
f 11/402/27 22/403/26 13/404/150
f 46/405/151 49/406/64 42/407/148
l 35 36
l 20 27
l 37 38
