# Blender 4.4.3
# www.blender.org
mtllib 0.013.mtl
o Result.001
v 0.002294 -0.019166 0.010453
v 0.008125 0.027821 -0.000007
v 0.010194 -0.014296 0.002126
v 0.008343 -0.001230 0.004084
v 0.019490 -0.017998 -0.002671
v 0.001052 -0.015364 -0.005020
v 0.036228 -0.024079 -0.000534
v 0.024430 -0.005700 -0.000169
v 0.001214 -0.024630 -0.010891
v 0.020143 0.009007 0.002418
v 0.037256 -0.012100 0.000324
v 0.051824 -0.029292 0.000298
v 0.034860 0.001960 0.000348
v 0.047916 -0.016313 0.001518
v 0.059814 -0.028815 0.001175
v 0.011180 0.004482 -0.007161
v 0.008593 0.014736 -0.000737
v 0.054118 -0.015001 0.002174
v 0.047469 -0.004326 0.000550
v 0.043723 0.006698 -0.001036
v 0.026315 0.006818 -0.004856
v 0.060596 -0.000485 0.000195
v 0.071198 -0.004637 -0.000076
v 0.081247 -0.011203 -0.001201
v 0.070586 0.006375 -0.000972
v 0.080570 0.012808 -0.001056
v -0.024350 -0.023879 0.015600
v -0.031345 -0.018036 0.008443
v -0.053739 -0.005943 0.004225
v -0.034686 -0.012811 0.003818
v -0.062830 -0.001484 -0.001297
v -0.042614 0.006260 0.006440
v -0.025220 -0.017257 -0.002106
v -0.022129 -0.003374 0.008380
v -0.052367 0.005130 -0.004254
v -0.045279 -0.009892 -0.006773
v -0.007910 -0.014385 0.003007
v -0.028370 0.010972 0.005727
v -0.010825 0.001799 0.009042
v -0.049779 -0.000377 -0.007434
v -0.030209 -0.015481 -0.010092
v -0.013607 0.012871 0.004510
v -0.039744 0.009147 -0.004751
v -0.013061 -0.012396 -0.006282
v -0.002122 0.010461 0.006112
v -0.021387 -0.023848 -0.015423
v -0.036332 0.001444 -0.007819
v -0.021081 0.000118 -0.007908
v -0.023907 0.011489 -0.005166
v -0.006644 -0.001119 -0.007547
v -0.024031 0.007022 -0.007849
v -0.005239 0.016754 -0.001133
v -0.011239 0.006599 -0.007630
v 0.000325 0.008045 -0.007111
v -0.002464 0.027651 0.000133
vn 0.3217 -0.4311 0.8430
vn 0.2366 -0.1374 0.9618
vn 0.1374 -0.6067 0.7830
vn -0.0163 -0.0922 0.9956
vn -0.1178 0.0652 0.9909
vn -0.1942 0.0106 0.9809
vn 0.0594 -0.0009 0.9982
vn 0.2662 -0.0718 -0.9612
vn 0.2185 0.1056 -0.9701
vn 0.2089 -0.2458 -0.9466
vn 0.4429 0.8839 0.1501
vn 0.2216 0.1493 -0.9636
vn -0.7789 0.6270 0.0127
vn -0.4271 -0.8939 -0.1360
vn -0.1145 0.0583 0.9917
vn 0.1492 -0.1614 -0.9756
vn -0.4708 -0.2583 -0.8436
vn 0.0041 0.0603 -0.9982
vn 0.0290 -0.2405 0.9702
vn 0.1045 -0.0124 -0.9944
vn 0.2618 0.7488 -0.6089
vn 0.5786 0.4300 -0.6930
vn 0.2652 0.6080 0.7483
vn -0.0575 0.4895 0.8701
vn -0.0574 0.2347 0.9704
vn -0.2354 0.5139 0.8249
vn 0.1190 0.0243 0.9926
vn -0.0526 -0.0011 0.9986
vn -0.0657 0.1620 0.9846
vn -0.9671 0.2533 -0.0240
vn -0.3870 0.5615 0.7313
vn -0.5500 0.7421 -0.3832
vn -0.0709 -0.1946 0.9783
vn -0.2085 0.7465 0.6319
vn 0.9813 -0.1857 -0.0506
vn -0.9591 -0.2824 0.0178
vn -0.1311 0.4247 -0.8958
vn -0.0150 0.9996 -0.0242
vn 0.0500 0.0325 0.9982
vn -0.1697 0.7585 0.6292
vn -0.2783 0.8522 -0.4431
vn -0.2512 0.7971 0.5490
vn -0.2929 0.8938 0.3395
vn -0.1713 0.9457 0.2762
vn -0.5631 -0.4997 -0.6582
vn 0.8558 -0.5055 -0.1094
vn 0.0229 -0.5894 -0.8075
vn -0.1872 -0.5601 -0.8070
vn -0.3013 -0.6176 -0.7265
vn -0.0728 0.1270 -0.9892
vn 0.1576 -0.8292 0.5362
vn 0.1271 -0.9661 -0.2249
vn -0.1735 -0.9846 -0.0210
vn 0.0338 0.0457 -0.9984
vn 0.1257 0.4285 0.8948
vn 0.2207 0.4233 0.8787
vn 0.1439 -0.1364 0.9801
vn 0.2429 0.5660 -0.7878
vn 0.2270 0.5190 -0.8241
vn 0.2900 0.5471 -0.7852
vn -0.0246 0.2449 -0.9692
vn 0.7552 0.3021 -0.5817
vn 0.7327 0.3633 -0.5755
vn 0.7501 0.3474 -0.5628
vn 0.0146 -0.1119 -0.9936
vn 0.0960 -0.0524 -0.9940
vn 0.0786 0.9866 -0.1427
vn 0.0412 -0.1827 -0.9823
vn 0.0863 0.1794 -0.9800
vn 0.0422 0.2380 -0.9704
vn 0.9112 -0.4072 0.0618
vn 0.8920 -0.4509 0.0308
vn 0.8938 -0.4468 0.0398
vn 0.0149 0.0636 -0.9979
vn 0.0166 0.0600 -0.9981
vn 0.0242 0.1216 -0.9923
vn 0.0761 0.3946 -0.9157
vn 0.1671 0.6572 -0.7350
vn -0.2252 -0.0665 0.9720
vn -0.2209 0.2522 -0.9421
vn 0.1074 0.0730 -0.9915
vn 0.0029 0.1510 -0.9885
vn -0.1581 0.0484 -0.9862
vn -0.1083 0.8312 -0.5454
vn -0.2386 -0.2836 0.9288
vn 0.2454 0.3139 0.9172
vn -0.1481 -0.1630 0.9755
vn 0.0568 0.1230 0.9908
vn 0.0793 0.1201 -0.9896
vn -0.1490 -0.7540 0.6398
vn -0.0192 0.3418 -0.9396
vn -0.1421 -0.4715 0.8704
vn -0.1943 -0.4404 0.8765
vn -0.1875 -0.4870 0.8530
vn 0.1186 -0.7933 0.5972
vn 0.5203 0.8520 0.0579
vn 0.5799 0.7197 0.3818
vn 0.6357 0.7696 0.0595
vn -0.0788 0.1232 0.9892
vn -0.5223 -0.5435 0.6571
vn -0.3880 -0.6913 0.6095
vn -0.5127 -0.6849 0.5178
vn 0.0775 -0.9317 0.3547
vn 0.4892 -0.6077 0.6257
vn -0.3314 -0.9397 0.0843
vn -0.0956 -0.9332 0.3465
vn -0.0006 -0.8975 0.4410
vn 0.2834 -0.3989 -0.8721
vn 0.0753 0.2831 0.9561
vn 0.1026 0.1470 -0.9838
vt 0.242357 0.198468
vt 0.249628 0.201576
vt 0.242132 0.203204
vt 0.570649 0.447484
vt 0.571650 0.450544
vt 0.568853 0.455725
vt 0.573259 0.519534
vt 0.577309 0.509010
vt 0.577819 0.522369
vt 0.322082 0.856407
vt 0.319231 0.853687
vt 0.326148 0.853388
vt 0.639170 0.631049
vt 0.642854 0.630602
vt 0.641717 0.634207
vt 0.691073 0.848802
vt 0.688844 0.851860
vt 0.685300 0.849547
vt 0.624685 0.507355
vt 0.630009 0.510868
vt 0.627696 0.515420
vt 0.869273 0.758178
vt 0.864726 0.757638
vt 0.872815 0.754554
vt 0.613705 0.460899
vt 0.618386 0.462721
vt 0.613816 0.466686
vt 0.866812 0.291420
vt 0.870347 0.292438
vt 0.866177 0.294912
vt 0.200411 0.195505
vt 0.204575 0.191155
vt 0.201383 0.198348
vt 0.374596 0.794882
vt 0.376711 0.796946
vt 0.371722 0.798201
vt 0.452690 0.875111
vt 0.448929 0.876969
vt 0.449991 0.872137
vt 0.839724 0.457355
vt 0.839679 0.454047
vt 0.848372 0.457355
vt 0.567697 0.405569
vt 0.568055 0.400900
vt 0.572933 0.404813
vt 0.389805 0.208278
vt 0.394700 0.207886
vt 0.389688 0.210753
vt 0.420710 0.717854
vt 0.417964 0.713881
vt 0.421608 0.712415
vt 0.735517 0.139293
vt 0.733253 0.130991
vt 0.735642 0.132504
vt 0.329673 0.499945
vt 0.330317 0.495175
vt 0.334497 0.496097
vt 0.041709 0.854700
vt 0.047426 0.856409
vt 0.047698 0.860705
vt 0.927141 0.939347
vt 0.929940 0.934319
vt 0.929940 0.943290
vt 0.622025 0.228379
vt 0.617519 0.231360
vt 0.613744 0.223144
vt 0.609738 0.227972
vt 0.061357 0.653175
vt 0.064639 0.656860
vt 0.059461 0.657047
vt 0.872638 0.149322
vt 0.870117 0.154801
vt 0.864092 0.150802
vt 0.069721 0.592156
vt 0.072633 0.595610
vt 0.064981 0.596548
vt 0.418015 0.045234
vt 0.422355 0.049438
vt 0.414171 0.046158
vt 0.802198 0.828116
vt 0.793800 0.828775
vt 0.798991 0.825969
vt 0.014538 0.612020
vt 0.013437 0.605742
vt 0.016499 0.605631
vt 0.012088 0.598043
vt 0.070930 0.516086
vt 0.073046 0.512471
vt 0.076389 0.517187
vt 0.218731 0.474247
vt 0.215998 0.469238
vt 0.218845 0.468326
vt 0.078944 0.459693
vt 0.079549 0.464492
vt 0.074980 0.462582
vt 0.038134 0.526335
vt 0.041666 0.521065
vt 0.042782 0.526051
vt 0.074789 0.408715
vt 0.067845 0.411487
vt 0.067376 0.407366
vt 0.452929 0.550639
vt 0.444284 0.550449
vt 0.450351 0.545233
vt 0.180880 0.296695
vt 0.178220 0.299946
vt 0.175376 0.295464
vt 0.570764 0.584680
vt 0.572327 0.584859
vt 0.567194 0.593796
vt 0.391462 0.604421
vt 0.397286 0.610530
vt 0.393622 0.611778
vt 0.550695 0.395480
vt 0.556156 0.396111
vt 0.551592 0.399632
vt 0.732296 0.054088
vt 0.735421 0.057715
vt 0.730577 0.060277
vt 0.332443 0.956324
vt 0.334192 0.959381
vt 0.332443 0.963246
vt 0.607730 0.343883
vt 0.602815 0.346921
vt 0.603063 0.339122
vt 0.754241 0.877943
vt 0.756178 0.869790
vt 0.756178 0.878239
vt 0.704484 0.168728
vt 0.708640 0.168860
vt 0.701025 0.174558
vt 0.024803 0.687944
vt 0.021388 0.687375
vt 0.024087 0.683887
vt 0.390172 0.449764
vt 0.387827 0.445331
vt 0.392676 0.442342
vt 0.465961 0.526631
vt 0.467489 0.530026
vt 0.460414 0.526499
vt 0.570205 0.592672
vt 0.489551 0.038568
vt 0.484989 0.037283
vt 0.486118 0.031269
vt 0.377791 0.272054
vt 0.373170 0.277916
vt 0.375146 0.272874
vt 0.258024 0.205691
vt 0.248849 0.205366
vt 0.254506 0.202941
vt 0.416749 0.032426
vt 0.422007 0.032167
vt 0.420912 0.037588
vt 0.342593 0.068622
vt 0.347959 0.069561
vt 0.342757 0.076824
vt 0.019027 0.543498
vt 0.023119 0.547935
vt 0.018335 0.551172
vt 0.266948 0.381937
vt 0.261407 0.388668
vt 0.261630 0.378736
vt 0.106657 0.374018
vt 0.113603 0.375015
vt 0.106808 0.378947
vt 0.840233 0.939910
vt 0.837567 0.943353
vt 0.838134 0.939763
vt 0.226109 0.384485
vt 0.224653 0.388299
vt 0.221267 0.388297
vt 0.208920 0.801759
vt 0.211354 0.804070
vt 0.205255 0.808905
vt 0.030540 0.456493
vt 0.035009 0.459962
vt 0.029266 0.462677
vt 0.786801 0.626488
vt 0.787122 0.631481
vt 0.781624 0.630631
vt 0.467894 0.124362
vt 0.460797 0.126862
vt 0.463707 0.119226
vt 0.363790 0.391198
vt 0.364573 0.395237
vt 0.359003 0.395814
vt 0.063799 0.332526
vt 0.059080 0.330056
vt 0.064616 0.326808
vt 0.460032 0.890926
vt 0.464538 0.892570
vt 0.459849 0.895778
vt 0.478498 0.119989
vt 0.484308 0.123649
vt 0.486870 0.130951
vt 0.193644 0.285635
vt 0.194173 0.291129
vt 0.185193 0.289866
vt 0.827588 0.289006
vt 0.827115 0.281133
vt 0.829708 0.280985
vt 0.783460 0.762042
vt 0.786288 0.765054
vt 0.779587 0.767507
vt 0.694379 0.722487
vt 0.695902 0.718197
vt 0.695666 0.723711
vt 0.556373 0.324218
vt 0.554360 0.320282
vt 0.560203 0.318254
vt 0.415017 0.718887
vt 0.234134 0.326893
vt 0.232229 0.321702
vt 0.235726 0.321257
vt 0.195898 0.405848
vt 0.199676 0.401301
vt 0.202899 0.407028
vt 0.721583 0.669919
vt 0.724908 0.672960
vt 0.721507 0.673732
vt 0.181175 0.384444
vt 0.185085 0.385826
vt 0.183489 0.389344
vt 0.830839 0.981853
vt 0.830839 0.986402
vt 0.827622 0.983302
vt 0.710730 0.356584
vt 0.708324 0.353449
vt 0.711968 0.348875
vt 0.329036 0.788929
vt 0.330524 0.793064
vt 0.325459 0.790557
vt 0.065198 0.324102
vt 0.066746 0.319267
vt 0.068188 0.326428
vt 0.358834 0.078893
vt 0.354392 0.078597
vt 0.355471 0.073572
vt 0.203872 0.317425
vt 0.195458 0.322665
vt 0.197567 0.316366
vt 0.345331 0.214621
vt 0.348474 0.216825
vt 0.344423 0.220204
vt 0.084844 0.576990
vt 0.083462 0.585971
vt 0.079718 0.582106
vt 0.033753 0.454380
vt 0.037802 0.452969
vt 0.037742 0.457475
vt 0.273778 0.339430
vt 0.276541 0.333687
vt 0.284427 0.339068
vt 0.692511 0.310523
vt 0.694519 0.306165
vt 0.697613 0.310498
vt 0.049323 0.674333
vt 0.052389 0.679111
vt 0.044957 0.679744
vt 0.220598 0.306144
vt 0.218926 0.310092
vt 0.218693 0.304101
vt 0.893933 0.152386
vt 0.897219 0.148883
vt 0.904023 0.153198
vt 0.234602 0.927975
vt 0.230314 0.926609
vt 0.234602 0.921975
vt 0.657452 0.797230
vt 0.661673 0.790344
vt 0.661798 0.796930
vt 0.502030 0.687297
vt 0.499254 0.684797
vt 0.505801 0.684572
vt 0.561304 0.325903
vt 0.360697 0.146063
vt 0.354760 0.149964
vt 0.357235 0.143208
vt 0.101543 0.357603
vt 0.107326 0.362972
vt 0.101424 0.364757
s 1
usemtl Material.005
f 5/1/1 8/2/2 3/3/3
f 5/4/4 7/5/5 11/6/6
f 11/7/6 7/8/5 14/9/7
f 6/10/8 16/11/9 8/12/10
f 12/13/11 14/14/12 15/15/13
f 15/16/13 14/17/12 18/18/14
f 14/19/7 19/20/15 11/21/6
f 13/22/16 19/23/17 11/24/18
f 18/25/19 19/26/15 14/27/7
f 11/28/18 8/29/20 13/30/16
f 17/31/21 21/32/22 16/33/9
f 21/34/22 17/35/21 10/36/23
f 13/37/24 20/38/25 21/39/26
f 23/40/27 25/41/28 22/42/29
f 31/43/30 32/44/31 35/45/32
f 34/46/33 38/47/34 32/48/31
f 37/49/35 3/50/36 1/51/37
f 6/52/38 1/53/37 3/54/36
f 38/55/34 39/56/39 42/57/40
f 32/58/31 43/59/41 35/60/32
f 38/61/34 43/62/41 32/63/31
f 33/64/42 44/65/43 41/66/44
f 41/66/45 44/65/46 46/67/47
f 41/68/48 36/69/49 47/70/50
f 37/71/51 44/72/52 6/73/53
f 48/74/54 41/75/48 47/76/50
f 17/77/55 45/78/56 4/79/57
f 9/80/58 44/81/59 6/82/60
f 47/83/50 51/84/61 48/85/54
f 49/86/62 48/85/63 51/84/64
f 48/87/54 50/88/65 44/89/66
f 17/90/55 52/91/67 45/92/56
f 6/93/68 50/94/65 16/95/69
f 53/96/70 50/97/65 48/98/54
f 4/99/71 6/100/72 16/101/73
f 2/102/74 17/103/75 52/104/76
f 54/105/77 52/106/67 17/107/78
f 14/108/79 12/109/11 18/110/14
f 7/111/80 14/112/81 12/113/82
f 43/114/41 40/115/83 35/116/32
f 42/117/40 49/118/84 38/119/34
f 32/120/31 31/121/30 29/122/85
f 10/123/23 8/124/2 13/125/86
f 37/126/35 1/127/37 6/128/38
f 8/129/87 5/130/4 11/131/6
f 40/132/83 43/133/41 47/134/50
f 13/135/24 19/136/88 20/137/25
f 55/138/89 2/139/74 52/140/76
f 18/110/14 12/109/11 15/141/13
f 49/142/84 42/143/40 52/144/67
f 32/145/31 29/146/85 30/147/90
f 4/148/57 3/149/3 8/150/2
f 4/151/57 10/152/23 17/153/55
f 4/154/57 45/155/56 39/156/39
f 53/157/70 48/158/54 51/159/91
f 39/160/39 34/161/33 37/162/51
f 6/163/92 5/164/93 4/165/94
f 31/166/30 36/167/49 29/168/85
f 37/169/51 34/170/33 33/171/95
f 30/172/96 28/173/97 33/174/98
f 54/175/77 50/176/65 53/177/70
f 45/178/56 52/179/67 42/180/40
f 21/181/22 10/182/23 13/183/86
f 22/184/99 20/185/25 19/186/88
f 8/187/10 16/188/9 21/189/22
f 31/190/30 35/191/32 40/192/83
f 38/193/34 49/194/84 43/195/41
f 16/196/69 54/197/77 17/198/78
f 10/199/100 17/200/101 16/201/102
f 36/202/49 30/203/90 29/204/85
f 40/205/83 36/206/49 31/207/30
f 43/208/41 49/209/84 51/210/61
f 37/49/35 6/211/103 3/50/36
f 37/212/51 6/213/104 4/214/57
f 49/215/84 53/216/70 51/217/91
f 36/218/49 41/219/48 33/220/105
f 52/221/67 53/222/70 49/223/84
f 33/224/106 41/225/45 46/226/47
f 5/227/1 3/228/3 6/229/107
f 4/230/57 8/231/2 10/232/23
f 21/233/22 13/234/108 8/235/10
f 42/236/40 39/237/39 45/238/56
f 53/239/70 52/240/67 54/241/77
f 34/242/33 32/243/31 30/244/90
f 44/245/66 41/246/48 48/247/54
f 54/248/77 16/249/69 50/250/65
f 37/251/51 4/252/57 39/253/39
f 44/254/52 37/255/51 33/256/95
f 47/257/50 36/258/49 40/259/83
f 4/260/57 6/261/109 3/262/3
f 44/263/66 50/264/65 6/265/68
f 44/266/46 33/267/106 46/268/47
f 30/269/90 36/270/49 33/271/105
f 30/272/90 33/273/95 34/274/33
f 51/210/61 47/275/50 43/208/41
f 38/276/34 34/277/33 39/278/39
f 8/279/10 5/280/110 6/281/8
l 25 26
l 23 24
l 27 28
