# Blender 4.4.3
# www.blender.org
mtllib 0.015.mtl
o Result.001
v 0.002078 -0.018212 0.009377
v 0.007630 0.026136 -0.000004
v 0.011401 -0.013732 -0.000009
v 0.010202 0.005012 0.004568
v 0.025717 -0.020317 -0.001929
v 0.039799 -0.023674 -0.000144
v 0.001112 -0.020897 -0.008781
v 0.027536 -0.003107 -0.000229
v 0.054210 -0.028567 0.000729
v 0.041839 -0.010888 0.000676
v 0.021022 0.010174 -0.002350
v 0.042822 0.002709 -0.000058
v 0.052021 -0.014021 0.001777
v 0.004339 0.002318 -0.006822
v 0.062416 -0.028590 0.001315
v 0.057771 -0.000691 0.000128
v 0.070732 -0.003386 -0.000183
v 0.067431 0.007762 -0.000972
v 0.082494 -0.012476 -0.001239
v 0.077792 0.009257 -0.001083
v 0.083718 0.015569 -0.001207
v -0.024980 -0.023390 0.014596
v -0.032048 -0.015318 0.006215
v -0.054536 -0.005400 0.003071
v -0.062852 -0.000560 -0.002613
v -0.035149 -0.002713 0.005330
v -0.048343 0.006439 -0.002219
v -0.019310 -0.011644 0.001563
v -0.038859 -0.011722 -0.007093
v -0.006100 -0.013771 -0.001577
v -0.026435 0.011144 0.005361
v -0.025726 -0.020483 -0.010750
v -0.008836 0.008442 0.007492
v -0.044852 0.000975 -0.007732
v -0.033940 0.008964 -0.006008
v -0.026619 0.000169 -0.007835
v -0.019665 -0.024903 -0.016965
v -0.010083 0.014729 -0.001603
v -0.009659 -0.003041 -0.007291
v 0.000380 -0.008453 -0.005570
v 0.000548 0.015357 -0.001622
v -0.020300 0.006982 -0.007767
v -0.007028 0.005234 -0.007733
vn 0.0465 -0.0945 0.9944
vn 0.0796 -0.2241 0.9713
vn 0.0978 -0.2434 0.9650
vn 0.0589 0.0215 0.9980
vn -0.1120 0.0227 0.9935
vn -0.2960 -0.0498 0.9539
vn -0.0708 -0.0810 0.9942
vn -0.0292 0.1021 0.9943
vn -0.0574 0.0468 0.9973
vn -0.0004 0.0387 0.9993
vn 0.0229 -0.6308 -0.7756
vn -0.3399 -0.8740 0.3473
vn -0.8711 -0.1395 -0.4709
vn 0.8337 -0.5234 0.1760
vn 0.0918 0.3438 -0.9345
vn -0.1486 0.0017 -0.9889
vn -0.1702 -0.1750 -0.9697
vn -0.0976 0.1136 -0.9887
vn -0.0481 -0.1394 -0.9891
vn 0.0027 -0.1502 -0.9887
vn 0.0946 -0.0686 -0.9931
vn 0.1117 -0.1883 -0.9757
vn 0.0366 0.0036 -0.9993
vn -0.0079 -0.0535 -0.9985
vn -0.1062 -0.1066 -0.9886
vn -0.0866 0.0852 0.9926
vn -0.4980 0.8575 0.1292
vn -0.5065 -0.5614 0.6544
vn 0.0117 -0.8193 0.5732
vn -0.2865 -0.3420 -0.8949
vn -0.4518 -0.1874 -0.8722
vn -0.3485 -0.1520 -0.9249
vn -0.5025 -0.0902 -0.8599
vn -0.5209 0.8090 -0.2725
vn -0.3509 0.8417 -0.4104
vn -0.1144 0.7565 -0.6439
vn 0.0843 0.2798 0.9563
vn -0.0937 -0.8567 0.5072
vn -0.1085 -0.9940 -0.0142
vn 0.3724 0.4472 -0.8132
vn 0.0174 0.0312 0.9994
vn -0.4603 0.0859 -0.8836
vn -0.9543 0.0726 -0.2898
vn -0.0885 -0.2030 0.9752
vn -0.0650 -0.0879 -0.9940
vn -0.2095 0.1459 -0.9669
vn -0.1257 0.7180 -0.6847
vn 0.1327 0.8532 -0.5045
vn 0.0956 0.7924 -0.6025
vn 0.1927 0.6478 -0.7370
vn -0.0223 -0.3039 -0.9524
vn 0.0042 0.9881 -0.1541
vn -0.1897 -0.2455 -0.9507
vn 0.4728 -0.3563 -0.8059
vn -0.1717 0.6804 0.7125
vn 0.4519 0.8833 -0.1247
vn 0.0123 0.3039 -0.9526
vn 0.0719 0.3425 -0.9368
vn 0.0230 0.2330 -0.9722
vn -0.6439 -0.7558 0.1190
vn -0.3755 0.9132 -0.1587
vn 0.2297 0.6465 0.7275
vn 0.0349 0.6059 0.7948
vn 0.2577 0.5985 0.7585
vn 0.7472 0.4106 -0.5226
vn 0.3370 0.1753 -0.9251
vn 0.0246 0.1202 -0.9925
vn -0.0393 0.1574 -0.9868
vn 0.0266 0.1843 -0.9825
vn 0.0992 0.1237 -0.9874
vn 0.1867 -0.1244 -0.9745
vn -0.0517 0.0242 -0.9984
vn 0.3201 0.3838 0.8662
vn 0.4272 0.3844 0.8184
vn 0.3090 0.3661 0.8778
vn 0.0382 0.0657 -0.9971
vn -0.8451 -0.1409 0.5157
vn 0.3371 0.3096 -0.8891
vn 0.3195 0.2591 -0.9115
vn 0.3005 0.3130 -0.9010
vn 0.8874 0.0959 -0.4509
vn 0.7637 -0.0003 -0.6456
vn 0.1482 0.1169 -0.9820
vn -0.3993 0.9168 -0.0117
vn 0.0886 0.6533 -0.7519
vn -0.0368 -0.9323 -0.3599
vn 0.0871 -0.8098 -0.5803
vn 0.0761 -0.9152 -0.3958
vn -0.1505 0.0357 0.9880
vn -0.1074 0.0338 0.9936
vn -0.1259 0.0594 0.9903
vt 0.273677 0.191868
vt 0.275426 0.189263
vt 0.279029 0.189964
vt 0.663481 0.855000
vt 0.670068 0.850138
vt 0.667072 0.857939
vt 0.537182 0.214049
vt 0.536992 0.208793
vt 0.541380 0.210936
vt 0.610556 0.303738
vt 0.618013 0.302451
vt 0.611972 0.306832
vt 0.326705 0.843993
vt 0.322784 0.849721
vt 0.319892 0.844457
vt 0.126552 0.781159
vt 0.127133 0.788320
vt 0.121816 0.789879
vt 0.053923 0.372335
vt 0.061678 0.372093
vt 0.056741 0.378313
vt 0.514056 0.372202
vt 0.512640 0.373822
vt 0.511757 0.368746
vt 0.836194 0.154359
vt 0.832920 0.151879
vt 0.837380 0.150721
vt 0.050480 0.290385
vt 0.051368 0.296700
vt 0.047275 0.293303
vt 0.055252 0.126107
vt 0.053300 0.130789
vt 0.051608 0.126598
vt 0.662288 0.753669
vt 0.665275 0.757209
vt 0.660505 0.758429
vt 0.357296 0.606848
vt 0.361435 0.612786
vt 0.354628 0.611336
vt 0.470251 0.886281
vt 0.468665 0.882758
vt 0.468913 0.879263
vt 0.632130 0.177346
vt 0.629384 0.187049
vt 0.626486 0.181322
vt 0.291102 0.361231
vt 0.281222 0.365591
vt 0.284885 0.358940
vt 0.626399 0.688913
vt 0.630589 0.693396
vt 0.624817 0.694628
vt 0.288360 0.345439
vt 0.292582 0.340093
vt 0.292825 0.346299
vt 0.867979 0.913592
vt 0.863838 0.915984
vt 0.866374 0.910567
vt 0.249532 0.322301
vt 0.249132 0.314902
vt 0.254919 0.319462
vt 0.071082 0.625410
vt 0.068360 0.621319
vt 0.073442 0.619848
vt 0.043896 0.659393
vt 0.044884 0.655721
vt 0.047717 0.663424
vt 0.041221 0.652107
vt 0.037556 0.660866
vt 0.033394 0.654032
vt 0.276714 0.885910
vt 0.272999 0.888021
vt 0.276344 0.877160
vt 0.084503 0.543124
vt 0.085529 0.551663
vt 0.079728 0.547839
vt 0.237974 0.464155
vt 0.237175 0.467715
vt 0.232702 0.462919
vt 0.879339 0.191354
vt 0.876362 0.188602
vt 0.882333 0.187337
vt 0.488857 0.085863
vt 0.489940 0.094068
vt 0.484213 0.092704
vt 0.230241 0.468893
vt 0.232111 0.472395
vt 0.225291 0.475312
vt 0.187938 0.432013
vt 0.188459 0.438232
vt 0.184477 0.438554
vt 0.020713 0.512802
vt 0.015038 0.512166
vt 0.018406 0.507698
vt 0.054520 0.464341
vt 0.051863 0.472059
vt 0.048127 0.471694
vt 0.795852 0.581941
vt 0.793185 0.579843
vt 0.796671 0.577734
vt 0.334049 0.654233
vt 0.330491 0.662585
vt 0.327804 0.656018
vt 0.437368 0.585940
vt 0.428937 0.580585
vt 0.429463 0.576848
vt 0.104921 0.950674
vt 0.107715 0.954102
vt 0.103410 0.953050
vt 0.228118 0.577886
vt 0.228526 0.584552
vt 0.223913 0.579300
vt 0.451591 0.385210
vt 0.447523 0.391105
vt 0.448270 0.381177
vt 0.078081 0.584907
vt 0.072100 0.582458
vt 0.074219 0.578677
vt 0.198310 0.445923
vt 0.194826 0.435873
vt 0.201450 0.439125
vt 0.021888 0.539520
vt 0.017927 0.534384
vt 0.025081 0.535828
vt 0.966440 0.695834
vt 0.971772 0.698361
vt 0.965390 0.698361
vt 0.868046 0.187576
vt 0.874848 0.184836
vt 0.573521 0.873526
vt 0.570623 0.874187
vt 0.570627 0.869790
vt 0.287788 0.455051
vt 0.284313 0.461943
vt 0.284622 0.456833
vt 0.442014 0.311907
vt 0.445813 0.314994
vt 0.442265 0.316801
vt 0.324742 0.659801
vt 0.354989 0.121053
vt 0.355467 0.124445
vt 0.347516 0.128260
vt 0.751432 0.712777
vt 0.750030 0.704009
vt 0.752497 0.709018
vt 0.579114 0.400003
vt 0.577842 0.405787
vt 0.572933 0.404813
vt 0.806120 0.205014
vt 0.811483 0.205997
vt 0.807346 0.208984
vt 0.198274 0.342010
vt 0.200555 0.346686
vt 0.194853 0.348123
vt 0.837936 0.375933
vt 0.838480 0.373812
vt 0.842787 0.375945
vt 0.372899 0.900204
vt 0.375487 0.900470
vt 0.371507 0.904862
vt 0.023433 0.552017
vt 0.028906 0.553002
vt 0.024227 0.558564
vt 0.042716 0.470225
vt 0.049259 0.465534
vt 0.029266 0.462677
vt 0.035009 0.459962
vt 0.035123 0.463885
vt 0.300040 0.571668
vt 0.305303 0.573285
vt 0.298416 0.577347
vt 0.042502 0.475770
vt 0.045011 0.478700
vt 0.564505 0.872904
vt 0.690391 0.713713
vt 0.691152 0.709676
vt 0.693975 0.713187
vt 0.028254 0.507022
vt 0.025096 0.505298
vt 0.943518 0.649534
vt 0.937699 0.653107
vt 0.935047 0.649534
vt 0.384029 0.189162
vt 0.383170 0.194669
vt 0.378776 0.187578
vt 0.341085 0.257465
vt 0.343679 0.260196
vt 0.337905 0.262518
vt 0.606576 0.600880
vt 0.603102 0.595231
vt 0.609241 0.597043
s 1
usemtl Material.005
f 3/1/1 8/2/2 4/3/3
f 5/4/4 8/5/2 3/6/1
f 13/7/5 10/8/6 9/9/7
f 10/10/8 12/11/9 8/12/10
f 8/13/11 4/14/12 14/15/13
f 15/16/14 13/17/5 9/18/7
f 11/19/15 8/20/11 14/21/13
f 12/22/16 13/23/17 10/24/18
f 13/25/17 12/26/16 16/27/19
f 12/28/20 8/29/21 11/30/22
f 17/31/23 16/32/24 18/33/25
f 26/34/26 27/35/27 24/36/28
f 26/37/29 24/38/28 29/39/30
f 26/40/31 28/41/32 23/42/33
f 28/43/34 32/44/35 29/45/36
f 33/46/37 28/47/38 30/48/39
f 28/49/34 29/50/36 26/51/40
f 30/52/39 4/53/41 33/54/37
f 34/55/42 25/56/43 27/57/27
f 30/58/39 3/59/44 4/60/41
f 29/61/30 36/62/45 32/63/46
f 34/64/42 36/65/45 29/66/30
f 36/67/45 34/68/42 35/69/47
f 7/70/48 30/71/49 3/72/50
f 39/73/51 28/74/38 36/75/45
f 33/76/37 4/77/41 38/78/52
f 30/79/39 40/80/53 3/81/54
f 38/82/52 35/83/47 31/84/55
f 38/85/52 4/86/41 41/87/56
f 38/88/52 42/89/57 35/90/47
f 42/91/58 38/92/52 43/93/59
f 14/94/60 39/95/51 40/96/61
f 4/97/62 11/98/63 41/99/64
f 41/100/56 4/101/65 14/102/66
f 2/103/67 11/104/68 41/105/69
f 8/106/70 10/107/71 6/108/72
f 4/109/73 8/110/74 11/111/75
f 10/112/71 9/113/76 6/114/72
f 28/115/34 36/116/77 32/117/35
f 35/118/47 42/119/57 36/120/45
f 42/121/78 38/122/79 39/123/80
f 4/124/81 3/125/54 14/126/82
f 40/80/53 14/127/82 3/128/54
f 40/129/53 30/130/39 14/131/60
f 38/132/52 31/133/55 33/134/37
f 5/135/83 8/136/70 6/137/72
f 14/102/13 4/101/84 11/138/15
f 33/139/37 31/140/55 28/141/38
f 5/142/85 7/143/48 3/144/50
f 27/145/27 25/146/43 24/147/28
f 25/148/43 34/149/42 24/150/28
f 41/151/56 43/152/59 38/153/52
f 3/154/86 1/155/87 30/156/88
f 35/157/47 34/158/42 27/159/27
f 42/160/57 39/161/51 36/162/45
f 43/163/59 14/164/66 40/96/61
f 41/165/56 14/166/66 43/167/59
f 31/168/55 35/169/47 27/170/27
f 43/171/59 40/96/61 39/172/51
f 39/173/51 14/131/60 30/130/39
f 34/174/42 29/175/30 24/176/28
f 39/177/51 42/91/58 43/178/59
f 26/179/26 31/180/55 27/181/27
f 31/182/55 26/183/26 28/184/38
f 26/185/89 24/186/90 23/187/91
f 28/188/38 39/189/51 30/190/39
l 20 21
l 18 20
l 17 19
l 23 22
l 32 37
