# Blender 4.4.3
# www.blender.org
mtllib 0.017.mtl
o Result.001
v 0.001824 -0.017126 0.007978
v 0.007243 0.024908 0.000018
v 0.012347 -0.012809 -0.001089
v 0.011534 0.008191 0.001148
v 0.030782 -0.020911 -0.000964
v 0.000317 -0.021354 -0.009059
v 0.032391 -0.001954 -0.000657
v 0.046912 -0.024259 0.000549
v 0.058983 -0.029216 0.001084
v 0.048295 -0.007378 0.000992
v 0.045619 0.005998 -0.000618
v 0.021331 0.012475 -0.002704
v 0.064824 -0.000572 0.000072
v 0.076991 -0.007394 -0.000863
v 0.076116 0.010154 -0.001064
v 0.084616 0.015447 -0.001258
v -0.025625 -0.022861 0.013665
v -0.032672 -0.014115 0.005102
v -0.055007 -0.004627 0.001812
v -0.062078 0.000393 -0.003812
v -0.034529 0.004763 0.003846
v -0.015906 -0.010005 0.000698
v -0.033515 -0.015113 -0.007780
v -0.046392 0.006252 -0.004860
v -0.021703 -0.022630 -0.013089
v -0.020074 0.012431 0.000462
v -0.004860 0.015180 0.001088
v -0.004792 -0.008713 -0.005814
v -0.032814 0.007205 -0.007027
v -0.019101 0.002452 -0.007962
v -0.005599 0.014057 -0.002892
v -0.001481 0.001997 -0.007837
vn -0.2141 -0.4028 0.8899
vn 0.0440 -0.0517 0.9977
vn -0.1680 -0.4509 0.8766
vn -0.1146 0.0013 0.9934
vn 0.1012 0.1181 0.9878
vn 0.0450 0.0648 0.9969
vn -0.0714 0.1680 0.9832
vn -0.0327 0.0945 0.9950
vn -0.0433 -0.4523 0.8908
vn -0.1527 0.4555 0.8770
vn -0.9828 -0.0498 0.1778
vn 0.3130 -0.7764 0.5471
vn -0.1771 0.6827 0.7089
vn -0.1663 0.6272 0.7609
vn -0.2193 0.5536 0.8034
vn 0.2826 0.7780 0.5612
vn 0.1371 0.8605 0.4907
vn 0.1308 0.7299 0.6709
vn 0.0162 -0.7475 -0.6640
vn -0.0416 0.9438 0.3280
vn 0.0515 -0.0796 0.9955
vn -0.0089 -0.0453 0.9989
vn 0.0453 0.0629 -0.9970
vn 0.0536 0.0514 -0.9972
vn 0.0187 0.0631 -0.9978
vn -0.0468 -0.0108 0.9988
vn -0.1068 -0.9203 -0.3763
vn -0.1390 -0.9142 -0.3807
vn -0.1031 -0.9184 -0.3820
vn -0.9867 -0.0766 -0.1430
vn -0.0064 -0.2921 -0.9564
vn 0.2034 0.1889 -0.9607
vn 0.2089 -0.4051 0.8901
vn 0.3189 -0.5010 0.8046
vn 0.2341 -0.4148 0.8793
vn 0.2762 0.3520 -0.8943
vn 0.3110 0.3941 -0.8648
vn 0.3747 0.3446 -0.8607
vn -0.3183 -0.0270 -0.9476
vn -0.2108 -0.3951 -0.8941
vn -0.0612 0.1022 -0.9929
vn 0.1185 0.1838 -0.9758
vn 0.2009 -0.2857 -0.9370
vn 0.4229 -0.1021 -0.9004
vn 0.3602 0.0025 -0.9329
vn -0.6401 0.2947 0.7096
vn -0.6813 0.2756 0.6781
vn -0.6396 0.2530 0.7258
vn 0.1565 0.7627 -0.6276
vn 0.3098 0.4360 -0.8449
vn -0.2331 -0.2894 -0.9284
vn -0.1523 -0.0544 -0.9868
vn -0.0961 -0.0699 -0.9929
vn 0.0795 0.1548 0.9847
vn 0.1851 0.1067 0.9769
vn 0.0822 0.0746 0.9938
vn 0.1296 -0.0275 -0.9912
vn 0.1071 -0.0056 -0.9942
vn 0.2647 -0.0286 -0.9639
vn 0.3109 0.1296 0.9416
vn 0.3501 0.1611 0.9228
vn 0.2899 0.1580 0.9439
vn 0.4055 -0.7651 0.5003
vn -0.4335 0.7034 0.5633
vn -0.0114 0.0906 -0.9958
vn 0.2349 -0.0386 -0.9713
vn 0.2009 0.0014 -0.9796
vn 0.2494 0.0115 -0.9683
vn 0.1518 0.9884 0.0051
vn -0.0015 0.0640 0.9979
vn 0.2223 0.9181 -0.3280
vn 0.5060 0.0898 -0.8578
vt 0.937901 0.398824
vt 0.939938 0.402173
vt 0.935047 0.402173
vt 0.699686 0.207115
vt 0.698141 0.213491
vt 0.695696 0.211410
vt 0.384603 0.453353
vt 0.389580 0.453589
vt 0.388008 0.457784
vt 0.354787 0.251046
vt 0.361867 0.247536
vt 0.361136 0.251523
vt 0.239148 0.411845
vt 0.244411 0.410474
vt 0.248600 0.416142
vt 0.863575 0.336075
vt 0.869459 0.335599
vt 0.866855 0.340587
vt 0.912676 0.329688
vt 0.910577 0.333818
vt 0.906639 0.329688
vt 0.626399 0.688913
vt 0.630589 0.693396
vt 0.624817 0.694628
vt 0.413179 0.186556
vt 0.417220 0.185809
vt 0.419475 0.191574
vt 0.265858 0.333268
vt 0.265704 0.326993
vt 0.271144 0.329749
vt 0.351466 0.089871
vt 0.343539 0.088814
vt 0.349226 0.085713
vt 0.345664 0.093296
vt 0.711153 0.288680
vt 0.708399 0.292791
vt 0.705984 0.287272
vt 0.573139 0.024448
vt 0.574238 0.028264
vt 0.568235 0.025763
vt 0.038515 0.667264
vt 0.043331 0.671953
vt 0.037645 0.676475
vt 0.316071 0.956324
vt 0.318999 0.958937
vt 0.316172 0.958790
vt 0.837695 0.210358
vt 0.839845 0.207843
vt 0.842949 0.209658
vt 0.020315 0.657787
vt 0.017984 0.649837
vt 0.025606 0.651867
vt 0.060021 0.508820
vt 0.056103 0.510859
vt 0.055319 0.506277
vt 0.887969 0.275881
vt 0.889900 0.270589
vt 0.893099 0.277895
vt 0.926812 0.373811
vt 0.928459 0.376288
vt 0.921825 0.376288
vt 0.199823 0.288330
vt 0.194173 0.291129
vt 0.193644 0.285635
vt 0.031424 0.347125
vt 0.036801 0.349719
vt 0.033821 0.353853
vt 0.137449 0.810217
vt 0.135368 0.816532
vt 0.135511 0.807530
vt 0.465332 0.348750
vt 0.469873 0.351717
vt 0.464215 0.352182
vt 0.668681 0.133419
vt 0.673407 0.134331
vt 0.667203 0.139622
vt 0.049060 0.712369
vt 0.049511 0.708453
vt 0.051960 0.709678
vt 0.069698 0.601224
vt 0.064981 0.596548
vt 0.072633 0.595610
vt 0.057430 0.610445
vt 0.061618 0.609661
vt 0.058041 0.614884
vt 0.691149 0.277002
vt 0.694777 0.272279
vt 0.697274 0.276358
vt 0.583279 0.374439
vt 0.578779 0.381150
vt 0.580212 0.371523
vt 0.850484 0.094755
vt 0.846173 0.096500
vt 0.847864 0.091839
vt 0.020130 0.568922
vt 0.015039 0.571661
vt 0.013944 0.567872
vt 0.423582 0.557612
vt 0.418452 0.551677
vt 0.419205 0.548048
vt 0.579138 0.025837
vt 0.192331 0.388154
vt 0.198005 0.390241
vt 0.191762 0.391855
vt 0.939296 0.625175
vt 0.935047 0.620586
vt 0.942896 0.620586
vt 0.949147 0.432293
vt 0.949549 0.434679
vt 0.946658 0.435423
vt 0.356500 0.590329
vt 0.363040 0.589975
vt 0.360370 0.595783
vt 0.035395 0.507618
vt 0.042674 0.505122
vt 0.040513 0.511765
vt 0.341727 0.095145
vt 0.337793 0.088553
vt 0.061935 0.526217
vt 0.065833 0.520664
vt 0.069377 0.523310
vt 0.917714 0.397745
vt 0.910312 0.398902
vt 0.916413 0.393471
vt 0.703571 0.819493
vt 0.703681 0.824268
vt 0.700513 0.819906
vt 0.046170 0.610287
vt 0.049881 0.611091
vt 0.050046 0.614671
vt 0.895000 0.269725
vt 0.893542 0.274161
s 1
usemtl Material.005
f 6/1/1 5/2/2 3/3/3
f 5/4/2 8/5/4 7/6/5
f 10/7/6 11/8/7 7/9/8
f 18/10/9 21/11/10 19/12/11
f 18/13/9 22/14/12 21/15/10
f 24/16/13 20/17/14 19/18/15
f 22/19/16 1/20/17 3/21/18
f 22/22/12 18/23/9 23/24/19
f 22/25/12 26/26/20 21/27/10
f 22/28/12 3/29/21 4/30/22
f 26/31/23 27/32/24 4/33/25
f 27/32/26 26/31/20 22/34/12
f 28/35/27 3/36/28 22/37/29
f 26/38/20 24/39/30 21/40/10
f 21/41/31 23/42/19 24/43/32
f 28/44/33 25/45/34 6/46/35
f 3/47/36 6/48/37 28/49/38
f 24/50/30 29/51/39 21/52/31
f 28/53/40 30/54/41 32/55/42
f 28/56/43 32/57/44 3/58/45
f 32/59/46 28/60/47 4/61/48
f 32/62/42 31/63/49 4/64/50
f 12/65/51 7/66/52 4/67/53
f 15/68/54 13/69/55 14/70/56
f 7/71/57 10/72/58 8/73/59
f 2/74/60 4/75/61 12/76/62
f 24/77/32 23/78/19 19/79/11
f 23/80/19 30/81/41 22/82/12
f 30/83/41 23/84/19 21/85/31
f 25/86/34 28/87/33 22/88/63
f 24/89/64 19/90/11 21/91/10
f 3/92/65 4/93/53 7/94/52
f 30/95/41 29/96/39 26/97/20
f 2/98/66 4/99/67 31/100/68
f 24/39/30 26/38/20 29/101/39
f 31/102/49 30/103/41 26/104/20
f 5/105/2 7/106/5 3/107/3
f 31/108/49 26/109/20 27/110/69
f 23/111/19 18/112/9 19/113/11
f 31/114/49 32/115/42 30/116/41
f 22/117/12 4/118/22 27/32/26
f 30/119/41 28/120/40 22/121/12
f 10/122/6 13/123/70 11/124/7
f 31/125/49 27/126/69 4/127/71
f 29/128/39 30/129/41 21/130/31
f 32/57/44 4/131/72 3/132/45
l 15 16
l 8 9
l 17 18
l 23 25
