# Blender 4.4.3
# www.blender.org
mtllib 0.019.mtl
o Result.001
v 0.001761 -0.016490 0.007049
v 0.007093 0.023533 0.000029
v 0.009060 -0.010797 -0.001706
v 0.028370 -0.020151 -0.001570
v 0.018949 0.007820 -0.000228
v 0.047335 -0.023442 0.000651
v 0.039487 -0.003532 0.000048
v 0.060622 -0.030432 0.000816
v 0.055091 -0.004648 0.000591
v 0.052584 0.006431 -0.000486
v 0.071578 -0.002833 -0.000376
v 0.074456 0.010913 -0.001024
v 0.085548 -0.014835 -0.001582
v 0.083546 0.014794 -0.001170
v -0.026427 -0.022171 0.012754
v -0.034345 -0.012860 0.003736
v -0.056118 -0.003313 0.000393
v -0.060466 0.002073 -0.004152
v -0.034818 0.007173 -0.000216
v -0.016459 -0.007859 -0.000816
v -0.027571 -0.019469 -0.011222
v -0.046829 0.002345 -0.007306
v -0.050347 0.007578 -0.004160
v -0.007536 0.012946 -0.001230
v -0.000312 -0.023482 -0.010424
v -0.022130 0.009769 -0.005911
v 0.003301 0.005927 -0.007839
vn 0.0297 0.0342 -0.9990
vn -0.0019 0.1047 -0.9945
vn 0.0207 0.0744 -0.9970
vn 0.0125 -0.0497 0.9987
vn -0.0514 0.0709 0.9962
vn -0.1681 -0.0476 0.9846
vn -0.0799 0.0508 0.9955
vn -0.1753 -0.3201 -0.9310
vn -0.1505 0.0097 -0.9886
vn -0.2142 -0.1478 -0.9655
vn 0.1429 0.7726 0.6186
vn 0.1244 0.7975 0.5903
vn 0.1790 0.8079 0.5614
vn -0.2133 0.9568 0.1974
vn 0.0455 0.0258 0.9986
vn 0.8534 0.5192 0.0452
vn 0.0273 -0.9973 -0.0686
vn -0.0016 -0.4296 0.9030
vn -0.3892 -0.9109 -0.1370
vn -0.9716 -0.0698 -0.2259
vn 0.1440 -0.3705 -0.9176
vn -0.3513 -0.4406 0.8261
vn -0.0338 0.5873 -0.8087
vn -0.1454 -0.1851 0.9719
vn -0.0797 -0.2613 0.9620
vn -0.0433 -0.3341 0.9416
vn -0.0764 0.0528 0.9957
vn -0.1842 0.0286 0.9825
vn -0.0872 -0.1442 0.9857
vn 0.0719 -0.2764 -0.9583
vn -0.2990 0.3012 -0.9055
vn -0.1150 0.0638 -0.9913
vn 0.4663 0.1684 -0.8684
vn -0.0352 -0.5175 0.8550
vn 0.1966 -0.7811 -0.5926
vn 0.9775 0.1340 0.1627
vn -0.1980 0.0863 0.9764
vn -0.2425 0.9668 -0.0805
vn -0.0466 0.2793 -0.9591
vn -0.9640 0.1997 -0.1753
vn -0.7280 -0.1308 0.6730
vn -0.0787 0.9838 0.1608
vn 0.1539 -0.8872 -0.4350
vn -0.0488 0.2078 -0.9769
vn 0.3876 0.2791 -0.8785
vn -0.3973 0.9086 0.1288
vn -0.4606 0.8802 0.1147
vn -0.4625 0.8733 0.1531
vn -0.0220 -0.0744 -0.9970
vn 0.3488 0.4149 -0.8404
vn 0.0342 0.1857 0.9820
vn -0.1204 0.0483 -0.9915
vn -0.6792 -0.7183 -0.1505
vn -0.6075 -0.0634 -0.7918
vn 0.0031 -0.5802 0.8144
vn 0.0434 0.0124 0.9990
vn 0.0759 -0.0000 0.9971
vn 0.0130 0.0237 0.9996
vn -0.0701 -0.0494 0.9963
vn -0.0361 -0.0709 0.9968
vn -0.0727 -0.0152 0.9972
vn -0.0093 -0.0527 0.9986
vt 0.645178 0.921975
vt 0.645178 0.931390
vt 0.640192 0.925259
vt 0.604668 0.487489
vt 0.609903 0.480262
vt 0.612338 0.487440
vt 0.716637 0.164748
vt 0.717118 0.160425
vt 0.721916 0.158908
vt 0.177571 0.986584
vt 0.173467 0.986584
vt 0.174539 0.981852
vt 0.332501 0.546597
vt 0.336185 0.539681
vt 0.337374 0.545047
vt 0.432791 0.172291
vt 0.428843 0.167069
vt 0.436615 0.169029
vt 0.927299 0.433058
vt 0.923574 0.434527
vt 0.921825 0.433058
vt 0.042289 0.590673
vt 0.048397 0.590507
vt 0.046391 0.596205
vt 0.038736 0.593934
vt 0.037760 0.586849
vt 0.043856 0.585441
vt 0.611324 0.746429
vt 0.609048 0.740935
vt 0.611280 0.738232
vt 0.038134 0.526335
vt 0.041666 0.521065
vt 0.042782 0.526051
vt 0.919613 0.091700
vt 0.917154 0.093677
vt 0.913781 0.090914
vt 0.035535 0.435409
vt 0.031951 0.440939
vt 0.031072 0.435154
vt 0.036538 0.431335
vt 0.031143 0.431343
vt 0.030060 0.427602
vt 0.893103 0.509018
vt 0.898297 0.513532
vt 0.892233 0.514372
vt 0.952395 0.973831
vt 0.957691 0.973831
vt 0.953332 0.979305
vt 0.541627 0.409488
vt 0.547436 0.406059
vt 0.546308 0.410793
vt 0.577745 0.107450
vt 0.571713 0.104944
vt 0.578227 0.099483
vt 0.071082 0.489653
vt 0.066721 0.488955
vt 0.074594 0.484318
vt 0.084765 0.671875
vt 0.076506 0.667709
vt 0.084120 0.667319
vt 0.031131 0.117066
vt 0.034926 0.115867
vt 0.037416 0.125342
vt 0.090466 0.619325
vt 0.083031 0.617032
vt 0.087198 0.615407
vt 0.257944 0.408514
vt 0.251541 0.407505
vt 0.253429 0.403723
vt 0.087581 0.660869
vt 0.084259 0.654062
vt 0.087103 0.655646
vt 0.097271 0.675180
vt 0.095350 0.668165
vt 0.098713 0.668586
vt 0.301129 0.493124
vt 0.296610 0.494543
vt 0.296207 0.491162
vt 0.078793 0.496445
vt 0.073691 0.490499
vt 0.077368 0.492451
vt 0.376508 0.241982
vt 0.382023 0.239606
vt 0.380569 0.245387
vt 0.355471 0.073572
vt 0.349724 0.078671
vt 0.349984 0.074657
vt 0.554693 0.909956
vt 0.558303 0.912936
vt 0.556339 0.913092
vt 0.911359 0.730446
vt 0.909779 0.736411
vt 0.906639 0.730372
vt 0.199823 0.288330
vt 0.198766 0.283411
vt 0.202614 0.287605
vt 0.330742 0.418495
vt 0.328844 0.423021
vt 0.324161 0.416153
vt 0.751293 0.024375
vt 0.750493 0.018922
vt 0.755298 0.020251
vt 0.060097 0.498764
vt 0.064021 0.498964
vt 0.060087 0.505749
vt 0.267215 0.165517
vt 0.263374 0.171233
vt 0.263668 0.162668
vt 0.536228 0.402574
vt 0.538393 0.394300
vt 0.541896 0.401094
s 1
usemtl Material.005
f 7/1/1 4/2/2 5/3/3
f 6/4/4 9/5/5 7/6/6
f 7/7/6 9/8/5 10/9/7
f 9/10/8 10/11/9 11/12/10
f 20/13/11 1/14/12 3/15/13
f 19/16/14 20/17/15 24/18/16
f 25/19/17 3/20/18 21/21/19
f 22/22/20 20/23/21 19/24/22
f 19/25/14 26/26/23 22/22/20
f 20/27/21 22/22/20 26/26/23
f 4/28/24 3/29/25 25/30/26
f 26/31/23 24/32/16 20/33/21
f 24/34/27 5/35/28 2/36/29
f 3/37/30 24/38/31 27/39/32
f 3/40/30 27/41/32 5/42/33
f 16/43/34 21/44/35 20/45/36
f 7/46/6 4/47/37 6/48/4
f 23/49/38 22/50/39 18/51/40
f 18/52/40 17/53/41 19/54/42
f 25/55/43 24/56/44 3/57/45
f 17/58/46 19/59/47 22/60/48
f 12/61/49 11/62/10 10/63/9
f 21/64/35 19/65/50 20/66/36
f 19/67/51 16/68/34 20/69/36
f 22/70/52 19/71/50 21/72/35
f 17/73/53 22/74/52 21/75/35
f 26/76/23 19/77/14 24/78/16
f 20/79/54 25/80/43 3/81/55
f 16/82/34 19/83/51 17/84/53
f 24/85/56 20/86/57 3/87/58
f 17/88/53 21/89/35 16/90/34
f 17/91/41 18/92/40 22/93/39
f 24/94/31 5/95/33 27/96/32
f 5/97/59 24/98/60 3/99/61
f 18/100/40 19/101/42 23/102/38
f 24/103/44 25/104/43 20/105/54
f 5/106/62 3/107/25 4/108/24
f 23/109/38 19/110/42 22/111/39
l 12 14
l 6 8
l 13 11
l 15 16
