# Blender 4.4.3
# www.blender.org
mtllib 0.021.mtl
o Result.001
v 0.001824 -0.016067 0.006177
v 0.006588 0.021270 -0.000003
v 0.010445 -0.006581 -0.001234
v 0.027470 -0.020236 -0.002169
v 0.048639 -0.023103 0.000760
v 0.035905 0.001322 -0.000179
v 0.061872 -0.031700 0.000557
v 0.057949 -0.002095 0.000327
v -0.000338 0.012360 -0.003084
v 0.073286 -0.002942 -0.000565
v 0.068901 0.010195 -0.000966
v 0.082213 0.013431 -0.001086
v -0.025878 -0.020493 0.010830
v -0.037130 -0.011540 0.002032
v -0.057303 -0.002318 -0.000382
v -0.033591 0.008102 -0.000514
v -0.015525 -0.006046 -0.002433
v -0.024847 -0.021330 -0.012802
v -0.010819 0.013397 -0.001890
v -0.001418 -0.022685 -0.009940
vn -0.0589 0.0221 0.9980
vn -0.0158 -0.1246 0.9921
vn 0.2994 0.2960 0.9070
vn -0.0808 0.0688 0.9943
vn -0.1215 0.0772 0.9896
vn -0.0322 0.0810 0.9962
vn 0.0985 0.1397 -0.9853
vn 0.2224 0.3433 -0.9125
vn 0.0031 0.0812 -0.9967
vn -0.0513 0.6780 0.7332
vn -0.0064 0.6712 0.7412
vn -0.0113 0.7025 0.7116
vn 0.3025 -0.5764 0.7591
vn 0.4452 -0.1893 0.8752
vn 0.3524 -0.6855 0.6371
vn -0.0417 -0.1365 -0.9898
vn -0.0888 -0.1019 -0.9908
vn 0.0842 -0.1253 -0.9885
vn -0.2106 -0.1030 -0.9721
vn 0.0930 -0.0624 0.9937
vn 0.0375 -0.0302 0.9988
vn 0.0046 -0.0091 0.9999
vn 0.1067 0.5108 -0.8531
vn -0.0608 0.6471 -0.7600
vn 0.1032 0.4230 -0.9002
vn 0.1207 -0.0807 0.9894
vn 0.0523 -0.2805 0.9584
vn 0.3151 0.0537 -0.9475
vn 0.3482 0.1224 -0.9294
vn 0.2781 0.0416 -0.9597
vn 0.0437 0.1016 0.9939
vn 0.0001 0.0810 0.9967
vn 0.1510 0.0455 0.9875
vn -0.0226 -0.6442 -0.7645
vn 0.0297 -0.6636 -0.7475
vn 0.0788 -0.5944 -0.8003
vn 0.0194 0.0713 0.9973
vn 0.0208 -0.6619 -0.7493
vn -0.0893 0.2414 0.9663
vn 0.3757 0.0859 0.9227
vn 0.0053 -0.0480 0.9988
vn -0.1030 -0.0410 0.9938
vt 0.606854 0.791736
vt 0.608901 0.795577
vt 0.605459 0.799385
vt 0.324378 0.713756
vt 0.318486 0.710306
vt 0.323449 0.706160
vt 0.842686 0.309712
vt 0.841950 0.315075
vt 0.835714 0.307725
vt 0.231871 0.380580
vt 0.232204 0.391320
vt 0.226109 0.384485
vt 0.717599 0.734728
vt 0.710769 0.733315
vt 0.713695 0.729326
vt 0.075265 0.663265
vt 0.079093 0.663957
vt 0.076506 0.667709
vt 0.079210 0.618385
vt 0.083413 0.611201
vt 0.083031 0.617032
vt 0.281914 0.476214
vt 0.281267 0.467286
vt 0.286883 0.468882
vt 0.791662 0.826249
vt 0.793800 0.828775
vt 0.786413 0.830648
vt 0.713921 0.401971
vt 0.711377 0.407542
vt 0.711286 0.402537
vt 0.952866 0.409631
vt 0.949389 0.404169
vt 0.953528 0.403979
vt 0.804109 0.045231
vt 0.800592 0.042833
vt 0.808181 0.037204
vt 0.392212 0.346632
vt 0.393091 0.351403
vt 0.389688 0.349251
vt 0.744600 0.846938
vt 0.749557 0.843785
vt 0.750208 0.850663
vt 0.232702 0.462919
vt 0.239527 0.459536
vt 0.237974 0.464155
vt 0.798991 0.825969
vt 0.327059 0.561742
vt 0.331780 0.552995
vt 0.334884 0.557938
vt 0.615641 0.487175
vt 0.614715 0.476747
vt 0.621568 0.483058
vt 0.427528 0.096698
vt 0.424809 0.099541
vt 0.422240 0.094069
vt 0.616478 0.540680
vt 0.617790 0.545586
vt 0.613865 0.547561
s 1
usemtl Material.005
f 6/1/1 2/2/2 3/3/3
f 6/4/4 9/5/5 3/6/6
f 4/7/7 3/8/8 6/9/9
f 17/10/10 14/11/11 13/12/12
f 18/13/13 17/14/14 14/15/15
f 16/16/16 14/17/17 15/18/18
f 16/19/16 17/20/19 14/21/17
f 16/22/20 17/23/21 19/24/22
f 3/25/8 18/26/23 17/27/24
f 3/28/8 4/29/7 20/30/25
f 9/31/26 2/32/27 19/33/22
f 3/34/28 9/35/29 2/36/30
f 10/37/31 11/38/32 8/39/33
f 1/40/34 17/41/35 3/42/36
f 9/43/26 19/44/22 3/45/37
f 20/46/25 18/26/23 3/25/8
f 17/47/35 1/48/34 13/49/38
f 5/50/39 8/51/40 6/52/41
f 19/53/22 17/54/21 3/55/37
f 5/56/39 6/57/41 4/58/42
l 5 7
l 11 12
